<?xml version="1.0" encoding="UTF-8" standalone="no"?>
<!-- Created with Inkscape (http://www.inkscape.org/) -->

<svg
   width="210mm"
   height="297mm"
   viewBox="0 0 210 297"
   version="1.1"
   id="svg5"
   xmlns="http://www.w3.org/2000/svg"
   xmlns:svg="http://www.w3.org/2000/svg">
  <defs
     id="defs2">
    <rect
       x="247.35936"
       y="584.40458"
       width="290.75574"
       height="43.39638"
       id="rect331" />
    <rect
       x="251.699"
       y="162.01315"
       width="305.2212"
       height="37.610196"
       id="rect167" />
  </defs>
  <g
     id="layer1">
    <path
       id="rect111"
       style="fill:none;stroke-width:0.194028"
       d="M 17.605669,37.507732 H 195.1933 V 168.01933 H 17.605669 Z" />
    <g
       aria-label="Robokavi"
       transform="matrix(0.373006 0 0 0.397661 -7.59597 -23.0117)"
       id="text165"
       style="font-size:24px;line-height:1.25;font-family:'Viner Hand ITC';-inkscape-font-specification:'Viner Hand ITC, Normal';font-variant-ligatures:none;letter-spacing:0px;word-spacing:0px;white-space:pre;shape-inside:url(#rect167);display:inline">
      <path
         d="m 259.55078,161.80883 0.59766,0.0469 -0.11719,0.38672 0.43359,0.21094 0.16407,-0.16407 0.11718,0.16407 0.69141,0.16406 0.22266,-0.21094 0.16406,0.26953 0.38672,0.16406 h 0.26953 l 0.16406,0.0937 0.16406,-0.14062 0.26953,0.14062 1.19532,0.21094 0.11718,0.082 q 0.42188,0 1.03125,-0.082 0.30469,0.17578 0.86719,0.29297 l 0.0703,0.26953 -0.11718,0.32813 0.22265,0.43359 -1.08984,1.37109 -0.375,0.14063 -1.46484,1.20703 -0.50391,0.32813 -1.59375,0.9375 -0.21094,0.22265 -0.21094,-0.1289 -0.55078,0.33984 -0.22265,0.43359 0.0703,0.76172 0.43359,1.73438 1.3711,2.01562 0.57422,0.66797 -0.14063,0.31641 0.48047,0.28125 0.30469,0.22265 q 0.0703,0.0469 0.17578,0.0586 l 0.28125,0.0351 0.43359,0.55078 h 0.26953 l 0.375,0.0937 v -0.14062 l 0.29297,0.0937 h 0.21094 l 0.38672,0.22266 0.48047,0.11718 0.72656,0.59766 h 0.14062 l 0.11719,0.43359 0.16406,0.0937 v 0.22266 l -0.66796,0.50391 -0.52735,0.0937 -0.33984,-0.0937 v -0.0586 l -0.64453,-0.16406 -0.82032,-0.38672 -0.55078,-0.48047 -0.36328,-0.1875 q -0.1875,-0.0937 -0.44531,-0.36328 h -0.33984 l -0.31641,-0.375 -0.25781,-0.0586 v -0.11719 l -0.45703,-0.16406 -0.14063,0.0703 q -0.43359,-0.375 -0.50391,-0.50391 l -0.48046,-0.0469 -0.0703,-0.38672 -0.26953,-0.21094 -0.55078,-0.0469 -0.26953,-0.33985 -0.32813,-0.11718 v -0.15235 h 0.50391 q -0.52734,-0.10547 -0.89062,-0.28125 l -0.14063,-0.3164 -0.17578,-0.0703 -0.0469,-0.36328 -0.38671,-0.375 0.43359,-0.77344 -0.16406,-0.16406 -0.48047,-0.0469 -0.11719,-0.4336 -0.38672,-0.22265 -0.0469,0.10547 -0.33985,0.11718 -0.0469,0.38672 -0.25781,0.21094 v 0.31641 l -0.17579,0.375 0.26954,0.33984 -0.17579,0.0469 q -0.082,0.63282 -0.25781,1.03125 l 0.0469,0.22266 -0.14063,0.16406 0.0469,0.33985 H 256 l 0.0703,0.52734 -0.17578,0.87891 v 0.86718 l -0.11719,0.17579 -0.0937,0.6914 -0.11718,0.55078 -0.0469,0.4336 -0.33984,0.59765 -0.0352,0.23438 q -0.0117,0.10547 -0.23437,0.41015 l 0.0586,0.082 -0.31641,0.73828 -0.24609,0.16406 -0.24609,0.52734 q -0.0586,0.12891 -0.17579,0.22266 l -0.3164,0.28125 v 0.17578 l -0.33985,0.0469 0.0469,0.28125 -0.14063,0.43359 -0.89062,0.65625 -0.59766,-0.10547 -0.16406,-0.16406 0.0703,-0.11719 h -0.11718 l 0.11718,-0.26953 -0.33984,-0.25781 0.0469,-0.50391 -0.14062,-0.0937 0.0937,-0.26953 q 0.0469,-0.11719 0.33984,-0.41016 l -0.0703,-0.14062 q 0.26953,-0.48047 0.76172,-0.82031 L 253,180.69946 h 0.28125 l -0.0469,0.16406 0.22266,-0.22265 v -0.25782 l 0.25781,-0.11718 v -0.31641 l 0.0937,-0.11719 0.0703,0.0469 v -0.52735 h 0.17578 l 0.0937,-0.29297 -0.16407,-0.25781 0.21094,-0.33984 0.11719,-0.86719 h 0.0937 v -0.16406 l 0.17578,-0.0937 -0.17578,-0.45703 0.24609,-0.31641 0.14063,-0.0469 -0.14063,-0.66797 0.0937,0.0703 0.11719,-0.45703 -0.0703,-0.14063 0.14062,-0.5625 q 0.0352,-0.11718 0.2461,-0.375 l -0.0937,-0.43359 h 0.14062 l -0.0937,-0.38672 h 0.0469 l 0.5039,-2.39062 0.31641,-0.22266 -0.0586,-0.33984 0.17578,-0.52735 -0.0469,-0.21094 0.0469,-0.33984 0.21093,-0.11719 -0.0469,-0.36328 0.14062,-0.16406 -0.0469,-0.43359 0.12891,-0.33985 -0.22266,-0.25781 0.26953,-0.16406 v -0.17578 l -0.38672,-0.21094 -0.0937,-0.26953 v -0.0703 l -0.17578,-0.0937 0.22266,-0.29296 -0.38672,0.0703 -0.26953,0.30469 q -0.16407,0.17578 -0.30469,0.26953 l -0.41016,0.24609 h -0.43359 l -0.11719,-0.28125 -0.26953,-0.10547 0.43359,-0.80859 0.50391,-0.33985 q 0.0469,-0.17578 0.15234,-0.3164 l 0.16407,-0.0703 q 0.0937,-0.14063 0.38672,-0.4336 l -0.26954,-0.375 0.15235,-0.32812 q 0.0703,-0.15235 0.11719,-0.70313 l -0.0937,-0.17578 0.14062,-0.16406 0.16406,-0.0469 0.0937,-0.1289 q 0.0234,-0.0469 0.63282,-0.39844 l 0.0469,-0.11719 q 0.52734,-0.28125 1.19531,-0.48047 l 0.26953,0.14063 0.28125,-0.0937 0.14063,0.0937 0.29297,-0.31641 h 0.3164 l 0.0703,-0.16406 z m 2.22656,2.32032 -0.38672,0.17578 v 0.25781 l -0.42187,0.17578 -1.64063,-0.0469 -0.5039,0.0937 -0.21094,0.28125 0.0469,0.48047 -0.52735,1.20703 -0.43359,0.11718 v 0.21094 l 0.26953,0.22266 -0.12891,0.38672 0.12891,0.0469 -0.38672,0.4336 v 0.28125 l -0.26953,0.52734 -0.11719,0.72656 0.4336,-0.1289 0.11718,-0.16407 0.16407,-0.0469 0.17578,-0.48047 0.24609,-0.082 q 0.10547,-0.0352 0.32813,-0.25781 l 0.38671,-0.0469 0.0703,-0.25781 0.52734,-0.2461 0.28125,0.29297 1.64063,-1.03125 0.43359,-0.22265 0.32812,-0.28125 0.21094,-0.0703 q 0.10547,-0.0351 0.26953,-0.19921 l 0.22266,0.0469 0.11719,-0.30469 0.52734,-0.29297 0.29297,-0.3164 0.21094,-0.15235 q 0.0937,-0.082 0.25781,-0.35156 0,-0.1289 -0.30469,-0.48047 l -2.08594,-0.16406 -0.26953,-0.16406 z"
         id="path350" />
      <path
         d="m 275.10156,167.60962 h 0.59766 l 0.38672,0.17578 q 0.14062,0.62109 0.45703,0.62109 0.11719,0 0.11719,-0.23437 0.36328,-0.26954 0.66796,-0.26954 0.1875,0 0.31641,0.12891 0.12891,0.12891 0.14063,0.25781 l 0.0937,1.33594 -0.0703,0.26953 q -0.082,0.26953 -0.11718,0.57422 -0.0352,0.30469 -0.11719,0.48047 -0.0703,0.17578 -0.10547,0.22266 l -0.94922,1.00781 0.11719,0.6914 -0.2461,0.41016 -0.11718,0.375 -0.73828,0.84375 -0.36329,0.91406 q -0.32812,0.36328 -0.9375,0.57422 l -0.16406,0.66797 -0.67969,0.43359 -0.59765,0.72657 -1.07813,0.80859 -0.3164,0.082 -1.21875,0.98438 -0.33985,-0.31641 q -0.39843,-0.30469 -0.5625,-0.52734 -0.15234,-0.21094 -0.15234,-0.38672 0,-0.0937 0.0703,-0.16406 l 0.11719,-1.00782 -0.50391,-0.82031 q -0.0703,-0.10547 -0.0703,-0.1875 0,-0.14062 0.14063,-0.31641 v -0.0469 l 0.19921,-0.1875 -0.22265,-0.58594 0.0703,-1.21875 v -0.3164 l 0.17578,-0.0937 q -0.1289,-0.23438 -0.1289,-0.55079 0,-0.17578 0.15234,-0.36328 h 0.21094 l -0.1875,-0.16406 0.14062,-0.25781 0.2461,-0.63281 0.35156,-0.4336 0.10547,-0.32812 0.35156,-0.48047 q 0.0469,-0.16406 0.0937,-0.29297 v 0.0234 q 0,-0.1875 0.082,-0.30469 0.0937,-0.11719 0.28125,-0.43359 l 0.57422,-0.29297 0.0469,-0.16407 q 0.58594,-0.46875 1.16016,-0.57421 l 0.78516,-0.15235 0.52734,-0.30469 0.38672,0.0234 z m -0.72656,2.09765 -0.0469,0.0937 q -0.21093,0 -0.30468,0.0117 -0.0937,0 -0.26953,0.15234 l -0.33985,-0.14062 -1.28906,0.71484 q -0.48047,0.26953 -0.82031,0.89063 -0.33985,0.60937 -0.33985,1.00781 0,0.24609 0.10547,0.43359 h 0.0469 q 0,0.26954 0.14062,0.98438 l -0.29297,0.45703 0.22266,0.32813 -0.11719,0.41015 q 0,0.082 0.0937,0.29297 0.0937,0.19922 0.082,0.30469 0,0.0937 0.19922,0.41015 l -0.0234,0.2461 q 0,0.64453 0.31641,0.64453 0.25781,0 0.69141,-0.36328 0.10547,-0.30469 0.41015,-0.32813 l 0.11719,-0.36328 q 0.19922,-0.0234 0.19922,-0.1875 v -0.082 q 0.0586,-0.0352 0.12891,-0.0703 0.0703,-0.0352 0.082,-0.0469 0.14062,-0.45703 0.55078,-1.03125 l 0.082,0.0469 -0.0352,-0.0937 0.36328,-0.41016 0.45704,-1.51172 0.0703,-0.14062 0.15234,-0.0469 0.0117,-0.26953 v -0.21094 q 0.0117,-0.0703 0.17578,-0.43359 l -0.72656,-0.57422 0.5625,-0.22265 -0.082,-0.64454 0.10547,-0.23437 -0.15235,0.0703 z"
         id="path352" />
      <path
         d="m 284.125,157.27368 0.375,0.11719 0.0469,0.21093 v 0.17578 l 0.10547,0.25782 -0.10547,0.11718 0.0469,0.31641 -0.21094,0.29297 v 0.30469 l -0.21094,0.0469 0.0469,0.45703 -0.31641,0.36328 -0.59765,1.53516 -0.38672,1.53516 -0.16406,0.48047 -0.0469,-0.11719 -0.12891,0.71484 -0.0469,-0.0469 0.10547,1.03125 -0.22266,0.3164 v 0.23438 l 0.11719,0.26953 -0.11719,0.0469 -0.0937,-0.0937 0.0469,0.30469 -0.0469,0.17578 -0.11719,0.23438 q -0.0469,0.0937 -0.17578,0.79687 l -0.0469,0.0469 0.33984,0.33984 -0.0469,0.25781 q -0.2461,0.0937 -0.45703,0.38672 h 0.21093 v 0.0703 h 0.2461 l 0.43359,0.14062 q 0.48047,-0.25781 0.80859,-0.25781 l 0.48047,0.0469 0.33985,-0.0469 0.0469,0.11719 0.38672,-0.0703 0.0469,0.11719 0.43359,-0.16406 0.32812,0.11719 -0.0469,0.0469 h 0.17578 l 0.52734,-0.32812 0.21094,0.0703 v -0.12891 h 0.67969 l 1.03125,0.26953 0.21094,0.29297 0.0469,-0.082 q 0.48047,0.10547 0.98438,0.33984 l 0.0469,0.11719 0.33985,0.26953 -0.33985,0.9375 -0.0937,0.14063 h -0.16406 l -0.0469,0.16406 v 0.50391 l -0.082,-0.11719 -0.0469,0.22266 -0.32813,0.16406 -0.10547,0.48047 -0.32812,0.28125 0.0703,0.10547 h -0.11719 l 0.0469,0.0469 -0.17578,0.11719 -0.0469,0.21094 q -0.32812,0.11718 -0.6914,0.9375 l -0.11719,-0.0703 0.0469,0.11719 -0.22265,0.0469 -0.0469,0.22265 -0.11718,-0.0469 -0.0469,0.21093 -0.31641,0.26954 v 0.11718 l -0.11718,0.21094 -0.16407,-0.0469 0.0703,0.0937 -0.33985,0.082 v 0.14062 l -0.43359,0.33985 0.0469,0.11718 -0.11718,0.14063 h -0.14063 l -0.0703,-0.0937 -0.0937,0.16406 h -0.12891 l 0.0703,0.15234 -0.16407,0.0703 -0.11718,0.30468 -0.0937,0.0703 v 0.10547 H 284.5 l -0.11719,0.21093 -0.0937,-0.0469 q -0.16406,0.41015 -0.38672,0.55078 v 0.0937 h -0.11718 l 0.0469,0.17578 -0.14062,-0.10547 -0.0703,0.15235 h -0.17578 l -0.0937,0.375 -0.16406,-0.0469 -0.10547,0.22266 q -0.43359,0.23437 -0.50391,0.32812 l 0.0586,0.15235 h -0.10547 v 0.11718 h -0.16406 q -0.23438,0.1875 -0.33985,0.21094 l -0.0469,-0.0469 -0.21094,0.22265 q -0.30469,0.19922 -0.48047,0.38672 l -0.29297,-0.0586 -0.73828,0.58593 v 0.11719 h -0.17578 q -0.45703,0.48047 -0.71484,0.59766 l -0.0469,0.11719 -0.11719,0.0469 -0.10546,0.26953 -0.11719,-0.0937 -0.25781,0.21094 -0.0469,-0.0703 -0.12891,0.38672 -0.21093,-0.31641 -0.4336,-0.0703 -0.21093,0.0703 -0.17579,-0.16406 0.22266,-0.38672 0.25781,-0.11719 0.2461,0.0703 0.35156,-0.43359 v -0.33984 l 0.17578,-0.16407 0.11719,-0.43359 0.26953,-0.26953 q 0.16406,-0.16406 0.22266,-0.28125 l 0.15234,-0.38672 0.22266,-0.14063 -0.17579,-0.11718 0.22266,-0.22266 -0.0469,-0.32812 q 0,-0.50391 0.21093,-0.91407 l -0.0469,-0.11718 0.38672,-0.38672 v -0.38672 l -0.11719,-0.31641 0.11719,-0.32812 0.16406,-1.20703 q -0.1875,-0.28125 -0.21094,-0.42188 l 0.21094,-0.26953 -0.0703,-0.29297 0.0703,-0.25781 -0.0703,-0.22266 -0.0469,-0.76172 0.0469,-1.37109 q 0.1875,-0.21094 0.22265,-0.48047 h 0.16407 v -0.25781 l 0.11718,-0.12891 -0.11718,-0.0469 0.11718,-0.11719 -0.0469,-0.0937 v -0.33984 l -0.0703,-0.0937 q 0.15234,-0.33985 0.38671,-0.66797 l -0.17578,-0.22266 0.0703,-0.16406 0.15234,-0.0937 0.0703,0.0469 0.0937,-0.22265 -0.25781,-0.16407 0.0469,-0.52734 0.16407,-0.21094 -0.11719,-0.33984 q 0.17578,-0.62109 0.28125,-0.77344 l -0.0703,-0.375 0.24609,-0.65625 -0.082,-0.32812 v -0.26953 l 0.082,-0.11719 -0.17578,-0.22266 0.0469,-0.46875 q 0.14063,-0.24609 0.26954,-0.72656 l -0.0937,-0.21094 -0.29297,-0.15234 -0.0469,-0.32813 -0.48047,0.0469 -0.21093,0.28125 q -0.17579,0.3164 -0.375,0.51562 -0.1875,0.19922 -0.35157,0.44532 h -0.0937 l -0.38672,0.17578 -0.59765,-0.10547 -0.21094,0.10547 -0.23437,-0.15235 q -0.10547,-0.0703 -0.44532,-0.55078 l 0.29297,0.0469 0.0469,-0.48047 1.41797,-1.14844 q 0.30468,-0.0703 0.38671,-0.11719 l 0.71485,-0.48047 0.21094,-0.0469 q 0.24609,-0.23438 0.26953,-0.38672 l 0.33984,-0.21094 0.42188,-0.5625 0.77343,-0.80859 0.36328,-0.0469 0.0703,-0.22265 h 0.21093 q 0.375,-0.19922 0.52735,-0.21094 z m 1.28906,13.07812 -0.0937,0.0469 -0.29297,-0.0469 -0.16406,0.0469 0.0703,0.0703 -0.16406,0.0469 -0.0469,0.0937 -0.0703,-0.14063 -0.0586,0.0937 -0.25781,-0.0937 -0.4336,0.14063 q -0.10547,-0.0937 -0.33984,-0.14063 -0.42188,0.24609 -0.55078,0.26953 -0.0352,0.22266 -0.25781,0.32813 l -0.0469,-0.0703 -0.12891,0.17579 -0.0469,-0.10547 -0.0469,0.0469 -0.21093,-0.21094 h -0.11719 l -0.0586,-0.11718 h -0.21094 q -0.10547,0.43359 -0.33985,0.80859 l 0.26954,0.50391 -0.26954,1.08984 0.17579,0.33984 q 0.0937,0.1875 0.0937,0.64454 l -0.0469,0.46875 0.0469,0.29296 -0.29297,0.21094 v 1.51172 h -0.0937 l 0.11718,0.77344 -0.0469,0.16406 0.0469,0.22266 0.26954,-0.11719 0.38671,-0.48047 0.50391,-0.33984 0.80859,-0.96094 0.10547,-0.16406 0.21094,-0.0703 q 0.24609,-0.35156 0.29297,-0.48046 l 0.16406,-0.10547 0.52735,-0.59766 0.0469,-0.23437 h 0.45703 l -0.0703,-0.31641 0.25781,-0.1875 0.12891,-0.36328 0.42187,-0.21094 0.50391,-0.86719 0.10547,-0.11718 v -0.10547 l 0.16406,-0.50391 -0.21094,-0.69141 q -0.75,-0.23437 -0.91406,-0.5039 z"
         id="path354" />
      <path
         d="m 297.01562,167.60962 h 0.59766 L 298,167.7854 q 0.14062,0.62109 0.45703,0.62109 0.11719,0 0.11719,-0.23437 0.36328,-0.26954 0.66797,-0.26954 0.1875,0 0.3164,0.12891 0.12891,0.12891 0.14063,0.25781 l 0.0937,1.33594 -0.0703,0.26953 q -0.082,0.26953 -0.11719,0.57422 -0.0352,0.30469 -0.11719,0.48047 -0.0703,0.17578 -0.10547,0.22266 l -0.94922,1.00781 0.11719,0.6914 -0.24609,0.41016 -0.11719,0.375 -0.73828,0.84375 -0.36328,0.91406 q -0.32813,0.36328 -0.9375,0.57422 l -0.16407,0.66797 -0.67968,0.43359 -0.59766,0.72657 -1.07812,0.80859 -0.31641,0.082 -1.21875,0.98438 -0.33984,-0.31641 q -0.39844,-0.30469 -0.5625,-0.52734 -0.15235,-0.21094 -0.15235,-0.38672 0,-0.0937 0.0703,-0.16406 l 0.11719,-1.00782 -0.5039,-0.82031 q -0.0703,-0.10547 -0.0703,-0.1875 0,-0.14062 0.14063,-0.31641 v -0.0469 l 0.19922,-0.1875 -0.22266,-0.58594 0.0703,-1.21875 v -0.3164 l 0.17578,-0.0937 q -0.1289,-0.23438 -0.1289,-0.55079 0,-0.17578 0.15234,-0.36328 H 291.25 l -0.1875,-0.16406 0.14062,-0.25781 0.2461,-0.63281 0.35156,-0.4336 0.10547,-0.32812 0.35156,-0.48047 q 0.0469,-0.16406 0.0937,-0.29297 v 0.0234 q 0,-0.1875 0.082,-0.30469 0.0937,-0.11719 0.28125,-0.43359 l 0.57422,-0.29297 0.0469,-0.16407 q 0.58593,-0.46875 1.16015,-0.57421 l 0.78516,-0.15235 0.52734,-0.30469 0.38672,0.0234 z m -0.72656,2.09765 -0.0469,0.0937 q -0.21094,0 -0.30469,0.0117 -0.0937,0 -0.26953,0.15234 l -0.33985,-0.14062 -1.28906,0.71484 q -0.48047,0.26953 -0.82031,0.89063 -0.33984,0.60937 -0.33984,1.00781 0,0.24609 0.10546,0.43359 h 0.0469 q 0,0.26954 0.14062,0.98438 l -0.29296,0.45703 0.22265,0.32813 -0.11719,0.41015 q 0,0.082 0.0937,0.29297 0.0937,0.19922 0.082,0.30469 0,0.0937 0.19921,0.41015 l -0.0234,0.2461 q 0,0.64453 0.3164,0.64453 0.25782,0 0.69141,-0.36328 0.10547,-0.30469 0.41016,-0.32813 l 0.11718,-0.36328 q 0.19922,-0.0234 0.19922,-0.1875 v -0.082 q 0.0586,-0.0352 0.12891,-0.0703 0.0703,-0.0352 0.082,-0.0469 0.14062,-0.45703 0.55078,-1.03125 l 0.082,0.0469 -0.0351,-0.0937 0.36328,-0.41016 0.45703,-1.51172 0.0703,-0.14062 0.15234,-0.0469 0.0117,-0.26953 v -0.21094 q 0.0117,-0.0703 0.17578,-0.43359 l -0.72656,-0.57422 0.5625,-0.22265 -0.082,-0.64454 0.10547,-0.23437 -0.15234,0.0703 z"
         id="path356" />
      <path
         d="m 305.24219,168.81665 q -0.0234,0.14062 -0.0234,0.41015 0,0.59766 0.36328,0.59766 0.0937,0 0.16406,-0.0234 v -0.19922 l 0.84375,-0.42187 0.39844,-0.45703 0.082,0.0703 q 0.14063,-0.48047 0.57422,-0.50391 l -0.0234,-0.0937 q 0.39844,-0.30468 0.66797,-0.53906 0.29297,0 0.6211,-0.25781 l 0.1289,0.0937 0.6211,-0.25781 1.03125,-0.29297 q 0.45703,-0.38672 0.96093,-0.38672 h 0.0703 l -0.0469,-0.0703 q 0.30469,-0.22266 0.85547,-0.35157 l 0.53906,-0.1289 q 0.52735,0 0.52735,0.75 0,0.16406 -0.22266,0.16406 h -0.0469 v 0.11719 l -0.14062,0.0703 0.14062,0.0234 -0.57421,0.96093 -0.14063,0.12891 0.0703,0.0703 -0.0937,-0.0234 q -0.17578,0 -0.17578,0.11718 0,0.0703 0.0703,0.14063 -0.5039,0.62109 -0.5039,0.84375 l -0.0234,-0.0469 -0.42187,0.16407 q -0.72657,1.00781 -0.86719,1.14843 -0.14063,0.12891 -0.2461,0.12891 h -0.0234 l -0.0352,0.10547 q -0.0117,0.0586 -0.21094,0.28125 -0.19922,0.21094 -0.66797,0.5625 -0.46875,0.35156 -1.03125,0.75 l -0.0937,0.6914 0.26954,0.29297 0.0469,0.38672 0.14063,0.16406 0.11718,0.77344 0.50391,0.57422 0.29297,0.71484 q 0.15234,0.25782 0.66797,0.65625 l 0.0703,0.1875 0.082,-0.0469 q 0,0.0703 0.0234,0.0703 h 0.0469 q 0.15235,0.082 0.29297,0.11719 0.14063,0.0234 0.53906,0.22266 l 0.12891,0.23437 0.14063,0.0703 0.43359,0.0469 q 0.17578,0.082 0.59766,0.10547 l -0.0234,0.0703 0.38672,0.0234 0.375,0.0937 0.3164,-0.0469 0.1875,0.0469 -0.0234,0.0469 0.65625,0.0703 q 0.25781,-0.25781 0.25781,-0.45703 l -0.0937,-0.45703 q 0,-0.375 0.5039,-0.52734 l 0.0234,0.0469 0.0234,-0.11718 0.0703,0.0469 0.0469,-0.28125 0.10547,0.0234 0.0234,-0.0937 q 0.0937,-0.10547 0.21094,-0.10547 h 0.0469 q 0.24609,0.0703 0.38671,0.29297 0.14063,0.22265 0.14063,0.43359 l -0.0703,0.38672 0.11718,0.23438 -0.0234,0.33984 0.082,0.32812 q 0.0937,0.33985 0.0937,0.52735 0,0.25781 -0.15235,0.5039 l -0.11718,-0.0234 -0.29297,0.29297 -0.14063,-0.0234 0.0469,0.14062 q -0.19922,0.15235 -0.50391,0.15235 h -0.45703 l -0.39844,-0.41016 q -0.11718,0.0117 -0.33984,0.0937 -0.22266,0.0937 -0.36328,0.0937 -0.16406,0 -0.4336,-0.15234 -0.26953,-0.15235 -0.52734,-0.21094 l -0.25781,0.10547 q -0.42188,-0.17578 -0.72656,-0.17578 h -0.11719 q -0.0703,0.0703 -0.14063,0.0703 -0.14062,0 -0.17578,-0.28125 l -0.28125,0.0703 q -0.14062,-0.0703 -0.29297,-0.21094 l -0.55078,-0.1289 q -0.0469,0.0234 -0.11719,0.0234 -0.082,0 -0.22265,-0.0937 l -0.0937,0.0469 -0.0703,-0.1875 q -0.26954,-0.0937 -0.52735,-0.26953 l -0.0703,0.0234 q -0.0586,0 -0.12891,-0.0352 -0.0703,-0.0352 -0.16406,-0.10547 l -0.1875,-0.15234 q -0.10547,-0.0703 -0.21094,-0.14063 -0.0937,-0.0703 -0.24609,-0.16406 -0.15234,-0.10547 -0.24609,-0.23437 -0.082,-0.12891 -0.21094,-0.26954 -0.11719,-0.15234 -0.23438,-0.25781 h -0.0703 q -0.0937,0 -0.15234,-0.0469 l -0.0703,-0.41016 -0.21093,-0.0703 -0.0234,-0.082 q -0.14063,-0.0937 -0.375,-0.49219 -0.23438,-0.41016 -0.44531,-0.5625 0.25781,-0.082 0.36328,-0.1875 -0.11719,-0.21094 -0.26953,-0.21094 -0.0937,0 -0.0937,0.1875 l -0.26953,-0.89062 h 0.0586 q -0.082,-0.25782 -0.24609,-0.28125 l -0.38672,-0.60938 -0.28125,0.15235 0.0469,0.59765 -0.0937,0.59766 0.0469,0.38672 h -0.11719 q -0.12891,0.39843 -0.26953,1.125 -0.12891,0.71484 -0.33985,0.9375 l -0.0937,0.38672 -0.24609,0.28125 q -0.10547,0.1289 -0.1875,0.96093 -0.10547,0.14063 -0.21094,0.22266 l -0.0703,-0.0469 -0.17578,0.32813 -0.14063,0.0469 0.0469,0.0937 h -0.14063 q -0.0351,0.17579 -0.22265,0.17579 h -0.0703 q -0.12891,0.16406 -0.21094,0.16406 -0.12891,0 -0.16406,-0.0469 l 0.0937,0.0937 h -0.15235 q -0.28125,0.0703 -0.28125,0.33985 h -0.3164 l -0.21094,-0.59766 -0.50391,-0.12891 q 0.17578,-0.35156 0.55078,-0.35156 l 0.082,-0.39844 q 0.0117,-0.0586 0.23438,-0.32812 v -0.32813 q 0.0703,-0.0234 0.0937,-0.24609 0.0234,-0.23437 0.14062,-0.71484 l 0.14063,-0.12891 v -0.16406 l 0.12891,-0.30469 0.0703,0.0469 v -0.17579 l -0.0703,0.0469 0.0703,-0.0234 q -0.0469,-0.0234 -0.0469,-0.0703 0,-0.0469 0.082,-0.22266 0.082,-0.17578 0.26954,-0.76172 l 0.17578,-0.11718 q 0.0117,-0.6211 0.1875,-0.84375 0.1875,-0.22266 0.1875,-0.23438 0,-0.0234 -0.11719,-0.26953 l 0.0469,-0.28125 -0.1875,-0.31641 q 0.0234,-0.36328 0.0469,-0.52734 0.0234,-0.17578 0.36328,-0.73828 0.1875,-0.19922 0.1875,-0.75 0,-0.11719 -0.1875,-0.38672 h 0.0703 v -0.375 h 0.0469 q 0.11719,0 0.11719,-0.12891 0,-0.0234 -0.0469,-0.16406 h -0.0703 q 0,-0.24609 0.0937,-0.3164 l 0.0703,-0.59766 -0.0703,-0.16406 q 0.10547,-0.21094 0.23437,-0.39844 0.12891,-0.19922 0.12891,-0.375 0,-0.0703 -0.0703,-0.19922 -0.0703,-0.14062 -0.0703,-0.23437 0,-0.21094 0.16407,-0.55079 h 0.11718 q -0.16406,-0.1875 -0.16406,-0.73828 l 0.0469,-0.0703 -0.16407,-0.10547 q -0.10546,-0.23437 -0.10546,-0.32812 0,-0.17578 0.10546,-0.26953 v -0.21094 h 0.0703 l 0.14062,-0.50391 h -0.0469 l 0.0469,-0.26953 -0.3164,-0.21094 v -0.86718 l -0.25782,0.0937 q -0.14062,-0.0469 -0.22265,-0.0469 -0.22266,0 -0.45703,0.17578 v 0.0469 l -0.0937,-0.0469 -0.16407,0.25781 -0.38672,-0.0469 q -0.16406,0 -0.16406,0.0703 0,0.082 0.0703,0.19922 l -0.59765,-0.17578 v 0.11719 l -0.38672,0.0586 -0.0469,0.16406 -0.55078,0.38672 -0.26953,-0.1289 v 0.082 H 300.25 l -0.0703,-0.17578 -0.14063,0.0937 -0.1289,-0.48047 h -0.0469 l -0.11719,-0.16407 0.55078,-0.38671 q 0.10547,-0.28125 0.25782,-0.41016 0.15234,-0.12891 0.51562,-0.23438 l 0.85547,-0.25781 0.86719,-0.082 1.14844,-0.52734 0.0469,-0.16407 0.33984,-0.16406 h 0.38672 l -0.0703,-0.26953 v -0.16406 l 0.16406,-0.11719 q 0.0937,0 0.22266,0.11719 v -0.11719 l 0.0703,-0.0586 0.0469,-0.11719 1.07812,-0.80859 0.0469,0.0703 h 0.26953 q 0.32812,0 0.44531,0.11719 0.12891,0.11718 0.12891,0.43359 v 0.1875 h 0.0469 q -0.33984,0.75 -0.33984,0.89062 0,0.0703 0.0469,0.26954 l -0.14062,0.0469 0.0703,0.0703 -0.1875,0.0469 0.0469,0.38672 -0.26954,0.6914 -0.0469,0.66797 -0.21094,0.52735 v 0.22265 l -0.29297,0.45703 v 0.64453 l -0.21093,0.4336 -0.17579,0.76172 h 0.15235 v 0.082 q 0,0.26953 -0.10547,0.53906 -0.0937,0.26953 -0.0937,0.33984 l 0.0469,0.38672 v 0.38672 z m 4.94531,-0.48047 v 0.0469 q -0.0469,0.0234 -0.15234,0.0352 -0.0937,0.0117 -0.0937,0.0586 l -0.21094,0.0234 v 0.0469 l -0.38672,0.0703 q -0.12891,0.10547 -0.38672,0.17578 -0.35156,0.15234 -0.59766,0.31641 -0.23437,0.15234 -0.39843,0.375 -0.16407,0.22265 -0.33985,0.48046 v -0.0703 q -0.25781,0.38672 -1.03125,0.91406 -0.30468,0.0586 -0.42187,0.22266 -0.10547,0.16406 -0.12891,0.1875 l -0.0586,-0.0234 -0.11719,0.0234 q -0.33984,0.30469 -0.45703,0.66797 0.0469,0.0469 0.0469,0.14062 l -0.0234,0.15235 q 0.15234,0 0.15234,0.11719 0.0234,-0.0234 0.0703,-0.0234 0.0937,0 0.16407,0.0703 l 0.14062,-0.0234 0.75,-0.29297 0.16406,-0.32812 0.26953,0.11719 0.30469,-0.0234 0.0469,-0.26953 q 0.24609,0 0.24609,-0.23438 0.21094,-0.15234 0.59766,-0.26953 l 0.11718,-0.1875 0.65625,-0.3164 0.0234,-0.1875 0.0469,0.0469 q 0.63281,-0.1875 1.10156,-1.44141 l 0.26953,-0.16406 0.0937,-0.29297 v -0.0703 q 0,-0.14062 -0.12891,-0.14062 h -0.0469 z"
         id="path358" />
      <path
         d="m 326.39453,166.91821 q 0.082,-0.0234 0.45703,0.0234 0.375,0.0469 0.48047,0.16406 l 0.39844,-0.0937 0.22265,0.0234 0.16407,0.3164 -0.0234,0.23438 q -0.23438,0.1875 -0.31641,0.41015 h -0.11718 l -0.12891,0.14063 q -0.0586,0.0586 -0.49219,0.19922 l -0.0234,2.17969 0.1875,1.125 0.0234,1.16015 0.17578,1.41797 0.73828,2.01563 q 0.19922,0.22265 0.26954,0.35156 0.58593,-0.32813 0.73828,-0.32813 0.48047,-0.55078 0.62109,-0.57422 v -0.1289 l 1.32422,-1.125 0.0234,-0.21094 q 0.1289,-0.0234 0.5039,-0.45703 l 0.4336,0.0937 0.23437,0.52734 -0.0937,0.45703 -0.23437,-0.0937 -0.11719,0.25782 h -0.22266 q -0.1289,0.35156 -0.38672,0.57422 v 0.1289 l -0.64453,0.59766 -0.11718,0.30469 q -0.22266,0.15234 -0.75,0.41015 l -0.0937,0.17578 -0.0234,-0.0586 -0.14063,0.24609 -0.3164,0.0937 -0.0469,0.16407 h -0.16406 l 0.0703,0.17578 -0.1875,0.36328 -0.17578,0.0469 q 0.0234,0.1875 -0.38672,0.69141 l -0.55078,0.0234 -0.11719,0.33984 -0.33984,0.0937 q -0.38672,-0.10547 -0.62109,-0.48047 l -0.78516,-1.27734 -0.75,-1.67578 0.0703,-0.6211 -0.16406,-0.55078 0.11719,-0.0234 q -0.33985,-0.67968 -0.33985,-1.03125 l 0.0586,-0.43359 -0.36328,-0.22266 -0.2461,0.15235 v -0.0586 l -0.11719,0.0586 -0.3164,0.80859 -0.16406,-0.0703 -0.0469,0.16406 -0.11719,-0.0469 v 0.10547 h -0.0469 q -0.0117,0.0703 -0.33985,0.59765 l -0.0937,-0.0469 -0.0703,0.5039 -0.24609,0.12891 q -0.2461,0.12891 -0.31641,0.30469 l -0.0937,0.23437 0.10547,0.14063 -0.26953,0.0937 -0.11719,0.48047 -0.19922,0.10546 0.0586,0.0937 q -0.28125,0.21094 -0.45703,0.28125 l -0.10547,0.17579 -0.0937,-0.12891 -0.16407,0.41016 H 320.875 l -0.19922,0.67968 -0.21094,0.0703 -0.0234,0.35156 h -0.33985 l -0.33984,0.77344 -0.16406,0.11718 h -0.14063 l -0.0469,0.22266 -0.75,0.28125 -0.78516,0.0234 -0.33984,-2.22657 0.14062,-0.29296 0.0352,-0.23438 q 0.0117,-0.0937 0.28125,-0.70312 l -0.0469,-0.16407 q 0.21094,-0.48047 0.28125,-0.57422 l -0.0937,-0.0469 0.22266,-0.57422 0.0117,-0.22266 q 0.0117,-0.0937 0.17578,-0.43359 -0.0937,-0.5625 -0.1875,-0.64453 l 0.0937,-0.16406 0.30469,0.0469 q 0.26953,-0.36328 0.33984,-0.38672 l 0.0703,-0.21093 h 0.0469 l -0.16407,-0.2461 0.14063,-0.62109 0.0937,0.0469 q 0.14062,-0.36328 0.17578,-0.36328 l -0.0469,-0.30469 0.32812,-0.60937 v -0.16406 l -0.0703,-0.14063 0.48047,-1.03125 0.55078,-0.75 q 0.28125,-0.24609 0.48047,-0.55078 l 0.41015,-0.16406 0.55078,-0.57422 0.52735,-0.31641 h 0.3164 l 0.25782,-0.0703 h 0.36328 l 0.16406,-0.26953 0.33984,0.0234 h 0.33985 v -0.0937 q 0.14062,0.0117 0.30469,0.11718 l 0.36328,-0.14062 0.26953,0.0703 0.0703,-0.0937 0.28125,0.0937 z m -3.02344,1.85156 -0.29297,0.0469 -0.36328,-0.0234 -0.11718,0.21094 v 0.17578 q -0.1875,0.0937 -0.41016,0.16406 l -0.21094,0.52734 q -0.16406,0.70313 -0.19922,0.71485 h -0.11718 l -0.16407,0.38672 -0.082,0.32812 q -0.0351,0.15235 -0.23437,0.2461 l -0.11719,0.41015 -0.1875,0.35156 q -0.10547,0.19922 -0.10547,0.42188 v 0.0937 l -0.11719,-0.0937 v 0.1875 h -0.0703 l 0.0234,0.11719 -0.0937,0.19922 -0.14063,0.62109 -0.24609,0.50391 -0.0469,0.71484 -0.0703,0.10547 h -0.0469 l -0.0469,0.21094 0.0937,0.0937 -0.11719,0.43359 h -0.0469 l 0.0469,0.14062 h -0.17578 l 0.0234,0.86719 0.10547,0.41016 h 0.0469 l 0.25782,-0.2461 0.67968,-0.96093 1.21875,-1.60547 0.36329,-0.38672 0.80859,-1.3125 0.84375,-1.125 0.0703,-0.24609 -0.16406,-0.21094 0.30469,-0.52735 0.0703,-0.39843 q 0.0117,-0.0586 0.19922,-0.30469 l 0.0234,-0.9375 -0.31641,-0.0234 h -0.25781 l -0.33985,-0.23437 -0.0703,0.11718 z"
         id="path360" />
      <path
         d="m 346.73828,164.28149 0.16406,0.25781 -0.0469,0.11719 0.33984,0.17578 0.25781,-0.0703 0.10547,0.28125 -0.0586,0.26953 -0.21094,0.16406 q -0.10547,0.48047 -0.16406,0.6211 l 0.0703,0.24609 -0.24609,0.0469 -0.14063,0.5039 -0.21093,0.0937 v 0.22266 l -0.29297,0.16406 0.0469,0.50391 v 0.21093 l -0.14062,0.10547 q -0.0703,0.31641 -0.33985,0.92578 l -0.59765,1.3711 -0.48047,0.82031 -0.29297,0.0937 v 0.36328 l -1.125,1.76953 -0.30469,0.77344 -0.84375,1.10156 -0.33984,0.26953 v 0.16407 l -0.36328,0.11718 h -0.11719 l -0.38672,0.59766 -0.21094,-0.0469 -0.36328,0.5039 Q 340,177.27758 339.80078,177.4768 h -0.23437 l -0.22266,0.29297 q -0.65625,0.50391 -0.71484,0.64453 l 0.16406,0.21094 -0.33985,0.12891 q -0.0937,0.0937 -0.43359,0.30468 v 0.29297 l -0.16406,0.0937 h -0.14063 l -0.1875,0.2461 q -0.10547,0.14062 -0.21093,0.19922 l -0.32813,0.15234 -0.16406,-0.0469 -0.21094,0.0937 -0.31641,-0.375 q -0.082,-0.3164 -0.16406,-0.36328 v -0.77343 l -0.38672,-1.58204 0.21094,-0.38671 -0.59766,-0.98438 0.16407,-0.42187 q -0.0234,-0.22266 -0.21094,-0.4336 l 0.16406,-0.26953 -0.16406,-0.32812 h 0.0937 l -0.0469,-0.26954 0.0469,-0.29296 0.11719,-0.0469 v -0.375 l -0.42188,-0.33984 h 0.16406 l 0.0469,-0.0937 -0.0469,-0.33985 -0.24609,-0.0469 -0.0937,-0.26953 0.0937,-0.0703 v -0.64453 l 0.082,-0.0937 -0.17578,-0.0703 -0.11719,-0.43359 -0.14062,-0.0937 -0.0703,0.0469 -0.17579,-0.1289 -0.21093,0.1289 h -0.22266 l -0.16406,0.25781 -0.21094,-0.0469 -0.22266,0.26953 -0.21093,-0.0469 0.0703,0.16406 -0.29297,0.16406 -0.30469,-0.28125 -0.1289,-0.48047 0.48047,-0.60937 0.24609,0.0586 0.64453,-0.60937 0.31641,-0.16407 q 0.41015,-0.26953 0.45703,-0.26953 h 0.0937 v 0.22266 h 0.11719 l -0.0703,-0.16406 0.71485,-0.26954 0.17578,0.0469 -0.0703,-0.0469 h 0.21093 l 0.11719,-0.0469 -0.16406,-0.0703 h 0.11719 l 0.17578,-0.22266 0.30468,-0.0937 0.11719,-0.14062 h 0.31641 v -0.11719 h 0.11719 l 0.10546,-0.17578 h 0.32813 l 0.22266,0.22265 q 0.19921,0.0586 0.21093,0.0937 l -0.0937,0.38672 0.0937,0.375 -0.3164,0.65625 0.0586,0.71485 -0.0586,0.26953 0.15234,0.59765 v 1.19532 l 0.14063,1.04296 0.0117,0.21094 q 0.0117,0.0703 0.12891,0.38672 l 0.48047,1.19531 0.11719,0.11719 v 0.38672 l 0.10547,0.31641 -0.22266,0.375 0.17578,0.26953 1.40625,-1.25391 0.65625,-0.52734 0.23438,-0.71485 0.36328,-0.0937 -0.0469,-0.11718 0.16406,-0.15235 0.11719,0.0469 0.10547,-0.55078 q 0.35156,-0.41016 0.85547,-1.03125 l 0.22266,-0.33985 0.16406,-0.1875 0.0351,-0.15234 q 0.0117,-0.0586 0.28125,-0.41016 0.28125,-0.35156 0.4336,-0.57422 0.16406,-0.23437 0.42187,-0.85547 l 0.29297,-0.11718 0.11719,-0.45703 0.17578,-0.21094 q 0.15234,-0.30469 0.48047,-0.65625 v -0.25781 l 0.16406,-0.22266 0.0352,-0.22266 q 0.0117,-0.10547 0.10547,-0.26953 l 0.19922,-0.29297 q 0.0937,-0.15234 0.25781,-0.26953 l 0.16406,-0.43359 -0.28125,-0.4336 -0.26953,0.12891 -0.16406,-0.0703 -0.26953,0.44531 h -0.28125 l -0.26954,0.36328 h -0.25781 l -0.11719,-0.0937 -0.26953,0.21094 -0.33984,0.0469 -0.16406,-0.16406 0.29297,-0.25781 v -0.22266 q 0.1875,-0.23437 0.21093,-0.32812 l 0.26953,-0.15235 0.32813,-0.55078 0.0937,-0.0469 0.22266,-0.23438 q 0.1875,-0.11718 0.38671,-0.36328 h 0.21094 l 0.21094,-0.38672 0.12891,0.0937 0.32812,-0.0937 0.26953,0.0469 0.21094,-0.0469 z"
         id="path362" />
      <path
         d="m 354.55469,162.21899 h -0.0703 l -0.43359,0.92578 -0.0469,-0.0469 q 0,0.1289 -0.11719,0.22265 v 0.0469 q -0.25781,0.41015 -0.64453,0.59765 l -0.0937,-0.0469 v 0.0937 q -0.45703,-0.0586 -0.71485,-0.1875 -0.24609,-0.14063 -0.375,-0.44531 -0.11718,-0.31641 -0.23437,-0.65625 0.17578,-0.2461 0.29297,-0.29297 l 0.0937,-0.31641 0.38672,-0.21094 0.21093,-0.45703 0.38672,-0.21093 v 0.0703 l 0.21094,0.0937 q 0.082,-0.0469 0.10547,-0.0703 0.0351,-0.0352 0.082,-0.0703 0.0586,-0.0469 0.28125,-0.0937 0.22266,-0.0586 0.33984,-0.1289 l 0.12891,-0.0703 h 0.0937 l 0.17578,0.26954 v 0.375 l 0.0469,0.33984 z m -1.69922,6.85547 h -0.0469 l -0.0937,0.60937 0.0937,0.0703 -0.16406,0.43359 -0.0469,-0.082 v 0.17578 q 0,0.51563 -0.4336,0.98438 h 0.0937 v 0.21093 h -0.0469 l 0.0469,1.3711 -0.0937,0.16406 0.0469,0.22266 -0.17578,0.85546 h 0.0586 q 0,0.23438 -0.11719,0.66797 l -0.10547,0.31641 -0.14062,1.55859 q -0.0469,0.23438 -0.0469,0.26953 0,0.21094 0.1875,0.21094 0.22266,0 0.49219,-0.17578 l 0.76172,-0.51562 q 0.31641,-0.38672 0.45703,-0.38672 h 0.0703 q 0.19922,-0.0937 0.375,-0.31641 0.17578,-0.22266 0.26953,-0.25781 0.17579,-0.31641 0.31641,-0.31641 0.0117,0 0.0937,0.0234 0.082,0.0234 0.43359,0.082 l 0.0937,0.32813 q 0,0.26953 -0.1875,0.62109 -0.1875,0.33984 -0.30468,0.57422 -0.10547,0.22265 -0.49219,0.36328 v 0.082 l -0.16406,-0.0469 v 0.16406 h -0.10547 q -0.0352,0.3164 -0.32813,0.36328 v 0.0703 h -0.3164 v 0.0469 h -0.11719 l -0.31641,0.21093 h -0.0937 l -0.16406,0.22266 -0.48047,0.0703 q -0.0703,0.14063 -0.22265,0.14063 l -0.59766,0.43359 v 0.0937 l -0.29297,-0.0469 0.082,0.11718 -0.38672,0.0937 v 0.0586 h -0.16406 v 0.16406 l -0.17578,0.11719 h -0.0469 v 0.0469 q -0.15234,0.4336 -0.43359,0.4336 l -0.16406,-0.0469 q -0.14063,-0.43359 -0.48047,-0.86719 0.0937,-0.375 0.0937,-0.55078 l -0.0937,-0.48047 v -0.25781 q 0,-0.36328 0.0703,-0.75 l 0.0703,-0.30469 v -0.0586 h -0.0234 q -0.0234,0 -0.0234,-0.0234 0,-0.0234 0.10547,-0.375 0.11719,-0.35156 0.11719,-0.91406 0,-0.14062 -0.10547,-0.16406 l 0.15234,-0.31641 v -1.41797 l 0.1875,-0.41015 q 0.0937,-0.1875 0.1875,-0.73828 0.15234,-0.0937 0.17578,-0.17579 l -0.0937,-0.14062 0.0937,-0.23438 q -0.1875,-0.36328 -0.43359,-0.36328 h -0.55078 q -0.0937,0.0937 -0.0937,0.21094 h -0.082 q -0.0586,0.31641 -0.30469,0.38672 -0.0586,0.30469 -0.33985,0.36328 l -0.21093,0.33984 h -0.0469 q -0.082,0.25782 -0.29297,0.25782 -0.23437,0 -0.38672,-0.33985 -0.14062,-0.33984 -0.14062,-0.375 0,-0.0469 0.0469,-0.10547 0.11719,-0.51562 0.72657,-0.85546 v -0.0937 q 0.25781,-0.25782 0.52734,-0.38672 h -0.10547 q 0.50391,-0.10547 0.58594,-0.51563 0.0937,-0.42187 0.62109,-0.42187 l 0.14063,0.0469 0.29297,-0.14062 h -0.17578 l 0.26953,-0.17578 0.0703,0.0469 0.21094,-0.25781 0.0586,0.0469 q 0.14063,-0.33984 0.64453,-0.33984 0.11719,0 0.11719,-0.0937 v -0.11719 h 0.0937 l -0.0469,-0.0469 0.38672,-0.26953 q 0.1875,-0.32813 0.59766,-0.32813 0.25781,0 0.44531,0.14063 0.19922,0.14062 0.19922,0.28125 0,0.15234 -0.16406,0.43359 z"
         id="path364" />
    </g>
    <g
       aria-label="Made in Jalihal"
       transform="matrix(0.289592 0 0 0.283235 2.96104 -6.73254)"
       id="text329"
       style="font-size:24px;line-height:1.25;font-family:'Viner Hand ITC';-inkscape-font-specification:'Viner Hand ITC, Normal';font-variant-ligatures:none;letter-spacing:0px;word-spacing:0px;white-space:pre;shape-inside:url(#rect331);display:inline">
      <path
         d="m 254.87109,584.93774 0.14063,0.0703 0.33984,0.52735 0.26953,1.0664 -0.24609,-0.10547 q 0.44531,0.9961 0.48047,2.23829 l 0.26953,0.30468 -0.12891,0.75 0.17578,0.11719 0.11719,0.77344 0.16406,0.16406 v 0.75 l 0.22266,0.32813 -0.15234,0.33984 q 0.082,0.19922 0.3164,0.52734 v 0.55078 l -0.0937,0.26954 0.45703,0.30468 0.21094,0.52735 0.26953,-0.0469 q 0.11719,-0.0234 0.45703,-0.23437 h 0.21094 v -0.0937 l 0.50391,-0.77344 h 0.0937 l -0.0469,-0.16406 0.86719,-0.9375 0.21094,-0.4336 q 0.10547,0.0234 0.65625,-0.48047 l 0.11719,0.0469 0.0351,-0.15234 q 0.0117,-0.0586 0.21094,-0.29297 0.21094,-0.23438 0.26953,-0.30469 0.29297,-0.36328 0.67969,-0.44531 l 0.0937,-0.38672 -0.14063,-0.4336 0.0469,-0.33984 0.22265,-0.0937 -0.1289,-0.25781 q 0.38672,-0.26953 0.45703,-0.38672 l 0.0469,-0.45703 0.17579,-0.14063 0.0937,-0.33984 h 0.11718 v -0.33984 l 0.26953,-0.25782 q 0.375,-0.17578 0.98438,-0.48047 0.38672,-0.33984 0.76172,-0.5039 l 0.3164,0.55078 0.16407,-0.11719 0.29297,0.11719 -0.12891,0.21094 0.22266,0.9375 -0.38672,0.52734 h -0.25782 l -0.17578,0.50391 -0.25781,0.43359 -0.0703,0.59766 -0.10547,0.55078 0.10547,0.65625 -0.26953,0.30469 -0.0352,0.3164 q -0.0117,0.14063 -0.17578,0.41016 v 0.16406 l 0.0469,0.31641 -0.0469,0.21093 0.21094,1.27735 -0.0937,0.25781 0.0469,0.55078 0.69141,1.85156 1.32422,2.56641 0.0937,0.52734 v 0.0703 l 0.0703,0.26953 h 0.31641 l 0.21093,-0.21094 v 0.0937 l 0.4336,-0.26953 0.0703,0.26953 0.26953,0.21094 -0.26953,0.66797 -0.55078,0.3164 -0.16406,0.33985 -0.86719,0.25781 -0.25781,0.38672 -0.55079,0.21094 -0.1289,-0.0469 -0.25781,-0.55078 -0.11719,0.12891 -0.26953,-0.0586 -0.21094,0.22266 -0.26953,-0.0703 -0.11719,-0.15235 q 0.16406,-0.22265 0.33984,-0.55078 l -0.60937,-1.62891 -0.21094,-0.16406 -0.5039,-1.2539 -0.22266,-0.89063 -0.59766,-1.40625 v -0.15234 l -0.21093,-0.71485 -0.11719,-0.23437 q -0.0469,-0.10547 -0.12891,-0.57422 l -0.35156,-2.19141 -1.41797,1.80469 -1.03125,1.58203 -0.11719,0.32813 -0.26953,0.15234 0.26953,0.45703 -0.0586,0.42188 0.17578,0.10547 -0.26953,0.32812 q -0.0703,0.17578 -0.45703,0.59766 v 0.22265 q -0.28125,0.32813 -0.4336,0.55078 l -0.25781,-0.16406 -0.43359,0.48047 -0.26953,0.19922 q -0.11719,0.082 -0.28125,0.32812 -0.16407,0.23438 -0.21094,0.35157 l -0.33984,0.0586 q -0.19922,-0.32812 -0.36329,-0.89062 l 0.11719,-0.15235 -0.11719,-0.28125 v -0.86719 l 0.0469,-0.38671 -0.16406,-0.375 0.0469,-0.0469 -0.16406,-0.38672 -0.22266,-1.58203 -0.16406,-0.38672 0.0469,-0.43359 q -0.0352,-0.082 -0.0586,-0.16406 l -0.11719,-0.31641 q -0.0352,-0.082 -0.1289,-0.22266 -0.082,-0.14062 -0.22266,-0.32812 l -0.43359,0.11719 -0.16406,0.3164 v 0.32813 l -0.65625,2.12109 -0.32813,0.45703 -0.38672,1.28906 v 0.11719 l -0.38672,0.65625 0.2461,0.30469 -0.1875,0.36328 q -0.10547,0.1875 -0.26953,0.31641 l -0.0469,0.375 -0.38672,0.22265 0.0703,0.14063 -0.11718,0.11719 0.0469,0.43359 -0.38672,0.43359 0.0703,0.29297 q -0.23438,0.22266 -0.28125,0.375 l -0.26954,0.15235 -0.25781,0.55078 -0.72656,0.33984 -0.43359,0.25781 -0.16407,0.33985 -0.6914,0.30468 -0.29297,-0.0937 -0.25781,0.0469 -0.26954,-0.16406 0.14063,-0.16407 0.59766,-0.10546 -0.14063,-0.71485 0.14063,-0.0469 0.1289,-0.22266 -0.17578,-0.16406 0.0469,-0.4336 q 0.77343,-0.29296 0.82031,-0.55078 0.5625,-0.30468 1.05469,-0.43359 l 0.15234,-0.55078 0.16406,-0.30469 0.0937,-0.53906 q 0.0234,-0.11719 0.10547,-0.23438 l 0.23438,-0.33984 -0.0937,-0.21094 0.16406,-0.64453 0.21094,-0.17578 q 0.0234,-0.26953 0.26953,-0.80859 l -0.11719,-0.22266 0.23437,-0.38672 v -0.16406 l 0.0937,-0.14063 -0.0469,-0.22265 0.16406,-0.32813 0.36328,-1.64062 0.17578,-0.11719 0.11719,-0.38672 -0.17578,-0.0937 0.17578,-0.43359 -0.0469,-0.71485 0.0469,-0.16406 -0.0469,-0.48047 0.21093,-0.38672 -0.33984,-0.64453 0.17578,-0.5039 -0.17578,-0.31641 q 0.12891,-0.48047 0.22266,-0.64453 l -0.26953,-0.60938 q -0.36329,0.11719 -0.8086,0.48047 l -0.1289,-0.0469 -0.69141,0.43359 -0.38672,0.31641 -0.64453,0.38672 -0.50391,0.0703 -0.38672,-0.89063 0.17579,-0.0469 -0.0586,-0.17578 q 0.41016,-0.19922 0.65625,-0.46875 h 0.11719 q 0.12891,-0.12891 0.86719,-0.60938 v -0.11719 h 0.38672 l 0.97265,-0.59765 h 0.15235 l 0.11718,-0.22266 0.0469,0.12891 0.11719,-0.17578 h 0.38671 l 1.20704,-0.71485 q 0.30468,-0.26953 0.38671,-0.32812 l 0.14063,-0.10547 q 0.0703,-0.0469 0.42187,-0.0937 z"
         id="path367" />
      <path
         d="m 278.49609,589.30883 q 0.082,-0.0234 0.45703,0.0234 0.375,0.0469 0.48047,0.16406 l 0.39844,-0.0937 0.22266,0.0234 0.16406,0.31641 -0.0234,0.23437 q -0.23437,0.1875 -0.3164,0.41016 h -0.11719 l -0.12891,0.14062 q -0.0586,0.0586 -0.49219,0.19922 l -0.0234,2.17969 0.1875,1.125 0.0234,1.16016 0.17579,1.41797 0.73828,2.01562 q 0.19922,0.22266 0.26953,0.35156 0.58594,-0.32812 0.73828,-0.32812 0.48047,-0.55078 0.62109,-0.57422 v -0.12891 l 1.32422,-1.125 0.0234,-0.21093 q 0.12891,-0.0234 0.50391,-0.45704 l 0.43359,0.0937 0.23437,0.52735 -0.0937,0.45703 -0.23437,-0.0937 -0.11719,0.25781 h -0.22265 q -0.12891,0.35156 -0.38672,0.57422 v 0.12891 l -0.64453,0.59765 -0.11719,0.30469 q -0.22266,0.15234 -0.75,0.41016 l -0.0937,0.17578 -0.0234,-0.0586 -0.14062,0.2461 -0.31641,0.0937 -0.0469,0.16406 h -0.16406 l 0.0703,0.17578 -0.1875,0.36328 -0.17578,0.0469 q 0.0234,0.1875 -0.38672,0.6914 l -0.55078,0.0234 -0.11718,0.33985 -0.33985,0.0937 q -0.38672,-0.10547 -0.62109,-0.48047 l -0.78516,-1.27735 -0.75,-1.67578 0.0703,-0.62109 -0.16406,-0.55078 0.11719,-0.0234 q -0.33984,-0.67969 -0.33984,-1.03125 l 0.0586,-0.43359 -0.36328,-0.22266 -0.2461,0.15234 v -0.0586 l -0.11718,0.0586 -0.31641,0.8086 -0.16406,-0.0703 -0.0469,0.16407 -0.11718,-0.0469 v 0.10547 h -0.0469 q -0.0117,0.0703 -0.33984,0.59766 l -0.0937,-0.0469 -0.0703,0.50391 -0.24609,0.1289 q -0.24609,0.12891 -0.31641,0.30469 l -0.0937,0.23438 0.10547,0.14062 -0.26953,0.0937 -0.11719,0.48047 -0.19921,0.10547 0.0586,0.0937 q -0.28125,0.21094 -0.45703,0.28125 l -0.10547,0.17578 -0.0937,-0.12891 -0.16406,0.41016 h -0.14063 l -0.19922,0.67969 -0.21093,0.0703 -0.0234,0.35156 h -0.33985 l -0.33984,0.77344 -0.16406,0.11719 h -0.14063 l -0.0469,0.22265 -0.75,0.28125 -0.78516,0.0234 -0.33984,-2.22656 0.14062,-0.29297 0.0352,-0.23437 q 0.0117,-0.0937 0.28125,-0.70313 l -0.0469,-0.16406 q 0.21094,-0.48047 0.28125,-0.57422 l -0.0937,-0.0469 0.22266,-0.57421 0.0117,-0.22266 q 0.0117,-0.0937 0.17578,-0.43359 -0.0937,-0.5625 -0.1875,-0.64454 l 0.0937,-0.16406 0.30469,0.0469 q 0.26953,-0.36328 0.33984,-0.38672 l 0.0703,-0.21094 h 0.0469 l -0.16406,-0.24609 0.14062,-0.6211 0.0937,0.0469 q 0.14063,-0.36328 0.17578,-0.36328 l -0.0469,-0.30469 0.32812,-0.60938 v -0.16406 l -0.0703,-0.14062 0.48047,-1.03125 0.55078,-0.75 q 0.28125,-0.2461 0.48047,-0.55078 l 0.41016,-0.16407 0.55078,-0.57422 0.52734,-0.3164 h 0.31641 l 0.25781,-0.0703 h 0.36328 l 0.16406,-0.26954 0.33985,0.0234 h 0.33984 v -0.0937 q 0.14063,0.0117 0.30469,0.11719 l 0.36328,-0.14063 0.26953,0.0703 0.0703,-0.0937 0.28125,0.0937 z m -3.02343,1.85157 -0.29297,0.0469 -0.36328,-0.0234 -0.11719,0.21094 v 0.17578 q -0.1875,0.0937 -0.41016,0.16407 l -0.21094,0.52734 q -0.16406,0.70312 -0.19921,0.71484 h -0.11719 l -0.16406,0.38672 -0.082,0.32813 q -0.0351,0.15234 -0.23437,0.24609 l -0.11719,0.41016 -0.1875,0.35156 q -0.10547,0.19922 -0.10547,0.42187 v 0.0937 l -0.11718,-0.0937 v 0.1875 h -0.0703 l 0.0234,0.11719 -0.0937,0.19922 -0.14062,0.62109 -0.2461,0.50391 -0.0469,0.71484 -0.0703,0.10547 h -0.0469 l -0.0469,0.21094 0.0937,0.0937 -0.11718,0.43359 h -0.0469 l 0.0469,0.14063 h -0.17578 l 0.0234,0.86719 0.10547,0.41015 h 0.0469 l 0.25781,-0.24609 0.67969,-0.96094 1.21875,-1.60547 0.36328,-0.38672 0.80859,-1.3125 0.84375,-1.125 0.0703,-0.24609 -0.16406,-0.21094 0.30469,-0.52734 0.0703,-0.39844 q 0.0117,-0.0586 0.19922,-0.30469 l 0.0234,-0.9375 -0.31641,-0.0234 h -0.25781 l -0.33984,-0.23438 -0.0703,0.11719 z"
         id="path369" />
      <path
         d="m 295.47656,583.16821 0.33985,0.0469 0.0469,0.16407 0.16406,0.0469 -0.0469,0.48047 v 0.17578 l -0.16406,0.16406 -0.0352,0.375 q -0.0352,0.33985 -0.23438,0.5625 l 0.15235,0.0937 -0.26953,0.11719 v 0.26953 l -0.25782,0.25782 v 0.43359 l -0.082,-0.0469 -0.14062,0.29297 -0.0586,0.48047 q -0.0117,0.0937 -0.17578,0.32813 l 0.0703,0.26953 -0.10547,0.29297 q -0.0703,0.1875 -0.15235,0.26953 l -0.24609,0.24609 v 0.4336 l 0.11719,0.0469 -0.11719,0.67969 0.0703,0.14062 -0.29297,0.50391 v 0.43359 l -0.21093,0.21094 v 0.55078 l -0.26954,0.38672 v 0.22266 l 0.10547,0.0937 -0.0586,0.32812 0.12891,0.17578 q -0.17579,0.36328 -0.50391,0.48047 l -0.0469,0.32813 0.16407,0.10547 -0.33985,0.21093 0.0469,0.2461 -0.0469,0.30468 q 0.6211,-0.0469 0.72657,-0.0937 l 0.21093,0.0937 -0.98437,1.20704 -0.32813,1.3125 -0.22265,0.14062 0.0469,0.38672 -0.0937,0.11719 0.0469,0.17578 -0.0469,0.0937 v 0.5039 l 0.0469,0.31641 h -0.0937 l -0.0703,0.28125 -0.17578,0.14063 h -0.0937 v 0.60937 l 0.22266,0.11719 -0.26953,0.38672 h 0.0937 l -0.0469,0.21093 0.17578,0.22266 v 0.21094 l 0.16407,0.16406 -0.0703,0.38672 0.11719,0.22266 v 0.85546 l -0.16406,0.0469 0.16406,0.38672 v 0.33984 l 0.21094,0.8086 0.70312,1.51171 H 293.25 l 0.375,0.33985 q 0.33984,0.55078 0.5625,0.86719 0.36328,0.19921 0.42187,0.33984 h 0.10547 v 0.11719 l 0.23438,0.14062 h 0.14062 l 0.22266,0.16406 q 0.48047,-0.11718 0.66797,-0.52734 0.24609,-0.0352 0.59765,-0.32812 l 0.22266,0.375 -0.17578,0.0586 v 0.21094 l -0.21094,0.11718 0.0469,0.26954 v 0.21093 l 0.16406,-0.0469 v 0.38672 l -0.32813,0.16406 0.0703,0.0937 -0.16407,0.0469 -0.082,0.12891 0.082,0.0937 h -0.17578 l 0.0469,0.11719 q -0.29297,0.0703 -0.69141,0.33984 -0.11719,-0.0586 -0.55078,-0.55078 l -0.48047,0.16406 -0.24609,-0.29297 -0.0937,-0.21093 -0.0703,-0.0586 q -0.0469,-0.0352 -0.0937,-0.1289 -0.0352,-0.082 -0.0937,-0.19922 v -0.21094 l -0.17579,-0.26953 v -0.11719 l -0.21093,-0.14062 -1.19532,-1.48828 -0.72656,-1.30079 0.0703,-0.16406 -0.28125,-0.43359 0.21094,-0.11719 -0.0937,-0.22266 -0.0703,-0.59765 -0.0937,-0.21094 -0.12891,-0.48047 -0.21093,-0.3164 q -0.0469,-0.0703 -0.082,-0.36329 l -0.082,-0.64453 v -0.48047 h -0.0586 l 0.12891,-0.5039 -0.0703,-0.25781 -0.3164,-0.0469 0.0937,-0.22266 0.11718,0.0937 -0.16406,-0.6914 -0.21094,0.25781 0.21094,-0.69141 H 290.25 v 0.0469 l -0.17578,-0.0469 -0.52735,0.52735 -0.0469,-0.0469 -0.32813,0.16407 v 0.22265 l -0.26953,0.21094 v 0.11719 h -0.16406 l -0.19922,0.15234 q -0.0937,0.0703 -0.41015,0.11719 l 0.0586,0.25781 -0.26953,0.17578 q -0.11719,0.46875 -0.29297,0.64453 v 0.16407 l -0.21094,0.17578 v 0.25781 l -0.21094,-0.0469 -0.3164,0.64454 -0.45703,0.17578 -0.0937,0.21093 -0.22266,0.0469 v 0.082 l -0.32812,0.14063 h -0.0469 q -0.11719,-0.39844 -0.26953,-0.52735 v 0.0937 q -0.25781,-0.35156 -0.38672,-0.43359 l -0.0703,-0.59766 0.0703,-0.26953 v -0.16406 Q 285,600.60571 284.91797,600.5354 l 0.0937,-0.16407 v -0.16406 l 0.0703,-0.33984 -0.21094,-0.21094 0.21094,-0.15234 q -0.16406,-0.33985 -0.16406,-0.71485 v -0.16406 l 0.0469,-0.26953 -0.0937,-0.28125 0.21094,-0.36328 -0.11719,-0.72656 h 0.11719 l 0.10547,-0.375 v -0.17579 h 0.11719 v -1.07812 l 0.16406,-0.11719 0.0469,-0.52734 v -0.22266 h 0.38672 l 0.0937,-0.59765 0.38672,0.0937 0.26953,-0.69141 v -0.21094 l 0.0703,0.0937 q 0.15234,-0.25781 0.375,-0.91406 l 0.15234,-0.11719 v -0.17578 l 0.0703,0.17578 0.0469,-0.33984 0.21093,-0.0469 0.12891,-0.26953 v -0.11719 l 0.16406,-0.0469 q 0.0703,-0.16406 0.64453,-0.64453 l 0.0469,0.0937 0.17578,-0.21094 0.21094,0.0703 0.0937,-0.0703 v -0.10547 l 0.1289,0.0469 0.16407,-0.48047 0.52734,0.15234 -0.0469,-0.0469 h 0.33984 l -0.082,-0.0469 0.17578,-0.0586 0.57422,0.082 0.6914,0.39844 h -0.23437 l 0.45703,0.1289 v 0.0937 l 0.30469,0.33985 q 0.14062,0.5039 0.22265,0.52734 l 0.16407,-0.0586 0.11718,-0.32813 0.22266,-0.0937 v -0.55078 l 0.0469,-0.17578 0.16406,-0.0469 -0.0469,-0.38671 0.0937,-0.16407 0.26953,-0.14062 -0.0937,-0.22266 0.0469,-0.0703 -0.22266,-0.0937 v -2.17969 l 0.17578,-0.17578 q 0.0469,-0.23437 0.0937,-0.30469 l -0.0469,-0.082 v -0.64453 l -0.26953,0.16406 -0.21094,-0.0469 q -0.0469,0.0469 -0.29297,0.10547 l -0.0469,0.21093 -0.33985,0.16407 h -0.14062 l -0.28125,-0.21094 -0.15235,-0.43359 -0.11718,-0.0703 0.11718,-0.14062 -0.11718,-0.33985 0.11718,-0.16406 0.22266,-0.0469 0.0469,-0.17578 0.21093,-0.0469 0.22266,-0.38672 h 0.11719 l 0.0469,-0.11719 0.86719,-0.64453 0.0469,-0.0937 h 0.38672 v -0.1289 l 0.11719,0.1289 h 0.16406 l 0.0469,-0.17578 q 0.22265,-0.0352 0.38672,-0.16406 z m -5.88281,8.92969 -0.0937,0.30468 -0.76172,0.38672 -0.33984,0.71485 -0.16407,0.10547 h -0.0469 l -0.10547,0.16406 -0.0703,-0.0469 -0.0937,0.25782 0.0937,0.1289 q -0.0937,0.58594 -0.21094,0.69141 v 0.21094 q -0.19922,0.15234 -0.31641,0.5625 h -0.11718 v 0.25781 l -0.16407,0.5039 0.11719,0.26954 q -0.23437,0.65625 -0.38672,0.8789 l 0.0937,0.15235 v 0.43359 l 0.12891,0.11719 -0.17578,0.25781 0.0469,0.33984 0.22266,0.25782 v -0.0937 l 0.16406,0.0937 0.33985,-0.14063 0.0937,0.0469 0.59765,-0.71485 0.16406,-0.0469 v -0.0469 l 0.33985,-0.33984 0.38672,-0.16406 0.25781,-0.31641 0.17578,-0.0703 0.55078,-0.48047 0.73828,-0.55078 0.15235,-0.45703 q 0.0234,-0.0703 0.30468,-0.36329 0.0937,-0.45703 0.26954,-0.6914 l -0.33985,-0.38672 -0.0469,-0.86719 -0.0469,-0.28125 v -0.0937 q -0.1289,-0.17578 -0.16406,-0.33984 h -0.17578 l -0.0469,0.25781 -0.28125,-0.0469 v -0.25782 l -0.10547,0.0469 -0.0469,-0.16406 -0.32813,0.11718 -0.33984,-0.11718 -0.0469,-0.26954 z"
         id="path371" />
      <path
         d="m 301.79297,590.12915 0.29297,0.0469 h 0.0469 l -0.0469,0.11719 h 0.0937 l 0.16406,0.16406 0.55078,0.0469 h 0.55078 l 0.31641,0.17578 h 0.11719 l 0.17578,0.59765 -0.2461,0.21094 v 0.22266 l 0.38672,0.38672 -0.0469,1.07812 h -0.16407 l -0.0586,0.21094 h -0.0469 v 0.33984 l 0.22265,0.0469 0.0937,0.11719 -0.14062,0.22265 v 0.16406 l -0.29297,0.14063 -0.21094,0.17578 -0.60937,0.32813 q -0.2461,0.25781 -0.42188,0.38671 l -0.17578,0.48047 -1.03125,0.41016 -1.03125,-0.0234 0.0469,0.25781 h -0.21093 l -0.0469,0.0703 -0.5039,0.10547 -0.0469,-0.17579 -0.17578,0.0703 v 0.10547 l -0.43359,0.16406 -0.16407,0.48047 0.22266,0.59765 v 0.29297 l 0.11719,0.25781 q -0.23438,0.69141 -0.33985,0.72657 l 0.0703,0.21093 -0.11719,0.0469 0.26953,0.11719 v 0.36328 l 0.23437,0.16406 q 0.58594,-0.17578 0.71485,-0.25781 l 0.17578,0.16406 0.0469,-0.0469 q 0.48047,-0.0469 0.76172,-0.11719 l 0.082,-0.14063 h 0.28125 l 0.22266,-0.0234 0.28125,0.14062 -0.0703,-0.0937 h 0.23437 l 0.29297,-0.24609 0.33985,-0.0234 h -0.0703 l 0.32813,-0.14063 0.0937,0.0703 0.17578,-0.16407 h 0.23437 l 0.22266,-0.22265 q 0.25781,-0.0117 0.83203,-0.30469 v -0.12891 l 0.33985,-0.0937 0.36328,-0.52734 0.38672,0.0469 q 0.19921,0.1875 0.46875,0.22265 l 0.17578,0.16406 -0.26953,0.50391 0.0469,0.31641 -0.375,0.21093 -0.0469,0.11719 -0.5625,0.0703 -0.30469,0.31641 -0.33985,0.0234 -0.0937,0.26953 -0.45703,-0.0469 -0.14062,0.32813 -0.36328,-0.0469 -0.14063,0.16407 q -0.39844,0.15234 -0.41015,0.17578 l -0.16407,-0.0937 -0.26953,0.25781 h -0.38672 l -0.23437,0.11719 h -0.14063 l -0.17578,0.15234 q -0.30469,0.082 -0.62109,0.25781 l -0.16406,-0.11718 h -0.33985 l -0.14062,0.11718 -0.12891,-0.0469 -0.16406,0.0469 -0.0469,-0.0469 -0.11718,0.26953 H 299.25 l -0.25781,0.14063 q -0.12891,0.0703 -0.5625,0.11718 l -0.11719,0.11719 h -0.21094 l -0.3164,0.0469 -0.23438,0.29296 -0.31641,-0.11718 -0.16406,0.21093 -0.1289,-0.0351 q -0.0469,-0.0117 -0.46875,-0.44531 l 0.0469,-0.28125 -0.0469,-0.15235 0.0469,-0.28125 -0.17578,-0.43359 0.0703,-0.33985 -0.11719,-0.52734 0.11719,-0.43359 -0.16406,-0.66797 -0.0469,-0.0469 0.0469,-0.33984 0.38672,-0.14063 v -0.23437 l -0.16406,-0.0586 0.0469,-0.30469 -0.10547,-0.17578 0.0586,-0.28125 0.16406,-0.0937 -0.0469,-0.26953 0.0469,-0.45704 0.0937,-0.0469 0.16406,-0.55078 0.38672,-0.69141 0.33984,-0.1289 0.0469,-0.375 -0.0469,-0.10547 0.0469,-0.21094 0.21094,-0.11719 0.1289,-0.38672 h -0.29297 v -0.14062 l 0.11719,-0.17578 -0.0469,-0.16407 0.0469,-0.16406 h 0.0469 v -0.38672 l 0.38671,-0.0469 0.16407,-0.33985 0.82031,-0.91406 h 0.16406 q 0.14063,-0.22265 0.36328,-0.375 l 0.16407,0.0469 q 0.16406,-0.0586 0.38671,-0.38672 h 0.11719 l 0.22266,-0.14063 h 0.0937 l 0.16406,-0.24609 z m -0.28125,1.99218 -0.41016,0.14063 -0.3164,-0.14063 q -0.28125,0.23438 -0.45704,0.32813 -0.0351,0.30469 -0.24609,0.51562 -0.19922,0.21094 -0.28125,0.21094 h -0.21094 l 0.14063,0.25781 q -0.12891,0.23438 -0.33985,0.72657 l -0.1875,-0.0469 -0.0703,0.30469 0.0703,0.43359 0.23438,0.12891 q 0.10547,0.0586 0.58594,0.14062 l 0.375,-0.24609 0.77343,-0.0703 0.41016,-0.59766 0.55078,-0.45703 0.0703,-0.86719 -0.1875,-0.28125 -0.0234,-0.41015 h -0.26953 z"
         id="path373" />
      <path
         d="m 319.26562,584.60962 h -0.0703 l -0.43359,0.92578 -0.0469,-0.0469 q 0,0.12891 -0.11718,0.22266 v 0.0469 q -0.25782,0.41016 -0.64454,0.59766 l -0.0937,-0.0469 v 0.0937 q -0.45703,-0.0586 -0.71484,-0.1875 -0.24609,-0.14062 -0.375,-0.44531 -0.11719,-0.3164 -0.23437,-0.65625 0.17578,-0.24609 0.29296,-0.29297 l 0.0937,-0.3164 0.38672,-0.21094 0.21094,-0.45703 0.38672,-0.21094 v 0.0703 l 0.21094,0.0937 q 0.082,-0.0469 0.10547,-0.0703 0.0351,-0.0352 0.082,-0.0703 0.0586,-0.0469 0.28125,-0.0937 0.22265,-0.0586 0.33984,-0.12891 l 0.12891,-0.0703 h 0.0937 l 0.17578,0.26953 v 0.375 l 0.0469,0.33984 z m -1.69921,6.85546 h -0.0469 l -0.0937,0.60938 0.0937,0.0703 -0.16406,0.4336 -0.0469,-0.082 v 0.17579 q 0,0.51562 -0.43359,0.98437 h 0.0937 v 0.21094 h -0.0469 l 0.0469,1.37109 -0.0937,0.16406 0.0469,0.22266 -0.17578,0.85547 h 0.0586 q 0,0.23437 -0.11719,0.66797 l -0.10547,0.3164 -0.14062,1.5586 q -0.0469,0.23437 -0.0469,0.26953 0,0.21094 0.1875,0.21094 0.22266,0 0.49219,-0.17578 l 0.76172,-0.51563 q 0.3164,-0.38672 0.45703,-0.38672 h 0.0703 q 0.19922,-0.0937 0.375,-0.3164 0.17578,-0.22266 0.26953,-0.25782 0.17578,-0.3164 0.31641,-0.3164 0.0117,0 0.0937,0.0234 0.082,0.0234 0.43359,0.082 l 0.0937,0.32812 q 0,0.26953 -0.1875,0.62109 -0.1875,0.33985 -0.30469,0.57422 -0.10546,0.22266 -0.49218,0.36328 v 0.082 l -0.16407,-0.0469 v 0.16406 h -0.10546 q -0.0352,0.31641 -0.32813,0.36328 v 0.0703 h -0.31641 v 0.0469 h -0.11718 l -0.31641,0.21094 h -0.0937 l -0.16406,0.22266 -0.48047,0.0703 q -0.0703,0.14062 -0.22266,0.14062 l -0.59765,0.4336 v 0.0937 l -0.29297,-0.0469 0.082,0.11719 -0.38672,0.0937 v 0.0586 h -0.16406 v 0.16407 l -0.17578,0.11718 h -0.0469 v 0.0469 q -0.15234,0.43359 -0.43359,0.43359 l -0.16406,-0.0469 q -0.14063,-0.4336 -0.48047,-0.86719 0.0937,-0.375 0.0937,-0.55078 l -0.0937,-0.48047 v -0.25781 q 0,-0.36328 0.0703,-0.75 l 0.0703,-0.30469 v -0.0586 h -0.0234 q -0.0234,0 -0.0234,-0.0234 0,-0.0234 0.10547,-0.375 0.11718,-0.35156 0.11718,-0.91406 0,-0.14063 -0.10547,-0.16407 l 0.15235,-0.3164 v -1.41797 l 0.1875,-0.41016 q 0.0937,-0.1875 0.1875,-0.73828 0.15234,-0.0937 0.17578,-0.17578 l -0.0937,-0.14063 0.0937,-0.23437 q -0.1875,-0.36328 -0.43359,-0.36328 h -0.55079 q -0.0937,0.0937 -0.0937,0.21094 h -0.082 q -0.0586,0.3164 -0.30468,0.38671 -0.0586,0.30469 -0.33985,0.36329 l -0.21094,0.33984 h -0.0469 q -0.082,0.25781 -0.29297,0.25781 -0.23437,0 -0.38672,-0.33984 -0.14062,-0.33985 -0.14062,-0.375 0,-0.0469 0.0469,-0.10547 0.11719,-0.51563 0.72656,-0.85547 v -0.0937 q 0.25782,-0.25781 0.52735,-0.38672 h -0.10547 q 0.50391,-0.10547 0.58594,-0.51562 0.0937,-0.42188 0.62109,-0.42188 l 0.14063,0.0469 0.29296,-0.14063 h -0.17578 l 0.26953,-0.17578 0.0703,0.0469 0.21093,-0.25782 0.0586,0.0469 q 0.14062,-0.33985 0.64453,-0.33985 0.11719,0 0.11719,-0.0937 v -0.11718 h 0.0937 l -0.0469,-0.0469 0.38672,-0.26953 q 0.1875,-0.32812 0.59766,-0.32812 0.25781,0 0.44531,0.14062 0.19922,0.14063 0.19922,0.28125 0,0.15234 -0.16406,0.43359 z"
         id="path375" />
      <path
         d="m 325.21875,590.02368 0.45703,0.0586 0.65625,-0.082 v 0.82031 q -0.19922,0.15235 -0.19922,0.31641 -0.32812,0.1875 -0.32812,0.50391 0,0.14062 0.0234,0.21093 l -0.082,0.45703 -0.8789,1.58204 -0.12891,0.77343 -0.21094,0.28125 0.0234,0.59766 -0.33984,1.59375 q -0.0469,0.0469 -0.0469,0.0937 0,0.0937 0.11719,0.16406 l 0.53906,-0.66797 0.30469,-0.16406 0.24609,-0.5625 0.45703,-0.32812 0.55079,-0.84375 q 0.22265,-0.33985 0.96093,-0.6211 0,-0.19922 0.35157,-0.57422 0.0469,-0.0117 0.29296,-0.21093 0.2461,-0.19922 0.45704,-0.33985 l -0.0469,-0.082 q 0.84375,-0.45703 0.83203,-0.62109 0.59766,-0.25782 0.77344,-0.59766 0.84375,-0.77344 1.21875,-0.82031 0.0937,-0.0117 0.30469,-0.10547 0.22265,-0.10547 0.375,-0.12891 0.24609,-0.3164 0.64453,-0.3164 0.23437,0 0.23437,0.33984 l 0.0352,0.76172 -0.15234,0.43359 -0.0234,0.55078 -0.25781,0.65625 -0.26954,1.65235 q -0.0469,0.14062 -0.16406,0.16406 l 0.14063,0.52734 -0.16407,0.29297 0.28125,0.16407 -0.0937,0.15234 q -0.0703,0.0703 -0.23437,0.375 0.11719,0.11719 0.1875,0.22266 l -0.0703,0.9375 h 0.0469 q 0.11719,1.23046 0.26953,1.24218 l 0.50391,-0.1875 q 0.29297,-0.48047 0.90234,-0.82031 0.21094,-0.0352 0.31641,-0.14062 0.1875,0 0.23437,-0.11719 0.21094,-0.12891 0.375,-0.16406 0.16407,-0.0469 0.69141,-0.31641 l 0.39844,0.0937 q 0.14062,0.12891 0.17578,0.25781 -0.31641,0.38672 -0.69141,0.92578 -0.36328,0.53907 -0.51562,0.53907 h -0.32813 l -0.24609,0.36328 -0.59766,0.11718 -0.52734,0.67969 -0.43359,0.11719 -1.65235,1.14844 -0.5039,0.5039 -0.0703,-0.43359 -0.43359,0.0234 -0.15234,-0.71485 -0.23438,-0.1875 -0.0234,-0.82031 -0.11718,-0.50391 q 0,-0.63281 0.23437,-0.66796 v -0.0586 l 0.14063,-0.55078 -0.0234,-0.76172 0.26953,-0.52734 -0.1875,-0.22266 0.375,-0.43359 0.0234,-0.90235 0.19922,-0.43359 -0.33985,-0.45703 0.0937,-0.0234 v -0.33984 l 0.22266,-0.11719 v -0.0703 l -0.0234,-0.19922 v -0.0469 q -0.10547,-0.11718 -0.52734,-0.1875 l -0.5625,0.45704 -0.78516,0.36328 -1.14844,1.28906 -0.17578,0.26953 q -0.51562,0.51563 -0.5039,0.57422 l -0.23438,0.16406 q -0.0469,0.23438 -0.0469,0.31641 l -0.45704,0.52734 -0.48046,0.69141 -0.82032,1.30078 h -0.0469 l -0.14063,0.32812 -0.22265,0.77344 q -0.49219,0.41016 -0.87891,0.82031 l -0.38672,0.0937 -0.24609,0.41016 -0.16406,0.0234 -0.31641,-0.0703 q -0.25781,0 -0.55078,0.11718 l 0.24609,-0.48047 0.0937,-0.43359 q 0.45703,-1.11328 0.69141,-2.01562 h 0.0469 v -0.33985 l 0.2461,-0.6914 0.0937,-0.59766 h 0.0469 l -0.11719,-0.38672 0.11719,-0.72656 0.082,-0.25781 q 0.0352,-0.11719 0.32813,-0.50391 l -0.0703,-0.31641 0.14062,-0.21093 q -0.21094,-0.5625 -0.21094,-1.03125 l 0.0703,-0.38672 -0.0469,-0.0703 v -0.14062 q -0.32812,-0.22266 -0.72656,-0.22266 -0.12891,0 -0.28125,0.0703 -0.14063,0.0703 -0.4336,0.63281 -0.76171,0.25781 -0.89062,0.32812 l -0.21094,-0.45703 q 0,-0.19922 0.11719,-0.30469 0.12891,-0.10546 0.21094,-0.10546 h 0.19922 l 0.1875,-0.25782 0.36328,-0.0937 -0.14063,-0.0937 v -0.1289 l 0.44531,0.0703 0.48047,-0.52734 0.67969,-0.39844 0.11719,-0.15235 h 0.0703 l -0.11719,-0.16406 q 0.0937,0.0469 0.14063,0.0469 0.0937,0 0.0937,-0.21094 0.41015,-0.49219 0.86719,-0.55078 0.14062,-0.36328 0.52734,-0.38672 v -0.11719 z"
         id="path377" />
      <path
         d="m 352.875,585.23071 0.66797,0.38672 -0.0703,0.26953 q -0.0469,0.15234 -0.14063,0.25781 l -0.24609,0.28125 -0.21094,0.0469 v 0.33984 l -0.52734,0.0937 q -0.59766,0.38672 -0.9375,0.55078 l -0.23438,0.0352 q -0.10547,0.0117 -0.41016,0.23437 l -0.38671,-0.0937 -0.4336,0.0937 0.0469,0.4336 h -0.0469 l 0.0937,0.375 -0.0469,0.5039 -0.0469,0.0586 0.0937,0.0937 -0.0469,0.76172 v 0.38671 H 349.875 l 0.11719,0.38672 v 0.86719 l -0.16407,0.71484 -0.0469,0.64454 -0.22266,0.9375 -0.5039,3 -0.21094,0.14062 0.0703,0.29297 -0.24609,0.31641 v 0.43359 h -0.14063 l -0.21093,0.59766 q -0.11719,0.59765 -0.22266,0.9375 l -0.23438,0.25781 -0.75,2.30859 -0.28125,0.76172 -0.59765,0.48047 0.21094,0.48047 -0.26954,0.38672 v 0.16406 l -0.23437,0.23437 q -0.0937,0.10547 -0.45703,0.70313 l -0.23438,0.43359 -0.22265,0.16407 -0.19922,0.38671 q -0.10547,0.22266 -0.1875,0.28125 l -0.25781,0.1875 q -0.16407,0.12891 -0.38672,0.17579 -0.12891,0.42187 -0.36328,0.62109 -0.22266,0.19922 -0.32813,0.19922 h -0.22266 l -0.11718,0.21094 -0.4336,0.22265 -0.0469,0.33985 -0.38672,0.25781 -0.11719,-0.0469 q -0.58594,0.42188 -0.76172,0.59766 h -0.10547 l -0.21093,0.31641 -0.21094,0.0703 -0.22266,0.14062 -0.19922,0.082 q -0.0937,0.0469 -0.39843,0.375 l -0.33985,0.0937 q -0.23437,0.35157 -0.59765,0.4336 l -0.0469,0.22265 -0.0469,-0.0469 v 0.11719 l -0.89063,0.64453 -0.3164,0.0469 -0.11719,-0.25781 -0.38672,-0.17578 0.082,-0.64453 0.35156,-0.0703 q 0.65625,-0.51563 0.89063,-0.64454 h 0.0469 l 0.33985,-0.17578 0.59765,-0.375 0.48047,-0.36328 0.4336,-0.24609 0.59765,-0.48047 0.38672,-0.0937 q 0.23438,-0.29297 0.32813,-0.55078 l 0.15234,0.0469 q 0.30469,-0.41015 0.98437,-0.76172 l 0.16407,-0.38671 0.16406,-0.0937 0.82031,-0.86719 0.48047,-0.72656 0.29297,-0.55079 0.21094,-0.21093 0.21093,-0.52735 0.38672,-0.66797 0.0469,-0.26953 0.59765,-1.37109 0.0586,-0.375 0.32812,-1.25391 v 0.33985 l 0.14063,-0.50391 q 0.0351,-0.0937 0.19922,-0.26953 l -0.0703,-0.33984 0.16407,-0.64454 0.16406,-0.0937 0.0586,-0.71484 0.082,-0.23437 q 0.0352,-0.10547 0.2461,-0.375 l -0.11719,-0.32813 0.0703,-0.31641 -0.0703,-0.25781 0.33984,-0.33984 -0.1289,-0.33985 q 0.1289,-0.52734 0.22265,-0.6914 l -0.0469,-0.0703 0.11719,-0.22266 -0.21094,-0.48047 0.21094,-0.375 -0.0703,-0.60937 0.16407,-0.16407 -0.0469,-0.52734 -0.33984,-0.33984 q 0.17578,-0.15235 0.29297,-0.38672 l -0.16407,-0.55078 -0.65625,-0.90235 v -0.43359 l 0.15235,-0.45703 -0.36328,-1.41797 -0.55078,-0.0937 -0.17579,0.0469 -0.42187,-0.0937 -0.38672,0.0469 -0.11719,-0.11719 -0.45703,0.0937 q -0.0703,0.0234 -0.41015,0.28125 l -0.59766,-0.25781 -0.26953,-0.59766 0.26953,-0.38672 0.28125,-0.0469 0.52734,-0.55078 0.29297,-0.0586 0.69141,-0.5039 0.38672,-0.0937 h 0.98437 l 0.31641,0.17578 0.16406,-0.17578 0.11719,0.0469 0.86719,0.0469 q 0.65625,-0.2461 0.82031,-0.25782 l 0.32812,0.16407 v 0.17578 l 0.31641,0.21094 h 1.48828 l 0.30469,-0.16407 h 0.43359 z"
         id="path379" />
      <path
         d="m 362.40234,589.30883 q 0.082,-0.0234 0.45703,0.0234 0.375,0.0469 0.48047,0.16406 l 0.39844,-0.0937 0.22266,0.0234 0.16406,0.31641 -0.0234,0.23437 q -0.23437,0.1875 -0.3164,0.41016 h -0.11719 l -0.12891,0.14062 q -0.0586,0.0586 -0.49219,0.19922 l -0.0234,2.17969 0.1875,1.125 0.0234,1.16016 0.17579,1.41797 0.73828,2.01562 q 0.19922,0.22266 0.26953,0.35156 0.58594,-0.32812 0.73828,-0.32812 0.48047,-0.55078 0.62109,-0.57422 v -0.12891 l 1.32422,-1.125 0.0234,-0.21093 q 0.12891,-0.0234 0.50391,-0.45704 l 0.43359,0.0937 0.23437,0.52735 -0.0937,0.45703 -0.23437,-0.0937 -0.11719,0.25781 h -0.22265 q -0.12891,0.35156 -0.38672,0.57422 v 0.12891 l -0.64453,0.59765 -0.11719,0.30469 q -0.22266,0.15234 -0.75,0.41016 l -0.0937,0.17578 -0.0234,-0.0586 -0.14062,0.2461 -0.31641,0.0937 -0.0469,0.16406 h -0.16406 l 0.0703,0.17578 -0.1875,0.36328 -0.17578,0.0469 q 0.0234,0.1875 -0.38672,0.6914 l -0.55078,0.0234 -0.11718,0.33985 -0.33985,0.0937 q -0.38672,-0.10547 -0.62109,-0.48047 l -0.78516,-1.27735 -0.75,-1.67578 0.0703,-0.62109 -0.16406,-0.55078 0.11719,-0.0234 q -0.33984,-0.67969 -0.33984,-1.03125 l 0.0586,-0.43359 -0.36328,-0.22266 -0.2461,0.15234 v -0.0586 l -0.11718,0.0586 -0.31641,0.8086 -0.16406,-0.0703 -0.0469,0.16407 -0.11718,-0.0469 v 0.10547 h -0.0469 q -0.0117,0.0703 -0.33984,0.59766 l -0.0937,-0.0469 -0.0703,0.50391 -0.24609,0.1289 q -0.24609,0.12891 -0.31641,0.30469 l -0.0937,0.23438 0.10547,0.14062 -0.26953,0.0937 -0.11719,0.48047 -0.19921,0.10547 0.0586,0.0937 q -0.28125,0.21094 -0.45703,0.28125 l -0.10547,0.17578 -0.0937,-0.12891 -0.16406,0.41016 h -0.14063 l -0.19922,0.67969 -0.21093,0.0703 -0.0234,0.35156 h -0.33985 l -0.33984,0.77344 -0.16406,0.11719 h -0.14063 l -0.0469,0.22265 -0.75,0.28125 -0.78516,0.0234 -0.33984,-2.22656 0.14062,-0.29297 0.0352,-0.23437 q 0.0117,-0.0937 0.28125,-0.70313 l -0.0469,-0.16406 q 0.21094,-0.48047 0.28125,-0.57422 l -0.0937,-0.0469 0.22266,-0.57421 0.0117,-0.22266 q 0.0117,-0.0937 0.17578,-0.43359 -0.0937,-0.5625 -0.1875,-0.64454 l 0.0937,-0.16406 0.30469,0.0469 q 0.26953,-0.36328 0.33984,-0.38672 l 0.0703,-0.21094 h 0.0469 l -0.16406,-0.24609 0.14062,-0.6211 0.0937,0.0469 q 0.14063,-0.36328 0.17578,-0.36328 l -0.0469,-0.30469 0.32812,-0.60938 v -0.16406 l -0.0703,-0.14062 0.48047,-1.03125 0.55078,-0.75 q 0.28125,-0.2461 0.48047,-0.55078 l 0.41016,-0.16407 0.55078,-0.57422 0.52734,-0.3164 h 0.31641 l 0.25781,-0.0703 h 0.36328 l 0.16406,-0.26954 0.33985,0.0234 h 0.33984 v -0.0937 q 0.14063,0.0117 0.30469,0.11719 l 0.36328,-0.14063 0.26953,0.0703 0.0703,-0.0937 0.28125,0.0937 z m -3.02343,1.85157 -0.29297,0.0469 -0.36328,-0.0234 -0.11719,0.21094 v 0.17578 q -0.1875,0.0937 -0.41016,0.16407 l -0.21094,0.52734 q -0.16406,0.70312 -0.19921,0.71484 h -0.11719 l -0.16406,0.38672 -0.082,0.32813 q -0.0351,0.15234 -0.23437,0.24609 l -0.11719,0.41016 -0.1875,0.35156 q -0.10547,0.19922 -0.10547,0.42187 v 0.0937 l -0.11718,-0.0937 v 0.1875 h -0.0703 l 0.0234,0.11719 -0.0937,0.19922 -0.14062,0.62109 -0.2461,0.50391 -0.0469,0.71484 -0.0703,0.10547 h -0.0469 l -0.0469,0.21094 0.0937,0.0937 -0.11718,0.43359 h -0.0469 l 0.0469,0.14063 h -0.17578 l 0.0234,0.86719 0.10547,0.41015 h 0.0469 l 0.25781,-0.24609 0.67969,-0.96094 1.21875,-1.60547 0.36328,-0.38672 0.80859,-1.3125 0.84375,-1.125 0.0703,-0.24609 -0.16406,-0.21094 0.30469,-0.52734 0.0703,-0.39844 q 0.0117,-0.0586 0.19922,-0.30469 l 0.0234,-0.9375 -0.31641,-0.0234 H 360 l -0.33984,-0.23438 -0.0703,0.11719 z"
         id="path381" />
      <path
         d="m 376.26562,597.78149 q -0.0937,0 -0.0937,0.38672 -0.16406,0.1875 -0.3164,0.375 -0.14063,0.1875 -0.28125,0.26953 l -0.17578,-0.0469 q -0.17578,0.14062 -0.21094,0.33984 -0.0234,0.0469 -0.11719,0.0469 -0.0703,0 -0.10547,-0.1289 -0.14062,0.29297 -0.375,0.29297 v 0.11718 h -0.10547 l -0.11718,-0.0703 q -0.21094,0.15235 -0.21094,0.33985 h -0.17578 l 0.0469,-0.0703 h -0.0937 v 0.11719 l -0.16406,0.21094 h -0.21094 v 0.0469 h -0.1289 v 0.082 l -0.21094,0.0469 v 0.0469 l -0.0937,-0.0469 -0.0469,0.0937 -0.082,-0.0937 -0.48047,0.25781 0.0586,0.0469 h -0.10547 q -0.0469,0.22265 -0.28125,0.22265 -0.0703,0.16407 -0.22266,0.16407 l -0.0469,0.0703 q -0.26953,0 -0.49219,0.28125 -0.21094,0.28125 -0.36328,0.3164 l -0.082,-0.11718 -0.0469,0.11718 0.12891,0.0469 h -0.17578 v 0.0586 q -0.21094,0.0469 -0.55078,0.375 -0.25782,-0.0703 -0.33985,-0.21093 l -0.6914,-1.3711 q 0.0937,-0.0586 0.0937,-0.1875 0,-0.17578 -0.0937,-0.36328 h 0.0469 l -0.21094,-0.59766 h 0.11719 l -0.11719,-0.14062 0.0469,-0.082 q 0.0703,0 0.0703,-0.0703 v -0.0703 l 0.0937,0.0469 v -0.11719 l 0.0469,-0.16406 0.24609,-0.10547 -0.0703,-0.0469 q 0.15234,-0.24609 0.1875,-0.67968 0.0351,-0.4336 0.0937,-0.51563 l -0.11719,-0.21094 v -0.29296 l 0.11719,-0.38672 0.0469,0.0703 q 0.0937,-0.14063 0.17578,-0.43359 -0.0234,-0.0352 -0.0234,-0.14063 0,-0.11719 0.0117,-0.14062 l 0.22265,-0.22266 -0.0703,-0.25781 0.16406,-0.21094 v -0.082 l 0.0703,0.082 v -0.22266 l -0.0703,-0.0703 h 0.0703 l 0.15235,-0.43359 v -0.0469 l 0.0703,0.0469 0.0937,-0.69141 h 0.0469 l 0.24609,-0.72656 -0.082,0.0469 0.38672,-1.03125 h -0.0469 l 0.38672,-0.52734 v -0.28125 l 0.0937,-0.26953 q -0.0937,-0.0234 -0.21094,-0.21094 l 0.32813,-0.55078 v -0.5625 l -0.21094,-0.14063 q 0,-0.0586 0.0937,-0.21093 -0.0586,-0.19922 -0.0937,-0.2461 l -0.55078,-0.80859 -0.0937,-0.0469 q -0.1875,0 -0.33984,0.11719 h -0.0703 q -0.29297,0 -0.43359,-0.29297 l 0.11719,-0.38672 -0.0469,-0.14062 0.31641,-0.21094 -0.0469,-0.0703 q 0.375,-0.082 0.52735,-0.35156 0.16406,-0.26953 0.28125,-0.42188 0.15234,0 0.25781,-0.0469 0.11719,-0.0469 0.17578,-0.12891 0.0586,-0.0937 0.11719,-0.1875 h 0.17578 l 0.21094,-0.32812 v -0.12891 l 0.16406,-0.14063 q 0.15234,0 0.22266,-0.21093 l -0.0703,-0.12891 0.11719,0.0586 0.16406,-0.10546 q 0.0586,-0.17579 0.22266,-0.2461 0.17578,-0.082 0.48047,-0.25781 0.0351,-0.14063 0.28125,-0.21094 v -0.0469 l 0.26953,-0.0469 v -0.0703 l 0.85547,-0.48047 v -0.0469 q 0.10547,-0.17579 0.29297,-0.17579 0.3164,0 0.3164,0.6211 v 0.24609 h -0.0469 v 0.16406 q 0,0.55079 -0.4336,0.77344 -0.0234,0.16406 -0.16406,0.26953 -0.1289,0.10547 -0.38672,0.42188 h 0.0469 q -0.1875,0.11719 -0.23438,0.5039 -0.0351,0.38672 -0.15234,0.70313 l -0.0469,-0.0586 0.0469,0.22265 h -0.0469 l -0.0469,0.0469 0.0937,0.0937 q -0.12891,0.11718 -0.14063,0.26953 -0.0117,0.14062 -0.0469,0.14062 h -0.0352 l -0.21093,0.26953 q 0.21093,0.14063 0.21093,0.30469 0,0.0937 -0.14062,0.11719 v 0.12891 l -0.0703,-0.0469 v 0.59766 h -0.21094 l -0.10547,0.35156 0.0586,0.33984 -0.1289,0.26953 v 0.0703 h -0.0937 l 0.0469,0.25781 -0.0937,-0.0469 -0.16406,1.03125 -0.33984,1.07813 -0.0937,0.43359 q -0.17579,0.21094 -0.17579,0.33985 0,0.10547 0.0586,0.33984 -0.39844,0.85547 -0.48047,1.67578 l -0.12891,0.0469 -0.0469,0.0703 q -0.0352,0.23437 -0.11719,0.36328 l -0.0469,1.05469 0.11718,0.36328 -0.0703,0.71484 0.33984,0.70313 q -0.21093,0 -0.26953,0.16406 h -0.0703 l 0.21094,0.21094 -0.0469,0.17578 h 0.12891 l 0.21094,0.21094 0.21093,-0.21094 0.26954,-0.11719 q 0.11718,-0.0586 0.33984,-0.26953 h 0.25781 v -0.0937 l 0.0469,0.0469 q 0.35156,-0.36329 0.72656,-0.38672 l -0.0469,-0.0469 0.375,-0.11719 v -0.0937 q 0.33985,-0.0703 0.52735,-0.33984 0.42187,-0.0703 0.5625,-0.31641 h 0.0937 l 0.32812,-0.23437 z"
         id="path383" />
      <path
         d="m 384.94922,584.60962 h -0.0703 l -0.4336,0.92578 -0.0469,-0.0469 q 0,0.12891 -0.11719,0.22266 v 0.0469 q -0.25781,0.41016 -0.64453,0.59766 l -0.0937,-0.0469 v 0.0937 q -0.45703,-0.0586 -0.71485,-0.1875 -0.24609,-0.14062 -0.375,-0.44531 -0.11718,-0.3164 -0.23437,-0.65625 0.17578,-0.24609 0.29297,-0.29297 l 0.0937,-0.3164 0.38672,-0.21094 0.21093,-0.45703 0.38672,-0.21094 v 0.0703 l 0.21094,0.0937 q 0.082,-0.0469 0.10547,-0.0703 0.0352,-0.0352 0.082,-0.0703 0.0586,-0.0469 0.28125,-0.0937 0.22266,-0.0586 0.33984,-0.12891 l 0.12891,-0.0703 h 0.0937 l 0.17578,0.26953 v 0.375 l 0.0469,0.33984 z m -1.69922,6.85546 h -0.0469 l -0.0937,0.60938 0.0937,0.0703 -0.16406,0.4336 -0.0469,-0.082 v 0.17579 q 0,0.51562 -0.4336,0.98437 h 0.0937 v 0.21094 h -0.0469 l 0.0469,1.37109 -0.0937,0.16406 0.0469,0.22266 -0.17578,0.85547 h 0.0586 q 0,0.23437 -0.11719,0.66797 l -0.10547,0.3164 -0.14062,1.5586 q -0.0469,0.23437 -0.0469,0.26953 0,0.21094 0.1875,0.21094 0.22266,0 0.49219,-0.17578 l 0.76172,-0.51563 q 0.31641,-0.38672 0.45703,-0.38672 h 0.0703 q 0.19922,-0.0937 0.375,-0.3164 0.17579,-0.22266 0.26954,-0.25782 0.17578,-0.3164 0.3164,-0.3164 0.0117,0 0.0937,0.0234 0.082,0.0234 0.4336,0.082 l 0.0937,0.32812 q 0,0.26953 -0.1875,0.62109 -0.1875,0.33985 -0.30469,0.57422 -0.10547,0.22266 -0.49219,0.36328 v 0.082 l -0.16406,-0.0469 v 0.16406 H 384.375 q -0.0352,0.31641 -0.32813,0.36328 v 0.0703 h -0.3164 v 0.0469 h -0.11719 l -0.31641,0.21094 h -0.0937 l -0.16406,0.22266 -0.48047,0.0703 q -0.0703,0.14062 -0.22265,0.14062 l -0.59766,0.4336 v 0.0937 l -0.29297,-0.0469 0.082,0.11719 -0.38672,0.0937 v 0.0586 h -0.16406 v 0.16407 l -0.17578,0.11718 h -0.0469 v 0.0469 q -0.15235,0.43359 -0.4336,0.43359 l -0.16406,-0.0469 q -0.14063,-0.4336 -0.48047,-0.86719 0.0937,-0.375 0.0937,-0.55078 l -0.0937,-0.48047 v -0.25781 q 0,-0.36328 0.0703,-0.75 l 0.0703,-0.30469 v -0.0586 h -0.0234 q -0.0234,0 -0.0234,-0.0234 0,-0.0234 0.10547,-0.375 0.11719,-0.35156 0.11719,-0.91406 0,-0.14063 -0.10547,-0.16407 l 0.15234,-0.3164 v -1.41797 l 0.1875,-0.41016 q 0.0937,-0.1875 0.1875,-0.73828 0.15235,-0.0937 0.17578,-0.17578 l -0.0937,-0.14063 0.0937,-0.23437 q -0.1875,-0.36328 -0.43359,-0.36328 h -0.55078 q -0.0937,0.0937 -0.0937,0.21094 h -0.082 q -0.0586,0.3164 -0.30469,0.38671 -0.0586,0.30469 -0.33984,0.36329 l -0.21094,0.33984 h -0.0469 q -0.082,0.25781 -0.29297,0.25781 -0.23437,0 -0.38671,-0.33984 -0.14063,-0.33985 -0.14063,-0.375 0,-0.0469 0.0469,-0.10547 0.11718,-0.51563 0.72656,-0.85547 v -0.0937 q 0.25781,-0.25781 0.52734,-0.38672 h -0.10547 q 0.50391,-0.10547 0.58594,-0.51562 0.0937,-0.42188 0.62109,-0.42188 l 0.14063,0.0469 0.29297,-0.14063 h -0.17578 l 0.26953,-0.17578 0.0703,0.0469 0.21094,-0.25782 0.0586,0.0469 q 0.14063,-0.33985 0.64453,-0.33985 0.11719,0 0.11719,-0.0937 v -0.11718 h 0.0937 l -0.0469,-0.0469 0.38671,-0.26953 q 0.1875,-0.32812 0.59766,-0.32812 0.25781,0 0.44531,0.14062 0.19922,0.14063 0.19922,0.28125 0,0.15234 -0.16406,0.43359 z"
         id="path385" />
      <path
         d="m 393.92578,581.63305 0.17578,-0.1289 0.25781,0.17578 0.22266,-0.0469 0.16406,0.21094 0.33985,-0.0937 q 0.24609,0 0.375,0.25781 l 0.43359,0.82032 q 0,0.64453 -0.375,0.64453 h -0.12891 l -0.52734,0.60937 0.0469,0.11719 -0.11719,-0.0703 q -0.11719,0.25781 -0.48047,0.28125 v 0.0937 Q 394.05469,584.17602 393,583.74243 l -0.15234,0.11719 -0.0703,-0.11719 q -0.16406,0.19922 -0.3164,0.59765 -0.11719,0.0937 -0.11719,0.1875 0,0.0586 0.0469,0.15235 -0.15234,0.15234 -0.25781,0.32812 v 0.38672 q -0.0703,0.32813 -0.22265,0.64453 h -0.0469 q -0.16406,0.41016 -0.16406,0.82032 -0.14063,0.0469 -0.14063,0.26953 0,0.11718 0.0234,0.16406 -0.0469,0.28125 -0.15234,0.48047 h -0.0703 q -0.21093,0.42187 -0.21093,0.45703 l -0.0469,-0.0703 v 0.11718 q -0.25781,0.51563 -0.33984,0.91407 l -0.14063,0.71484 v 0.55078 l 0.0469,0.10547 q -0.0469,0.0937 -0.16406,0.21094 l -0.0586,-0.0469 -0.11719,0.25782 v 0.5039 l -0.21093,0.38672 v 0.64453 l -0.0937,0.4336 v 0.5039 l -0.29297,1.25391 -0.0469,0.86719 q -0.0937,0 -0.0937,0.0703 0,0.0586 0.0937,0.0937 l -0.0469,0.38672 q 0.1289,0.25781 0.38672,0.25781 l 0.0469,-0.16406 0.4336,-0.59766 h 0.0469 v -0.10547 q 0.17578,-0.1875 0.42188,-0.59765 0.24609,-0.41016 0.45703,-0.4336 l 0.22265,-0.32812 0.0937,0.0469 q 0.12891,-0.15234 0.16407,-0.26953 l 0.0469,0.0469 0.082,-0.25782 0.0937,0.0469 0.0937,-0.23438 q 0.0234,-0.082 0.15235,-0.1875 l 0.30468,-0.26953 0.69141,-0.33984 -0.0469,-0.0469 1.03125,-0.72656 0.50391,-0.25781 q 0.14063,-0.11719 0.31641,-0.17578 l 0.38672,0.22265 0.375,0.0469 0.1289,0.0703 q 0.0469,0.0234 0.0937,0.14063 0.0469,0.11718 0.0469,0.1289 v 0.25781 l 0.29297,0.59766 -0.082,0.50391 0.2461,0.48047 0.0469,0.60937 0.16407,0.76172 -0.375,0.43359 0.0469,0.21094 q 0.64453,0.36328 0.64453,1.03125 l -0.0937,0.38672 0.21094,0.55078 -0.0469,0.55078 0.0937,0.75 q -0.0469,0.0586 -0.1289,0.14063 -0.0703,0.082 -0.082,0.0937 0.23437,0.21093 0.55078,0.36328 0.1289,-0.17578 0.26953,-0.25781 0.14062,-0.082 0.375,-0.33985 h 0.22266 l 0.0703,-0.11719 0.11719,-0.0469 v -0.12891 l 0.3164,-0.23437 q 0.14063,-0.0703 0.33985,-0.22266 l 0.39843,-0.30469 q 0.14063,-0.0117 0.30469,-0.17578 0.16406,-0.16406 0.24609,-0.21093 l 0.33985,-0.0234 0.0469,-0.16406 0.6211,0.1875 -0.0469,0.21093 0.0469,0.4336 q -0.36328,0.26953 -0.4336,0.60937 l -0.0469,-0.0586 -0.11719,0.22265 -0.21094,0.11719 -0.0469,0.14063 q -0.30469,0.082 -0.70313,0.1289 v 0.0937 q -0.38672,0.1875 -0.55078,0.1875 l -0.0703,0.36328 -0.24609,0.14063 q -0.26954,0.24609 -0.6211,0.24609 -0.25781,0.46875 -0.52734,0.48047 l -0.33985,0.375 -0.42187,0.0586 v 0.0937 q -0.12891,0 -0.70313,0.21093 l -0.0469,0.11719 -0.11719,-0.0469 q -0.0703,0.26953 -0.55078,0.26953 -0.19922,0 -0.43359,-0.35157 -0.22266,-0.35156 -0.22266,-0.42187 v -0.0937 q -0.0937,-0.79688 -0.0937,-1.10156 l 0.0234,-0.11719 -0.0937,-0.31641 v -0.59765 l -0.30469,-0.4336 0.0469,-0.38672 -0.12891,-1.37109 0.24609,-0.85547 -0.5039,-0.59765 q -0.26953,-0.30469 -0.26953,-0.86719 h -0.0469 q 0.0937,-0.16406 0.0937,-0.2461 0,-0.30468 -0.42187,-0.35156 l -0.33985,0.16406 h -0.22265 l -0.0469,0.21094 -0.0469,-0.0703 q -0.0352,0.53906 -0.45704,0.59766 v 0.082 q -0.35156,0.21093 -0.35156,0.42187 l 0.0234,0.15235 q 0,0.0703 -0.0234,0.11718 l -0.17578,0.0469 -0.16406,0.38672 -0.16406,0.11718 q -0.0234,0.36329 -0.4336,0.64454 -0.0703,0.35156 -0.38672,0.55078 -0.17578,0.48047 -0.48047,0.77343 l -0.16406,0.64454 0.32813,0.26953 -0.375,0.38672 h -0.082 l -0.14063,0.42187 v 0.38672 l -0.11719,0.17578 -0.0937,0.25781 q -0.0234,0.0703 -0.16406,0.19922 l -0.33984,0.30469 -0.12891,-0.0703 -0.0937,0.29297 h -0.11719 q -0.11718,0.25781 -0.43359,0.25781 l -0.0469,0.38672 h -0.21093 l -0.22266,0.25781 -0.32812,-0.0469 q -0.082,0.12891 -0.22266,0.26954 l -0.21094,-0.31641 q 0.16406,-0.12891 0.16406,-0.30469 0,-0.10547 -0.11718,-0.29297 0.082,-0.0352 0.0937,-0.1289 0.0234,-0.0937 0.11718,-0.46875 h -0.0469 q 0.0937,-0.16407 0.0937,-0.31641 0,-0.14062 -0.0469,-0.28125 h 0.0703 q 0.0469,-0.66797 0.22265,-0.98437 -0.0703,-0.15235 -0.0703,-0.2461 l 0.0703,-0.36328 v -0.16406 l 0.16407,-0.52735 h 0.0469 v -0.11718 l 0.17578,-0.77344 0.0469,0.0703 -0.0469,-0.375 0.0937,-0.24609 0.21094,-0.14063 -0.21094,-0.33984 0.21094,-0.80859 v -0.22266 q 0.11719,-0.0703 0.11719,-0.16406 l -0.0469,-0.22266 v -0.0469 h 0.10547 l -0.0586,-0.64454 v -0.16406 l 0.0586,-0.1289 h -0.0586 l 0.0586,-0.42188 q 0.12891,-0.19922 0.1875,-0.46875 0.0703,-0.28125 0.0703,-0.30469 v -0.3164 l 0.21094,-0.28125 q 0.15234,-0.0352 0.15234,-0.15235 0,-0.17578 -0.19921,-0.59765 l 0.22265,-0.50391 v -0.43359 l 0.16406,-0.48047 0.0469,0.0586 0.0703,-0.43359 0.082,-0.2461 -0.0351,-0.0937 q 0,-0.14062 0.17578,-0.38671 h -0.0703 q 0,-0.0937 0.0703,-0.16407 l -0.0703,-0.0469 q 0.16406,-0.2461 0.16406,-0.33985 v -0.0937 h 0.0703 q 0.0469,-0.29296 0.14063,-0.38671 l 0.17578,-0.0469 v -0.28125 q 0.0937,-0.38672 0.0937,-0.63281 v -0.38672 q 0,-0.14063 0.0703,-0.28125 l 0.11719,-0.0469 v -0.45703 l 0.1289,-0.36328 q 0.1875,-0.22265 0.1875,-0.57422 v -0.14062 l 0.21094,-0.59766 q 0,-0.15234 0.12891,-0.26953 h 0.0469 l 0.25781,-0.77344 q 0.25782,-0.39843 0.33985,-0.46875 0.63281,-0.082 0.86719,-0.72656 0.19921,0 0.32812,-0.16406 l 0.43359,-0.0937 0.33985,0.0469 0.21094,-0.1289 z"
         id="path387" />
      <path
         d="m 410.77734,589.30883 q 0.082,-0.0234 0.45703,0.0234 0.375,0.0469 0.48047,0.16406 l 0.39844,-0.0937 0.22266,0.0234 0.16406,0.31641 -0.0234,0.23437 q -0.23437,0.1875 -0.3164,0.41016 h -0.11719 l -0.12891,0.14062 q -0.0586,0.0586 -0.49219,0.19922 l -0.0234,2.17969 0.1875,1.125 0.0234,1.16016 0.17579,1.41797 0.73828,2.01562 q 0.19922,0.22266 0.26953,0.35156 0.58594,-0.32812 0.73828,-0.32812 0.48047,-0.55078 0.62109,-0.57422 v -0.12891 l 1.32422,-1.125 0.0234,-0.21093 q 0.12891,-0.0234 0.50391,-0.45704 l 0.43359,0.0937 0.23437,0.52735 -0.0937,0.45703 -0.23437,-0.0937 -0.11719,0.25781 h -0.22265 q -0.12891,0.35156 -0.38672,0.57422 v 0.12891 l -0.64453,0.59765 -0.11719,0.30469 q -0.22266,0.15234 -0.75,0.41016 l -0.0937,0.17578 -0.0234,-0.0586 -0.14062,0.2461 -0.31641,0.0937 -0.0469,0.16406 h -0.16406 l 0.0703,0.17578 -0.1875,0.36328 -0.17578,0.0469 q 0.0234,0.1875 -0.38672,0.6914 l -0.55078,0.0234 -0.11718,0.33985 -0.33985,0.0937 q -0.38672,-0.10547 -0.62109,-0.48047 l -0.78516,-1.27735 -0.75,-1.67578 0.0703,-0.62109 -0.16406,-0.55078 0.11719,-0.0234 q -0.33984,-0.67969 -0.33984,-1.03125 l 0.0586,-0.43359 -0.36328,-0.22266 -0.2461,0.15234 v -0.0586 l -0.11718,0.0586 -0.31641,0.8086 -0.16406,-0.0703 -0.0469,0.16407 -0.11718,-0.0469 v 0.10547 h -0.0469 q -0.0117,0.0703 -0.33984,0.59766 l -0.0937,-0.0469 -0.0703,0.50391 -0.24609,0.1289 q -0.24609,0.12891 -0.31641,0.30469 l -0.0937,0.23438 0.10547,0.14062 -0.26953,0.0937 -0.11719,0.48047 -0.19921,0.10547 0.0586,0.0937 q -0.28125,0.21094 -0.45703,0.28125 l -0.10547,0.17578 -0.0937,-0.12891 -0.16406,0.41016 h -0.14063 l -0.19922,0.67969 -0.21093,0.0703 -0.0234,0.35156 h -0.33985 l -0.33984,0.77344 -0.16406,0.11719 h -0.14063 l -0.0469,0.22265 -0.75,0.28125 -0.78516,0.0234 -0.33984,-2.22656 0.14062,-0.29297 0.0352,-0.23437 q 0.0117,-0.0937 0.28125,-0.70313 l -0.0469,-0.16406 q 0.21094,-0.48047 0.28125,-0.57422 l -0.0937,-0.0469 0.22266,-0.57421 0.0117,-0.22266 q 0.0117,-0.0937 0.17578,-0.43359 -0.0937,-0.5625 -0.1875,-0.64454 l 0.0937,-0.16406 0.30469,0.0469 q 0.26953,-0.36328 0.33984,-0.38672 l 0.0703,-0.21094 h 0.0469 l -0.16406,-0.24609 0.14062,-0.6211 0.0937,0.0469 q 0.14063,-0.36328 0.17578,-0.36328 l -0.0469,-0.30469 0.32812,-0.60938 v -0.16406 l -0.0703,-0.14062 0.48047,-1.03125 0.55078,-0.75 q 0.28125,-0.2461 0.48047,-0.55078 l 0.41016,-0.16407 0.55078,-0.57422 0.52734,-0.3164 h 0.31641 l 0.25781,-0.0703 h 0.36328 l 0.16406,-0.26954 0.33985,0.0234 h 0.33984 v -0.0937 q 0.14063,0.0117 0.30469,0.11719 l 0.36328,-0.14063 0.26953,0.0703 0.0703,-0.0937 0.28125,0.0937 z m -3.02343,1.85157 -0.29297,0.0469 -0.36328,-0.0234 -0.11719,0.21094 v 0.17578 q -0.1875,0.0937 -0.41016,0.16407 l -0.21094,0.52734 q -0.16406,0.70312 -0.19921,0.71484 h -0.11719 l -0.16406,0.38672 -0.082,0.32813 q -0.0351,0.15234 -0.23437,0.24609 l -0.11719,0.41016 -0.1875,0.35156 q -0.10547,0.19922 -0.10547,0.42187 v 0.0937 l -0.11718,-0.0937 v 0.1875 h -0.0703 l 0.0234,0.11719 -0.0937,0.19922 -0.14062,0.62109 -0.2461,0.50391 -0.0469,0.71484 -0.0703,0.10547 h -0.0469 l -0.0469,0.21094 0.0937,0.0937 -0.11718,0.43359 h -0.0469 l 0.0469,0.14063 h -0.17578 l 0.0234,0.86719 0.10547,0.41015 h 0.0469 l 0.25781,-0.24609 0.67969,-0.96094 1.21875,-1.60547 0.36328,-0.38672 0.80859,-1.3125 0.84375,-1.125 0.0703,-0.24609 -0.16406,-0.21094 0.30469,-0.52734 0.0703,-0.39844 q 0.0117,-0.0586 0.19922,-0.30469 l 0.0234,-0.9375 -0.31641,-0.0234 H 408.375 l -0.33984,-0.23438 -0.0703,0.11719 z"
         id="path389" />
      <path
         d="m 424.64062,597.78149 q -0.0937,0 -0.0937,0.38672 -0.16406,0.1875 -0.3164,0.375 -0.14063,0.1875 -0.28125,0.26953 l -0.17578,-0.0469 q -0.17578,0.14062 -0.21094,0.33984 -0.0234,0.0469 -0.11719,0.0469 -0.0703,0 -0.10547,-0.1289 -0.14062,0.29297 -0.375,0.29297 v 0.11718 h -0.10547 l -0.11718,-0.0703 q -0.21094,0.15235 -0.21094,0.33985 h -0.17578 l 0.0469,-0.0703 h -0.0937 v 0.11719 l -0.16406,0.21094 h -0.21094 v 0.0469 h -0.1289 v 0.082 l -0.21094,0.0469 v 0.0469 l -0.0937,-0.0469 -0.0469,0.0937 -0.082,-0.0937 -0.48047,0.25781 0.0586,0.0469 h -0.10547 q -0.0469,0.22265 -0.28125,0.22265 -0.0703,0.16407 -0.22266,0.16407 l -0.0469,0.0703 q -0.26953,0 -0.49219,0.28125 -0.21094,0.28125 -0.36328,0.3164 l -0.082,-0.11718 -0.0469,0.11718 0.12891,0.0469 h -0.17578 v 0.0586 q -0.21094,0.0469 -0.55078,0.375 -0.25782,-0.0703 -0.33985,-0.21093 l -0.6914,-1.3711 q 0.0937,-0.0586 0.0937,-0.1875 0,-0.17578 -0.0937,-0.36328 h 0.0469 l -0.21094,-0.59766 h 0.11719 l -0.11719,-0.14062 0.0469,-0.082 q 0.0703,0 0.0703,-0.0703 v -0.0703 l 0.0937,0.0469 v -0.11719 l 0.0469,-0.16406 0.24609,-0.10547 -0.0703,-0.0469 q 0.15234,-0.24609 0.1875,-0.67968 0.0351,-0.4336 0.0937,-0.51563 l -0.11719,-0.21094 v -0.29296 l 0.11719,-0.38672 0.0469,0.0703 q 0.0937,-0.14063 0.17578,-0.43359 -0.0234,-0.0352 -0.0234,-0.14063 0,-0.11719 0.0117,-0.14062 l 0.22265,-0.22266 -0.0703,-0.25781 0.16406,-0.21094 v -0.082 l 0.0703,0.082 v -0.22266 l -0.0703,-0.0703 h 0.0703 l 0.15235,-0.43359 v -0.0469 l 0.0703,0.0469 0.0937,-0.69141 h 0.0469 l 0.24609,-0.72656 -0.082,0.0469 0.38672,-1.03125 h -0.0469 l 0.38672,-0.52734 v -0.28125 l 0.0937,-0.26953 q -0.0937,-0.0234 -0.21094,-0.21094 l 0.32813,-0.55078 v -0.5625 l -0.21094,-0.14063 q 0,-0.0586 0.0937,-0.21093 -0.0586,-0.19922 -0.0937,-0.2461 l -0.55078,-0.80859 -0.0937,-0.0469 q -0.1875,0 -0.33984,0.11719 h -0.0703 q -0.29297,0 -0.43359,-0.29297 l 0.11719,-0.38672 -0.0469,-0.14062 0.31641,-0.21094 -0.0469,-0.0703 q 0.375,-0.082 0.52735,-0.35156 0.16406,-0.26953 0.28125,-0.42188 0.15234,0 0.25781,-0.0469 0.11719,-0.0469 0.17578,-0.12891 0.0586,-0.0937 0.11719,-0.1875 h 0.17578 l 0.21094,-0.32812 v -0.12891 l 0.16406,-0.14063 q 0.15234,0 0.22266,-0.21093 l -0.0703,-0.12891 0.11719,0.0586 0.16406,-0.10546 q 0.0586,-0.17579 0.22266,-0.2461 0.17578,-0.082 0.48047,-0.25781 0.0351,-0.14063 0.28125,-0.21094 v -0.0469 l 0.26953,-0.0469 v -0.0703 l 0.85547,-0.48047 v -0.0469 q 0.10547,-0.17579 0.29297,-0.17579 0.3164,0 0.3164,0.6211 v 0.24609 h -0.0469 v 0.16406 q 0,0.55079 -0.4336,0.77344 -0.0234,0.16406 -0.16406,0.26953 -0.1289,0.10547 -0.38672,0.42188 h 0.0469 q -0.1875,0.11719 -0.23438,0.5039 -0.0351,0.38672 -0.15234,0.70313 l -0.0469,-0.0586 0.0469,0.22265 h -0.0469 l -0.0469,0.0469 0.0937,0.0937 q -0.12891,0.11718 -0.14063,0.26953 -0.0117,0.14062 -0.0469,0.14062 h -0.0352 l -0.21093,0.26953 q 0.21093,0.14063 0.21093,0.30469 0,0.0937 -0.14062,0.11719 v 0.12891 l -0.0703,-0.0469 v 0.59766 h -0.21094 l -0.10547,0.35156 0.0586,0.33984 -0.1289,0.26953 v 0.0703 h -0.0937 l 0.0469,0.25781 -0.0937,-0.0469 -0.16406,1.03125 -0.33984,1.07813 -0.0937,0.43359 q -0.17579,0.21094 -0.17579,0.33985 0,0.10547 0.0586,0.33984 -0.39844,0.85547 -0.48047,1.67578 l -0.12891,0.0469 -0.0469,0.0703 q -0.0352,0.23437 -0.11719,0.36328 l -0.0469,1.05469 0.11718,0.36328 -0.0703,0.71484 0.33984,0.70313 q -0.21093,0 -0.26953,0.16406 h -0.0703 l 0.21094,0.21094 -0.0469,0.17578 h 0.12891 l 0.21094,0.21094 0.21093,-0.21094 0.26954,-0.11719 q 0.11718,-0.0586 0.33984,-0.26953 h 0.25781 v -0.0937 l 0.0469,0.0469 q 0.35156,-0.36329 0.72656,-0.38672 l -0.0469,-0.0469 0.375,-0.11719 v -0.0937 q 0.33985,-0.0703 0.52735,-0.33984 0.42187,-0.0703 0.5625,-0.31641 h 0.0937 l 0.32812,-0.23437 z"
         id="path391" />
    </g>
  </g>
</svg>
