<?xml version="1.0" encoding="UTF-8" standalone="no"?>
<svg
   width="800"
   height="350"
   version="1.1"
   id="svg12"
   sodipodi:docname="mahek_hindi.svg"
   xmlns:inkscape="http://www.inkscape.org/namespaces/inkscape"
   xmlns:sodipodi="http://sodipodi.sourceforge.net/DTD/sodipodi-0.dtd"
   xmlns="http://www.w3.org/2000/svg"
   xmlns:svg="http://www.w3.org/2000/svg">
  <defs
     id="defs16" />
  <sodipodi:namedview
     id="namedview14"
     pagecolor="#ffffff"
     bordercolor="#666666"
     borderopacity="1.0"
     inkscape:showpageshadow="2"
     inkscape:pageopacity="0.0"
     inkscape:pagecheckerboard="0"
     inkscape:deskcolor="#d1d1d1" />
  <g
     font-family="Lohit Devanagari"
     font-size="32"
     text-anchor="middle"
     fill="#000"
     id="g10">
    <g
       aria-label="माहोल्क गाव, आनंदाचे ठिकाण,"
       id="text2">
      <path
         d="m 231.80469,79 h -3.28125 v 21 h -2.5625 v -8.765625 h -8.59375 v 1.859375 q 0,0.484375 -0.0469,0.859375 -0.0312,0.375 -0.17187,0.625 -0.125,0.25 -0.375,0.390625 -0.23438,0.125 -0.64063,0.125 -0.40625,0 -0.90625,-0.234375 -0.5,-0.25 -1.01562,-0.65625 -0.51563,-0.421875 -1,-0.9375 -0.48438,-0.53125 -0.875,-1.09375 -0.375,-0.578125 -0.60938,-1.140625 -0.23437,-0.5625 -0.23437,-1.03125 0,-0.328125 0.10937,-0.53125 0.125,-0.21875 0.32813,-0.328125 0.21875,-0.109375 0.51562,-0.140625 0.29688,-0.04687 0.67188,-0.04687 h 1.6875 V 79 h -5.64063 v -2.296875 h 22.64063 z m -14.4375,0 v 9.953125 h 8.59375 V 79 Z"
         id="path18" />
      <path
         d="m 240.11719,79 h -3.28125 v 21 h -2.5625 V 79 h -3.5625 v -2.296875 h 9.40625 z"
         id="path20" />
      <path
         d="m 251.02344,95.59375 q 0.51562,-0.15625 1.01562,-0.390625 0.51563,-0.234375 0.90625,-0.5625 0.40625,-0.34375 0.65625,-0.796875 0.25,-0.453125 0.25,-1.0625 0,-1.296875 -1.07812,-2.015625 -1.07813,-0.734375 -3.0625,-0.734375 -0.79688,0 -1.64063,0.171875 -0.82812,0.15625 -1.51562,0.59375 -0.6875,0.421875 -1.125,1.171875 -0.4375,0.734375 -0.4375,1.875 0,1.15625 0.45312,2.15625 0.45313,0.984375 1.17188,1.8125 0.73437,0.828125 1.64062,1.5 0.90625,0.671875 1.79688,1.1875 0.90625,0.51563 1.70312,0.85938 0.79688,0.35937 1.32813,0.5625 l -1.03125,2.15625 q -1.09375,-0.46875 -2.23438,-1.03125 -1.125,-0.54688 -2.1875,-1.21875 -1.0625,-0.65625 -2,-1.45313 -0.9375,-0.796875 -1.64062,-1.765625 -0.6875,-0.96875 -1.09375,-2.125 -0.39063,-1.15625 -0.39063,-2.515625 0,-1.328125 0.34375,-2.3125 0.35938,-1 0.98438,-1.75 -0.85938,-0.984375 -1.26563,-1.984375 -0.40625,-1 -0.40625,-2.171875 0,-0.671875 0.15625,-1.265625 0.17188,-0.59375 0.59375,-1.03125 0.4375,-0.453125 1.20313,-0.71875 0.76562,-0.265625 1.98437,-0.265625 h 7.07813 V 79 h -14.15625 v -2.296875 h 20.35937 V 79 h -3.64062 v 5.75 h -8.98438 q -0.60937,0 -1.03125,0.109375 -0.40625,0.09375 -0.65625,0.296875 -0.25,0.203125 -0.35937,0.515625 -0.0937,0.296875 -0.0937,0.703125 0,0.546875 0.1875,1.0625 0.1875,0.515625 0.70312,1.15625 0.90625,-0.46875 1.98438,-0.6875 1.09375,-0.234375 2.28125,-0.234375 1.375,0 2.5625,0.3125 1.20312,0.3125 2.07812,0.953125 0.89063,0.625 1.39063,1.609375 0.51562,0.96875 0.51562,2.28125 0,1.265625 -0.4375,2.140625 -0.42187,0.875 -1.07812,1.46875 -0.64063,0.59375 -1.40625,0.96875 -0.76563,0.359375 -1.42188,0.59375 z"
         id="path22" />
      <path
         d="m 267.69531,79 h -3.28125 v 21 h -2.5625 V 79 h -3.5625 v -2.296875 h 9.40625 z m -3.5,-1.859375 h -2.26562 l -1.42188,-2.671875 q -0.90625,-1.703125 -1.65625,-2.703125 -0.73437,-1 -1.39062,-1.515625 -0.67188,-0.53125 -1.3125,-0.671875 -0.64063,-0.15625 -1.34375,-0.15625 h -3.03125 v -2.53125 h 2.85937 q 0.90625,0 1.64063,0.15625 0.73437,0.140625 1.40625,0.53125 0.65625,0.375 1.28125,1.0625 0.64062,0.671875 1.35937,1.75 0.71875,1.0625 1.5625,2.5625 0.85938,1.484375 1.95313,3.515625 z"
         id="path24" />
      <path
         d="m 285.44531,79 h -18.84375 v -2.296875 h 18.84375 z m 0.45313,9.078125 q -0.60938,-0.46875 -1.10938,-0.734375 -0.5,-0.28125 -0.90625,-0.40625 -0.39062,-0.140625 -0.6875,-0.171875 -0.28125,-0.03125 -0.45312,-0.03125 -0.73438,0 -1.28125,0.28125 -0.54688,0.265625 -0.92188,0.71875 -0.35937,0.453125 -0.54687,1.0625 -0.1875,0.609375 -0.1875,1.28125 0,0.265625 0.0156,0.546875 0.0312,0.265625 0.0625,0.53125 h -2.39062 q -0.10938,-0.90625 -0.26563,-1.734375 -0.15625,-0.828125 -0.4375,-1.453125 -0.28125,-0.625 -0.73437,-0.984375 -0.45313,-0.375 -1.15625,-0.375 -0.67188,0 -1.17188,0.265625 -0.48437,0.265625 -0.79687,0.71875 -0.3125,0.453125 -0.46875,1.09375 -0.15625,0.625 -0.15625,1.34375 0,1.5625 0.51562,2.796875 0.51563,1.234375 1.39063,2.21875 0.89062,0.984375 2.04687,1.765625 1.15625,0.765625 2.4375,1.40625 l -1.26562,2.15625 q -0.5,-0.23437 -1.26563,-0.671875 -0.76562,-0.453125 -1.625,-1.125 -0.85937,-0.671875 -1.73437,-1.5625 -0.85938,-0.890625 -1.5625,-2 -0.70313,-1.109375 -1.14063,-2.4375 -0.4375,-1.34375 -0.4375,-2.890625 0,-1.1875 0.35938,-2.21875 0.35937,-1.03125 1.01562,-1.78125 0.67188,-0.765625 1.60938,-1.1875 0.9375,-0.4375 2.09375,-0.4375 0.85937,0 1.48437,0.265625 0.64063,0.25 1.09375,0.640625 0.45313,0.375 0.75,0.828125 0.3125,0.4375 0.53125,0.828125 l 0.0781,-0.01563 q 0.29687,-0.65625 0.70312,-1.109375 0.42188,-0.453125 0.90625,-0.734375 0.5,-0.28125 1.04688,-0.40625 0.54687,-0.140625 1.09375,-0.140625 0.23437,0 0.57812,0.03125 0.34375,0.01563 0.82813,0.1875 0.48437,0.15625 1.10937,0.515625 0.64063,0.34375 1.4375,0.984375 z M 310.00781,79 h -13.20312 v 6.15625 l 0.0781,0.03125 q 0.79688,-1.09375 1.98438,-1.75 1.1875,-0.671875 2.60937,-0.671875 1.125,0 2.07813,0.46875 0.96875,0.453125 1.67187,1.265625 0.70313,0.796875 1.09375,1.890625 0.40625,1.09375 0.40625,2.359375 0,1.4375 -0.5,2.65625 -0.5,1.203125 -1.28125,2.1875 -0.78125,0.984375 -1.76562,1.75 -0.98438,0.75 -1.9375,1.28125 l -1.39063,-2.40625 q 0.3125,-0.171875 0.76563,-0.453125 0.45312,-0.28125 0.9375,-0.65625 0.5,-0.375 0.96875,-0.84375 0.48437,-0.484375 0.85937,-1.046875 0.39063,-0.5625 0.625,-1.21875 0.23438,-0.65625 0.23438,-1.390625 0,-0.671875 -0.21875,-1.28125 -0.20313,-0.609375 -0.57813,-1.0625 -0.375,-0.453125 -0.90625,-0.71875 -0.51562,-0.265625 -1.14062,-0.265625 -0.8125,0 -1.57813,0.421875 -0.76562,0.421875 -1.39062,1.0625 -0.625,0.625 -1.0625,1.34375 -0.42188,0.71875 -0.5625,1.328125 V 100 h -2.5625 v -5.984375 l -0.0625,-0.03125 q -0.23438,0.203125 -0.59375,0.5 -0.35938,0.28125 -0.875,0.546875 -0.5,0.265625 -1.17188,0.453125 -0.65625,0.1875 -1.48437,0.1875 -1.375,0 -2.54688,-0.53125 -1.15625,-0.53125 -2.01562,-1.4375 -0.84375,-0.921875 -1.32813,-2.15625 -0.48437,-1.234375 -0.48437,-2.640625 0,-1.34375 0.4375,-2.484375 0.45312,-1.140625 1.21875,-1.953125 0.78125,-0.828125 1.8125,-1.28125 1.04687,-0.46875 2.25,-0.46875 0.84375,0 1.5625,0.21875 0.73437,0.203125 1.32812,0.515625 0.60938,0.296875 1.07813,0.65625 0.48437,0.34375 0.8125,0.625 l 0.0625,-0.01563 V 79 h -12.95313 v -2.296875 h 28.71875 z m -20.23437,6.15625 q -0.89063,0 -1.57813,0.375 -0.67187,0.359375 -1.125,0.9375 -0.45312,0.5625 -0.6875,1.28125 -0.21875,0.703125 -0.21875,1.390625 0,0.75 0.26563,1.5 0.26562,0.734375 0.75,1.328125 0.5,0.59375 1.1875,0.96875 0.6875,0.359375 1.51562,0.359375 0.70313,0 1.46875,-0.28125 0.78125,-0.296875 1.42188,-0.90625 0.65625,-0.609375 1.07812,-1.546875 0.42188,-0.953125 0.42188,-2.265625 V 87.53125 q -0.375,-0.46875 -0.89063,-0.890625 -0.5,-0.4375 -1.09375,-0.765625 -0.57812,-0.328125 -1.21875,-0.515625 -0.64062,-0.203125 -1.29687,-0.203125 z"
         id="path26" />
      <path
         d="m 338.72656,79 h -3.28125 v 21 h -2.5625 V 79 h -7.04687 v 12.125 q 0,0.25 -0.0312,0.578125 -0.0312,0.328125 -0.15625,0.640625 -0.10938,0.296875 -0.32813,0.515625 -0.21875,0.203125 -0.60937,0.203125 -0.42188,0 -0.9375,-0.265625 -0.5,-0.28125 -1.03125,-0.71875 -0.53125,-0.453125 -1.03125,-1.015625 -0.48438,-0.5625 -0.875,-1.15625 -0.39063,-0.59375 -0.625,-1.15625 -0.23438,-0.5625 -0.23438,-1 0,-0.390625 0.1875,-0.625 0.20313,-0.234375 0.54688,-0.359375 0.35937,-0.125 0.85937,-0.15625 0.51563,-0.03125 1.125,-0.03125 h 0.54688 V 79 h -5.5625 v -2.296875 h 21.04687 z"
         id="path28" />
      <path
         d="m 347.03906,79 h -3.28125 v 21 h -2.5625 V 79 h -3.5625 v -2.296875 h 9.40625 z"
         id="path30" />
      <path
         d="m 365.85156,79 h -3.28125 v 21 h -2.5625 v -5.578125 l -0.0625,-0.01563 q -0.3125,0.296875 -0.73437,0.625 -0.42188,0.3125 -0.96875,0.578125 -0.54688,0.25 -1.23438,0.421875 -0.67187,0.171875 -1.51562,0.171875 -1.54688,0 -2.82813,-0.59375 -1.26562,-0.59375 -2.1875,-1.578125 -0.92187,-1 -1.4375,-2.28125 -0.5,-1.296875 -0.5,-2.703125 0,-1.40625 0.5,-2.609375 0.51563,-1.21875 1.40625,-2.109375 0.89063,-0.890625 2.07813,-1.390625 1.1875,-0.515625 2.54687,-0.515625 0.375,0 0.9375,0.0625 0.57813,0.0625 1.23438,0.28125 0.65625,0.21875 1.35937,0.640625 0.70313,0.40625 1.34375,1.109375 L 360.00781,84.5 V 79 h -14.0625 v -2.296875 h 19.90625 z m -5.78125,8.421875 q -0.98437,-1.1875 -2.14062,-1.90625 -1.15625,-0.734375 -2.625,-0.734375 -1.15625,0 -1.96875,0.4375 -0.79688,0.4375 -1.3125,1.109375 -0.51563,0.65625 -0.75,1.46875 -0.23438,0.8125 -0.23438,1.5625 0,0.8125 0.26563,1.609375 0.26562,0.796875 0.78125,1.4375 0.53125,0.625 1.3125,1.03125 0.78125,0.390625 1.82812,0.390625 1.07813,0 1.96875,-0.40625 0.89063,-0.421875 1.53125,-1.0625 0.64063,-0.640625 0.98438,-1.4375 0.35937,-0.796875 0.35937,-1.546875 z"
         id="path32" />
      <path
         d="m 370.24219,96.4375 -2.5,7.6875 h -1.82813 l 1.82813,-7.6875 z"
         id="path34" />
      <path
         d="m 384.64844,86.1875 q 0.23437,0.734375 0.54687,1.609375 0.3125,0.859375 0.73438,1.75 0.4375,0.875 0.96875,1.703125 0.54687,0.828125 1.23437,1.46875 0.70313,0.640625 1.54688,1.03125 0.84375,0.375 1.875,0.375 1.01562,0 1.71875,-0.296875 0.70312,-0.296875 1.14062,-0.796875 0.4375,-0.5 0.625,-1.171875 0.20313,-0.671875 0.20313,-1.40625 0,-1.609375 -1.17188,-2.515625 -1.15625,-0.90625 -3.35937,-0.90625 -0.26563,0 -0.53125,0.01563 -0.26563,0.01563 -0.53125,0.04687 v -2.375 q 0.125,0.01563 0.21875,0.01563 0.10937,0 0.125,0 1.09375,0 1.9375,-0.265625 0.85937,-0.28125 1.4375,-0.75 0.57812,-0.46875 0.875,-1.09375 0.29687,-0.625 0.29687,-1.3125 0,-0.625 -0.21875,-1.109375 -0.21875,-0.484375 -0.59375,-0.8125 -0.375,-0.328125 -0.89062,-0.484375 -0.51563,-0.171875 -1.125,-0.171875 -0.42188,0 -0.8125,0.0625 -0.39063,0.04687 -0.82813,0.171875 -0.4375,0.109375 -0.9375,0.296875 -0.48437,0.1875 -1.10937,0.46875 l -0.89063,-2.140625 q 1.21875,-0.59375 2.34375,-0.890625 1.125,-0.3125 2.29688,-0.3125 1.125,0 2.07812,0.359375 0.96875,0.359375 1.65625,1 0.70313,0.625 1.09375,1.5 0.39063,0.875 0.39063,1.890625 0,2.796875 -2.67188,4.5 v 0.0625 q 1.04688,0.4375 1.75,1.078125 0.45313,0.07813 0.95313,0.125 0.51562,0.04687 0.9375,0.04687 0.4375,0 0.92187,-0.0625 0.48438,-0.0625 0.98438,-0.234375 0.51562,-0.171875 1.03125,-0.484375 0.53125,-0.3125 1.0625,-0.8125 v -8.65625 h 5.84375 V 79 h -3.28125 v 21 h -2.5625 V 88.125 l -0.0625,-0.01563 q -0.89063,0.59375 -1.67188,0.78125 -0.78125,0.1875 -1.60937,0.1875 -0.26563,0 -0.54688,-0.01563 Q 397.78906,89.03125 397.49219,89 l -0.0156,0.0625 q 0.25,0.640625 0.25,1.578125 0,1.265625 -0.42187,2.34375 -0.42188,1.078125 -1.21875,1.875 -0.78125,0.78125 -1.90625,1.21875 -1.10938,0.4375 -2.5,0.4375 -1.48438,0 -2.6875,-0.515625 -1.1875,-0.53125 -2.15625,-1.359375 -0.95313,-0.828125 -1.67188,-1.859375 -0.71875,-1.046875 -1.23437,-2.09375 -0.51563,-1.046875 -0.84375,-1.984375 Q 382.75781,87.75 382.60156,87.125 Z M 416.11719,79 h -3.28125 v 21 h -2.5625 V 79 h -3.5625 v -2.296875 h 9.40625 z"
         id="path36" />
      <path
         d="m 435.55469,79 h -3.28125 v 21 h -2.57813 V 87.953125 h -7.3125 q 0,1.03125 -0.0312,1.765625 -0.0156,0.734375 -0.125,1.21875 -0.10937,0.46875 -0.32812,0.6875 -0.21875,0.21875 -0.60938,0.21875 -0.8125,0 -1.54687,-0.53125 -0.71875,-0.53125 -1.28125,-1.28125 -0.54688,-0.75 -0.875,-1.5625 -0.32813,-0.8125 -0.32813,-1.375 0,-0.5 0.21875,-0.78125 0.21875,-0.28125 0.57813,-0.421875 0.35937,-0.140625 0.8125,-0.171875 0.46875,-0.03125 0.9375,-0.03125 h 9.89062 V 79 h -14.67187 v -2.296875 h 20.53125 z"
         id="path38" />
      <path
         d="m 429.07031,71.9375 q 0,-0.890625 0.53125,-1.4375 0.51563,-0.5625 1.35938,-0.5625 0.39062,0 0.75,0.15625 0.34375,0.15625 0.60937,0.4375 0.26563,0.265625 0.42188,0.640625 0.14062,0.359375 0.14062,0.796875 0,0.890625 -0.51562,1.4375 -0.53125,0.546875 -1.375,0.546875 -0.40625,0 -0.75,-0.140625 -0.35938,-0.15625 -0.60938,-0.421875 -0.26562,-0.28125 -0.40625,-0.640625 -0.15625,-0.375 -0.15625,-0.8125 z"
         id="path40" />
      <path
         d="m 455.47656,79 h -5.29687 v 6.859375 h -5.26563 q -2.45312,0 -3.70312,1.21875 -1.25,1.203125 -1.25,3.46875 0,1.28125 0.40625,2.265625 0.42187,0.984375 1.14062,1.65625 0.73438,0.65625 1.73438,1 1,0.34375 2.17187,0.34375 1.23438,0 1.98438,-0.375 -0.0625,-0.390625 -0.0937,-0.6875 -0.0312,-0.296875 -0.0312,-0.59375 0,-0.65625 0.15625,-1.34375 0.17187,-0.703125 0.5,-1.265625 0.34375,-0.578125 0.85937,-0.9375 0.53125,-0.359375 1.26563,-0.359375 0.45312,0 0.85937,0.15625 0.40625,0.15625 0.70313,0.484375 0.3125,0.3125 0.48437,0.796875 0.1875,0.484375 0.1875,1.125 0,0.640625 -0.17187,1.1875 -0.17188,0.53125 -0.45313,1 -0.26562,0.453125 -0.60937,0.859375 -0.34375,0.390625 -0.67188,0.71875 0.34375,0.75 0.71875,1.34375 0.39063,0.59375 0.79688,1.0625 0.42187,0.46875 0.84375,0.84375 0.42187,0.375005 0.84375,0.703125 l -1.92188,2.01563 q -0.82812,-0.73438 -1.42187,-1.46875 -0.57813,-0.71875 -0.98438,-1.35938 -0.39062,-0.640625 -0.64062,-1.15625 -0.25,-0.515625 -0.40625,-0.828125 -1.07813,0.421875 -2.65625,0.421875 -2.03125,0 -3.54688,-0.65625 -1.51562,-0.671875 -2.53125,-1.78125 -1,-1.125 -1.5,-2.5625 -0.5,-1.4375 -0.5,-2.984375 0,-1.609375 0.51563,-2.828125 0.51562,-1.234375 1.4375,-2.0625 0.92187,-0.84375 2.1875,-1.265625 1.28125,-0.4375 2.79687,-0.4375 h 3.20313 V 79 h -13.15625 v -2.296875 h 21.01562 z"
         id="path42" />
      <path
         d="m 463.78906,79 h -3.28125 v 21 h -2.5625 V 79 h -3.5625 v -2.296875 h 9.40625 z"
         id="path44" />
      <path
         d="m 485.42969,79 h -3.28125 v 21 h -2.59375 v -6.578125 l -0.0625,-0.04687 q -0.85938,0.78125 -1.6875,1.234375 -0.8125,0.4375 -1.53125,0.671875 -0.70313,0.21875 -1.28125,0.28125 -0.57813,0.0625 -0.95313,0.0625 -1.4375,0 -2.54687,-0.453125 -1.10938,-0.453125 -1.85938,-1.1875 -0.75,-0.75 -1.14062,-1.703125 -0.39063,-0.96875 -0.39063,-2 0,-1.078125 0.4375,-2.140625 0.45313,-1.0625 1.40625,-1.90625 l -0.0156,-0.0625 h -4.95313 V 83.875 h 12.5625 v 2.296875 h -1.60937 q -1.60938,0 -2.64063,0.421875 -1.03125,0.421875 -1.625,1.03125 -0.59375,0.609375 -0.82812,1.3125 -0.21875,0.6875 -0.21875,1.25 0,0.46875 0.15625,1.015625 0.15625,0.53125 0.51562,0.984375 0.375,0.453125 0.98438,0.75 0.625,0.296875 1.5625,0.296875 0.98437,0 1.82812,-0.3125 0.85938,-0.328125 1.57813,-0.84375 0.71875,-0.515625 1.29687,-1.15625 0.59375,-0.65625 1.01563,-1.296875 V 79 h -16.85938 v -2.296875 h 22.73438 z"
         id="path46" />
      <path
         d="m 481.92969,77.140625 h -2.26563 l -1.42187,-2.671875 q -0.90625,-1.703125 -1.64063,-2.703125 -0.75,-1 -1.40625,-1.515625 -0.67187,-0.53125 -1.3125,-0.671875 -0.64062,-0.15625 -1.34375,-0.15625 h -3.03125 v -2.53125 h 2.85938 q 0.90625,0 1.64062,0.15625 0.73438,0.140625 1.40625,0.53125 0.65625,0.375 1.29688,1.0625 0.625,0.671875 1.34375,1.75 0.71875,1.0625 1.57812,2.5625 0.84375,1.484375 1.9375,3.515625 z"
         id="path48" />
      <path
         d="m 502.50781,79 h -3.28125 v 21 h -2.5625 V 79 h -3.5625 v -2.296875 h 3.5625 q -0.85937,-2.0625 -0.85937,-3.84375 0,-1.140625 0.375,-2.125 0.375,-0.984375 1.14062,-1.703125 0.78125,-0.71875 1.98438,-1.125 1.20312,-0.40625 2.85937,-0.40625 2.17188,0 4.17188,0.703125 2.01562,0.703125 3.9375,1.953125 1.92187,1.25 3.79687,2.96875 1.89063,1.71875 3.8125,3.75 h -2.71875 q -0.4375,-0.421875 -1.17187,-1.09375 -0.71875,-0.6875 -1.67188,-1.453125 -0.95312,-0.78125 -2.10937,-1.5625 -1.15625,-0.796875 -2.4375,-1.4375 -1.28125,-0.640625 -2.67188,-1.03125 -1.375,-0.40625 -2.78125,-0.40625 -1.14062,0 -1.92187,0.265625 -0.76563,0.265625 -1.25,0.734375 -0.46875,0.46875 -0.67188,1.109375 -0.20312,0.625 -0.20312,1.34375 0,1.40625 0.76562,3.359375 h 3.46875 z"
         id="path50" />
      <path
         d="m 512.44531,98 q 1.29688,0 2.40625,-0.46875 1.10938,-0.46875 1.90625,-1.296875 0.8125,-0.828125 1.26563,-1.953125 0.45312,-1.140625 0.45312,-2.484375 0,-1.125 -0.3125,-1.96875 -0.29687,-0.859375 -0.78125,-1.484375 -0.46875,-0.625 -1.04687,-1.046875 -0.5625,-0.421875 -1.09375,-0.6875 -0.53125,-0.265625 -0.95313,-0.390625 -0.40625,-0.125 -0.57812,-0.15625 -0.40625,0.1875 -1.01563,0.375 -0.59375,0.171875 -1.26562,0.390625 -0.78125,0.265625 -1.57813,0.671875 -0.79687,0.40625 -1.4375,1.0625 -0.64062,0.65625 -1.04687,1.625 -0.39063,0.96875 -0.39063,2.34375 0,1.203125 0.40625,2.21875 0.40625,1 1.125,1.734375 0.73438,0.71875 1.73438,1.125 1,0.390625 2.20312,0.390625 z m 11.79688,-19 h -7.60938 v 2.53125 q 0,0.765625 -0.25,1.59375 -0.25,0.828125 -0.73437,1.40625 1.23437,0.4375 2.20312,1.203125 0.98438,0.75 1.65625,1.75 0.6875,0.984375 1.04688,2.171875 0.375,1.1875 0.375,2.484375 0,1.71875 -0.625,3.21875 -0.625,1.5 -1.75,2.625 -1.10938,1.109375 -2.65625,1.75 -1.54688,0.640625 -3.39063,0.640625 -1.95312,0 -3.45312,-0.6875 -1.5,-0.703125 -2.51563,-1.859375 -1.01562,-1.15625 -1.54687,-2.640625 -0.53125,-1.484375 -0.53125,-3.078125 0,-1.671875 0.48437,-2.921875 0.5,-1.25 1.35938,-2.15625 0.85937,-0.921875 2.03125,-1.53125 1.1875,-0.609375 2.57812,-1 0.64063,-0.1875 1.21875,-0.375 0.57813,-0.1875 1,-0.53125 0.4375,-0.34375 0.6875,-0.890625 0.25,-0.5625 0.25,-1.453125 V 79 h -12.65625 v -2.296875 h 22.82813 z"
         id="path52" />
      <path
         d="m 551.86719,79 h -13.20313 v 6.15625 l 0.0781,0.03125 q 0.79687,-1.09375 1.98437,-1.75 1.1875,-0.671875 2.60938,-0.671875 1.125,0 2.07812,0.46875 0.96875,0.453125 1.67188,1.265625 0.70312,0.796875 1.09375,1.890625 0.40625,1.09375 0.40625,2.359375 0,1.4375 -0.5,2.65625 -0.5,1.203125 -1.28125,2.1875 -0.78125,0.984375 -1.76563,1.75 -0.98437,0.75 -1.9375,1.28125 l -1.39062,-2.40625 q 0.3125,-0.171875 0.76562,-0.453125 0.45313,-0.28125 0.9375,-0.65625 0.5,-0.375 0.96875,-0.84375 0.48438,-0.484375 0.85938,-1.046875 0.39062,-0.5625 0.625,-1.21875 0.23437,-0.65625 0.23437,-1.390625 0,-0.671875 -0.21875,-1.28125 -0.20312,-0.609375 -0.57812,-1.0625 -0.375,-0.453125 -0.90625,-0.71875 -0.51563,-0.265625 -1.14063,-0.265625 -0.8125,0 -1.57812,0.421875 -0.76563,0.421875 -1.39063,1.0625 -0.625,0.625 -1.0625,1.34375 -0.42187,0.71875 -0.5625,1.328125 V 100 h -2.5625 v -5.984375 l -0.0625,-0.03125 q -0.23437,0.203125 -0.59375,0.5 -0.35937,0.28125 -0.875,0.546875 -0.5,0.265625 -1.17187,0.453125 -0.65625,0.1875 -1.48438,0.1875 -1.375,0 -2.54687,-0.53125 -1.15625,-0.53125 -2.01563,-1.4375 -0.84375,-0.921875 -1.32812,-2.15625 -0.48438,-1.234375 -0.48438,-2.640625 0,-1.34375 0.4375,-2.484375 0.45313,-1.140625 1.21875,-1.953125 0.78125,-0.828125 1.8125,-1.28125 1.04688,-0.46875 2.25,-0.46875 0.84375,0 1.5625,0.21875 0.73438,0.203125 1.32813,0.515625 0.60937,0.296875 1.07812,0.65625 0.48438,0.34375 0.8125,0.625 l 0.0625,-0.01563 V 79 h -12.95312 v -2.296875 h 28.71875 z m -20.23438,6.15625 q -0.89062,0 -1.57812,0.375 -0.67188,0.359375 -1.125,0.9375 -0.45313,0.5625 -0.6875,1.28125 -0.21875,0.703125 -0.21875,1.390625 0,0.75 0.26562,1.5 0.26563,0.734375 0.75,1.328125 0.5,0.59375 1.1875,0.96875 0.6875,0.359375 1.51563,0.359375 0.70312,0 1.46875,-0.28125 0.78125,-0.296875 1.42187,-0.90625 0.65625,-0.609375 1.07813,-1.546875 0.42187,-0.953125 0.42187,-2.265625 V 87.53125 q -0.375,-0.46875 -0.89062,-0.890625 -0.5,-0.4375 -1.09375,-0.765625 -0.57813,-0.328125 -1.21875,-0.515625 -0.64063,-0.203125 -1.29688,-0.203125 z"
         id="path54" />
      <path
         d="m 560.17969,79 h -3.28125 v 21 h -2.5625 V 79 h -3.5625 v -2.296875 h 9.40625 z"
         id="path56" />
      <path
         d="m 583.89844,79 h -3.28125 v 21 h -2.5625 V 79 h -3.875 v 9.671875 q 0,1.625 -0.45313,2.796875 -0.4375,1.171875 -1.21875,1.9375 -0.76562,0.765625 -1.79687,1.140625 -1.03125,0.359375 -2.21875,0.359375 -1.32813,0 -2.40625,-0.421875 -1.0625,-0.421875 -1.8125,-1.25 -0.75,-0.828125 -1.15625,-2.046875 -0.40625,-1.234375 -0.40625,-2.828125 V 79 h -3.625 v -2.296875 h 24.8125 z m -18.59375,0 v 9.84375 q 0,0.71875 0.15625,1.390625 0.17187,0.65625 0.53125,1.171875 0.375,0.515625 0.96875,0.828125 0.60937,0.3125 1.48437,0.3125 0.89063,0 1.48438,-0.3125 0.60937,-0.3125 0.98437,-0.828125 0.375,-0.515625 0.53125,-1.171875 0.17188,-0.671875 0.17188,-1.390625 V 79 Z"
         id="path58" />
      <path
         d="m 588.28906,96.4375 -2.5,7.6875 h -1.82812 l 1.82812,-7.6875 z"
         id="path60" />
    </g>
    <g
       aria-label="हिंदी भाषा, गोड गीतांचा ध्वनी समान."
       id="text4">
      <path
         d="m 188.98437,129 h -3.28125 v 21 h -2.5625 v -21 h -3.5625 v -2.29687 h 3.5625 q -0.85937,-2.0625 -0.85937,-3.84375 0,-1.14063 0.375,-2.125 0.375,-0.98438 1.14062,-1.70313 0.78125,-0.71875 1.98438,-1.125 1.20312,-0.40625 2.85937,-0.40625 2.17188,0 4.17188,0.70313 2.01562,0.70312 3.9375,1.95312 1.92187,1.25 3.79687,2.96875 1.89063,1.71875 3.8125,3.75 h -2.71875 q -0.4375,-0.42187 -1.17187,-1.09375 -0.71875,-0.6875 -1.67188,-1.45312 -0.95312,-0.78125 -2.10937,-1.5625 -1.15625,-0.79688 -2.4375,-1.4375 -1.28125,-0.64063 -2.67188,-1.03125 -1.375,-0.40625 -2.78125,-0.40625 -1.14062,0 -1.92187,0.26562 -0.76563,0.26563 -1.25,0.73438 -0.46875,0.46875 -0.67188,1.10937 -0.20312,0.625 -0.20312,1.34375 0,1.40625 0.76562,3.35938 h 3.46875 z"
         id="path63" />
      <path
         d="m 199.89062,145.59375 q 0.51563,-0.15625 1.01563,-0.39063 0.51562,-0.23437 0.90625,-0.5625 0.40625,-0.34375 0.65625,-0.79687 0.25,-0.45313 0.25,-1.0625 0,-1.29688 -1.07813,-2.01563 -1.07812,-0.73437 -3.0625,-0.73437 -0.79687,0 -1.64062,0.17187 -0.82813,0.15625 -1.51563,0.59375 -0.6875,0.42188 -1.125,1.17188 -0.4375,0.73437 -0.4375,1.875 0,1.15625 0.45313,2.15625 0.45312,0.98437 1.17187,1.8125 0.73438,0.82812 1.64063,1.5 0.90625,0.67187 1.79687,1.1875 0.90625,0.51562 1.70313,0.85937 0.79687,0.35938 1.32812,0.5625 l -1.03125,2.15625 q -1.09375,-0.46875 -2.23437,-1.03125 -1.125,-0.54687 -2.1875,-1.21875 -1.0625,-0.65625 -2,-1.45312 -0.9375,-0.79688 -1.64063,-1.76563 -0.6875,-0.96875 -1.09375,-2.125 -0.39062,-1.15625 -0.39062,-2.51562 0,-1.32813 0.34375,-2.3125 0.35937,-1 0.98437,-1.75 -0.85937,-0.98438 -1.26562,-1.98438 -0.40625,-1 -0.40625,-2.17187 0,-0.67188 0.15625,-1.26563 0.17187,-0.59375 0.59375,-1.03125 0.4375,-0.45312 1.20312,-0.71875 0.76563,-0.26562 1.98438,-0.26562 h 7.07812 V 129 h -14.15625 v -2.29687 H 208.25 V 129 h -3.64063 v 5.75 H 195.625 q -0.60938,0 -1.03125,0.10937 -0.40625,0.0937 -0.65625,0.29688 -0.25,0.20312 -0.35938,0.51562 -0.0937,0.29688 -0.0937,0.70313 0,0.54687 0.1875,1.0625 0.1875,0.51562 0.70313,1.15625 0.90625,-0.46875 1.98437,-0.6875 1.09375,-0.23438 2.28125,-0.23438 1.375,0 2.5625,0.3125 1.20313,0.3125 2.07813,0.95313 0.89062,0.625 1.39062,1.60937 0.51563,0.96875 0.51563,2.28125 0,1.26563 -0.4375,2.14063 -0.42188,0.875 -1.07813,1.46875 -0.64062,0.59375 -1.40625,0.96875 Q 201.5,147.76562 200.84375,148 Z"
         id="path65" />
      <path
         d="m 201.40625,121.9375 q 0,-0.89062 0.53125,-1.4375 0.51562,-0.5625 1.35937,-0.5625 0.39063,0 0.75,0.15625 0.34375,0.15625 0.60938,0.4375 0.26562,0.26563 0.42187,0.64063 0.14063,0.35937 0.14063,0.79687 0,0.89063 -0.51563,1.4375 -0.53125,0.54688 -1.375,0.54688 -0.40625,0 -0.75,-0.14063 -0.35937,-0.15625 -0.60937,-0.42187 -0.26563,-0.28125 -0.40625,-0.64063 -0.15625,-0.375 -0.15625,-0.8125 z"
         id="path67" />
      <path
         d="M 228.17187,129 H 222.875 v 6.85937 h -5.26563 q -2.45312,0 -3.70312,1.21875 -1.25,1.20313 -1.25,3.46875 0,1.28125 0.40625,2.26563 0.42187,0.98437 1.14062,1.65625 0.73438,0.65625 1.73438,1 1,0.34375 2.17187,0.34375 1.23438,0 1.98438,-0.375 -0.0625,-0.39063 -0.0937,-0.6875 -0.0312,-0.29688 -0.0312,-0.59375 0,-0.65625 0.15625,-1.34375 0.17187,-0.70313 0.5,-1.26563 0.34375,-0.57812 0.85937,-0.9375 0.53125,-0.35937 1.26563,-0.35937 0.45312,0 0.85937,0.15625 0.40625,0.15625 0.70313,0.48437 0.3125,0.3125 0.48437,0.79688 0.1875,0.48437 0.1875,1.125 0,0.64062 -0.17187,1.1875 -0.17188,0.53125 -0.45313,1 -0.26562,0.45312 -0.60937,0.85937 -0.34375,0.39063 -0.67188,0.71875 0.34375,0.75 0.71875,1.34375 0.39063,0.59375 0.79688,1.0625 0.42187,0.46875 0.84375,0.84375 0.42187,0.375 0.84375,0.70313 l -1.92188,2.01562 q -0.82812,-0.73437 -1.42187,-1.46875 -0.57813,-0.71875 -0.98438,-1.35937 -0.39062,-0.64063 -0.64062,-1.15625 -0.25,-0.51563 -0.40625,-0.82813 -1.07813,0.42188 -2.65625,0.42188 -2.03125,0 -3.54688,-0.65625 -1.51562,-0.67188 -2.53125,-1.78125 -1,-1.125 -1.5,-2.5625 -0.5,-1.4375 -0.5,-2.98438 0,-1.60937 0.51563,-2.82812 0.51562,-1.23438 1.4375,-2.0625 0.92187,-0.84375 2.1875,-1.26563 1.28125,-0.4375 2.79687,-0.4375 h 3.20313 V 129 h -13.15625 v -2.29687 h 21.01562 z"
         id="path69" />
      <path
         d="m 236.48437,129 h -3.28125 v 21 h -2.5625 v -21 h -3.5625 v -2.29687 h 3.8125 q -0.28125,-1.59375 -0.71875,-2.71875 -0.4375,-1.14063 -0.95312,-1.89063 -0.51563,-0.76562 -1.07813,-1.20312 -0.5625,-0.4375 -1.07812,-0.65625 -0.53125,-0.21875 -0.98438,-0.28125 -0.46875,-0.0625 -0.76562,-0.0625 -0.96875,0 -1.54688,0.3125 -0.59375,0.29687 -0.90625,0.71875 -0.3125,0.42187 -0.40625,0.89062 -0.10937,0.45313 -0.10937,0.78125 0,0.125 0.0469,0.51563 0.0312,0.375 0.25,0.95312 0.20313,0.57813 0.64063,1.29688 0.4375,0.71875 1.23437,1.51562 h -2.65625 q -0.98437,-1.125 -1.46875,-2.32812 -0.5,-1.21875 -0.5,-2.35938 0,-0.95312 0.34375,-1.8125 0.34375,-0.85937 1.03125,-1.48437 0.6875,-0.64063 1.71875,-1.01563 1.03125,-0.375 2.39063,-0.375 1.875,0 3.23437,0.73438 1.35938,0.71875 2.28125,1.96875 0.9375,1.25 1.46875,2.9375 0.54688,1.67187 0.76563,3.5625 h 3.35937 z"
         id="path71" />
      <path
         d="m 268.1875,129 h -3.28125 v 21 h -2.5625 v -8.76563 h -8.20313 v 2.23438 q 0,0.23437 -0.0469,0.5 -0.0312,0.26562 -0.15625,0.5 -0.10938,0.21875 -0.3125,0.375 -0.1875,0.14062 -0.48438,0.14062 -0.35937,0 -0.85937,-0.21875 -0.48438,-0.23437 -1.01563,-0.60937 -0.51562,-0.39063 -1.03125,-0.875 -0.5,-0.5 -0.90625,-1.03125 -0.39062,-0.53125 -0.64062,-1.0625 -0.25,-0.53125 -0.25,-0.98438 0,-0.65625 0.46875,-0.95312 0.46875,-0.29688 1.23437,-0.29688 h 1.51563 V 130.375 q 0,-0.8125 -0.39063,-1.23438 -0.39062,-0.4375 -0.98437,-0.4375 -0.65625,0 -1.10938,0.48438 -0.4375,0.48437 -0.4375,1.23437 0,0.14063 0.0312,0.34375 0.0312,0.20313 0.15625,0.46875 0.125,0.25 0.375,0.57813 0.25,0.3125 0.67188,0.67187 l -1.39063,1.70313 q -0.71875,-0.39063 -1.17187,-0.85938 -0.45313,-0.48437 -0.70313,-0.98437 -0.25,-0.5 -0.34375,-0.96875 -0.0937,-0.48438 -0.0937,-0.89063 0,-0.75 0.25,-1.46875 0.26563,-0.73437 0.78125,-1.31249 0.51563,-0.59375 1.28125,-0.95313 0.78125,-0.35937 1.8125,-0.35937 0.90625,0 1.60938,0.29687 0.70312,0.29688 1.17187,0.85938 0.48438,0.54687 0.71875,1.32812 0.25,0.76562 0.25,1.71875 v 8.35937 h 8.20313 v -12.24999 h 5.84375 z"
         id="path73" />
      <path
         d="m 276.5,129 h -3.28125 v 21 h -2.5625 v -21 h -3.5625 v -2.29687 H 276.5 Z"
         id="path75" />
      <path
         d="M 295.90625,129 H 292.625 v 21 h -2.5625 v -7.53125 L 290,142.45312 q -1.09375,0.9375 -2.42188,1.375 -1.3125,0.42188 -2.64062,0.42188 -1.34375,0 -2.45313,-0.39063 -1.10937,-0.39062 -1.90625,-1.1875 -0.79687,-0.8125 -1.25,-2.03125 -0.4375,-1.23437 -0.4375,-2.92187 V 129 h -3.48437 v -2.29687 h 20.5 z m -7.4375,11.53125 -6.98438,-9.8125 -0.0625,0.0156 v 6.84375 q 0,0.98438 0.15625,1.76563 0.17188,0.78125 0.5625,1.32812 0.40625,0.54688 1.0625,0.84375 0.65625,0.28125 1.64063,0.28125 1.07812,0 1.96875,-0.3125 0.90625,-0.3125 1.67187,-0.875 z M 290.0625,129 h -7.04688 v 0.0469 l 6.96875,10.09375 0.0781,-0.10937 z"
         id="path77" />
      <path
         d="m 304.21875,129 h -3.28125 v 21 h -2.5625 v -21 h -3.5625 v -2.29687 h 9.40625 z"
         id="path79" />
      <path
         d="m 308.60937,146.4375 -2.5,7.6875 h -1.82812 l 1.82812,-7.6875 z"
         id="path81" />
      <path
         d="m 339.875,129 h -3.28125 v 21 h -2.5625 v -21 h -7.04688 v 12.125 q 0,0.25 -0.0312,0.57812 -0.0312,0.32813 -0.15625,0.64063 -0.10937,0.29687 -0.32812,0.51562 -0.21875,0.20313 -0.60938,0.20313 -0.42187,0 -0.9375,-0.26563 -0.5,-0.28125 -1.03125,-0.71875 -0.53125,-0.45312 -1.03125,-1.01562 -0.48437,-0.5625 -0.875,-1.15625 -0.39062,-0.59375 -0.625,-1.15625 -0.23437,-0.5625 -0.23437,-1 0,-0.39063 0.1875,-0.625 0.20312,-0.23438 0.54687,-0.35938 0.35938,-0.125 0.85938,-0.15625 0.51562,-0.0312 1.125,-0.0312 h 0.54687 V 129 h -5.5625 v -2.29687 H 339.875 Z"
         id="path83" />
      <path
         d="m 348.1875,129 h -3.28125 v 21 h -2.5625 v -21 h -3.5625 v -2.29687 h 9.40625 z m -3.5,-1.85937 h -2.26563 L 341,124.46875 q -0.90625,-1.70312 -1.65625,-2.70312 -0.73438,-1 -1.39063,-1.51563 -0.67187,-0.53125 -1.3125,-0.67187 -0.64062,-0.15625 -1.34375,-0.15625 h -3.03125 v -2.53125 h 2.85938 q 0.90625,0 1.64062,0.15625 0.73438,0.14062 1.40625,0.53125 0.65625,0.375 1.28125,1.0625 0.64063,0.67187 1.35938,1.75 0.71875,1.0625 1.5625,2.5625 0.85937,1.48437 1.95312,3.51562 z"
         id="path85" />
      <path
         d="m 371.07812,129 h -4.65625 v 5.76562 h -7.82812 q -1.15625,0 -1.60938,0.32813 -0.4375,0.32812 -0.4375,1.0625 0,0.375 0.0937,0.78125 0.0937,0.40625 0.34375,0.76562 0.25,0.34375 0.67188,0.57813 0.4375,0.21875 1.10937,0.21875 h 4.42188 q 1.375,0 2.3125,0.375 0.95312,0.375 1.51562,1.03125 0.57813,0.65625 0.82813,1.54687 0.25,0.89063 0.25,1.90625 0,1.39063 -0.46875,2.65625 -0.45313,1.26563 -1.35938,2.23438 -0.90625,0.96875 -2.26562,1.54687 -1.34375,0.57813 -3.14063,0.57813 -1.95312,0 -3.75,-0.71875 -1.78125,-0.73438 -3.28125,-2.03125 -1.48437,-1.29688 -2.625,-3.07813 -1.125,-1.78125 -1.76562,-3.90625 l 2.17187,-0.85937 q 0.54688,1.60937 1.45313,3.09375 0.90625,1.48437 2.09375,2.625 1.20312,1.14062 2.64062,1.82812 1.4375,0.67188 3.03125,0.67188 1.125,0 2,-0.32813 0.89063,-0.32812 1.51563,-0.9375 0.625,-0.60937 0.95312,-1.45312 0.32813,-0.85938 0.32813,-1.92188 0,-0.75 -0.17188,-1.21875 -0.17187,-0.48437 -0.54687,-0.75 -0.35938,-0.26562 -0.92188,-0.35937 -0.5625,-0.10938 -1.34375,-0.10938 h -4.09375 q -1.15625,0 -2,-0.5 -0.84375,-0.5 -1.40625,-1.26562 -0.54687,-0.76563 -0.8125,-1.6875 -0.26562,-0.9375 -0.26562,-1.79688 0,-0.92187 0.29687,-1.53125 0.29688,-0.625 0.8125,-0.98437 0.51563,-0.375 1.21875,-0.53125 0.71875,-0.15625 1.54688,-0.15625 h 5.92187 V 129 h -16.76562 v -2.29687 h 23.98437 z"
         id="path87" />
      <path
         d="m 399.79687,129 h -3.28125 v 21 h -2.5625 v -21 h -7.04687 v 12.125 q 0,0.25 -0.0312,0.57812 -0.0312,0.32813 -0.15625,0.64063 -0.10938,0.29687 -0.32813,0.51562 -0.21875,0.20313 -0.60937,0.20313 -0.42188,0 -0.9375,-0.26563 -0.5,-0.28125 -1.03125,-0.71875 -0.53125,-0.45312 -1.03125,-1.01562 -0.48438,-0.5625 -0.875,-1.15625 -0.39063,-0.59375 -0.625,-1.15625 -0.23438,-0.5625 -0.23438,-1 0,-0.39063 0.1875,-0.625 0.20313,-0.23438 0.54688,-0.35938 0.35937,-0.125 0.85937,-0.15625 0.51563,-0.0312 1.125,-0.0312 h 0.54688 V 129 H 378.75 v -2.29687 h 21.04687 z"
         id="path89" />
      <path
         d="m 408.10937,129 h -3.28125 v 21 h -2.5625 v -21 h -3.5625 v -2.29687 h 3.8125 q -0.28125,-1.59375 -0.71875,-2.71875 -0.4375,-1.14063 -0.95312,-1.89063 -0.51563,-0.76562 -1.07813,-1.20312 -0.5625,-0.4375 -1.07812,-0.65625 -0.53125,-0.21875 -0.98438,-0.28125 -0.46875,-0.0625 -0.76562,-0.0625 -0.96875,0 -1.54688,0.3125 -0.59375,0.29687 -0.90625,0.71875 -0.3125,0.42187 -0.40625,0.89062 -0.10937,0.45313 -0.10937,0.78125 0,0.125 0.0469,0.51563 0.0312,0.375 0.25,0.95312 0.20313,0.57813 0.64063,1.29688 0.4375,0.71875 1.23437,1.51562 h -2.65625 q -0.98437,-1.125 -1.46875,-2.32812 -0.5,-1.21875 -0.5,-2.35938 0,-0.95312 0.34375,-1.8125 0.34375,-0.85937 1.03125,-1.48437 0.6875,-0.64063 1.71875,-1.01563 1.03125,-0.375 2.39063,-0.375 1.875,0 3.23437,0.73438 1.35938,0.71875 2.28125,1.96875 0.9375,1.25 1.46875,2.9375 0.54688,1.67187 0.76563,3.5625 h 3.35937 z"
         id="path91" />
      <path
         d="m 427.6875,129 h -3.28125 v 21 h -2.54688 v -13.71875 h -5.07812 q -1.04688,0 -1.89063,0.14062 -0.84375,0.125 -1.4375,0.53125 -0.59375,0.39063 -0.92187,1.10938 -0.3125,0.70312 -0.3125,1.85937 0,1.5 0.48437,2.76563 0.5,1.26562 1.26563,2.32812 0.76562,1.04688 1.6875,1.9375 0.9375,0.89063 1.79687,1.64063 l -1.5625,1.78125 q -0.14062,-0.0781 -0.67187,-0.45313 -0.51563,-0.39062 -1.21875,-1.04687 -0.6875,-0.65625 -1.46875,-1.59375 -0.76563,-0.9375 -1.42188,-2.10938 -0.64062,-1.1875 -1.07812,-2.60937 -0.42188,-1.42188 -0.42188,-3.0625 0,-1.625 0.45313,-2.6875 0.46875,-1.07813 1.3125,-1.70313 0.84375,-0.64062 2.04687,-0.89062 1.20313,-0.25 2.6875,-0.25 h 5.75 V 129 h -14.84375 v -2.29687 h 20.67188 z"
         id="path93" />
      <path
         d="m 436,129 h -3.28125 v 21 h -2.5625 v -21 h -3.5625 v -2.29687 H 436 Z"
         id="path95" />
      <path
         d="m 429.20312,121.9375 q 0,-0.89062 0.53125,-1.4375 0.51563,-0.5625 1.35938,-0.5625 0.39062,0 0.75,0.15625 0.34375,0.15625 0.60937,0.4375 0.26563,0.26563 0.42188,0.64063 0.14062,0.35937 0.14062,0.79687 0,0.89063 -0.51562,1.4375 -0.53125,0.54688 -1.375,0.54688 -0.40625,0 -0.75,-0.14063 -0.35938,-0.15625 -0.60938,-0.42187 -0.26562,-0.28125 -0.40625,-0.64063 -0.15625,-0.375 -0.15625,-0.8125 z"
         id="path97" />
      <path
         d="m 457.64062,129 h -3.28125 v 21 h -2.59375 v -6.57813 l -0.0625,-0.0469 q -0.85937,0.78125 -1.6875,1.23437 -0.8125,0.4375 -1.53125,0.67188 -0.70312,0.21875 -1.28125,0.28125 -0.57812,0.0625 -0.95312,0.0625 -1.4375,0 -2.54688,-0.45313 -1.10937,-0.45312 -1.85937,-1.1875 -0.75,-0.75 -1.14063,-1.70312 -0.39062,-0.96875 -0.39062,-2 0,-1.07813 0.4375,-2.14063 0.45312,-1.0625 1.40625,-1.90625 l -0.0156,-0.0625 H 437.1875 V 133.875 H 449.75 v 2.29687 h -1.60938 q -1.60937,0 -2.64062,0.42188 -1.03125,0.42187 -1.625,1.03125 -0.59375,0.60937 -0.82813,1.3125 -0.21875,0.6875 -0.21875,1.25 0,0.46875 0.15625,1.01562 0.15625,0.53125 0.51563,0.98438 0.375,0.45312 0.98437,0.75 0.625,0.29687 1.5625,0.29687 0.98438,0 1.82813,-0.3125 0.85937,-0.32812 1.57812,-0.84375 0.71875,-0.51562 1.29688,-1.15625 0.59375,-0.65625 1.01562,-1.29687 V 129 h -16.85937 v -2.29687 h 22.73437 z"
         id="path99" />
      <path
         d="m 465.95312,129 h -3.28125 v 21 h -2.5625 v -21 h -3.5625 v -2.29687 h 9.40625 z"
         id="path101" />
      <path
         d="m 481.79687,131.98437 q 0.17188,-0.25 0.3125,-0.625 0.15625,-0.39062 0.15625,-0.875 0,-0.4375 -0.15625,-0.76562 -0.15625,-0.32813 -0.40625,-0.53125 -0.23437,-0.20313 -0.54687,-0.29688 -0.3125,-0.10937 -0.625,-0.10937 -0.375,0 -0.75,0.15625 -0.35938,0.14062 -0.65625,0.46875 -0.28125,0.32812 -0.46875,0.84375 -0.1875,0.5 -0.1875,1.20312 0,0.76563 0.21875,1.45313 0.23437,0.67187 0.70312,1.1875 0.48438,0.5 1.20313,0.79687 0.73437,0.29688 1.75,0.29688 0.70312,0 1.29687,-0.10938 0.59375,-0.125 1.03125,-0.23437 l 0.42188,2.40625 q -0.25,0.0312 -0.67188,0.125 -0.42187,0.0781 -0.92187,0.26562 -0.48438,0.17188 -1,0.45313 -0.5,0.28125 -0.90625,0.70312 -0.40625,0.40625 -0.67188,0.96875 -0.25,0.5625 -0.25,1.3125 0,1.40625 0.875,2.20313 0.89063,0.78125 2.39063,0.78125 0.85937,0 1.65625,-0.26563 0.8125,-0.28125 1.51562,-0.78125 0.71875,-0.51562 1.32813,-1.20312 0.625,-0.70313 1.10937,-1.54688 l 0.59375,2.95313 q -0.75,0.89062 -1.51562,1.51562 -0.76563,0.60938 -1.54688,1 -0.78125,0.375 -1.5625,0.54688 -0.78125,0.17187 -1.54687,0.17187 -1.25,0 -2.3125,-0.40625 -1.0625,-0.40625 -1.84375,-1.14062 -0.76563,-0.73438 -1.20313,-1.73438 -0.42187,-1.01562 -0.42187,-2.23437 0,-1.125 0.42187,-2.0625 0.4375,-0.9375 1.51563,-1.78125 l -0.0156,-0.0625 q -1.0625,-0.28125 -1.84375,-0.85938 -0.76562,-0.57812 -1.28125,-1.32812 -0.5,-0.75 -0.75,-1.625 -0.25,-0.89063 -0.25,-1.78125 0,-1.09375 0.34375,-2.01563 0.35938,-0.92187 0.98438,-1.59374 0.64062,-0.67188 1.5,-1.04688 0.85937,-0.39062 1.89062,-0.39062 1.07813,0 1.84375,0.375 0.78125,0.375 1.26563,0.95312 0.5,0.57812 0.73437,1.28125 0.23438,0.6875 0.23438,1.3125 0,0.4375 -0.0937,0.85937 -0.0937,0.42188 -0.23438,0.79688 -0.14062,0.375 -0.3125,0.6875 -0.15625,0.3125 -0.29687,0.53125 z M 504.625,129 h -3.28125 v 21 h -2.5625 v -5.57813 l -0.0625,-0.0156 q -0.3125,0.29687 -0.73438,0.625 -0.42187,0.3125 -0.96875,0.57812 -0.54687,0.25 -1.23437,0.42188 -0.67188,0.17187 -1.51563,0.17187 -1.54687,0 -2.82812,-0.59375 -1.26563,-0.59375 -2.1875,-1.57812 -0.92188,-1 -1.4375,-2.28125 -0.5,-1.29688 -0.5,-2.70313 0,-1.40625 0.5,-2.60937 0.51562,-1.21875 1.40625,-2.10938 0.89062,-0.89062 2.07812,-1.39062 1.1875,-0.51563 2.54688,-0.51563 0.375,0 0.9375,0.0625 0.57812,0.0625 1.23437,0.28125 0.65625,0.21875 1.35938,0.64063 0.70312,0.40625 1.34375,1.10937 l 0.0625,-0.0156 V 129 h -11.875 v -2.29687 H 504.625 Z m -5.78125,8.42187 q -0.98438,-1.1875 -2.14063,-1.90625 -1.15625,-0.73437 -2.625,-0.73437 -1.15625,0 -1.96875,0.4375 -0.79687,0.4375 -1.3125,1.10937 -0.51562,0.65625 -0.75,1.46875 -0.23437,0.8125 -0.23437,1.5625 0,0.8125 0.26562,1.60938 0.26563,0.79687 0.78125,1.4375 0.53125,0.625 1.3125,1.03125 0.78125,0.39062 1.82813,0.39062 1.07812,0 1.96875,-0.40625 0.89062,-0.42187 1.53125,-1.0625 0.64062,-0.64062 0.98437,-1.4375 0.35938,-0.79687 0.35938,-1.54687 z"
         id="path103" />
      <path
         d="m 524.0625,129 h -3.28125 v 21 h -2.57813 v -12.04688 h -7.3125 q 0,1.03125 -0.0312,1.76563 -0.0156,0.73437 -0.125,1.21875 -0.10937,0.46875 -0.32812,0.6875 -0.21875,0.21875 -0.60938,0.21875 -0.8125,0 -1.54687,-0.53125 -0.71875,-0.53125 -1.28125,-1.28125 -0.54688,-0.75 -0.875,-1.5625 -0.32813,-0.8125 -0.32813,-1.375 0,-0.5 0.21875,-0.78125 0.21875,-0.28125 0.57813,-0.42188 0.35937,-0.14062 0.8125,-0.17187 0.46875,-0.0312 0.9375,-0.0312 h 9.89062 V 129 h -14.67187 v -2.29687 h 20.53125 z"
         id="path105" />
      <path
         d="m 532.375,129 h -3.28125 v 21 h -2.5625 v -21 h -3.5625 v -2.29687 h 3.8125 q -0.28125,-1.59375 -0.71875,-2.71875 -0.4375,-1.14063 -0.95313,-1.89063 -0.51562,-0.76562 -1.07812,-1.20312 -0.5625,-0.4375 -1.07813,-0.65625 -0.53125,-0.21875 -0.98437,-0.28125 -0.46875,-0.0625 -0.76563,-0.0625 -0.96875,0 -1.54687,0.3125 -0.59375,0.29687 -0.90625,0.71875 -0.3125,0.42187 -0.40625,0.89062 -0.10938,0.45313 -0.10938,0.78125 0,0.125 0.0469,0.51563 0.0312,0.375 0.25,0.95312 0.20312,0.57813 0.64062,1.29688 0.4375,0.71875 1.23438,1.51562 H 517.75 q -0.98438,-1.125 -1.46875,-2.32812 -0.5,-1.21875 -0.5,-2.35938 0,-0.95312 0.34375,-1.8125 0.34375,-0.85937 1.03125,-1.48437 0.6875,-0.64063 1.71875,-1.01563 1.03125,-0.375 2.39062,-0.375 1.875,0 3.23438,0.73438 1.35937,0.71875 2.28125,1.96875 0.9375,1.25 1.46875,2.9375 0.54687,1.67187 0.76562,3.5625 h 3.35938 z"
         id="path107" />
      <path
         d="M 564.1875,126.70313 V 129 h -3.28125 v 21 h -2.59375 v -10.5 h -9.04688 q -0.82812,0.54687 -1.98437,0.65625 l -0.0312,0.0781 q 1.51562,2.375 3.32812,4.42188 1.8125,2.04687 4.125,3.79687 l -1.67187,1.92188 q -1.32813,-0.98438 -2.53125,-2.125 -1.1875,-1.14063 -2.25,-2.35938 -1.04688,-1.23437 -1.96875,-2.48437 -0.92188,-1.26563 -1.6875,-2.48438 -0.76563,-1.21875 -1.375,-2.34375 -0.60938,-1.14062 -1.0625,-2.10937 l 2.14062,-1.15625 q 0.29688,0.6875 0.57813,1.15625 0.29687,0.45312 0.59375,0.73437 0.29687,0.26563 0.625,0.39063 0.32812,0.10937 0.70312,0.10937 1.07813,0 1.57813,-0.84375 0.51562,-0.84375 0.51562,-2.21875 0,-0.8125 -0.15625,-1.59375 -0.15625,-0.79687 -0.40625,-1.51562 -0.23437,-0.73438 -0.51562,-1.375 -0.28125,-0.64063 -0.53125,-1.15625 h -7.23438 v -2.29687 z M 558.3125,129 h -8.32813 q 0.65625,1.42187 1.03125,2.85937 0.375,1.4375 0.375,2.85938 0,0.65625 -0.10937,1.29687 -0.0937,0.625 -0.32813,1.1875 l 0.0312,0.0312 h 7.32813 z"
         id="path109" />
      <path
         d="m 585.73437,129 h -3.28125 v 21 h -2.5625 v -8.76563 h -8.59375 v 1.85938 q 0,0.48437 -0.0469,0.85937 -0.0312,0.375 -0.17188,0.625 -0.125,0.25 -0.375,0.39063 -0.23437,0.125 -0.64062,0.125 -0.40625,0 -0.90625,-0.23438 -0.5,-0.25 -1.01563,-0.65625 -0.51562,-0.42187 -1,-0.9375 -0.48437,-0.53125 -0.875,-1.09375 -0.375,-0.57812 -0.60937,-1.14062 -0.23438,-0.5625 -0.23438,-1.03125 0,-0.32813 0.10938,-0.53125 0.125,-0.21875 0.32812,-0.32813 0.21875,-0.10937 0.51563,-0.14062 0.29687,-0.0469 0.67187,-0.0469 h 1.6875 V 129 h -5.64062 v -2.29687 h 22.64062 z m -14.4375,0 v 9.95312 h 8.59375 V 129 Z"
         id="path111" />
      <path
         d="m 594.04687,129 h -3.28125 v 21 h -2.5625 v -21 h -3.5625 v -2.29687 h 9.40625 z"
         id="path113" />
      <path
         d="m 613.48437,129 h -3.28125 v 21 H 607.625 v -12.04688 h -7.3125 q 0,1.03125 -0.0312,1.76563 -0.0156,0.73437 -0.125,1.21875 -0.10938,0.46875 -0.32813,0.6875 -0.21875,0.21875 -0.60937,0.21875 -0.8125,0 -1.54688,-0.53125 -0.71875,-0.53125 -1.28125,-1.28125 -0.54687,-0.75 -0.875,-1.5625 -0.32812,-0.8125 -0.32812,-1.375 0,-0.5 0.21875,-0.78125 0.21875,-0.28125 0.57812,-0.42188 0.35938,-0.14062 0.8125,-0.17187 0.46875,-0.0312 0.9375,-0.0312 H 607.625 V 129 h -14.67188 v -2.29687 h 20.53125 z"
         id="path115" />
      <path
         d="m 616.42187,150.34375 q -0.71875,0 -1.23437,-0.51563 -0.5,-0.51562 -0.5,-1.23437 0,-0.71875 0.5,-1.23438 0.51562,-0.53125 1.23437,-0.53125 0.73438,0 1.25,0.53125 0.51563,0.51563 0.51563,1.23438 0,0.71875 -0.51563,1.23437 -0.51562,0.51563 -1.25,0.51563 z"
         id="path117" />
    </g>
    <g
       aria-label="भावनांचा सागर, शब्दांचा प्रवाह,"
       id="text6">
      <path
         d="m 235.28906,179 h -3.28125 v 21 h -2.5625 v -8.76563 h -8.20312 v 2.23438 q 0,0.23437 -0.0469,0.5 -0.0312,0.26562 -0.15625,0.5 -0.10937,0.21875 -0.3125,0.375 -0.1875,0.14062 -0.48437,0.14062 -0.35938,0 -0.85938,-0.21875 -0.48437,-0.23437 -1.01562,-0.60937 -0.51563,-0.39063 -1.03125,-0.875 -0.5,-0.5 -0.90625,-1.03125 -0.39063,-0.53125 -0.64063,-1.0625 -0.25,-0.53125 -0.25,-0.98438 0,-0.65625 0.46875,-0.95312 0.46875,-0.29688 1.23438,-0.29688 h 1.51562 V 180.375 q 0,-0.8125 -0.39062,-1.23438 -0.39063,-0.4375 -0.98438,-0.4375 -0.65625,0 -1.10937,0.48438 -0.4375,0.48437 -0.4375,1.23437 0,0.14063 0.0312,0.34375 0.0312,0.20313 0.15625,0.46875 0.125,0.25 0.375,0.57813 0.25,0.3125 0.67187,0.67187 l -1.39062,1.70313 q -0.71875,-0.39063 -1.17188,-0.85938 -0.45312,-0.48437 -0.70312,-0.98437 -0.25,-0.5 -0.34375,-0.96875 -0.0937,-0.48438 -0.0937,-0.89063 0,-0.75 0.25,-1.46875 0.26562,-0.73437 0.78125,-1.3125 0.51562,-0.59375 1.28125,-0.95312 0.78125,-0.35938 1.8125,-0.35938 0.90625,0 1.60937,0.29688 0.70313,0.29687 1.17188,0.85937 0.48437,0.54688 0.71875,1.32813 0.25,0.76562 0.25,1.71875 v 8.35937 h 8.20312 v -12.25 h 5.84375 z"
         id="path120" />
      <path
         d="m 243.60156,179 h -3.28125 v 21 h -2.5625 v -21 h -3.5625 v -2.29688 h 9.40625 z"
         id="path122" />
      <path
         d="m 262.41406,179 h -3.28125 v 21 h -2.5625 v -5.57813 l -0.0625,-0.0156 q -0.3125,0.29687 -0.73437,0.625 -0.42188,0.3125 -0.96875,0.57812 -0.54688,0.25 -1.23438,0.42188 -0.67187,0.17187 -1.51562,0.17187 -1.54688,0 -2.82813,-0.59375 -1.26562,-0.59375 -2.1875,-1.57812 -0.92187,-1 -1.4375,-2.28125 -0.5,-1.29688 -0.5,-2.70313 0,-1.40625 0.5,-2.60937 0.51563,-1.21875 1.40625,-2.10938 0.89063,-0.89062 2.07813,-1.39062 1.1875,-0.51563 2.54687,-0.51563 0.375,0 0.9375,0.0625 0.57813,0.0625 1.23438,0.28125 0.65625,0.21875 1.35937,0.64063 0.70313,0.40625 1.34375,1.10937 l 0.0625,-0.0156 V 179 h -14.0625 v -2.29688 h 19.90625 z m -5.78125,8.42187 q -0.98437,-1.1875 -2.14062,-1.90625 -1.15625,-0.73437 -2.625,-0.73437 -1.15625,0 -1.96875,0.4375 -0.79688,0.4375 -1.3125,1.10937 -0.51563,0.65625 -0.75,1.46875 -0.23438,0.8125 -0.23438,1.5625 0,0.8125 0.26563,1.60938 0.26562,0.79687 0.78125,1.4375 0.53125,0.625 1.3125,1.03125 0.78125,0.39062 1.82812,0.39062 1.07813,0 1.96875,-0.40625 0.89063,-0.42187 1.53125,-1.0625 0.64063,-0.64062 0.98438,-1.4375 0.35937,-0.79687 0.35937,-1.54687 z"
         id="path124" />
      <path
         d="m 281.85156,179 h -3.28125 v 21 h -2.57812 v -12.04688 h -7.3125 q 0,1.03125 -0.0312,1.76563 -0.0156,0.73437 -0.125,1.21875 -0.10938,0.46875 -0.32813,0.6875 -0.21875,0.21875 -0.60937,0.21875 -0.8125,0 -1.54688,-0.53125 -0.71875,-0.53125 -1.28125,-1.28125 -0.54687,-0.75 -0.875,-1.5625 -0.32812,-0.8125 -0.32812,-1.375 0,-0.5 0.21875,-0.78125 0.21875,-0.28125 0.57812,-0.42188 0.35938,-0.14062 0.8125,-0.17187 0.46875,-0.0312 0.9375,-0.0312 h 9.89063 V 179 h -14.67188 v -2.29688 h 20.53125 z"
         id="path126" />
      <path
         d="m 290.16406,179 h -3.28125 v 21 h -2.5625 v -21 h -3.5625 v -2.29688 h 9.40625 z"
         id="path128" />
      <path
         d="m 283.36719,171.9375 q 0,-0.89063 0.53125,-1.4375 0.51562,-0.5625 1.35937,-0.5625 0.39063,0 0.75,0.15625 0.34375,0.15625 0.60938,0.4375 0.26562,0.26562 0.42187,0.64062 0.14063,0.35938 0.14063,0.79688 0,0.89062 -0.51563,1.4375 -0.53125,0.54687 -1.375,0.54687 -0.40625,0 -0.75,-0.14062 -0.35937,-0.15625 -0.60937,-0.42188 -0.26563,-0.28125 -0.40625,-0.64062 -0.15625,-0.375 -0.15625,-0.8125 z"
         id="path130" />
      <path
         d="m 311.80469,179 h -3.28125 v 21 h -2.59375 v -6.57813 l -0.0625,-0.0469 q -0.85938,0.78125 -1.6875,1.23437 -0.8125,0.4375 -1.53125,0.67188 -0.70313,0.21875 -1.28125,0.28125 -0.57813,0.0625 -0.95313,0.0625 -1.4375,0 -2.54687,-0.45313 -1.10938,-0.45312 -1.85938,-1.1875 -0.75,-0.75 -1.14062,-1.70312 -0.39063,-0.96875 -0.39063,-2 0,-1.07813 0.4375,-2.14063 0.45313,-1.0625 1.40625,-1.90625 l -0.0156,-0.0625 h -4.95313 V 183.875 h 12.5625 v 2.29687 h -1.60937 q -1.60938,0 -2.64063,0.42188 -1.03125,0.42187 -1.625,1.03125 -0.59375,0.60937 -0.82812,1.3125 -0.21875,0.6875 -0.21875,1.25 0,0.46875 0.15625,1.01562 0.15625,0.53125 0.51562,0.98438 0.375,0.45312 0.98438,0.75 0.625,0.29687 1.5625,0.29687 0.98437,0 1.82812,-0.3125 0.85938,-0.32812 1.57813,-0.84375 0.71875,-0.51562 1.29687,-1.15625 0.59375,-0.65625 1.01563,-1.29687 V 179 h -16.85938 v -2.29688 h 22.73438 z"
         id="path132" />
      <path
         d="m 320.11719,179 h -3.28125 v 21 h -2.5625 v -21 h -3.5625 v -2.29688 h 9.40625 z"
         id="path134" />
      <path
         d="M 351.92969,176.70312 V 179 h -3.28125 v 21 h -2.59375 v -10.5 h -9.04688 q -0.82812,0.54687 -1.98437,0.65625 l -0.0312,0.0781 q 1.51562,2.375 3.32812,4.42188 1.8125,2.04687 4.125,3.79687 l -1.67187,1.92188 q -1.32813,-0.98438 -2.53125,-2.125 -1.1875,-1.14063 -2.25,-2.35938 -1.04688,-1.23437 -1.96875,-2.48437 -0.92188,-1.26563 -1.6875,-2.48438 -0.76563,-1.21875 -1.375,-2.34375 -0.60938,-1.14062 -1.0625,-2.10937 l 2.14062,-1.15625 q 0.29688,0.6875 0.57813,1.15625 0.29687,0.45312 0.59375,0.73437 0.29687,0.26563 0.625,0.39063 0.32812,0.10937 0.70312,0.10937 1.07813,0 1.57813,-0.84375 0.51562,-0.84375 0.51562,-2.21875 0,-0.8125 -0.15625,-1.59375 -0.15625,-0.79687 -0.40625,-1.51562 -0.23437,-0.73438 -0.51562,-1.375 -0.28125,-0.64063 -0.53125,-1.15625 h -7.23438 v -2.29688 z M 346.05469,179 h -8.32813 q 0.65625,1.42187 1.03125,2.85937 0.375,1.4375 0.375,2.85938 0,0.65625 -0.10937,1.29687 -0.0937,0.625 -0.32813,1.1875 l 0.0312,0.0312 h 7.32813 z"
         id="path136" />
      <path
         d="m 360.24219,179 h -3.28125 v 21 h -2.5625 v -21 h -3.5625 v -2.29688 h 9.40625 z"
         id="path138" />
      <path
         d="m 380.19531,179 h -3.28125 v 21 h -2.5625 v -21 h -7.04687 v 12.125 q 0,0.25 -0.0312,0.57812 -0.0312,0.32813 -0.15625,0.64063 -0.10938,0.29687 -0.32813,0.51562 -0.21875,0.20313 -0.60937,0.20313 -0.42188,0 -0.9375,-0.26563 -0.5,-0.28125 -1.03125,-0.71875 -0.53125,-0.45312 -1.03125,-1.01562 -0.48438,-0.5625 -0.875,-1.15625 -0.39063,-0.59375 -0.625,-1.15625 -0.23438,-0.5625 -0.23438,-1 0,-0.39063 0.1875,-0.625 0.20313,-0.23438 0.54688,-0.35938 0.35937,-0.125 0.85937,-0.15625 0.51563,-0.0312 1.125,-0.0312 h 0.54688 V 179 h -5.5625 v -2.29688 h 21.04687 z"
         id="path140" />
      <path
         d="m 395.83594,179 h -5.89063 q 0.79688,1.375 1.28125,2.8125 0.5,1.42187 0.5,2.89062 0,1.10938 -0.34375,2.14063 -0.32812,1.01562 -0.98437,1.82812 -0.64063,0.79688 -1.60938,1.3125 -0.95312,0.5 -2.20312,0.5625 l -0.0312,0.0781 q 1.40625,2.1875 3.15625,4.14062 1.75,1.9375 4.04687,3.6875 l -1.67187,1.92188 q -1.32813,-0.98438 -2.53125,-2.125 -1.1875,-1.15625 -2.25,-2.375 -1.0625,-1.23438 -1.98438,-2.48438 -0.90625,-1.26562 -1.67187,-2.45312 -0.75,-1.20313 -1.34375,-2.29688 -0.59375,-1.10937 -1.01563,-2.01562 l 2.14063,-1.15625 q 0.5625,1.21875 1.26562,1.92187 0.71875,0.6875 1.65625,0.6875 0.67188,0 1.20313,-0.34375 0.53125,-0.34375 0.89062,-0.875 0.35938,-0.54687 0.54688,-1.1875 0.1875,-0.65625 0.1875,-1.28125 0,-0.73437 -0.1875,-1.4375 -0.1875,-0.71875 -0.48438,-1.39062 -0.29687,-0.6875 -0.67187,-1.32813 -0.35938,-0.64062 -0.70313,-1.23437 h -8.03125 v -2.29688 h 16.73438 z"
         id="path142" />
      <path
         d="m 400.22656,196.4375 -2.5,7.6875 h -1.82812 l 1.82812,-7.6875 z"
         id="path144" />
      <path
         d="m 421.13281,187.5 q -0.28125,0.0312 -0.53125,0.0625 -0.25,0.0156 -0.51562,0.0156 -1.26563,0 -2.29688,-0.45312 -1.01562,-0.45313 -1.75,-1.21875 -0.71875,-0.76563 -1.10937,-1.76563 -0.39063,-1.01562 -0.39063,-2.125 0,-0.79687 0.21875,-1.54687 0.21875,-0.75 0.6875,-1.40625 L 415.42969,179 h -4.98438 v -2.29688 h 26.125 V 179 h -3.28125 v 21 h -2.5625 v -21 h -5.89062 l -0.0156,0.0625 q 0.40625,0.40625 0.75,0.98437 0.34375,0.5625 0.57813,1.23438 0.25,0.67187 0.39062,1.40625 0.14063,0.73437 0.14063,1.48437 0,1.21875 -0.39063,2.35938 -0.375,1.14062 -1.07812,2.15625 -0.6875,1.01562 -1.67188,1.89062 -0.96875,0.85938 -2.15625,1.53125 v 0.0625 q 0.78125,0.60938 1.67188,1.46875 0.89062,0.84375 1.76562,1.76563 0.875,0.92187 1.65625,1.84375 0.78125,0.90625 1.34375,1.65625 l -1.76562,1.48437 q -0.48438,-0.60937 -1.21875,-1.48437 -0.73438,-0.89063 -1.64063,-1.84375 -0.90625,-0.96875 -1.96875,-1.92188 -1.04687,-0.96875 -2.1875,-1.75 -0.5625,0.26563 -1.1875,0.39063 -0.60937,0.125 -1.21875,0.125 -0.70312,0 -1.35937,-0.17188 -0.64063,-0.17187 -1.15625,-0.5 -0.5,-0.32812 -0.79688,-0.79687 -0.29687,-0.48438 -0.29687,-1.10938 0,-0.98437 0.71875,-1.51562 0.73437,-0.54688 1.90625,-0.54688 0.85937,0 1.73437,0.3125 0.89063,0.29688 1.73438,0.90625 0.4375,-0.0937 0.98437,-0.32812 0.54688,-0.25 1.10938,-0.625 0.57812,-0.39063 1.10937,-0.90625 0.54688,-0.53125 0.96875,-1.20313 0.42188,-0.67187 0.67188,-1.46875 0.26562,-0.8125 0.26562,-1.75 0,-0.9375 -0.28125,-1.84375 -0.26562,-0.90625 -0.79687,-1.60937 -0.53125,-0.71875 -1.32813,-1.15625 -0.79687,-0.4375 -1.84375,-0.4375 -0.82812,0 -1.375,0.26562 -0.54687,0.25 -0.89062,0.65625 -0.34375,0.40625 -0.48438,0.90625 -0.14062,0.48438 -0.14062,0.95313 0,0.60937 0.21875,1.20312 0.21875,0.57813 0.64062,1.04688 0.4375,0.45312 1.07813,0.73437 0.64062,0.28125 1.46875,0.28125 0.26562,0 0.64062,-0.0469 z"
         id="path146" />
      <path
         d="m 450.44531,179 h -14.96875 v -2.29688 h 14.96875 z m -12.375,11.46875 q 0,-1.40625 0.54688,-2.625 0.54687,-1.21875 1.51562,-2.125 0.96875,-0.92188 2.28125,-1.4375 1.32813,-0.53125 2.875,-0.53125 1.17188,0 2.17188,0.29687 1,0.29688 1.82812,0.78125 0.82813,0.48438 1.46875,1.10938 0.64063,0.60937 1.10938,1.23437 0.46875,0.625 0.75,1.23438 0.28125,0.59375 0.375,1.03125 -0.0312,1.875 -0.5625,3.40625 -0.53125,1.53125 -1.48438,2.625 -0.9375,1.07812 -2.28125,1.67187 -1.32812,0.59375 -2.96875,0.59375 -1.71875,0 -3.125,-0.60937 -1.40625,-0.625 -2.40625,-1.64063 -1,-1.01562 -1.54687,-2.3125 -0.54688,-1.3125 -0.54688,-2.70312 z m 2.5,0.26562 q 0,0.84375 0.29688,1.67188 0.29687,0.82812 0.875,1.48437 0.59375,0.65625 1.46875,1.0625 0.89062,0.40625 2.0625,0.40625 1.07812,0 1.98437,-0.35937 l -5.14062,-7.75 q -0.75,0.65625 -1.15625,1.57812 -0.39063,0.92188 -0.39063,1.90625 z m 10.15625,-1.57812 q -0.54687,-0.70313 -1.125,-1.26563 -0.57812,-0.5625 -1.23437,-0.95312 -0.64063,-0.40625 -1.375,-0.60938 -0.73438,-0.21875 -1.59375,-0.21875 -0.39063,0 -0.71875,0.0469 -0.3125,0.0312 -0.65625,0.10937 l 5.01562,7.53125 q 0.75,-0.8125 1.1875,-1.98437 0.4375,-1.17188 0.5,-2.65625 z M 469.11719,179 h -5.29688 v 6.85937 h -5.26562 q -2.45313,0 -3.70313,1.21875 -1.25,1.20313 -1.25,3.46875 0,1.28125 0.40625,2.26563 0.42188,0.98437 1.14063,1.65625 0.73437,0.65625 1.73437,1 1,0.34375 2.17188,0.34375 1.23437,0 1.98437,-0.375 -0.0625,-0.39063 -0.0937,-0.6875 -0.0312,-0.29688 -0.0312,-0.59375 0,-0.65625 0.15625,-1.34375 0.17188,-0.70313 0.5,-1.26563 0.34375,-0.57812 0.85938,-0.9375 0.53125,-0.35937 1.26562,-0.35937 0.45313,0 0.85938,0.15625 0.40625,0.15625 0.70312,0.48437 0.3125,0.3125 0.48438,0.79688 0.1875,0.48437 0.1875,1.125 0,0.64062 -0.17188,1.1875 -0.17187,0.53125 -0.45312,1 -0.26563,0.45312 -0.60938,0.85937 -0.34375,0.39063 -0.67187,0.71875 0.34375,0.75 0.71875,1.34375 0.39062,0.59375 0.79687,1.0625 0.42188,0.46875 0.84375,0.84375 0.42188,0.375 0.84375,0.70313 l -1.92187,2.01562 q -0.82813,-0.73437 -1.42188,-1.46875 -0.57812,-0.71875 -0.98437,-1.35937 -0.39063,-0.64063 -0.64063,-1.15625 -0.25,-0.51563 -0.40625,-0.82813 -1.07812,0.42188 -2.65625,0.42188 -2.03125,0 -3.54687,-0.65625 -1.51563,-0.67188 -2.53125,-1.78125 -1,-1.125 -1.5,-2.5625 -0.5,-1.4375 -0.5,-2.98438 0,-1.60937 0.51562,-2.82812 0.51563,-1.23438 1.4375,-2.0625 0.92188,-0.84375 2.1875,-1.26563 1.28125,-0.4375 2.79688,-0.4375 h 3.20312 V 179 h -13.15625 v -2.29688 h 21.01563 z"
         id="path148" />
      <path
         d="m 477.42969,179 h -3.28125 v 21 h -2.5625 v -21 h -3.5625 v -2.29688 h 9.40625 z"
         id="path150" />
      <path
         d="m 470.63281,171.9375 q 0,-0.89063 0.53125,-1.4375 0.51563,-0.5625 1.35938,-0.5625 0.39062,0 0.75,0.15625 0.34375,0.15625 0.60937,0.4375 0.26563,0.26562 0.42188,0.64062 0.14062,0.35938 0.14062,0.79688 0,0.89062 -0.51562,1.4375 -0.53125,0.54687 -1.375,0.54687 -0.40625,0 -0.75,-0.14062 -0.35938,-0.15625 -0.60938,-0.42188 -0.26562,-0.28125 -0.40625,-0.64062 -0.15625,-0.375 -0.15625,-0.8125 z"
         id="path152" />
      <path
         d="m 499.07031,179 h -3.28125 v 21 h -2.59375 v -6.57813 l -0.0625,-0.0469 q -0.85937,0.78125 -1.6875,1.23437 -0.8125,0.4375 -1.53125,0.67188 -0.70312,0.21875 -1.28125,0.28125 -0.57812,0.0625 -0.95312,0.0625 -1.4375,0 -2.54688,-0.45313 -1.10937,-0.45312 -1.85937,-1.1875 -0.75,-0.75 -1.14063,-1.70312 -0.39062,-0.96875 -0.39062,-2 0,-1.07813 0.4375,-2.14063 0.45312,-1.0625 1.40625,-1.90625 l -0.0156,-0.0625 h -4.95312 V 183.875 h 12.5625 v 2.29687 h -1.60938 q -1.60937,0 -2.64062,0.42188 -1.03125,0.42187 -1.625,1.03125 -0.59375,0.60937 -0.82813,1.3125 -0.21875,0.6875 -0.21875,1.25 0,0.46875 0.15625,1.01562 0.15625,0.53125 0.51563,0.98438 0.375,0.45312 0.98437,0.75 0.625,0.29687 1.5625,0.29687 0.98438,0 1.82813,-0.3125 0.85937,-0.32812 1.57812,-0.84375 0.71875,-0.51562 1.29688,-1.15625 0.59375,-0.65625 1.01562,-1.29687 V 179 h -16.85937 v -2.29688 h 22.73437 z"
         id="path154" />
      <path
         d="m 507.38281,179 h -3.28125 v 21 h -2.5625 v -21 h -3.5625 v -2.29688 h 9.40625 z"
         id="path156" />
      <path
         d="m 535.41406,179 h -3.28125 v 21 h -2.57812 v -6.96875 l -0.0625,-0.0156 -9.53125,7.17188 -1.60938,-1.95313 5.54688,-3.98437 -0.0156,-0.0625 q -1.20312,-0.0937 -2.1875,-0.53125 -0.98437,-0.4375 -1.6875,-1.23438 -0.70312,-0.79687 -1.09375,-1.96875 -0.375,-1.17187 -0.375,-2.73437 V 179 h -3.48437 v -2.29688 h 20.35937 z m -5.85937,0 h -8.48438 v 8.57812 q 0,0.98438 0.15625,1.76563 0.17188,0.78125 0.5625,1.32812 0.40625,0.54688 1.0625,0.84375 0.65625,0.28125 1.64063,0.28125 1.60937,0 2.90625,-0.70312 1.29687,-0.71875 2.15625,-1.89063 z"
         id="path158" />
      <path
         d="m 554.22656,179 h -3.28125 v 21 h -2.5625 v -5.57813 l -0.0625,-0.0156 q -0.3125,0.29687 -0.73437,0.625 -0.42188,0.3125 -0.96875,0.57812 -0.54688,0.25 -1.23438,0.42188 -0.67187,0.17187 -1.51562,0.17187 -1.54688,0 -2.82813,-0.59375 -1.26562,-0.59375 -2.1875,-1.57812 -0.92187,-1 -1.4375,-2.28125 -0.5,-1.29688 -0.5,-2.70313 0,-1.40625 0.5,-2.60937 0.51563,-1.21875 1.40625,-2.10938 0.89063,-0.89062 2.07813,-1.39062 1.1875,-0.51563 2.54687,-0.51563 0.375,0 0.9375,0.0625 0.57813,0.0625 1.23438,0.28125 0.65625,0.21875 1.35937,0.64063 0.70313,0.40625 1.34375,1.10937 l 0.0625,-0.0156 V 179 h -14.0625 v -2.29688 h 19.90625 z m -5.78125,8.42187 q -0.98437,-1.1875 -2.14062,-1.90625 -1.15625,-0.73437 -2.625,-0.73437 -1.15625,0 -1.96875,0.4375 -0.79688,0.4375 -1.3125,1.10937 -0.51563,0.65625 -0.75,1.46875 -0.23438,0.8125 -0.23438,1.5625 0,0.8125 0.26563,1.60938 0.26562,0.79687 0.78125,1.4375 0.53125,0.625 1.3125,1.03125 0.78125,0.39062 1.82812,0.39062 1.07813,0 1.96875,-0.40625 0.89063,-0.42187 1.53125,-1.0625 0.64063,-0.64062 0.98438,-1.4375 0.35937,-0.79687 0.35937,-1.54687 z"
         id="path160" />
      <path
         d="m 562.53906,179 h -3.28125 v 21 h -2.5625 v -21 h -3.5625 v -2.29688 h 9.40625 z"
         id="path162" />
      <path
         d="m 573.44531,195.59375 q 0.51563,-0.15625 1.01563,-0.39063 0.51562,-0.23437 0.90625,-0.5625 0.40625,-0.34375 0.65625,-0.79687 0.25,-0.45313 0.25,-1.0625 0,-1.29688 -1.07813,-2.01563 -1.07812,-0.73437 -3.0625,-0.73437 -0.79687,0 -1.64062,0.17187 -0.82813,0.15625 -1.51563,0.59375 -0.6875,0.42188 -1.125,1.17188 -0.4375,0.73437 -0.4375,1.875 0,1.15625 0.45313,2.15625 0.45312,0.98437 1.17187,1.8125 0.73438,0.82812 1.64063,1.5 0.90625,0.67187 1.79687,1.1875 0.90625,0.51562 1.70313,0.85937 0.79687,0.35938 1.32812,0.5625 l -1.03125,2.15625 q -1.09375,-0.46875 -2.23437,-1.03125 -1.125,-0.54687 -2.1875,-1.21875 -1.0625,-0.65625 -2,-1.45312 -0.9375,-0.79688 -1.64063,-1.76563 -0.6875,-0.96875 -1.09375,-2.125 -0.39062,-1.15625 -0.39062,-2.51562 0,-1.32813 0.34375,-2.3125 0.35937,-1 0.98437,-1.75 -0.85937,-0.98438 -1.26562,-1.98438 -0.40625,-1 -0.40625,-2.17187 0,-0.67188 0.15625,-1.26563 0.17187,-0.59375 0.59375,-1.03125 0.4375,-0.45312 1.20312,-0.71875 0.76563,-0.26562 1.98438,-0.26562 h 7.07812 V 179 h -14.15625 v -2.29688 h 20.35938 V 179 h -3.64063 v 5.75 h -8.98437 q -0.60938,0 -1.03125,0.10937 -0.40625,0.0937 -0.65625,0.29688 -0.25,0.20312 -0.35938,0.51562 -0.0937,0.29688 -0.0937,0.70313 0,0.54687 0.1875,1.0625 0.1875,0.51562 0.70313,1.15625 0.90625,-0.46875 1.98437,-0.6875 1.09375,-0.23438 2.28125,-0.23438 1.375,0 2.5625,0.3125 1.20313,0.3125 2.07813,0.95313 0.89062,0.625 1.39062,1.60937 0.51563,0.96875 0.51563,2.28125 0,1.26563 -0.4375,2.14063 -0.42188,0.875 -1.07813,1.46875 -0.64062,0.59375 -1.40625,0.96875 -0.76562,0.35937 -1.42187,0.59375 z"
         id="path164" />
      <path
         d="m 586.19531,196.4375 -2.5,7.6875 h -1.82812 l 1.82812,-7.6875 z"
         id="path166" />
    </g>
    <g
       aria-label="संस्कृतींचा संगम, एक सुंदर आवाह."
       id="text8">
      <path
         d="M 213.21875,226.70312 V 229 h -3.28125 v 21 h -2.59375 v -10.5 h -9.04688 q -0.82812,0.54687 -1.98437,0.65625 l -0.0312,0.0781 q 1.51562,2.375 3.32812,4.42188 1.8125,2.04687 4.125,3.79687 l -1.67187,1.92188 q -1.32813,-0.98438 -2.53125,-2.125 -1.1875,-1.14063 -2.25,-2.35938 -1.04688,-1.23437 -1.96875,-2.48437 -0.92188,-1.26563 -1.6875,-2.48438 -0.76563,-1.21875 -1.375,-2.34375 -0.60938,-1.14062 -1.0625,-2.10937 l 2.14062,-1.15625 q 0.29688,0.6875 0.57813,1.15625 0.29687,0.45312 0.59375,0.73437 0.29687,0.26563 0.625,0.39063 0.32812,0.10937 0.70312,0.10937 1.07813,0 1.57813,-0.84375 0.51562,-0.84375 0.51562,-2.21875 0,-0.8125 -0.15625,-1.59375 -0.15625,-0.79687 -0.40625,-1.51562 -0.23437,-0.73438 -0.51562,-1.375 Q 196.5625,229.51562 196.3125,229 h -7.23438 v -2.29688 z M 207.34375,229 h -8.32813 q 0.65625,1.42187 1.03125,2.85937 0.375,1.4375 0.375,2.85938 0,0.65625 -0.10937,1.29687 -0.0937,0.625 -0.32813,1.1875 l 0.0312,0.0312 h 7.32813 z"
         id="path169" />
      <path
         d="m 206.73437,221.9375 q 0,-0.89063 0.53125,-1.4375 0.51563,-0.5625 1.35938,-0.5625 0.39062,0 0.75,0.15625 0.34375,0.15625 0.60937,0.4375 0.26563,0.26562 0.42188,0.64062 0.14062,0.35938 0.14062,0.79688 0,0.89062 -0.51562,1.4375 -0.53125,0.54687 -1.375,0.54687 -0.40625,0 -0.75,-0.14062 -0.35938,-0.15625 -0.60938,-0.42188 -0.26562,-0.28125 -0.40625,-0.64062 -0.15625,-0.375 -0.15625,-0.8125 z"
         id="path171" />
      <path
         d="m 230.3125,239.5 h -8.96875 q -0.82813,0.54687 -1.98438,0.65625 l -0.0312,0.0781 q 1.51563,2.375 3.32813,4.42188 1.8125,2.04687 4.125,3.79687 l -1.67188,1.92188 q -1.32812,-0.98438 -2.53125,-2.125 -1.1875,-1.14063 -2.25,-2.35938 -1.04687,-1.23437 -1.96875,-2.48437 -0.92187,-1.26563 -1.6875,-2.48438 -0.76562,-1.21875 -1.375,-2.34375 -0.60937,-1.14062 -1.0625,-2.10937 l 2.14063,-1.15625 q 0.29687,0.6875 0.57812,1.15625 0.29688,0.45312 0.59375,0.73437 0.29688,0.26563 0.625,0.39063 0.32813,0.10937 0.70313,0.10937 1.07812,0 1.57812,-0.84375 0.51563,-0.84375 0.51563,-2.21875 0,-0.8125 -0.15625,-1.59375 -0.15625,-0.79687 -0.40625,-1.51562 -0.23438,-0.73438 -0.51563,-1.375 Q 219.60937,229.51562 219.35937,229 H 212.125 v -2.29688 h 17.8125 V 229 h -7.875 q 0.65625,1.42187 1.03125,2.85937 0.375,1.4375 0.375,2.85938 0,0.65625 -0.10938,1.29687 -0.0937,0.625 -0.32812,1.1875 l 0.0312,0.0312 h 7.01562 z M 254.15625,229 h -13.20313 v 6.15625 l 0.0781,0.0312 q 0.79687,-1.09375 1.98437,-1.75 1.1875,-0.67188 2.60938,-0.67188 1.125,0 2.07812,0.46875 0.96875,0.45313 1.67188,1.26563 0.70312,0.79687 1.09375,1.89062 0.40625,1.09375 0.40625,2.35938 0,1.4375 -0.5,2.65625 -0.5,1.20312 -1.28125,2.1875 -0.78125,0.98437 -1.76563,1.75 -0.98437,0.75 -1.9375,1.28125 L 244,244.21875 q 0.3125,-0.17188 0.76562,-0.45313 0.45313,-0.28125 0.9375,-0.65625 0.5,-0.375 0.96875,-0.84375 0.48438,-0.48437 0.85938,-1.04687 0.39062,-0.5625 0.625,-1.21875 0.23437,-0.65625 0.23437,-1.39063 0,-0.67187 -0.21875,-1.28125 -0.20312,-0.60937 -0.57812,-1.0625 -0.375,-0.45312 -0.90625,-0.71875 -0.51563,-0.26562 -1.14063,-0.26562 -0.8125,0 -1.57812,0.42187 -0.76563,0.42188 -1.39063,1.0625 -0.625,0.625 -1.0625,1.34375 -0.42187,0.71875 -0.5625,1.32813 V 250 h -2.5625 v -5.98438 l -0.0625,-0.0312 q -0.23437,0.20313 -0.59375,0.5 -0.35937,0.28125 -0.875,0.54688 -0.5,0.26562 -1.17187,0.45312 -0.65625,0.1875 -1.48438,0.1875 -1.375,0 -2.54687,-0.53125 -1.15625,-0.53125 -2.01563,-1.4375 -0.84375,-0.92187 -1.32812,-2.15625 -0.48438,-1.23437 -0.48438,-2.64062 0,-1.34375 0.4375,-2.48438 0.45313,-1.14062 1.21875,-1.95312 0.78125,-0.82813 1.8125,-1.28125 1.04688,-0.46875 2.25,-0.46875 0.84375,0 1.5625,0.21875 0.73438,0.20312 1.32813,0.51562 0.60937,0.29688 1.07812,0.65625 0.48438,0.34375 0.8125,0.625 l 0.0625,-0.0156 V 229 H 225.4375 v -2.29688 h 28.71875 z m -20.23438,6.15625 q -0.89062,0 -1.57812,0.375 -0.67188,0.35937 -1.125,0.9375 -0.45313,0.5625 -0.6875,1.28125 -0.21875,0.70312 -0.21875,1.39062 0,0.75 0.26562,1.5 0.26563,0.73438 0.75,1.32813 0.5,0.59375 1.1875,0.96875 0.6875,0.35937 1.51563,0.35937 0.70312,0 1.46875,-0.28125 0.78125,-0.29687 1.42187,-0.90625 Q 237.57812,241.5 238,240.5625 q 0.42187,-0.95313 0.42187,-2.26563 v -0.76562 q -0.375,-0.46875 -0.89062,-0.89063 -0.5,-0.4375 -1.09375,-0.76562 -0.57813,-0.32813 -1.21875,-0.51563 -0.64063,-0.20312 -1.29688,-0.20312 z"
         id="path173" />
      <path
         d="M 240.95312,251.54687 H 239.25 q -1.48438,0 -2.20313,0.60938 -0.73437,0.625 -0.73437,1.51562 0,0.95313 0.78125,1.46875 0.76562,0.51563 2.23437,0.51563 0.70313,0 1.39063,-0.125 0.6875,-0.125 1.45312,-0.375 l 0.54688,2.25 q -0.79688,0.28125 -1.57813,0.4375 Q 240.35937,258 239.46875,258 q -1.20313,0 -2.20313,-0.3125 -1.01562,-0.3125 -1.73437,-0.89063 -0.73438,-0.57812 -1.14063,-1.42187 -0.42187,-0.82813 -0.42187,-1.89063 0,-1.10937 0.4375,-1.92187 0.4375,-0.79688 1.15625,-1.32813 0.71875,-0.51562 1.65625,-0.76562 0.92187,-0.25 1.92187,-0.25 h 1.8125 z"
         id="path175" />
      <path
         d="m 273.73437,229 h -3.28125 v 21 h -2.54687 v -13.71875 h -5.07813 q -1.04687,0 -1.89062,0.14062 -0.84375,0.125 -1.4375,0.53125 -0.59375,0.39063 -0.92188,1.10938 -0.3125,0.70312 -0.3125,1.85937 0,1.5 0.48438,2.76563 0.5,1.26562 1.26562,2.32812 0.76563,1.04688 1.6875,1.9375 0.9375,0.89063 1.79688,1.64063 l -1.5625,1.78125 q -0.14063,-0.0781 -0.67188,-0.45313 -0.51562,-0.39062 -1.21875,-1.04687 -0.6875,-0.65625 -1.46875,-1.59375 -0.76562,-0.9375 -1.42187,-2.10938 -0.64063,-1.1875 -1.07813,-2.60937 -0.42187,-1.42188 -0.42187,-3.0625 0,-1.625 0.45312,-2.6875 0.46875,-1.07813 1.3125,-1.70313 0.84375,-0.64062 2.04688,-0.89062 1.20312,-0.25 2.6875,-0.25 h 5.75 V 229 H 253.0625 v -2.29688 h 20.67187 z"
         id="path177" />
      <path
         d="m 282.04687,229 h -3.28125 v 21 h -2.5625 v -21 h -3.5625 v -2.29688 h 3.8125 q -0.28125,-1.59375 -0.71875,-2.71875 -0.4375,-1.14062 -0.95312,-1.89062 -0.51563,-0.76563 -1.07813,-1.20313 -0.5625,-0.4375 -1.07812,-0.65625 -0.53125,-0.21875 -0.98438,-0.28125 -0.46875,-0.0625 -0.76562,-0.0625 -0.96875,0 -1.54688,0.3125 -0.59375,0.29688 -0.90625,0.71875 -0.3125,0.42188 -0.40625,0.89063 -0.10937,0.45312 -0.10937,0.78125 0,0.125 0.0469,0.51562 0.0312,0.375 0.25,0.95313 0.20313,0.57812 0.64063,1.29687 0.4375,0.71875 1.23437,1.51563 h -2.65625 q -0.98437,-1.125 -1.46875,-2.32813 -0.5,-1.21875 -0.5,-2.35937 0,-0.95313 0.34375,-1.8125 0.34375,-0.85938 1.03125,-1.48438 0.6875,-0.64062 1.71875,-1.01562 1.03125,-0.375 2.39063,-0.375 1.875,0 3.23437,0.73437 1.35938,0.71875 2.28125,1.96875 0.9375,1.25 1.46875,2.9375 0.54688,1.67188 0.76563,3.5625 h 3.35937 z"
         id="path179" />
      <path
         d="m 279.54687,221.9375 q 0,-0.89063 0.53125,-1.4375 0.51563,-0.5625 1.35938,-0.5625 0.39062,0 0.75,0.15625 0.34375,0.15625 0.60937,0.4375 0.26563,0.26562 0.42188,0.64062 0.14062,0.35938 0.14062,0.79688 0,0.89062 -0.51562,1.4375 -0.53125,0.54687 -1.375,0.54687 -0.40625,0 -0.75,-0.14062 -0.35938,-0.15625 -0.60938,-0.42188 -0.26562,-0.28125 -0.40625,-0.64062 -0.15625,-0.375 -0.15625,-0.8125 z"
         id="path181" />
      <path
         d="m 303.6875,229 h -3.28125 v 21 h -2.59375 v -6.57813 L 297.75,243.375 q -0.85938,0.78125 -1.6875,1.23437 -0.8125,0.4375 -1.53125,0.67188 -0.70313,0.21875 -1.28125,0.28125 -0.57813,0.0625 -0.95313,0.0625 -1.4375,0 -2.54687,-0.45313 -1.10938,-0.45312 -1.85938,-1.1875 -0.75,-0.75 -1.14062,-1.70312 -0.39063,-0.96875 -0.39063,-2 0,-1.07813 0.4375,-2.14063 0.45313,-1.0625 1.40625,-1.90625 l -0.0156,-0.0625 h -4.95313 V 233.875 h 12.5625 v 2.29687 h -1.60937 q -1.60938,0 -2.64063,0.42188 -1.03125,0.42187 -1.625,1.03125 -0.59375,0.60937 -0.82812,1.3125 -0.21875,0.6875 -0.21875,1.25 0,0.46875 0.15625,1.01562 0.15625,0.53125 0.51562,0.98438 0.375,0.45312 0.98438,0.75 0.625,0.29687 1.5625,0.29687 0.98437,0 1.82812,-0.3125 0.85938,-0.32812 1.57813,-0.84375 0.71875,-0.51562 1.29687,-1.15625 0.59375,-0.65625 1.01563,-1.29687 V 229 h -16.85938 v -2.29688 h 22.73438 z"
         id="path183" />
      <path
         d="m 312,229 h -3.28125 v 21 h -2.5625 v -21 h -3.5625 v -2.29688 H 312 Z"
         id="path185" />
      <path
         d="M 343.8125,226.70312 V 229 h -3.28125 v 21 h -2.59375 v -10.5 h -9.04688 q -0.82812,0.54687 -1.98437,0.65625 l -0.0312,0.0781 q 1.51562,2.375 3.32812,4.42188 1.8125,2.04687 4.125,3.79687 l -1.67187,1.92188 q -1.32813,-0.98438 -2.53125,-2.125 -1.1875,-1.14063 -2.25,-2.35938 -1.04688,-1.23437 -1.96875,-2.48437 -0.92188,-1.26563 -1.6875,-2.48438 -0.76563,-1.21875 -1.375,-2.34375 -0.60938,-1.14062 -1.0625,-2.10937 l 2.14062,-1.15625 q 0.29688,0.6875 0.57813,1.15625 0.29687,0.45312 0.59375,0.73437 0.29687,0.26563 0.625,0.39063 0.32812,0.10937 0.70312,0.10937 1.07813,0 1.57813,-0.84375 0.51562,-0.84375 0.51562,-2.21875 0,-0.8125 -0.15625,-1.59375 -0.15625,-0.79687 -0.40625,-1.51562 -0.23437,-0.73438 -0.51562,-1.375 -0.28125,-0.64063 -0.53125,-1.15625 h -7.23438 v -2.29688 z M 337.9375,229 h -8.32813 q 0.65625,1.42187 1.03125,2.85937 0.375,1.4375 0.375,2.85938 0,0.65625 -0.10937,1.29687 -0.0937,0.625 -0.32813,1.1875 l 0.0312,0.0312 h 7.32813 z"
         id="path187" />
      <path
         d="m 337.32812,221.9375 q 0,-0.89063 0.53125,-1.4375 0.51563,-0.5625 1.35938,-0.5625 0.39062,0 0.75,0.15625 0.34375,0.15625 0.60937,0.4375 0.26563,0.26562 0.42188,0.64062 0.14062,0.35938 0.14062,0.79688 0,0.89062 -0.51562,1.4375 -0.53125,0.54687 -1.375,0.54687 -0.40625,0 -0.75,-0.14062 -0.35938,-0.15625 -0.60938,-0.42188 -0.26562,-0.28125 -0.40625,-0.64062 -0.15625,-0.375 -0.15625,-0.8125 z"
         id="path189" />
      <path
         d="m 363.76562,229 h -3.28125 v 21 h -2.5625 V 229 H 350.875 v 12.125 q 0,0.25 -0.0312,0.57812 -0.0312,0.32813 -0.15625,0.64063 -0.10938,0.29687 -0.32813,0.51562 -0.21875,0.20313 -0.60937,0.20313 -0.42188,0 -0.9375,-0.26563 -0.5,-0.28125 -1.03125,-0.71875 Q 347.25,241.625 346.75,241.0625 q -0.48438,-0.5625 -0.875,-1.15625 -0.39063,-0.59375 -0.625,-1.15625 -0.23438,-0.5625 -0.23438,-1 0,-0.39063 0.1875,-0.625 0.20313,-0.23438 0.54688,-0.35938 0.35937,-0.125 0.85937,-0.15625 0.51563,-0.0312 1.125,-0.0312 h 0.54688 V 229 h -5.5625 v -2.29688 h 21.04687 z"
         id="path191" />
      <path
         d="m 385.3125,229 h -3.28125 v 21 h -2.5625 v -8.76563 H 370.875 v 1.85938 q 0,0.48437 -0.0469,0.85937 -0.0312,0.375 -0.17187,0.625 -0.125,0.25 -0.375,0.39063 -0.23438,0.125 -0.64063,0.125 -0.40625,0 -0.90625,-0.23438 -0.5,-0.25 -1.01562,-0.65625 -0.51563,-0.42187 -1,-0.9375 -0.48438,-0.53125 -0.875,-1.09375 -0.375,-0.57812 -0.60938,-1.14062 Q 365,240.46875 365,240 q 0,-0.32813 0.10937,-0.53125 0.125,-0.21875 0.32813,-0.32813 0.21875,-0.10937 0.51562,-0.14062 0.29688,-0.0469 0.67188,-0.0469 h 1.6875 V 229 h -5.64063 v -2.29688 h 22.64063 z m -14.4375,0 v 9.95312 h 8.59375 V 229 Z"
         id="path193" />
      <path
         d="m 389.70312,246.4375 -2.5,7.6875 H 385.375 l 1.82812,-7.6875 z"
         id="path195" />
      <path
         d="M 413.42187,229 H 406 v 11.1875 q 0,1.14062 0.28125,1.90625 0.29687,0.75 0.9375,1.34375 0.64062,0.57812 1.64062,1.125 1.01563,0.53125 2.45313,1.25 1.32812,0.65625 2.46875,1.26562 1.15625,0.60938 2,1.28125 0.84375,0.67188 1.32812,1.45313 0.48438,0.78125 0.48438,1.78125 0,0.76562 -0.3125,1.53125 -0.3125,0.78125 -0.90625,1.48437 l -2.10938,-1.28125 q 0.23438,-0.375 0.4375,-0.79687 0.21875,-0.42188 0.21875,-0.875 0,-0.60938 -0.42187,-1.14063 -0.40625,-0.51562 -1.09375,-0.98437 -0.6875,-0.48438 -1.57813,-0.9375 -0.89062,-0.45313 -1.85937,-0.92188 -1.64063,-0.79687 -2.85938,-1.4375 -1.21875,-0.64062 -2.04687,-1.39062 -0.8125,-0.76563 -1.21875,-1.78125 -0.40625,-1.01563 -0.40625,-2.54688 V 229 h -3.51563 v -2.29688 h 19.34375 V 229 h -3.28125 v 9.90625 q 0,1.20312 -0.34375,2 -0.32812,0.78125 -0.85937,1.23437 -0.51563,0.45313 -1.15625,0.64063 -0.625,0.17187 -1.21875,0.17187 -0.59375,0 -1.17188,-0.125 -0.57812,-0.14062 -1.09375,-0.35937 v -2.54688 q 0.34375,0.20313 0.84375,0.35938 0.5,0.14062 1,0.14062 0.46875,0 0.75,-0.15625 0.28125,-0.15625 0.4375,-0.46875 0.15625,-0.3125 0.20313,-0.76562 0.0469,-0.45313 0.0469,-1.04688 z"
         id="path197" />
      <path
         d="M 446.89062,229 H 433.6875 v 6.15625 l 0.0781,0.0312 q 0.79688,-1.09375 1.98438,-1.75 1.1875,-0.67188 2.60937,-0.67188 1.125,0 2.07813,0.46875 0.96875,0.45313 1.67187,1.26563 0.70313,0.79687 1.09375,1.89062 0.40625,1.09375 0.40625,2.35938 0,1.4375 -0.5,2.65625 -0.5,1.20312 -1.28125,2.1875 -0.78125,0.98437 -1.76562,1.75 -0.98438,0.75 -1.9375,1.28125 l -1.39063,-2.40625 q 0.3125,-0.17188 0.76563,-0.45313 0.45312,-0.28125 0.9375,-0.65625 0.5,-0.375 0.96875,-0.84375 0.48437,-0.48437 0.85937,-1.04687 0.39063,-0.5625 0.625,-1.21875 0.23438,-0.65625 0.23438,-1.39063 0,-0.67187 -0.21875,-1.28125 -0.20313,-0.60937 -0.57813,-1.0625 -0.375,-0.45312 -0.90625,-0.71875 -0.51562,-0.26562 -1.14062,-0.26562 -0.8125,0 -1.57813,0.42187 -0.76562,0.42188 -1.39062,1.0625 -0.625,0.625 -1.0625,1.34375 -0.42188,0.71875 -0.5625,1.32813 V 250 h -2.5625 v -5.98438 l -0.0625,-0.0312 q -0.23438,0.20313 -0.59375,0.5 -0.35938,0.28125 -0.875,0.54688 -0.5,0.26562 -1.17188,0.45312 -0.65625,0.1875 -1.48437,0.1875 -1.375,0 -2.54688,-0.53125 -1.15625,-0.53125 -2.01562,-1.4375 -0.84375,-0.92187 -1.32813,-2.15625 -0.48437,-1.23437 -0.48437,-2.64062 0,-1.34375 0.4375,-2.48438 0.45312,-1.14062 1.21875,-1.95312 0.78125,-0.82813 1.8125,-1.28125 1.04687,-0.46875 2.25,-0.46875 0.84375,0 1.5625,0.21875 0.73437,0.20312 1.32812,0.51562 0.60938,0.29688 1.07813,0.65625 0.48437,0.34375 0.8125,0.625 l 0.0625,-0.0156 V 229 h -12.95313 v -2.29688 h 28.71875 z m -20.23437,6.15625 q -0.89063,0 -1.57813,0.375 -0.67187,0.35937 -1.125,0.9375 -0.45312,0.5625 -0.6875,1.28125 -0.21875,0.70312 -0.21875,1.39062 0,0.75 0.26563,1.5 0.26562,0.73438 0.75,1.32813 0.5,0.59375 1.1875,0.96875 0.6875,0.35937 1.51562,0.35937 0.70313,0 1.46875,-0.28125 0.78125,-0.29687 1.42188,-0.90625 0.65625,-0.60937 1.07812,-1.54687 0.42188,-0.95313 0.42188,-2.26563 v -0.76562 q -0.375,-0.46875 -0.89063,-0.89063 -0.5,-0.4375 -1.09375,-0.76562 -0.57812,-0.32813 -1.21875,-0.51563 -0.64062,-0.20312 -1.29687,-0.20312 z"
         id="path199" />
      <path
         d="M 478.70312,226.70312 V 229 h -3.28125 v 21 h -2.59375 v -10.5 h -9.04687 q -0.82813,0.54687 -1.98438,0.65625 l -0.0312,0.0781 q 1.51563,2.375 3.32813,4.42188 1.8125,2.04687 4.125,3.79687 l -1.67188,1.92188 q -1.32812,-0.98438 -2.53125,-2.125 -1.1875,-1.14063 -2.25,-2.35938 -1.04687,-1.23437 -1.96875,-2.48437 -0.92187,-1.26563 -1.6875,-2.48438 -0.76562,-1.21875 -1.375,-2.34375 -0.60937,-1.14062 -1.0625,-2.10937 l 2.14063,-1.15625 q 0.29687,0.6875 0.57812,1.15625 0.29688,0.45312 0.59375,0.73437 0.29688,0.26563 0.625,0.39063 0.32813,0.10937 0.70313,0.10937 1.07812,0 1.57812,-0.84375 0.51563,-0.84375 0.51563,-2.21875 0,-0.8125 -0.15625,-1.59375 -0.15625,-0.79687 -0.40625,-1.51562 -0.23438,-0.73438 -0.51563,-1.375 -0.28125,-0.64063 -0.53125,-1.15625 h -7.23437 v -2.29688 z M 472.82812,229 H 464.5 q 0.65625,1.42187 1.03125,2.85937 0.375,1.4375 0.375,2.85938 0,0.65625 -0.10938,1.29687 -0.0937,0.625 -0.32812,1.1875 l 0.0312,0.0312 h 7.32812 z"
         id="path201" />
      <path
         d="m 469.79687,250.46875 q 1,-0.625 2.21875,-0.96875 1.20313,-0.34375 2.29688,-0.34375 0.95312,0 1.78125,0.28125 0.8125,0.26562 1.42187,0.78125 0.60938,0.53125 0.95313,1.28125 0.34375,0.75 0.34375,1.6875 0,1 -0.40625,1.875 -0.39063,0.875 -1.1875,1.53125 -0.79688,0.65625 -1.96875,1.03125 -1.17188,0.39062 -2.71875,0.39062 -1.76563,0 -3.15625,-0.48437 -1.40625,-0.46875 -2.51563,-1.20313 -1.10937,-0.71875 -1.95312,-1.59375 -0.84375,-0.875 -1.48438,-1.65625 L 464.875,251.375 q 0.89062,0.96875 1.70312,1.75 0.8125,0.78125 1.6875,1.32812 0.875,0.5625 1.89063,0.85938 1,0.29687 2.26562,0.29687 1.07813,0 1.84375,-0.21875 0.75,-0.20312 1.23438,-0.54687 0.48437,-0.32813 0.70312,-0.76563 0.21875,-0.42187 0.21875,-0.85937 0,-0.79688 -0.59375,-1.26563 -0.60937,-0.46875 -1.64062,-0.46875 -0.67188,0 -1.54688,0.23438 -0.89062,0.23437 -1.79687,0.78125 z"
         id="path203" />
      <path
         d="m 472.21875,221.9375 q 0,-0.89063 0.53125,-1.4375 0.51562,-0.5625 1.35937,-0.5625 0.39063,0 0.75,0.15625 0.34375,0.15625 0.60938,0.4375 0.26562,0.26562 0.42187,0.64062 0.14063,0.35938 0.14063,0.79688 0,0.89062 -0.51563,1.4375 -0.53125,0.54687 -1.375,0.54687 -0.40625,0 -0.75,-0.14062 -0.35937,-0.15625 -0.60937,-0.42188 -0.26563,-0.28125 -0.40625,-0.64062 -0.15625,-0.375 -0.15625,-0.8125 z"
         id="path205" />
      <path
         d="m 498.625,229 h -5.29688 v 6.85937 h -5.26562 q -2.45313,0 -3.70313,1.21875 -1.25,1.20313 -1.25,3.46875 0,1.28125 0.40625,2.26563 0.42188,0.98437 1.14063,1.65625 0.73437,0.65625 1.73437,1 1,0.34375 2.17188,0.34375 1.23437,0 1.98437,-0.375 -0.0625,-0.39063 -0.0937,-0.6875 -0.0312,-0.29688 -0.0312,-0.59375 0,-0.65625 0.15625,-1.34375 0.17188,-0.70313 0.5,-1.26563 0.34375,-0.57812 0.85938,-0.9375 0.53125,-0.35937 1.26562,-0.35937 0.45313,0 0.85938,0.15625 0.40625,0.15625 0.70312,0.48437 0.3125,0.3125 0.48438,0.79688 0.1875,0.48437 0.1875,1.125 0,0.64062 -0.17188,1.1875 -0.17187,0.53125 -0.45312,1 -0.26563,0.45312 -0.60938,0.85937 -0.34375,0.39063 -0.67187,0.71875 0.34375,0.75 0.71875,1.34375 0.39062,0.59375 0.79687,1.0625 0.42188,0.46875 0.84375,0.84375 0.42188,0.375 0.84375,0.70313 l -1.92187,2.01562 q -0.82813,-0.73437 -1.42188,-1.46875 -0.57812,-0.71875 -0.98437,-1.35937 -0.39063,-0.64063 -0.64063,-1.15625 -0.25,-0.51563 -0.40625,-0.82813 -1.07812,0.42188 -2.65625,0.42188 -2.03125,0 -3.54687,-0.65625 -1.51563,-0.67188 -2.53125,-1.78125 -1,-1.125 -1.5,-2.5625 -0.5,-1.4375 -0.5,-2.98438 0,-1.60937 0.51562,-2.82812 0.51563,-1.23438 1.4375,-2.0625 0.92188,-0.84375 2.1875,-1.26563 1.28125,-0.4375 2.79688,-0.4375 h 3.20312 V 229 h -13.15625 v -2.29688 H 498.625 Z"
         id="path207" />
      <path
         d="M 514.26562,229 H 508.375 q 0.79687,1.375 1.28125,2.8125 0.5,1.42187 0.5,2.89062 0,1.10938 -0.34375,2.14063 -0.32813,1.01562 -0.98438,1.82812 -0.64062,0.79688 -1.60937,1.3125 -0.95313,0.5 -2.20313,0.5625 l -0.0312,0.0781 q 1.40625,2.1875 3.15625,4.14062 1.75,1.9375 4.04688,3.6875 l -1.67188,1.92188 q -1.32812,-0.98438 -2.53125,-2.125 -1.1875,-1.15625 -2.25,-2.375 -1.0625,-1.23438 -1.98437,-2.48438 -0.90625,-1.26562 -1.67188,-2.45312 -0.75,-1.20313 -1.34375,-2.29688 -0.59375,-1.10937 -1.01562,-2.01562 l 2.14062,-1.15625 q 0.5625,1.21875 1.26563,1.92187 0.71875,0.6875 1.65625,0.6875 0.67187,0 1.20312,-0.34375 0.53125,-0.34375 0.89063,-0.875 0.35937,-0.54687 0.54687,-1.1875 0.1875,-0.65625 0.1875,-1.28125 0,-0.73437 -0.1875,-1.4375 -0.1875,-0.71875 -0.48437,-1.39062 -0.29688,-0.6875 -0.67188,-1.32813 Q 505.90625,229.59375 505.5625,229 h -8.03125 v -2.29688 h 16.73437 z"
         id="path209" />
      <path
         d="m 526.125,236.1875 q 0.23437,0.73437 0.54687,1.60937 0.3125,0.85938 0.73438,1.75 0.4375,0.875 0.96875,1.70313 0.54687,0.82812 1.23437,1.46875 0.70313,0.64062 1.54688,1.03125 0.84375,0.375 1.875,0.375 1.01562,0 1.71875,-0.29688 0.70312,-0.29687 1.14062,-0.79687 0.4375,-0.5 0.625,-1.17188 0.20313,-0.67187 0.20313,-1.40625 0,-1.60937 -1.17188,-2.51562 -1.15625,-0.90625 -3.35937,-0.90625 -0.26563,0 -0.53125,0.0156 -0.26563,0.0156 -0.53125,0.0469 v -2.375 q 0.125,0.0156 0.21875,0.0156 0.10937,0 0.125,0 1.09375,0 1.9375,-0.26562 0.85937,-0.28125 1.4375,-0.75 0.57812,-0.46875 0.875,-1.09375 0.29687,-0.625 0.29687,-1.3125 0,-0.625 -0.21875,-1.10938 -0.21875,-0.48437 -0.59375,-0.8125 -0.375,-0.32812 -0.89062,-0.48437 -0.51563,-0.17188 -1.125,-0.17188 -0.42188,0 -0.8125,0.0625 -0.39063,0.0469 -0.82813,0.17188 -0.4375,0.10937 -0.9375,0.29687 -0.48437,0.1875 -1.10937,0.46875 l -0.89063,-2.14062 q 1.21875,-0.59375 2.34375,-0.89063 1.125,-0.3125 2.29688,-0.3125 1.125,0 2.07812,0.35938 0.96875,0.35937 1.65625,1 0.70313,0.625 1.09375,1.5 0.39063,0.875 0.39063,1.89062 0,2.79688 -2.67188,4.5 v 0.0625 q 1.04688,0.4375 1.75,1.07813 0.45313,0.0781 0.95313,0.125 0.51562,0.0469 0.9375,0.0469 0.4375,0 0.92187,-0.0625 0.48438,-0.0625 0.98438,-0.23437 0.51562,-0.17188 1.03125,-0.48438 0.53125,-0.3125 1.0625,-0.8125 v -8.65625 h 5.84375 V 229 H 546 v 21 h -2.5625 v -11.875 l -0.0625,-0.0156 q -0.89063,0.59375 -1.67188,0.78125 -0.78125,0.1875 -1.60937,0.1875 -0.26563,0 -0.54688,-0.0156 -0.28125,-0.0312 -0.57812,-0.0625 l -0.0156,0.0625 q 0.25,0.64062 0.25,1.57812 0,1.26563 -0.42187,2.34375 -0.42188,1.07813 -1.21875,1.875 -0.78125,0.78125 -1.90625,1.21875 -1.10938,0.4375 -2.5,0.4375 -1.48438,0 -2.6875,-0.51562 -1.1875,-0.53125 -2.15625,-1.35938 -0.95313,-0.82812 -1.67188,-1.85937 -0.71875,-1.04688 -1.23437,-2.09375 -0.51563,-1.04688 -0.84375,-1.98438 -0.32813,-0.95312 -0.48438,-1.57812 z M 557.59375,229 h -3.28125 v 21 H 551.75 v -21 h -3.5625 v -2.29688 h 9.40625 z"
         id="path211" />
      <path
         d="M 576.40625,229 H 573.125 v 21 h -2.5625 v -5.57813 l -0.0625,-0.0156 q -0.3125,0.29687 -0.73438,0.625 -0.42187,0.3125 -0.96875,0.57812 -0.54687,0.25 -1.23437,0.42188 -0.67188,0.17187 -1.51563,0.17187 -1.54687,0 -2.82812,-0.59375 -1.26563,-0.59375 -2.1875,-1.57812 -0.92188,-1 -1.4375,-2.28125 -0.5,-1.29688 -0.5,-2.70313 0,-1.40625 0.5,-2.60937 0.51562,-1.21875 1.40625,-2.10938 0.89062,-0.89062 2.07812,-1.39062 1.1875,-0.51563 2.54688,-0.51563 0.375,0 0.9375,0.0625 0.57812,0.0625 1.23437,0.28125 0.65625,0.21875 1.35938,0.64063 0.70312,0.40625 1.34375,1.10937 L 570.5625,234.5 V 229 H 556.5 v -2.29688 h 19.90625 z m -5.78125,8.42187 q -0.98438,-1.1875 -2.14063,-1.90625 -1.15625,-0.73437 -2.625,-0.73437 -1.15625,0 -1.96875,0.4375 -0.79687,0.4375 -1.3125,1.10937 -0.51562,0.65625 -0.75,1.46875 -0.23437,0.8125 -0.23437,1.5625 0,0.8125 0.26562,1.60938 0.26563,0.79687 0.78125,1.4375 0.53125,0.625 1.3125,1.03125 0.78125,0.39062 1.82813,0.39062 1.07812,0 1.96875,-0.40625 0.89062,-0.42187 1.53125,-1.0625 0.64062,-0.64062 0.98437,-1.4375 0.35938,-0.79687 0.35938,-1.54687 z"
         id="path213" />
      <path
         d="m 584.71875,229 h -3.28125 v 21 h -2.5625 v -21 h -3.5625 v -2.29688 h 9.40625 z"
         id="path215" />
      <path
         d="m 595.625,245.59375 q 0.51562,-0.15625 1.01562,-0.39063 0.51563,-0.23437 0.90625,-0.5625 0.40625,-0.34375 0.65625,-0.79687 0.25,-0.45313 0.25,-1.0625 0,-1.29688 -1.07812,-2.01563 -1.07813,-0.73437 -3.0625,-0.73437 -0.79688,0 -1.64063,0.17187 -0.82812,0.15625 -1.51562,0.59375 -0.6875,0.42188 -1.125,1.17188 -0.4375,0.73437 -0.4375,1.875 0,1.15625 0.45312,2.15625 0.45313,0.98437 1.17188,1.8125 0.73437,0.82812 1.64062,1.5 0.90625,0.67187 1.79688,1.1875 0.90625,0.51562 1.70312,0.85937 0.79688,0.35938 1.32813,0.5625 l -1.03125,2.15625 q -1.09375,-0.46875 -2.23438,-1.03125 -1.125,-0.54687 -2.1875,-1.21875 -1.0625,-0.65625 -2,-1.45312 -0.9375,-0.79688 -1.64062,-1.76563 -0.6875,-0.96875 -1.09375,-2.125 -0.39063,-1.15625 -0.39063,-2.51562 0,-1.32813 0.34375,-2.3125 0.35938,-1 0.98438,-1.75 -0.85938,-0.98438 -1.26563,-1.98438 -0.40625,-1 -0.40625,-2.17187 0,-0.67188 0.15625,-1.26563 0.17188,-0.59375 0.59375,-1.03125 0.4375,-0.45312 1.20313,-0.71875 0.76562,-0.26562 1.98437,-0.26562 h 7.07813 V 229 H 583.625 v -2.29688 h 20.35937 V 229 h -3.64062 v 5.75 h -8.98438 q -0.60937,0 -1.03125,0.10937 -0.40625,0.0937 -0.65625,0.29688 -0.25,0.20312 -0.35937,0.51562 -0.0937,0.29688 -0.0937,0.70313 0,0.54687 0.1875,1.0625 0.1875,0.51562 0.70312,1.15625 0.90625,-0.46875 1.98438,-0.6875 1.09375,-0.23438 2.28125,-0.23438 1.375,0 2.5625,0.3125 1.20312,0.3125 2.07812,0.95313 0.89063,0.625 1.39063,1.60937 0.51562,0.96875 0.51562,2.28125 0,1.26563 -0.4375,2.14063 -0.42187,0.875 -1.07812,1.46875 -0.64063,0.59375 -1.40625,0.96875 -0.76563,0.35937 -1.42188,0.59375 z"
         id="path217" />
      <path
         d="m 606.92187,250.34375 q -0.71875,0 -1.23437,-0.51563 -0.5,-0.51562 -0.5,-1.23437 0,-0.71875 0.5,-1.23438 0.51562,-0.53125 1.23437,-0.53125 0.73438,0 1.25,0.53125 0.51563,0.51563 0.51563,1.23438 0,0.71875 -0.51563,1.23437 -0.51562,0.51563 -1.25,0.51563 z"
         id="path219" />
    </g>
  </g>
</svg>
