<?xml version="1.0" encoding="utf-8" ?>
<svg xmlns="http://www.w3.org/2000/svg" xmlns:cc="http://creativecommons.org/ns" xmlns:dc="http://purl.org/dc/elements/1.1/" xmlns:ev="http://www.w3.org/2001/xml-events" xmlns:inkscape="http://www.inkscape.org/namespaces/inkscape" xmlns:rdf="http://www.w3.org/1999/02/22-rdf-syntax-ns" xmlns:sodipodi="http://sodipodi.sourceforge.net/DTD/sodipodi-0.dtd" xmlns:xlink="http://www.w3.org/1999/xlink" baseProfile="tiny" height="15.875cm" version="1.2" viewBox="0 0 800.0 600.0" width="21.16666667cm">
  <metadata>
    <rdf:RDF>
      <cc:Work>
        <dc:format>image/svg+xml</dc:format>
        <dc:source>vpype read marathi_poem_test_vector.svg linemerge linesort write poem_cleaned.svg
</dc:source>
        <dc:date>2025-07-04T14:08:03.057323</dc:date>
      </cc:Work>
    </rdf:RDF>
  </metadata>
  <defs/>
  <g fill="none" id="layer3" inkscape:groupmode="layer" inkscape:label="3" stroke="#000000" stroke-width="1.0" style="display:inline">
    <polygon points="310.834,249.244 309.322,250.252 304.058,242.328 303.7717,241.9111 303.5477,241.5564 303.386,241.264 303.2179,240.564 303.3019,240.172 303.554,239.892 303.953,239.703 304.422,239.64 304.898,240.256 305.2899,240.704 305.6819,240.984 306.1229,241.131 306.662,241.18 307.0858,241.1559 307.4802,241.0836 307.845,240.963 308.1802,240.7942 308.4858,240.5772 308.762,240.312 309.0015,240.0032 309.1975,239.6556 309.35,239.269 309.4588,238.8436 309.5242,238.3792 309.546,237.876 309.5312,237.428 309.4868,236.9987 309.413,236.588 309.3095,236.196 309.1765,235.8227 309.014,235.468 308.8101,235.0693 308.6018,234.7019 308.389,234.3659 308.1717,234.0613 307.95,233.788 302.098,233.788 302.098,232.36 321.054,232.36 321.054,233.788 318.394,233.788 318.394,250.0 316.63,250.0 316.63,242.384 316.2286,242.5769 315.7713,242.7449 315.258,242.888 314.9186,242.9485 314.5501,242.9955 314.1525,243.0291 313.7258,243.0493 313.27,243.056 312.8768,243.0437 312.4815,243.0067 312.0839,242.9451 311.684,242.8589 311.282,242.748 310.9,242.6158 310.5383,242.4658 310.1967,242.2978 309.8752,242.1118 309.5739,241.908 309.2654,242.1086 308.9317,242.2783 308.5728,242.4171 308.1888,242.5251 307.7797,242.6023 307.3454,242.6486 306.886,242.664 306.186,242.58"/>
    <polygon points="312.7099,253.444 312.7274,253.0341 312.7799,252.6442 312.8674,252.2746 312.9899,251.925 313.1474,251.5956 313.3399,251.2862 313.5674,250.9971 313.8299,250.728 314.0909,250.5164 314.3761,250.3298 314.6855,250.168 315.0191,250.0311 315.3769,249.9191 315.7588,249.832 316.165,249.7698 316.5954,249.7324 317.0499,249.72 317.4738,249.7332 317.8868,249.7729 318.2889,249.839 318.6802,249.9316 319.0605,250.0506 319.4299,250.196 319.7815,250.3656 320.1268,250.5569 320.4659,250.77 320.7988,251.0049 321.1255,251.2616 321.4459,251.54 321.7151,251.8023 321.9785,252.0771 322.2362,252.3646 322.4882,252.6646 322.7345,252.9771 322.9751,253.3023 323.2099,253.64 323.4186,253.9515 323.6247,254.27 323.8281,254.5955 324.0289,254.928 324.2271,255.2675 324.4227,255.614 324.6156,255.9675 324.8059,256.328 323.4339,257.14 323.2408,256.776 323.0454,256.42 322.8477,256.072 322.6477,255.732 322.4454,255.4 322.2408,255.076 322.0339,254.76 321.7991,254.4046 321.5611,254.0662 321.3199,253.745 321.0757,253.4409 320.8284,253.1539 320.5779,252.884 320.2621,252.5838 319.9418,252.3106 319.617,252.0642 319.2877,251.8446 318.9539,251.652 318.6034,251.4907 318.2461,251.3653 317.8821,251.2757 317.5114,251.2219 317.1339,251.204 316.6053,251.2298 316.1394,251.307 315.7362,251.4358 315.3957,251.6162 315.1179,251.848 314.8362,252.205 314.6349,252.604 314.5142,253.045 314.4739,253.528 314.5177,254.018 314.6489,254.452 314.8677,254.83 315.1739,255.152 315.4685,255.3738 315.7922,255.5462 316.145,255.6694 316.5269,255.7434 316.9379,255.768 317.4046,255.7369 317.8339,255.6436 318.2259,255.488 318.8419,256.776 318.4009,256.972 317.9739,257.112 317.4699,257.196 316.8539,257.224 316.3902,257.2048 315.9509,257.147 315.5362,257.0508 315.1459,256.916 314.7819,256.7603 314.4459,256.573 314.1379,256.3543 313.8579,256.104 313.5157,255.7462 313.2357,255.3449 313.0179,254.9 312.8468,254.4396 312.7442,253.9542 312.7099,253.444"/>
    <polygon points="313.102,241.516 313.5712,241.5048 314.0159,241.4712 314.4359,241.4152 314.8312,241.3368 315.202,241.236 315.6272,241.0732 316.007,240.893 316.3412,240.6952 316.63,240.48 316.63,233.788 309.742,233.788 310.001,234.11 310.274,234.516 310.47,234.8271 310.6473,235.1631 310.806,235.524 310.9615,235.888 311.0922,236.2707 311.198,236.672 311.2913,237.0889 311.3473,237.5182 311.366,237.96 311.3528,238.3796 311.3134,238.7842 311.2478,239.1741 311.156,239.549 311.0378,239.9091 310.8935,240.2542 310.7228,240.5846 310.526,240.9 310.846,241.0634 311.182,241.2017 311.5339,241.3149 311.902,241.4029 312.286,241.4657 312.686,241.5034 313.102,241.516"/>
    <polygon points="332.1979,242.832 332.1979,233.788 326.8779,233.788 327.1387,234.0575 327.3889,234.362 327.6287,234.7015 327.8579,235.076 328.0293,235.3997 328.1626,235.7435 328.2578,236.1075 328.3149,236.4917 328.3339,236.896 328.3156,237.3134 328.2604,237.7115 328.1686,238.0904 328.0399,238.45 327.8746,238.7904 327.6724,239.1115 327.4336,239.4134 327.1579,239.696 326.8824,239.921 326.5786,240.1233 326.2464,240.3027 325.8858,240.4593 325.497,240.593 325.0797,240.704 324.6341,240.7921 324.1602,240.8575 323.6579,240.9 323.7489,241.3091 323.8679,241.6962 324.0149,242.0616 324.1899,242.405 324.3929,242.7266 324.6239,243.0262 324.8829,243.3041 325.1699,243.56 325.4889,243.7897 325.8297,243.9888 326.1924,244.1572 326.5769,244.295 326.9834,244.4022 327.4117,244.4788 327.8619,244.5247 328.3339,244.54 328.7983,244.5252 329.2393,244.4809 329.6569,244.407 330.0513,244.3036 330.4223,244.1706 330.7699,244.008 331.2372,243.7245 331.6309,243.434 331.9512,243.1365"/>
    <polygon points="333.9619,233.788 333.9619,250.0 332.1979,250.0 332.1979,244.736 331.6659,245.156 331.2879,245.373 330.8259,245.576 330.4899,245.7004 330.1166,245.8124 329.7059,245.912 329.2579,245.9898 328.7726,246.0364 328.2499,246.052 327.8502,246.0403 327.4535,246.0053 327.0599,245.947 326.6695,245.8653 326.2822,245.7603 325.8979,245.632 325.5308,245.4811 325.1762,245.3084 324.8339,245.114 324.5042,244.8978 324.1868,244.6598 323.8819,244.4 323.6012,244.1099 323.3375,243.7996 323.0909,243.469 322.8615,243.1182 322.6492,242.7472 322.4539,242.356 322.3122,241.996 322.1911,241.62 322.0905,241.228 322.0105,240.82 321.9511,240.396 321.9122,239.956 321.8939,239.5 322.6779,239.472 323.1898,239.4479 323.6614,239.4037 324.0928,239.3394 324.4839,239.255 324.8348,239.1504 325.1454,239.0258 325.4158,238.8809 325.6459,238.716 325.9112,238.4656 326.1282,238.1809 326.2969,237.862 326.4175,237.5089 326.4898,237.1216 326.5139,236.7 326.4877,236.2642 326.4089,235.853 326.2777,235.4662 326.0939,235.104 325.8822,234.7592 325.6389,234.425 325.3642,234.1012 325.0579,233.788 320.4939,233.788 320.4939,232.36 336.6219,232.36 336.6219,233.788"/>
    <polygon points="331.7779,232.472 331.7779,232.276 331.4909,232.045 331.1899,231.744 330.8749,231.352 330.6019,230.904 330.4277,230.5742 330.2784,230.2196 330.1539,229.84 330.0606,229.4356 330.0046,229.0062 329.9859,228.552 330.0069,228.1285 330.0699,227.726 330.1749,227.3445 330.3219,226.984 330.5584,226.5422 330.857,226.1502 331.2179,225.808 331.5102,225.5718 331.8269,225.367 332.1682,225.1937 332.5339,225.052 332.9172,224.9417 333.3109,224.863 333.7152,224.8157 334.1299,224.8 334.5324,224.8105 334.9279,224.842 335.3164,224.8945 335.6979,224.968 336.1553,225.0956 336.5566,225.2542 336.9019,225.444 336.4539,226.816 336.0129,226.613 335.5299,226.452 334.9909,226.347 334.4379,226.312 333.9664,226.3378 333.5374,226.415 333.151,226.5438 332.8072,226.7242 332.5059,226.956 332.2539,227.2394 332.0579,227.5742 331.9179,227.9606 331.8339,228.3986 331.8059,228.888 331.8246,229.2738 331.8806,229.6471 331.9739,230.008 332.1419,230.519 332.3659,230.988 332.6319,231.415 332.9259,231.8 333.2059,232.108 333.4859,232.36"/>
    <polygon points="350.93,240.676 351.3288,240.8103 351.7094,240.9731 352.0717,241.1646 352.4157,241.3846 352.7414,241.6331 353.0488,241.9103 353.338,242.216 353.5742,242.5074 353.779,242.8215 353.9522,243.1584 354.094,243.518 354.2042,243.9004 354.283,244.3055 354.3302,244.7334 354.346,245.184 354.3303,245.5928 354.2832,245.9904 354.2048,246.3768 354.0951,246.752 353.954,247.116 353.7492,247.536 353.499,247.928 353.2032,248.292 352.862,248.628 352.5696,248.8744 352.2527,249.0984 351.9111,249.3 351.5448,249.4792 351.154,249.636 350.7519,249.767 350.3296,249.869 349.8872,249.9418 349.4247,249.9854 348.942,250.0 348.5108,249.9877 348.0908,249.9507 347.682,249.8891 347.2844,249.8029 346.898,249.692 346.5351,249.5498 346.1856,249.3918 345.8496,249.2182 345.5271,249.029 345.218,248.824 344.8505,248.5335 344.504,248.222 344.1785,247.8895 343.874,247.536 343.6062,247.1685 343.363,246.794 343.1442,246.4125 342.95,246.024 344.238,245.156 344.427,245.5375 344.63,245.898 344.847,246.2375 345.078,246.556 345.323,246.8535 345.582,247.13 345.855,247.3855 346.142,247.62 346.4922,247.8577 346.8551,248.0589 347.2305,248.2234 347.6185,248.3514 348.0191,248.4429 348.4322,248.4977 348.858,248.516 349.3162,248.4983 349.7471,248.4451 350.1505,248.3566 350.5265,248.2326 350.8751,248.0731 351.1962,247.8783 351.49,247.648 351.75,247.3771 351.97,247.0766 352.15,246.7463 352.29,246.3863 352.39,245.9966 352.45,245.5771 352.47,245.128 352.4511,244.7062 352.3947,244.309 352.3006,243.9362 352.169,243.588 351.9996,243.2642 351.7927,242.965 351.5481,242.6902 351.266,242.44 350.9943,242.2343 350.7018,242.0528 350.3886,241.8956 350.0547,241.7625 349.7,241.6536 349.3246,241.5689 348.9285,241.5084 348.5116,241.4721 348.074,241.46 346.562,241.46 346.562,239.976 347.962,239.976 348.4505,239.9589 348.9082,239.9074 349.3351,239.8217 349.7311,239.7017 350.0962,239.5474 350.4305,239.3589 350.734,239.136 351.0014,238.8811 351.2277,238.5966 351.4128,238.2823 351.5568,237.9383 351.6597,237.5646 351.7214,237.1611 351.742,236.728 351.7171,236.3267 351.6424,235.944 351.518,235.58 351.3468,235.2253 351.1322,234.908 350.874,234.628 350.594,234.3853 350.2766,234.18 349.922,234.012 349.5362,233.8876 349.1255,233.8129 348.69,233.788 342.138,233.788 342.138,232.36 356.026,232.36 356.026,233.788 351.91,233.788 352.246,234.0365 352.554,234.334 352.834,234.6805 353.086,235.076 353.2942,235.4925 353.443,235.93 353.5322,236.3885 353.562,236.868 353.541,237.3393 353.478,237.7827 353.373,238.198 353.226,238.5853 353.037,238.9447 352.806,239.276 352.5516,239.5716 352.274,239.8422 351.973,240.088 351.6486,240.3089 351.301,240.5049"/>
    <polygon points="359.862,241.796 360.1202,241.572 360.3722,241.236 360.618,240.788 360.749,240.461 360.8509,240.107 360.9237,239.7262 360.9674,239.3186 360.982,238.884 360.9677,238.4343 360.9248,237.9971 360.8534,237.5726 360.7534,237.1606 360.6248,236.7611 360.4677,236.3743 360.282,236.0 360.0848,235.6326 359.8774,235.2823 359.6597,234.9491 359.4317,234.6331 359.1934,234.3343 358.9448,234.0526 358.686,233.788 355.466,233.788 355.466,232.36 371.454,232.36 371.454,233.788 368.794,233.788 368.794,250.0 367.03,250.0 367.03,233.788 360.646,233.788 360.8762,234.0338 361.1188,234.3231 361.374,234.656 361.626,235.0107 361.8593,235.4027 362.074,235.832 362.221,236.1785 362.354,236.546 362.473,236.9345 362.578,237.344 362.676,237.7588 362.746,238.191 362.788,238.6408 362.802,239.108 362.7896,239.5694 362.7527,240.013 362.6911,240.4386 362.6048,240.8462 362.494,241.236 362.3277,241.6945 362.137,242.118 361.9217,242.5065 361.682,242.86 361.4195,243.1645 361.136,243.434 360.8315,243.6685 360.506,243.868 360.0704,244.0702 359.6224,244.1916 359.162,244.232 358.7035,244.1953 358.28,244.085 357.8915,243.9012 357.538,243.644 357.244,243.3308 357.034,242.979 356.908,242.5888 356.866,242.16 356.9157,241.74 357.0651,241.376 357.314,241.068 357.776,240.732 358.266,240.62"/>
    <polygon points="377.614,236.924 378.1047,236.9396 378.5691,236.9862 379.007,237.064 379.4184,237.1729 379.8034,237.3129 380.162,237.484 380.5685,237.7125 380.937,237.9499 381.2674,238.1963 381.5597,238.4517 381.814,238.716 381.814,233.788 370.894,233.788 370.894,232.36 386.238,232.36 386.238,233.788 383.578,233.788 383.578,250.0 381.814,250.0 381.814,245.128 381.555,245.436 381.226,245.744 380.827,246.038 380.358,246.304 380.0064,246.4627 379.6237,246.6027 379.21,246.724 378.7589,246.8173 378.2642,246.8733 377.726,246.892 377.2735,246.8786 376.8344,246.8382 376.4088,246.771 375.9967,246.677 375.598,246.556 375.2149,246.3981 374.8498,246.2155 374.5026,246.0083 374.1733,245.7765 373.862,245.52 373.5831,245.24 373.3288,244.9376 373.0992,244.6128 372.8943,244.2656 372.714,243.896 372.5856,243.5616 372.4806,243.2116 372.399,242.846 372.3406,242.4649 372.3056,242.0682 372.294,241.656 372.3096,241.2282 372.3567,240.8182 372.4351,240.4262 372.5448,240.0522 372.686,239.696 372.8652,239.3488 373.0668,239.024 373.2908,238.7216 373.5372,238.4416 373.806,238.184 374.1061,237.9499 374.4242,237.7405 374.7602,237.5557 375.1141,237.3955 375.486,237.26 375.8847,237.139 376.2968,237.045 376.7224,236.9778 377.1615,236.9374 377.614,236.924"/>
    <polygon points="381.842,240.592 381.555,240.2 381.198,239.808 380.9242,239.556 380.6255,239.3227 380.302,239.108 379.9535,238.9151 379.5802,238.7471 379.182,238.604 378.762,238.4951 378.3233,238.4298 377.866,238.408 377.4065,238.4257 376.9723,238.4789 376.5631,238.5674 376.1791,238.6914 375.8203,238.8509 375.4865,239.0457 375.178,239.276 374.9031,239.5389 374.6705,239.8314 374.4803,240.1537 374.3323,240.5057 374.2265,240.8874 374.1631,241.2989 374.142,241.74 374.1625,242.2343 374.2243,242.6931 374.3271,243.1166 374.4711,243.5046 374.6563,243.8571 374.8825,244.1743 375.15,244.456 375.4147,244.6726 375.7047,244.8603 376.0202,245.0191 376.361,245.149 376.7272,245.2501 377.1187,245.3223 377.5357,245.3656 377.978,245.38 378.377,245.3643 378.762,245.317 379.133,245.2382 379.49,245.128 379.9504,244.9227 380.3611,244.68 380.722,244.4 381.0486,244.064 381.3193,243.6907 381.534,243.28 381.7051,242.8382 381.8077,242.3716 381.842,241.88"/>
    <polygon points="392.874,239.78 392.3892,239.7957 391.943,239.843 391.5352,239.9217 391.166,240.032 390.7273,240.2218 390.3446,240.4551 390.018,240.732 389.7597,241.0338 389.5451,241.3791 389.374,241.768 389.2651,242.1911 389.1997,242.6391 389.178,243.112 389.1885,243.497 389.22,243.882 389.2725,244.267 389.346,244.652 389.4405,245.037 389.556,245.422 389.6925,245.807 389.85,246.192 390.0059,246.5363 390.1749,246.8847 390.3571,247.2373 390.5524,247.5941 390.7608,247.955 390.9824,248.32 391.2171,248.6892 391.465,249.0625 391.726,249.44 390.214,250.252 389.9664,249.8995 389.7279,249.5475 389.4983,249.1961 389.2776,248.8453 389.066,248.495 388.8632,248.1453 388.6695,247.7961 388.4847,247.4475 388.3088,247.0995 388.142,246.752 387.993,246.402 387.8597,246.0464 387.7421,245.6852 387.6402,245.3184 387.554,244.946 387.4834,244.568 387.4285,244.1844 387.3893,243.7952 387.3658,243.4004 387.358,243.0 387.3711,242.5568 387.4106,242.1342 387.4764,241.7324 387.5685,241.3514 387.687,240.991 387.8317,240.6514 388.0028,240.3324 388.2002,240.0342 388.4239,239.7568 388.674,239.5 388.9537,239.2659 389.2552,239.0565 389.5786,238.8717 389.9239,238.7115 390.291,238.576 390.6799,238.4651 391.0906,238.3789 391.5232,238.3173 391.9777,238.2803 392.454,238.268 397.13,238.268 397.13,233.788 385.678,233.788 385.678,232.36 401.554,232.36 401.554,233.788 398.894,233.788 398.894,250.0 397.13,250.0 397.13,239.78"/>
    <polygon points="394.722,225.92 395.0735,225.7613 395.4935,225.6213 395.982,225.5 396.3617,225.4142 396.745,225.353 397.1317,225.3162 397.522,225.304 397.9613,225.3164 398.3834,225.3538 398.7882,225.416 399.1757,225.5031 399.5459,225.6151 399.8989,225.752 400.2345,225.9138 400.5529,226.1004 400.854,226.312 401.1423,226.5464 401.4223,226.8015 401.694,227.0773 401.9574,227.3739 402.2125,227.6913 402.4593,228.0293 402.6978,228.3881 402.9281,228.7677 403.15,229.168 404.83,232.36 408.078,232.36 408.078,233.788 405.418,233.788 405.418,250.0 403.654,250.0 403.654,233.788 400.994,233.788 400.994,232.36 403.318,232.36 401.834,229.952 401.5923,229.5651 401.3471,229.2046 401.0986,228.8703 400.8466,228.5623 400.5911,228.2806 400.3323,228.0251 400.07,227.796 399.7848,227.588 399.4734,227.412 399.1357,227.268 398.7717,227.156 398.3814,227.076 397.9648,227.028 397.522,227.012 397.1144,227.0276 396.7131,227.0742 396.318,227.152 395.772,227.306 395.31,227.488"/>
    <polygon points="418.438,225.92 418.7896,225.7613 419.2096,225.6213 419.698,225.5 420.0778,225.4142 420.461,225.353 420.8478,225.3163 421.238,225.304 421.6774,225.3164 422.0994,225.3538 422.5042,225.416 422.8917,225.5031 423.262,225.6151 423.6149,225.752 423.9505,225.9138 424.2689,226.1004 424.57,226.312 424.8583,226.5464 425.1383,226.8015 425.41,227.0773 425.6734,227.3739 425.9285,227.6913 426.1753,228.0293 426.4139,228.3881 426.6441,228.7677 426.866,229.168 428.546,232.36 431.794,232.36 431.794,233.788 429.134,233.788 429.134,250.0 427.37,250.0 427.37,233.788 424.71,233.788 424.71,232.36 427.034,232.36 425.55,229.952 425.3083,229.5651 425.0631,229.2046 424.8146,228.8703 424.5626,228.5623 424.3071,228.2806 424.0483,228.0251 423.786,227.796 423.5009,227.588 423.1894,227.412 422.8517,227.268 422.4877,227.156 422.0974,227.076 421.6809,227.028 421.238,227.012 420.8304,227.0276 420.4291,227.0742 420.034,227.152 419.488,227.306 419.026,227.488"/>
    <polygon points="422.47,249.244 420.958,250.252 415.554,242.328 415.2678,241.9111 415.0438,241.5564 414.882,241.264 414.714,240.564 414.805,240.172 415.078,239.892 415.47,239.703 415.918,239.64 416.394,240.256 416.793,240.704 417.206,240.984 417.689,241.131 418.242,241.18 418.7158,241.1464 419.1515,241.0456 419.5491,240.8776 419.9086,240.6424 420.23,240.34 420.4696,240.0312 420.6656,239.6836 420.818,239.297 420.9269,238.8716 420.9922,238.4072 421.014,237.904 421.0008,237.456 420.9611,237.0267 420.895,236.616 420.8025,236.224 420.6835,235.8507 420.538,235.496 420.3465,235.0962 420.1527,234.7254 419.9567,234.3838 419.7585,234.0714 419.558,233.788 413.594,233.788 413.594,232.36 425.27,232.36 425.27,233.788 421.322,233.788 421.574,234.131 421.826,234.544 422.092,234.992 422.33,235.496 422.47,235.8631 422.5914,236.2551 422.694,236.672 422.7718,237.092 422.8185,237.5307 422.834,237.988 422.8206,238.4058 422.7803,238.8078 422.7131,239.1942 422.619,239.565 422.498,239.92 422.3265,240.326 422.12,240.704 421.8785,241.054 421.602,241.376 421.3063,241.6665 420.979,241.922 420.6203,242.1425 420.23,242.328 419.8135,242.475 419.376,242.58 418.9175,242.643 418.438,242.664 418.018,242.664 417.682,242.58"/>
    <polygon points="440.558,239.696 440.922,239.906 441.286,240.2 441.629,240.571 441.93,241.012 442.1229,241.3449 442.2909,241.7089 442.434,242.104 442.5429,242.5271 442.6082,242.9751 442.63,243.448 442.6154,243.8445 442.5718,244.2275 442.499,244.5971 442.397,244.9533 442.266,245.296 442.0665,245.688 441.832,246.052 441.5625,246.388 441.258,246.696 440.9203,246.962 440.551,247.2 440.1503,247.41 439.718,247.592 439.3641,247.7029 438.9967,247.7891 438.6159,247.8507 438.2217,247.8877 437.814,247.9 437.3839,247.8877 436.9673,247.8507 436.5641,247.7891 436.1743,247.7029 435.798,247.592 435.3605,247.41 434.944,247.2 434.5485,246.962 434.174,246.696 433.8345,246.4055 433.516,246.094 433.2185,245.7615 432.942,245.408 432.6865,245.0248 432.452,244.631 432.2385,244.2268 432.046,243.812 433.362,243.112 433.5492,243.4869 433.747,243.8418 433.9552,244.1764 434.174,244.491 434.4032,244.7854 434.643,245.0598 434.8932,245.3139 435.154,245.548 435.4671,245.7783 435.7986,245.9731 436.1483,246.1326 436.5163,246.2566 436.9026,246.3451 437.3071,246.3983 437.73,246.416 438.1344,246.3973 438.5264,246.3413 438.906,246.248 439.2638,246.0987 439.5904,245.912 439.886,245.688 440.1473,245.4236 440.3713,245.1156 440.558,244.764 440.698,244.3471 440.782,243.8804 440.81,243.364 440.7921,242.9357 440.7382,242.5328 440.6486,242.1552 440.523,241.803 440.3616,241.4762 440.1642,241.1748 439.9311,240.8987 439.662,240.648 439.3948,240.4482 439.1034,240.2719 438.7878,240.1191 438.448,239.9898 438.084,239.884 437.6958,239.8018 437.2834,239.743 436.8468,239.7078 436.386,239.696 435.574,239.696 435.574,238.24 446.102,238.24 446.102,233.788 431.234,233.788 431.234,232.36 450.526,232.36 450.526,233.788 447.866,233.788 447.866,250.0 446.102,250.0 446.102,239.696"/>
    <polygon points="466.906,239.724 466.906,233.788 456.042,233.788 456.042,232.36 471.33,232.36 471.33,233.788 468.67,233.788 468.67,250.0 466.906,250.0 466.906,241.236 460.746,241.236 460.886,243.476 460.466,243.756 460.13,243.861 459.682,243.896 459.213,243.8522 458.786,243.721 458.401,243.5022 458.058,243.196 457.8363,242.8925 457.6638,242.5643 457.5406,242.2115 457.4667,241.8341 457.442,241.432 457.4918,240.9871 457.6412,240.5858 457.89,240.228 458.1578,240.0075 458.485,239.85 458.8718,239.7555 459.318,239.724"/>
    <polygon points="477.4901,236.924 477.9808,236.9396 478.4452,236.9862 478.8831,237.064 479.2945,237.1729 479.6795,237.3129 480.0381,237.484 480.4446,237.7125 480.8131,237.9499 481.1435,238.1963 481.4358,238.4517 481.6901,238.716 481.6901,233.788 470.7701,233.788 470.7701,232.36 486.1141,232.36 486.1141,233.788 483.4541,233.788 483.4541,250.0 481.6901,250.0 481.6901,245.128 481.4311,245.436 481.1021,245.744 480.7031,246.038 480.2341,246.304 479.8825,246.4627 479.4998,246.6027 479.0861,246.724 478.635,246.8173 478.1403,246.8733 477.6021,246.892 477.1496,246.8786 476.7105,246.8382 476.2849,246.771 475.8728,246.677 475.4741,246.556 475.091,246.3981 474.7259,246.2155 474.3787,246.0083 474.0494,245.7765 473.7381,245.52 473.4592,245.24 473.2049,244.9376 472.9753,244.6128 472.7704,244.2656 472.5901,243.896 472.4617,243.5616 472.3567,243.2116 472.2751,242.846 472.2167,242.4649 472.1817,242.0682 472.1701,241.656 472.1857,241.2282 472.2328,240.8182 472.3112,240.4262 472.4209,240.0522 472.5621,239.696 472.7413,239.3488 472.9429,239.024 473.1669,238.7216 473.4133,238.4416 473.6821,238.184 473.9822,237.9499 474.3003,237.7405 474.6363,237.5557 474.9902,237.3955 475.3621,237.26 475.7608,237.139 476.173,237.045 476.5985,236.9778 477.0376,236.9374 477.4901,236.924"/>
    <polygon points="481.7181,240.592 481.4311,240.2 481.0741,239.808 480.8003,239.556 480.5016,239.3227 480.1781,239.108 479.8296,238.9151 479.4563,238.7471 479.0581,238.604 478.6381,238.4951 478.1994,238.4298 477.7421,238.408 477.2826,238.4257 476.8484,238.4789 476.4392,238.5674 476.0552,238.6914 475.6964,238.8509 475.3626,239.0457 475.0541,239.276 474.7792,239.5389 474.5466,239.8314 474.3564,240.1537 474.2084,240.5057 474.1026,240.8874 474.0392,241.2989 474.0181,241.74 474.0386,242.2343 474.1004,242.6931 474.2032,243.1166 474.3472,243.5046 474.5324,243.8571 474.7586,244.1743 475.0261,244.456 475.2908,244.6726 475.5808,244.8603 475.8963,245.0191 476.2371,245.149 476.6033,245.2501 476.9948,245.3223 477.4118,245.3656 477.8541,245.38 478.2531,245.3643 478.6381,245.317 479.0091,245.2382 479.3661,245.128 479.8265,244.9227 480.2372,244.68 480.5981,244.4 480.9247,244.064 481.1954,243.6907 481.4101,243.28 481.5812,242.8382 481.6838,242.3716 481.7181,241.88"/>
    <polygon points="488.2141,233.788 485.5541,233.788 485.5541,232.36 492.6381,232.36 492.6381,233.788 489.9781,233.788 489.9781,250.0 488.2141,250.0"/>
    <polygon points="495.0181,250.252 494.4861,250.084 494.0661,249.748 493.8794,249.4307 493.7674,249.076 493.7301,248.684 493.8281,248.138 494.1221,247.676 494.4145,247.4271 494.7692,247.2778 495.1861,247.228 495.7461,247.34 496.3061,247.676 496.5301,247.977 496.6981,248.376 496.8241,248.859 496.8661,249.468 496.8489,249.8629 496.7975,250.2474 496.7118,250.6217 496.5918,250.9857 496.4375,251.3394 496.2489,251.6829 496.0261,252.016 495.7786,252.3411 495.5163,252.6446 495.2392,252.9263 494.9472,253.1863 494.6403,253.4246 494.3186,253.6411 493.9821,253.836 493.2821,252.884 493.6706,252.6582 494.0241,252.401 494.3426,252.1122 494.6261,251.792 494.8816,251.4577 495.0881,251.099 495.2456,250.7157 495.3541,250.308"/>
    <polygon points="490.1741,283.788 487.5141,283.788 487.5141,282.36 494.5981,282.36 494.5981,283.788 491.9381,283.788 491.9381,300.0 490.1741,300.0"/>
    <polygon points="477.966,290.228 477.6176,289.8982 477.2069,289.6182 476.734,289.388 476.3508,289.241 475.957,289.136 475.5528,289.073 475.138,289.052 474.6846,289.0753 474.2576,289.1453 473.857,289.262 473.4829,289.4253 473.1352,289.6353 472.814,289.892 472.5763,290.1417 472.3752,290.4269 472.2106,290.7474 472.0826,291.1034 471.9912,291.4949 471.9363,291.9217 471.918,292.384 471.9326,292.8466 471.9763,293.2934 472.0491,293.7246 472.151,294.1402 472.282,294.54 472.45,294.9152 472.6404,295.2792 472.8532,295.632 473.0884,295.9736 473.346,296.304 473.6238,296.6232 473.9195,296.9312 474.2331,297.228 474.5646,297.5136 474.914,297.788 475.2769,298.0411 475.6487,298.2853 476.0295,298.5205 476.4193,298.7467 476.818,298.964 475.754,300.252 475.3745,300.042 475.0011,299.8227 474.634,299.594 474.2731,299.356 473.9185,299.1087 473.57,298.852 473.2317,298.5767 472.9074,298.292 472.597,297.998 472.3007,297.6947 472.0184,297.382 471.75,297.06 471.5066,296.7193 471.2802,296.3693 471.071,296.01 470.8789,295.6413 470.7039,295.2633 470.546,294.876 470.4272,294.528 470.3266,294.172 470.2443,293.808 470.1803,293.436 470.1346,293.056 470.1072,292.668 470.098,292.272 470.1137,291.8128 470.1607,291.376 470.2391,290.9616 470.3489,290.5696 470.49,290.2 470.7035,289.7713 470.952,289.381 471.2355,289.0293 471.554,288.716 471.9023,288.4413 472.275,288.205 472.6723,288.0073 473.094,287.848 473.5333,287.7133 473.983,287.617 474.4433,287.5593 474.914,287.54 475.3654,287.5568 475.8011,287.6072 476.2211,287.6912 476.6254,287.8088 477.014,287.96 477.3926,288.1403 477.7443,288.3453 478.0691,288.5749 478.367,288.8291 478.638,289.108 478.9338,288.765 479.261,288.464 479.6198,288.205 480.01,287.988 480.4283,287.8165 480.871,287.694 481.3383,287.6205 481.83,287.596 482.348,287.624 482.838,287.708 483.293,287.806 483.65,287.932 483.65,283.788 468.698,283.788 468.698,282.36 488.074,282.36 488.074,283.788 485.414,283.788 485.414,300.0 483.65,300.0 483.65,289.36 483.034,289.136 482.635,289.073 482.166,289.052 481.7352,289.0777 481.3386,289.1549 480.9763,289.2834 480.6483,289.4634 480.3546,289.6949 480.0952,289.9777 479.87,290.312 479.7365,290.5716 479.6158,290.8574 479.508,291.1696 479.4131,291.5082 479.331,291.873 479.2619,292.2642 479.2056,292.6816 479.1622,293.1254 479.1317,293.5956 479.114,294.092 477.378,294.092 477.3827,293.6557 477.3967,293.2427 477.42,292.853 477.4527,292.4867 477.4947,292.1437 477.546,291.824 477.6458,291.3672 477.749,290.949 477.8558,290.5692 477.966,290.228"/>
    <polygon points="464.834,283.788 462.174,283.788 462.174,282.36 469.258,282.36 469.258,283.788 466.598,283.788 466.598,300.0 464.834,300.0"/>
    <polygon points="458.31,289.724 458.31,283.788 447.446,283.788 447.446,282.36 462.734,282.36 462.734,283.788 460.074,283.788 460.074,300.0 458.31,300.0 458.31,291.236 452.15,291.236 452.29,293.476 451.87,293.756 451.534,293.861 451.086,293.896 450.617,293.8522 450.19,293.721 449.805,293.5022 449.462,293.196 449.2402,292.8925 449.0678,292.5643 448.9446,292.2115 448.8706,291.8341 448.846,291.432 448.8958,290.9871 449.0451,290.5858 449.294,290.228 449.5618,290.0075 449.889,289.85 450.2758,289.7555 450.722,289.724"/>
    <polygon points="443.61,290.592 443.323,290.2 442.966,289.808 442.6922,289.556 442.3936,289.3227 442.07,289.108 441.7216,288.9151 441.3482,288.7471 440.95,288.604 440.53,288.4951 440.0913,288.4298 439.634,288.408 439.1746,288.4257 438.7403,288.4789 438.3312,288.5674 437.9472,288.6914 437.5883,288.8509 437.2546,289.0457 436.946,289.276 436.6712,289.5389 436.4386,289.8314 436.2483,290.1537 436.1003,290.5057 435.9946,290.8874 435.9312,291.2989 435.91,291.74 435.9306,292.2343 435.9923,292.6931 436.0952,293.1166 436.2392,293.5046 436.4243,293.8571 436.6506,294.1743 436.918,294.456 437.1827,294.6726 437.4728,294.8602 437.7882,295.0191 438.129,295.149 438.4952,295.2501 438.8868,295.3222 439.3037,295.3656 439.746,295.38 440.145,295.3642 440.53,295.317 440.901,295.2382 441.258,295.128 441.7185,294.9227 442.1291,294.68 442.49,294.4 442.8167,294.064 443.0873,293.6907 443.302,293.28 443.4731,292.8382 443.5758,292.3716 443.61,291.88"/>
    <polygon points="439.382,286.924 439.8728,286.9396 440.3371,286.9862 440.775,287.064 441.1865,287.1729 441.5715,287.3129 441.93,287.484 442.3366,287.7125 442.705,287.9499 443.0354,288.1963 443.3278,288.4517 443.582,288.716 443.582,283.788 432.662,283.788 432.662,282.36 448.006,282.36 448.006,283.788 445.346,283.788 445.346,300.0 443.582,300.0 443.582,295.128 443.323,295.436 442.994,295.744 442.595,296.038 442.126,296.304 441.7745,296.4627 441.3918,296.6027 440.978,296.724 440.5269,296.8173 440.0322,296.8733 439.494,296.892 439.0415,296.8786 438.6025,296.8382 438.1769,296.771 437.7647,296.677 437.366,296.556 436.983,296.3981 436.6178,296.2155 436.2706,296.0083 435.9414,295.7765 435.63,295.52 435.3511,295.24 435.0969,294.9376 434.8673,294.6128 434.6623,294.2656 434.482,293.896 434.3537,293.5616 434.2487,293.2116 434.167,292.846 434.1087,292.4649 434.0737,292.0682 434.062,291.656 434.0777,291.2282 434.1247,290.8182 434.2031,290.4262 434.3129,290.0522 434.454,289.696 434.6332,289.3488 434.8348,289.024 435.0588,288.7216 435.3052,288.4416 435.574,288.184 435.8742,287.9499 436.1922,287.7405 436.5282,287.5557 436.8822,287.3955 437.254,287.26 437.6527,287.139 438.0649,287.045 438.4905,286.9778 438.9295,286.9374 439.382,286.924"/>
    <polygon points="420.482,279.252 420.5026,278.8086 420.5643,278.3903 420.6672,277.9971 420.8112,277.6291 420.9963,277.2863 421.2226,276.9686 421.49,276.676 421.7551,276.4398 422.0465,276.235 422.3641,276.0618 422.708,275.92 423.0781,275.8098 423.4745,275.731 423.8971,275.6838 424.346,275.668 424.7609,275.6829 425.1574,275.7274 425.5357,275.8017 425.8957,275.9057 426.2374,276.0394 426.5609,276.2029 426.866,276.396 427.2106,276.648 427.5349,276.9187 427.839,277.208 428.1229,277.516 428.3866,277.8427 428.63,278.188 428.8633,278.5364 429.078,278.8911 429.274,279.252 429.4513,279.6191 429.61,279.9924 429.75,280.372 429.9079,280.8189 430.0457,281.2411 430.1633,281.6387 430.2607,282.0117 430.338,282.36 433.222,282.36 433.222,283.788 430.562,283.788 430.562,300.0 428.798,300.0 428.798,283.788 426.138,283.788 426.138,282.36 428.714,282.36 428.6178,281.9732 428.497,281.569 428.3518,281.1473 428.182,280.708 428.0297,280.3451 427.8639,279.9957 427.6847,279.6597 427.4921,279.3371 427.286,279.028 427.0095,278.6518 426.712,278.307 426.3935,277.9938 426.054,277.712 425.6795,277.4793 425.284,277.313 424.8675,277.2133 424.43,277.18 423.9893,277.2083 423.6004,277.2934 423.2633,277.4351 422.9782,277.6335 422.7448,277.8886 422.5633,278.2004 422.4337,278.5689 422.3559,278.9941 422.33,279.476 422.351,279.8803 422.414,280.281 422.519,280.6783 422.666,281.072 422.8393,281.4535 423.023,281.814 423.2173,282.1535 423.422,282.472 423.646,282.808 422.554,283.536 422.2639,283.2404 421.9909,282.9324 421.735,282.612 421.4962,282.2791 421.2746,281.9338 421.07,281.576 420.8903,281.2003 420.7433,280.82 420.629,280.435 420.5473,280.0453 420.4983,279.651 420.482,279.252"/>
    <polygon points="416.73,289.696 417.094,289.906 417.458,290.2 417.801,290.571 418.102,291.012 418.2949,291.3449 418.4629,291.7089 418.606,292.104 418.7149,292.5271 418.7802,292.9751 418.802,293.448 418.7874,293.8445 418.7438,294.2275 418.671,294.5971 418.569,294.9533 418.438,295.296 418.2385,295.688 418.004,296.052 417.7345,296.388 417.43,296.696 417.0923,296.962 416.723,297.2 416.3223,297.41 415.89,297.592 415.5361,297.7029 415.1687,297.7891 414.7879,297.8507 414.3937,297.8877 413.986,297.9 413.5559,297.8877 413.1393,297.8507 412.7361,297.7891 412.3463,297.7029 411.97,297.592 411.5325,297.41 411.116,297.2 410.7205,296.962 410.346,296.696 410.0065,296.4055 409.688,296.094 409.3905,295.7615 409.114,295.408 408.8585,295.0248 408.624,294.631 408.4105,294.2268 408.218,293.812 409.534,293.112 409.7213,293.4869 409.919,293.8418 410.1272,294.1764 410.346,294.491 410.5752,294.7854 410.815,295.0598 411.0652,295.3139 411.326,295.548 411.6391,295.7783 411.9706,295.9731 412.3203,296.1326 412.6883,296.2566 413.0746,296.3451 413.4791,296.3983 413.902,296.416 414.3064,296.3973 414.6984,296.3413 415.078,296.248 415.4358,296.0987 415.7624,295.912 416.058,295.688 416.3193,295.4236 416.5433,295.1156 416.73,294.764 416.87,294.3471 416.954,293.8804 416.982,293.364 416.9641,292.9357 416.9102,292.5328 416.8206,292.1552 416.695,291.803 416.5336,291.4762 416.3362,291.1748 416.1031,290.8987 415.834,290.648 415.5668,290.4482 415.2754,290.2719 414.9598,290.1191 414.62,289.9898 414.256,289.884 413.8678,289.8018 413.4554,289.743 413.0188,289.7078 412.558,289.696 411.746,289.696 411.746,288.24 422.274,288.24 422.274,283.788 407.406,283.788 407.406,282.36 426.698,282.36 426.698,283.788 424.038,283.788 424.038,300.0 422.274,300.0 422.274,289.696"/>
    <polygon points="386.686,289.78 386.2012,289.7958 385.755,289.843 385.3472,289.9218 384.9779,290.032 384.5393,290.2218 384.1566,290.4551 383.8299,290.732 383.5717,291.0338 383.3571,291.3791 383.1859,291.768 383.0771,292.1911 383.0117,292.6391 382.9899,293.112 383.0004,293.497 383.0319,293.882 383.0844,294.267 383.1579,294.652 383.2524,295.037 383.3679,295.422 383.5044,295.807 383.6619,296.192 383.8179,296.5363 383.9869,296.8847 384.1691,297.2373 384.3644,297.5941 384.5728,297.955 384.7944,298.32 385.0291,298.6892 385.277,299.0625 385.5379,299.44 384.0259,300.252 383.7784,299.8995 383.5399,299.5475 383.3103,299.1961 383.0896,298.8453 382.8779,298.495 382.6752,298.1453 382.4815,297.7961 382.2967,297.4475 382.1208,297.0995 381.9539,296.752 381.805,296.402 381.6717,296.0464 381.5541,295.6852 381.4522,295.3184 381.3659,294.946 381.2954,294.568 381.2405,294.1844 381.2013,293.7952 381.1778,293.4004 381.1699,293.0 381.1831,292.5568 381.2226,292.1342 381.2884,291.7324 381.3805,291.3514 381.4989,290.991 381.6437,290.6514 381.8148,290.3324 382.0122,290.0342 382.2359,289.7568 382.4859,289.5 382.7657,289.2659 383.0672,289.0565 383.3906,288.8717 383.7359,288.7115 384.1029,288.576 384.4919,288.4651 384.9026,288.3789 385.3352,288.3173 385.7897,288.2803 386.2659,288.268 390.9419,288.268 390.9419,283.788 379.4899,283.788 379.4899,282.36 395.3659,282.36 395.3659,283.788 392.7059,283.788 392.7059,300.0 390.9419,300.0 390.9419,289.78"/>
    <polygon points="378.2579,294.764 378.2268,295.1778 378.1335,295.5604 377.9779,295.912 377.7119,296.332 377.4179,296.64 379.3219,301.12 377.6139,301.736 376.1299,297.424 375.6882,297.6324 375.2215,297.8098 374.7299,297.956 374.3344,298.0295 373.9039,298.082 373.4384,298.1135 372.9379,298.124 372.4821,298.1106 372.033,298.0702 371.5906,298.003 371.1549,297.909 370.7259,297.788 370.3093,297.629 369.9106,297.443 369.5298,297.2302 369.1669,296.9906 368.8219,296.724 368.5095,296.4194 368.2216,296.0878 367.9584,295.7294 367.7199,295.3442 367.5059,294.932 367.3519,294.5664 367.2259,294.1791 367.1279,293.77 367.0579,293.3391 367.0159,292.8864 367.0019,292.412 367.0159,291.9562 367.0579,291.5222 367.1279,291.11 367.2259,290.7196 367.3519,290.3509 367.5059,290.004 367.7199,289.6053 367.9584,289.2379 368.2216,288.9019 368.5095,288.5973 368.8219,288.324 369.1568,288.0698 369.5119,287.8446 369.8871,287.6486 370.2824,287.4818 370.6979,287.344 371.1258,287.2331 371.5581,287.1469 371.9949,287.0853 372.4362,287.0483 372.8819,287.036 375.1499,287.036 375.1499,283.788 365.6019,283.788 365.6019,282.36 380.1899,282.36 380.1899,283.788 376.8859,283.788 376.8859,288.52 373.6379,288.52 373.2303,288.529 372.836,288.5558 372.4552,288.6006 372.0879,288.6634 371.7339,288.744 371.3139,288.8718 370.9219,289.031 370.5579,289.2218 370.2219,289.444 369.9174,289.6995 369.6479,289.99 369.4134,290.3155 369.2139,290.676 369.0547,291.0715 368.9409,291.502 368.8727,291.9675 368.8499,292.468 368.8634,292.8925 368.9037,293.2923 368.9709,293.6675 369.065,294.0181 369.1859,294.344 369.3679,294.7185 369.5779,295.058 369.8159,295.3625 370.0819,295.632 370.4864,295.94 370.9157,296.192 371.3699,296.388 371.8584,296.5124 372.3531,296.5871 372.8539,296.612 373.3229,296.5997 373.7499,296.563 374.1349,296.5017 374.4779,296.416 374.8948,296.2729 375.2495,296.1049 375.5419,295.912 374.7579,293.56 375.0519,293.28 375.4299,293.056 375.8919,292.888 376.3819,292.832 376.7932,292.867 377.1589,292.972 377.4792,293.147 377.7539,293.392 378.0339,293.7933 378.2019,294.2507 378.2579,294.764"/>
    <polygon points="388.534,275.92 388.8855,275.7613 389.3055,275.6213 389.794,275.5 390.1737,275.4142 390.557,275.353 390.9437,275.3162 391.334,275.304 391.7733,275.3164 392.1954,275.3538 392.6002,275.416 392.9877,275.5031 393.3579,275.6151 393.7109,275.752 394.0465,275.9138 394.3649,276.1004 394.666,276.312 394.9543,276.5464 395.2343,276.8015 395.506,277.0773 395.7694,277.3739 396.0245,277.6913 396.2713,278.0293 396.5098,278.3881 396.7401,278.7677 396.962,279.168 398.642,282.36 401.89,282.36 401.89,283.788 399.23,283.788 399.23,300.0 397.466,300.0 397.466,283.788 394.806,283.788 394.806,282.36 397.13,282.36 395.646,279.952 395.4043,279.5651 395.1591,279.2046 394.9106,278.8703 394.6586,278.5623 394.4031,278.2806 394.1443,278.0251 393.882,277.796 393.5968,277.588 393.2854,277.412 392.9477,277.268 392.5837,277.156 392.1934,277.076 391.7768,277.028 391.334,277.012 390.9264,277.0276 390.5251,277.0742 390.13,277.152 389.584,277.306 389.122,277.488"/>
    <polygon points="366.3019,275.92 366.6535,275.7613 367.0735,275.6213 367.5619,275.5 367.9417,275.4142 368.3249,275.353 368.7117,275.3162 369.102,275.304 369.5413,275.3164 369.9634,275.3538 370.3682,275.416 370.7557,275.5031 371.1259,275.6151 371.4788,275.752 371.8145,275.9138 372.1329,276.1004 372.434,276.312 372.7222,276.5464 373.0022,276.8015 373.2739,277.0773 373.5374,277.3739 373.7925,277.6913 374.0393,278.0293 374.2778,278.3881 374.508,278.7677 374.7299,279.168 376.8579,283.2 375.4299,283.2 373.4139,279.952 373.1722,279.5651 372.9271,279.2046 372.6785,278.8703 372.4265,278.5623 372.1711,278.2806 371.9122,278.0251 371.6499,277.796 371.3648,277.588 371.0534,277.412 370.7157,277.268 370.3517,277.156 369.9614,277.076 369.5448,277.028 369.1019,277.012 368.71,277.0276 368.3179,277.0742 367.9259,277.152 367.359,277.306 366.8899,277.488"/>
    <polygon points="355.6899,283.788 354.0659,283.788 354.0659,282.36 360.0859,282.36 360.0859,283.788 357.4539,283.788 357.4539,300.0 355.6899,300.0"/>
    <polygon points="347.6539,282.08 348.0919,282.0957 348.5096,282.1427 348.9072,282.2211 349.2847,282.3309 349.6419,282.472 350.0584,282.6872 350.4399,282.941 350.7864,283.2332 351.0979,283.564 351.3867,283.9175 351.6369,284.306 351.8487,284.7295 352.0219,285.188 352.1429,285.5643 352.237,285.9541 352.3042,286.3573 352.3445,286.7739 352.3579,287.204 352.3482,287.608 352.3191,288.004 352.2705,288.392 352.2025,288.772 352.1151,289.144 352.0082,289.508 351.8819,289.864 351.7225,290.2583 351.5428,290.6387 351.3429,291.005 351.1228,291.3573 350.8825,291.6957 350.6219,292.02 350.3513,292.3303 350.0619,292.6267 349.7539,292.909 349.4273,293.1773 349.0819,293.4317 348.7179,293.672 348.3485,293.8874 347.9682,294.0858 347.5769,294.267 347.1748,294.4311 346.7618,294.5781 346.3379,294.708 351.2379,299.076 349.8659,300.308 344.7139,295.212 344.2659,295.156 343.8179,295.044 343.3909,294.876 343.0059,294.652 342.6699,294.365 342.3899,294.008 342.2219,293.588 342.1659,293.112 342.2126,292.6982 342.3526,292.3529 342.5859,292.076 343.0269,291.782 343.5099,291.684 345.1619,293.28 345.5528,293.2005 345.9414,293.0963 346.3278,292.9675 346.712,292.8141 347.0939,292.636 347.4669,292.4344 347.8242,292.2104 348.1658,291.964 348.4917,291.6952 348.8019,291.404 349.0931,291.0792 349.3619,290.732 349.6083,290.3624 349.8323,289.9704 350.0339,289.556 350.1794,289.1936 350.2984,288.8156 350.3909,288.422 350.457,288.0129 350.4967,287.5882 350.5099,287.148 350.4928,286.6549 350.4414,286.1994 350.3556,285.7817 350.2356,285.4017 350.0814,285.0594 349.8928,284.7549 349.6699,284.488 349.3216,284.1654 348.9487,283.9146 348.5511,283.7354 348.1288,283.6278 347.6819,283.592 347.2541,283.6166 346.8666,283.6906 346.5194,283.8138 346.2125,283.9862 345.9459,284.208 345.6887,284.5335 345.5049,284.894 345.3947,285.2895 345.3579,285.72 345.3999,286.1872 345.5259,286.609 345.7359,286.9852 346.0299,287.316 346.3312,287.5434 346.6751,287.7326 347.0615,287.8838 347.4904,287.997 347.9619,288.072 347.5139,289.5 347.1132,289.4457 346.7229,289.367 346.3432,289.2637 345.9739,289.136 345.5228,288.912 345.1028,288.6507 344.7139,288.352 344.381,287.9973 344.0917,287.6053 343.8459,287.176 343.7112,286.8155 343.6149,286.434 343.5572,286.0315 343.5379,285.608 343.569,285.1164 343.6624,284.6498 343.8179,284.208 344.0482,283.7973 344.3282,283.424 344.6579,283.088 345.0375,282.7956 345.4668,282.5529 345.9459,282.36 346.3467,282.2375 346.7649,282.15 347.2007,282.0975 347.6539,282.08"/>
    <polygon points="337.4619,283.788 334.8019,283.788 334.8019,282.36 341.8859,282.36 341.8859,283.788 339.2259,283.788 339.2259,300.0 337.4619,300.0"/>
    <polygon points="323.8819,290.088 323.6277,289.7789 323.3578,289.5011 323.0722,289.2547 322.7709,289.0397 322.4539,288.856 322.1191,288.6947 321.764,288.5693 321.3888,288.4797 320.9935,288.4259 320.5779,288.408 320.1517,288.4298 319.7317,288.4951 319.3179,288.604 318.9415,288.7564 318.5962,288.9524 318.2819,289.192 318.0019,289.4782 317.7593,289.8142 317.5539,290.2 317.4139,290.62 317.3299,291.096 317.3019,291.628 317.3197,292.092 317.3728,292.524 317.4614,292.924 317.5854,293.292 317.7448,293.628 317.9397,293.932 318.1699,294.204 318.4857,294.4778 318.8357,294.7018 319.2199,294.876 319.6384,295.0004 320.0911,295.0751 320.5779,295.1 321.0322,295.0767 321.4615,295.0067 321.8659,294.89 322.2455,294.7267 322.6002,294.5167 322.9299,294.26 323.1825,293.992 323.3962,293.684 323.5711,293.336 323.7071,292.948 323.8042,292.52 323.8625,292.052 323.8819,291.544"/>
    <polygon points="325.5899,300.0 323.8539,300.0 323.8539,295.044 323.5984,295.3888 323.2799,295.695 322.8984,295.9628 322.4539,296.192 322.0787,296.3432 321.6923,296.4608 321.2947,296.5448 320.8859,296.5952 320.4659,296.612 320.0773,296.5997 319.6954,296.5627 319.3202,296.5011 318.9517,296.4149 318.5899,296.304 318.1542,296.1167 317.7429,295.891 317.3562,295.6268 316.9939,295.324 316.7251,295.0541 316.4787,294.7595 316.2547,294.4403 316.0531,294.0965 315.8739,293.728 315.7328,293.3349 315.6231,292.9171 315.5447,292.4747 315.4976,292.0077 315.4819,291.516 315.4965,291.0781 315.5402,290.6603 315.613,290.2627 315.7149,289.8853 315.8459,289.528 316.0577,289.1115 316.3009,288.73 316.5757,288.3835 316.8819,288.072 317.2302,287.7972 317.6029,287.561 318.0002,287.3632 318.4219,287.204 318.7837,287.0931 319.1522,287.0069 319.5274,286.9453 319.9093,286.9083 320.2979,286.896 320.7179,286.9117 321.1267,286.9587 321.5243,287.0371 321.9107,287.1469 322.2859,287.288 322.6443,287.4515 322.9803,287.6509 323.2939,287.8861 323.5851,288.1571 323.8539,288.464 323.8539,283.788 314.0819,283.788 314.0819,282.36 335.6419,282.36 335.6419,283.788 325.5899,283.788 325.5899,288.8 325.7815,288.5166 326.02,288.249 326.3056,287.997 326.6383,287.7606 327.0179,287.54 327.3609,287.3774 327.7179,287.2444 328.0889,287.141 328.4739,287.0671 328.8729,287.0228 329.2859,287.008 329.7427,287.0273 330.1889,287.085 330.6247,287.1813 331.0499,287.316 331.4699,287.4752 331.8619,287.673 332.2259,287.9093 332.5619,288.184 332.8787,288.4815 333.1569,288.814 333.3967,289.1815 333.5979,289.584 333.7391,289.9301 333.8488,290.2963 333.9272,290.6827 333.9743,291.0893 333.9899,291.516 333.9731,292.0054 333.9227,292.4658 333.8387,292.897 333.7211,293.299 333.5699,293.672 333.3896,294.0181 333.1847,294.3395 332.9551,294.6363 332.7008,294.9085 332.4219,295.156 332.0562,295.4308 331.6589,295.667 331.2302,295.8648 330.7699,296.024 330.3858,296.1248 329.9949,296.2032 329.5973,296.2592 329.193,296.2928 328.7819,296.304 328.0539,296.276 327.4379,296.108 327.7739,294.708 328.2219,294.771 328.7259,294.792 329.1833,294.7733 329.6219,294.7173 330.0419,294.624 330.4495,294.4716 330.8135,294.2756 331.1339,294.036 331.4295,293.7342 331.6815,293.3889 331.8899,293.0 332.0124,292.6745 332.0999,292.314 332.1524,291.9185 332.1699,291.488 332.1466,291.0307 332.0766,290.6107 331.9599,290.228 331.7966,289.8827 331.5866,289.5747 331.3299,289.304 331.0336,289.0644 330.7046,288.8684 330.3429,288.716 329.9486,288.6071 329.5216,288.5418 329.0619,288.52 328.6191,288.5406 328.2025,288.6023 327.8122,288.7051 327.4482,288.8491 327.1105,289.0343 326.7991,289.2606 326.5139,289.528 326.2688,289.8309 326.0614,290.1634 325.8917,290.5257 325.7597,290.9177 325.6654,291.3394 325.6088,291.7909 325.5899,292.272"/>
    <polygon points="314.642,283.788 311.982,283.788 311.982,300.0 310.218,300.0 310.218,293.196 302.77,300.392 301.202,298.964 306.746,294.344 306.289,294.3174 305.8513,294.2624 305.4331,294.1791 305.0342,294.0675 304.6546,293.9275 304.2944,293.7591 303.9536,293.5624 303.6321,293.3374 303.33,293.084 303.0799,292.8323 302.8562,292.5587 302.6588,292.2633 302.4877,291.9461 302.343,291.607 302.2245,291.2461 302.1324,290.8633 302.0666,290.4587 302.0271,290.0323 302.014,289.584 302.014,283.788 300.138,283.788 300.138,282.36 314.642,282.36"/>
    <polygon points="303.778,289.388 303.7951,289.8806 303.8465,290.3343 303.9322,290.7491 304.0522,291.1251 304.2065,291.4623 304.3951,291.7606 304.618,292.02 304.9158,292.2681 305.2495,292.4711 305.619,292.629 306.0242,292.7418 306.4652,292.8094 306.942,292.832 307.3788,292.8118 307.7932,292.7514 308.1852,292.6506 308.5548,292.5094 308.902,292.328 309.2992,292.0673 309.651,291.789 309.9572,291.4932 310.218,291.18 310.218,283.788 303.778,283.788"/>
    <polygon points="291.9199,329.252 291.9405,328.8086 292.0022,328.3903 292.1051,327.9971 292.2491,327.6291 292.4342,327.2863 292.6605,326.9686 292.9279,326.676 293.1931,326.4398 293.4844,326.235 293.8021,326.0618 294.1459,325.92 294.5161,325.8098 294.9124,325.731 295.3351,325.6838 295.7839,325.668 296.1988,325.6829 296.5954,325.7274 296.9737,325.8017 297.3337,325.9057 297.6754,326.0394 297.9988,326.2029 298.3039,326.396 298.6485,326.648 298.9728,326.9187 299.2769,327.208 299.5608,327.516 299.8245,327.8427 300.0679,328.188 300.3013,328.5364 300.5159,328.8911 300.7119,329.252 300.8893,329.6191 301.0479,329.9924 301.1879,330.372 301.3459,330.8189 301.4836,331.2411 301.6012,331.6387 301.6987,332.0117 301.7759,332.36 304.66,332.36 304.66,333.788 301.9999,333.788 301.9999,350.0 300.2359,350.0 300.2359,333.788 297.5759,333.788 297.5759,332.36 300.1519,332.36 300.0557,331.9732 299.9349,331.569 299.7897,331.1473 299.6199,330.708 299.4676,330.3451 299.3019,329.9957 299.1227,329.6597 298.93,329.3371 298.7239,329.028 298.4474,328.6518 298.1499,328.307 297.8314,327.9938 297.4919,327.712 297.1174,327.4793 296.7219,327.313 296.3054,327.2133 295.8679,327.18 295.4272,327.2083 295.0383,327.2934 294.7013,327.4351 294.4161,327.6335 294.1828,327.8886 294.0013,328.2004 293.8717,328.5689 293.7939,328.9941 293.7679,329.476 293.7889,329.8803 293.8519,330.281 293.9569,330.6783 294.1039,331.072 294.2772,331.4535 294.4609,331.814 294.6552,332.1535 294.8599,332.472 295.0839,332.808 293.9919,333.536 293.7018,333.2404 293.4288,332.9324 293.1729,332.612 292.9342,332.2791 292.7125,331.9338 292.5079,331.576 292.3283,331.2003 292.1813,330.82 292.0669,330.435 291.9853,330.0453 291.9363,329.651 291.9199,329.252"/>
    <polygon points="305.22,338.94 305.22,337.456 314.544,337.456 314.544,338.94 313.732,338.94 313.2228,338.9571 312.7514,339.0086 312.3177,339.0943 311.9217,339.2143 311.5634,339.3686 311.2428,339.5571 310.96,339.78 310.6862,340.074 310.4622,340.396 310.2879,340.746 310.1635,341.124 310.0888,341.53 310.064,341.964 310.092,342.4276 310.1759,342.8476 310.316,343.224 310.5213,343.56 310.764,343.8587 311.044,344.12 311.3768,344.3284 311.7408,344.5058 312.136,344.652 312.556,344.7453 312.9946,344.8013 313.4519,344.82 313.8922,344.8037 314.3168,344.7547 314.7259,344.673 315.1195,344.5587 315.4975,344.4117 315.8599,344.232 316.2766,343.9778 316.6529,343.7078 316.9889,343.4222 317.2846,343.121 317.5399,342.804 317.5399,333.788 304.1,333.788 304.1,332.36 321.9639,332.36 321.9639,333.788 319.3039,333.788 319.3039,350.0 317.5399,350.0 317.5399,344.708 317.3047,344.9309 317.0247,345.1515 316.6999,345.3699 316.3303,345.5861 315.9159,345.8 315.5418,345.9626 315.1475,346.0956 314.7329,346.199 314.2982,346.2729 313.8432,346.3172 313.3679,346.332 312.9267,346.3197 312.4988,346.2827 312.0844,346.2211 311.6835,346.1349 311.2959,346.024 310.8479,345.842 310.4279,345.632 310.0359,345.394 309.6719,345.128 309.3534,344.82 309.0699,344.484 308.8214,344.12 308.6079,343.728 308.4364,343.3098 308.3139,342.867 308.2404,342.3998 308.2159,341.908 308.2361,341.5126 308.2966,341.133 308.3974,340.769 308.5385,340.4206 308.7199,340.088 309.0034,339.7012 309.3219,339.381 309.6754,339.1272 310.0639,338.94"/>
    <polygon points="293.5999,352.604 293.1709,352.556 292.7551,352.4989 292.3524,352.4329 291.9628,352.3579 291.5863,352.2739 291.223,352.1809 290.8729,352.0789 290.5358,351.968 290.2119,351.848 289.8216,351.6823 289.4508,351.5051 289.0994,351.3166 288.7674,351.1166 288.4548,350.9051 288.1616,350.6823 287.8879,350.448 287.5932,350.1626 287.3248,349.8662 287.0829,349.559 286.8675,349.2409 286.6785,348.9119 286.5159,348.572 286.379,348.2228 286.267,347.8658 286.1799,347.501 286.1177,347.1284 286.0804,346.7481 286.0679,346.36 286.0889,345.87 286.1519,345.408 286.2569,344.974 286.4039,344.568 286.5982,344.1778 286.8169,343.819 287.0602,343.4918 287.3279,343.196 287.0182,342.8793 286.7329,342.545 286.4722,342.1933 286.2359,341.824 286.0399,341.4198 285.8999,340.991 285.8159,340.5378 285.7879,340.06 285.819,339.5591 285.9124,339.1018 286.0679,338.688 286.2919,338.3022 286.5533,337.9662 286.8519,337.68 287.2035,337.4249 287.5862,337.2196 287.9999,337.064 288.4542,336.9551 288.9208,336.8898 289.3999,336.868 293.2919,336.868 293.2919,333.788 284.1079,333.788 284.1079,332.36 298.2759,332.36 298.2759,333.788 295.0279,333.788 295.0279,338.324 290.1559,338.324 289.6589,338.345 289.1759,338.408 288.7489,338.527 288.3639,338.716 288.0559,338.954 287.8039,339.276 287.6569,339.696 287.6079,340.228 287.6359,340.648 287.7199,341.0493 287.8599,341.432 288.059,341.7711 288.283,342.0791 288.5319,342.356 288.8819,342.1723 289.2459,342.013 289.6239,341.8783 290.0159,341.768 290.4219,341.6823 290.8419,341.621 291.2759,341.5843 291.7239,341.572 292.1842,341.5854 292.6244,341.6258 293.0444,341.693 293.4442,341.787 293.8239,341.908 294.2684,342.0918 294.6779,342.307 295.0524,342.5538 295.3919,342.832 295.7069,343.126 295.9799,343.448 296.2109,343.798 296.3999,344.176 296.5469,344.561 296.6519,344.96 296.7149,345.373 296.7359,345.8 296.7114,346.2393 296.6379,346.661 296.5154,347.0653 296.3439,347.452 296.1532,347.8125 295.9449,348.138 295.7192,348.4285 295.4759,348.684 294.1319,347.704 294.4469,347.333 294.7199,346.892 294.8599,346.5404 294.9439,346.1578 294.9719,345.744 294.9229,345.289 294.7759,344.82 294.5519,344.365 294.2159,343.952 293.9453,343.7093 293.6186,343.504 293.2359,343.336 292.8004,343.196 292.315,343.112 291.7799,343.084 291.3499,343.0984 290.9417,343.1418 290.5554,343.2139 290.1909,343.315 289.8484,343.4449 289.5277,343.6038 289.2289,343.7914 288.9519,344.008 288.6696,344.284 288.4308,344.584 288.2354,344.908 288.0834,345.256 287.9748,345.628 287.9096,346.024 287.8879,346.444 287.9054,346.8588 287.9579,347.263 288.0454,347.6568 288.1679,348.04 288.3324,348.411 288.5459,348.768 288.8084,349.111 289.1199,349.44 289.4201,349.6786 289.7606,349.9014 290.1414,350.1086 290.5625,350.3002 291.0239,350.476 291.335,350.5841 291.6662,350.6842 292.0175,350.7766 292.3889,350.861 292.7805,350.9376 293.1922,351.0062 293.624,351.0671 294.0759,351.12"/>
    <polygon points="336.804,339.696 337.168,339.906 337.532,340.2 337.875,340.571 338.176,341.012 338.3689,341.3449 338.5369,341.7089 338.68,342.104 338.7889,342.5271 338.8542,342.9751 338.876,343.448 338.8614,343.8445 338.8177,344.2275 338.7449,344.5971 338.643,344.9533 338.512,345.296 338.3125,345.688 338.078,346.052 337.8085,346.388 337.504,346.696 337.1662,346.962 336.797,347.2 336.3962,347.41 335.964,347.592 335.6101,347.7029 335.2427,347.7891 334.8619,347.8507 334.4677,347.8877 334.06,347.9 333.6299,347.8877 333.2133,347.8507 332.8101,347.7891 332.4203,347.7029 332.044,347.592 331.6065,347.41 331.19,347.2 330.7945,346.962 330.42,346.696 330.0805,346.4055 329.762,346.094 329.4645,345.7615 329.188,345.408 328.9325,345.0247 328.698,344.631 328.4845,344.2267 328.292,343.812 329.608,343.112 329.7952,343.4869 329.993,343.8418 330.2012,344.1764 330.42,344.491 330.6492,344.7854 330.889,345.0597 331.1392,345.3139 331.4,345.548 331.7131,345.7783 332.0446,345.9731 332.3943,346.1326 332.7623,346.2566 333.1486,346.3451 333.5531,346.3983 333.976,346.416 334.3804,346.3973 334.7724,346.3413 335.152,346.248 335.5098,346.0987 335.8364,345.912 336.132,345.688 336.3933,345.4236 336.6173,345.1156 336.804,344.764 336.944,344.3471 337.028,343.8804 337.056,343.364 337.038,342.9357 336.9842,342.5328 336.8945,342.1552 336.769,341.803 336.6075,341.4762 336.4102,341.1748 336.177,340.8987 335.908,340.648 335.6408,340.4482 335.3494,340.2719 335.0338,340.1191 334.694,339.9898 334.33,339.884 333.9418,339.8018 333.5294,339.743 333.0928,339.7078 332.632,339.696 331.82,339.696 331.82,338.24 342.348,338.24 342.348,333.788 327.48,333.788 327.48,332.36 346.772,332.36 346.772,333.788 344.112,333.788 344.112,350.0 342.348,350.0 342.348,339.696"/>
    <polygon points="340.556,329.252 340.5766,328.8086 340.6383,328.3903 340.7411,327.9971 340.8851,327.6291 341.0703,327.2863 341.2966,326.9686 341.564,326.676 341.8291,326.4397 342.1205,326.235 342.4381,326.0617 342.782,325.92 343.1521,325.8097 343.5485,325.731 343.9711,325.6837 344.42,325.668 344.8348,325.6829 345.2314,325.7274 345.6097,325.8017 345.9697,325.9057 346.3114,326.0394 346.6348,326.2029 346.94,326.396 347.2845,326.648 347.6089,326.9187 347.913,327.208 348.1969,327.516 348.4605,327.8427 348.704,328.188 348.9373,328.5364 349.152,328.8911 349.348,329.252 349.5253,329.6191 349.684,329.9924 349.824,330.372 349.9819,330.8189 350.1197,331.2411 350.2373,331.6387 350.3347,332.0117 350.412,332.36 353.296,332.36 353.296,333.788 350.636,333.788 350.636,350.0 348.872,350.0 348.872,333.788 346.212,333.788 346.212,332.36 348.788,332.36 348.6917,331.9732 348.571,331.569 348.4257,331.1473 348.256,330.708 348.1037,330.3451 347.9379,329.9957 347.7587,329.6597 347.5661,329.3371 347.36,329.028 347.0835,328.6518 346.786,328.307 346.4675,327.9938 346.128,327.712 345.7535,327.4793 345.358,327.313 344.9415,327.2133 344.504,327.18 344.0632,327.2083 343.6744,327.2934 343.3373,327.4351 343.0521,327.6335 342.8188,327.8886 342.6373,328.2004 342.5077,328.5689 342.4299,328.9941 342.404,329.476 342.425,329.8803 342.488,330.281 342.593,330.6783 342.74,331.072 342.9132,331.4535 343.097,331.814 343.2912,332.1535 343.496,332.472 343.72,332.808 342.628,333.536 342.3379,333.2404 342.0649,332.9324 341.809,332.612 341.5702,332.2791 341.3485,331.9338 341.144,331.576 340.9643,331.2003 340.8173,330.82 340.703,330.435 340.6213,330.0453 340.5723,329.651 340.556,329.252"/>
    <polygon points="359.456,336.924 359.9468,336.9396 360.4111,336.9862 360.849,337.064 361.2604,337.1729 361.6454,337.3129 362.004,337.484 362.4106,337.7125 362.779,337.9499 363.1094,338.1963 363.4018,338.4517 363.656,338.716 363.656,333.788 352.736,333.788 352.736,332.36 368.08,332.36 368.08,333.788 365.42,333.788 365.42,350.0 363.656,350.0 363.656,345.128 363.397,345.436 363.068,345.744 362.669,346.038 362.2,346.304 361.8484,346.4627 361.4658,346.6027 361.052,346.724 360.6009,346.8173 360.1062,346.8733 359.568,346.892 359.1155,346.8786 358.6765,346.8382 358.2509,346.771 357.8387,346.677 357.44,346.556 357.0569,346.3981 356.6918,346.2155 356.3446,346.0083 356.0153,345.7765 355.704,345.52 355.4251,345.24 355.1709,344.9376 354.9413,344.6128 354.7363,344.2656 354.556,343.896 354.4277,343.5616 354.3227,343.2116 354.241,342.846 354.1827,342.4649 354.1477,342.0682 354.136,341.656 354.1517,341.2282 354.1987,340.8182 354.2771,340.4262 354.3869,340.0522 354.528,339.696 354.7072,339.3488 354.9088,339.024 355.1328,338.7216 355.3792,338.4416 355.648,338.184 355.9481,337.9499 356.2662,337.7405 356.6022,337.5557 356.9561,337.3955 357.328,337.26 357.7267,337.139 358.1389,337.045 358.5645,336.9778 359.0035,336.9374 359.456,336.924"/>
    <polygon points="363.684,340.592 363.397,340.2 363.04,339.808 362.7662,339.556 362.4675,339.3227 362.144,339.108 361.7955,338.9151 361.4222,338.7471 361.024,338.604 360.604,338.4951 360.1653,338.4298 359.708,338.408 359.2486,338.4257 358.8143,338.4789 358.4051,338.5674 358.0211,338.6914 357.6623,338.8509 357.3286,339.0457 357.02,339.276 356.7451,339.5389 356.5126,339.8314 356.3223,340.1537 356.1743,340.5057 356.0686,340.8874 356.0051,341.2989 355.984,341.74 356.0046,342.2343 356.0663,342.6931 356.1691,343.1166 356.3131,343.5046 356.4983,343.8571 356.7246,344.1743 356.992,344.456 357.2567,344.6726 357.5467,344.8602 357.8622,345.0191 358.203,345.149 358.5692,345.2501 358.9607,345.3222 359.3777,345.3656 359.82,345.38 360.219,345.3642 360.604,345.317 360.975,345.2382 361.332,345.128 361.7924,344.9227 362.2031,344.68 362.564,344.4 362.8907,344.064 363.1613,343.6907 363.376,343.28 363.5471,342.8382 363.6498,342.3716 363.684,341.88"/>
    <polygon points="378.384,339.724 378.384,333.788 367.52,333.788 367.52,332.36 382.808,332.36 382.808,333.788 380.148,333.788 380.148,350.0 378.384,350.0 378.384,341.236 372.224,341.236 372.364,343.476 371.944,343.756 371.608,343.861 371.16,343.896 370.691,343.8522 370.264,343.721 369.879,343.5022 369.536,343.196 369.3142,342.8925 369.1417,342.5643 369.0185,342.2115 368.9446,341.8341 368.92,341.432 368.9698,340.9871 369.1191,340.5858 369.368,340.228 369.6357,340.0075 369.963,339.85 370.3497,339.7555 370.796,339.724"/>
    <polygon points="384.908,333.788 382.248,333.788 382.248,332.36 389.332,332.36 389.332,333.788 386.672,333.788 386.672,350.0 384.908,350.0"/>
    <polygon points="389.892,338.94 389.892,337.456 399.216,337.456 399.216,338.94 398.404,338.94 397.8949,338.9571 397.4234,339.0086 396.9897,339.0943 396.5937,339.2143 396.2354,339.3686 395.9149,339.5571 395.632,339.78 395.3582,340.074 395.1342,340.396 394.96,340.746 394.8356,341.124 394.7609,341.53 394.736,341.964 394.764,342.4276 394.848,342.8476 394.988,343.224 395.1933,343.56 395.436,343.8587 395.716,344.12 396.0489,344.3284 396.4129,344.5058 396.808,344.652 397.228,344.7453 397.6667,344.8013 398.124,344.82 398.5642,344.8037 398.9889,344.7547 399.398,344.673 399.7916,344.5587 400.1696,344.4117 400.532,344.232 400.9486,343.9778 401.325,343.7078 401.661,343.4222 401.9566,343.121 402.212,342.804 402.212,333.788 388.772,333.788 388.772,332.36 406.636,332.36 406.636,333.788 403.976,333.788 403.976,350.0 402.212,350.0 402.212,344.708 401.9768,344.9309 401.6968,345.1515 401.372,345.3699 401.0024,345.5861 400.588,345.8 400.2139,345.9626 399.8196,346.0956 399.405,346.199 398.9702,346.2729 398.5152,346.3172 398.04,346.332 397.5987,346.3197 397.1709,346.2827 396.7565,346.2211 396.3555,346.1349 395.968,346.024 395.52,345.842 395.1,345.632 394.708,345.394 394.344,345.128 394.0255,344.82 393.742,344.484 393.4935,344.12 393.28,343.728 393.1085,343.3098 392.986,342.867 392.9125,342.3998 392.888,341.908 392.9082,341.5126 392.9686,341.133 393.0694,340.769 393.2106,340.4206 393.392,340.088 393.6755,339.7012 393.994,339.381 394.3475,339.1272 394.736,338.94"/>
    <polygon points="400.42,329.252 400.4406,328.8086 400.5023,328.3903 400.6052,327.9971 400.7492,327.6291 400.9343,327.2863 401.1606,326.9686 401.428,326.676 401.6931,326.4398 401.9845,326.235 402.3021,326.0618 402.646,325.92 403.0161,325.8098 403.4125,325.731 403.8351,325.6838 404.284,325.668 404.6989,325.6829 405.0954,325.7274 405.4737,325.8017 405.8337,325.9057 406.1754,326.0394 406.4989,326.2029 406.804,326.396 407.1486,326.648 407.4729,326.9187 407.777,327.208 408.0609,327.516 408.3246,327.8427 408.568,328.188 408.8013,328.5364 409.016,328.8911 409.212,329.252 409.3893,329.6191 409.548,329.9924 409.688,330.372 409.8459,330.8189 409.9837,331.2411 410.1013,331.6387 410.1987,332.0117 410.276,332.36 413.16,332.36 413.16,333.788 410.5,333.788 410.5,350.0 408.736,350.0 408.736,333.788 406.076,333.788 406.076,332.36 408.652,332.36 408.5558,331.9732 408.435,331.569 408.2898,331.1473 408.12,330.708 407.9677,330.3451 407.8019,329.9957 407.6227,329.6597 407.4301,329.3371 407.224,329.028 406.9475,328.6518 406.65,328.307 406.3315,327.9938 405.992,327.712 405.6175,327.4793 405.222,327.313 404.8055,327.2133 404.368,327.18 403.9273,327.2083 403.5384,327.2934 403.2013,327.4351 402.9162,327.6335 402.6828,327.8886 402.5013,328.2004 402.3717,328.5689 402.2939,328.9941 402.268,329.476 402.289,329.8803 402.352,330.281 402.457,330.6783 402.604,331.072 402.7773,331.4535 402.961,331.814 403.1553,332.1535 403.36,332.472 403.584,332.808 402.492,333.536 402.2019,333.2404 401.9289,332.9324 401.673,332.612 401.4342,332.2791 401.2126,331.9338 401.008,331.576 400.8283,331.2003 400.6813,330.82 400.567,330.435 400.4853,330.0453 400.4363,329.651 400.42,329.252"/>
    <polygon points="429.54,339.724 429.54,333.788 418.676,333.788 418.676,332.36 433.964,332.36 433.964,333.788 431.304,333.788 431.304,350.0 429.54,350.0 429.54,341.236 423.38,341.236 423.52,343.476 423.1,343.756 422.764,343.861 422.316,343.896 421.847,343.8522 421.42,343.721 421.035,343.5022 420.692,343.196 420.4703,342.8925 420.2978,342.5643 420.1746,342.2115 420.1007,341.8341 420.076,341.432 420.1258,340.9871 420.2751,340.5858 420.524,340.228 420.7918,340.0075 421.119,339.85 421.5058,339.7555 421.952,339.724"/>
    <polygon points="440.1241,336.924 440.6148,336.9396 441.0792,336.9862 441.5171,337.064 441.9285,337.1729 442.3135,337.3129 442.6721,337.484 443.0786,337.7125 443.4471,337.9499 443.7775,338.1963 444.0698,338.4517 444.3241,338.716 444.3241,333.788 433.4041,333.788 433.4041,332.36 448.7481,332.36 448.7481,333.788 446.0881,333.788 446.0881,350.0 444.3241,350.0 444.3241,345.128 444.0651,345.436 443.7361,345.744 443.3371,346.038 442.8681,346.304 442.5165,346.4627 442.1338,346.6027 441.7201,346.724 441.2689,346.8173 440.7743,346.8733 440.2361,346.892 439.7836,346.8786 439.3445,346.8382 438.9189,346.771 438.5068,346.677 438.1081,346.556 437.725,346.3981 437.3599,346.2155 437.0127,346.0083 436.6834,345.7765 436.3721,345.52 436.0932,345.24 435.8389,344.9376 435.6093,344.6128 435.4044,344.2656 435.2241,343.896 435.0957,343.5616 434.9907,343.2116 434.9091,342.846 434.8507,342.4649 434.8157,342.0682 434.8041,341.656 434.8197,341.2282 434.8668,340.8182 434.9452,340.4262 435.0549,340.0522 435.1961,339.696 435.3753,339.3488 435.5769,339.024 435.8009,338.7216 436.0473,338.4416 436.3161,338.184 436.6162,337.9499 436.9343,337.7405 437.2703,337.5557 437.6242,337.3955 437.9961,337.26 438.3948,337.139 438.8069,337.045 439.2325,336.9778 439.6716,336.9374 440.1241,336.924"/>
    <polygon points="444.3521,340.592 444.0651,340.2 443.7081,339.808 443.4343,339.556 443.1356,339.3227 442.8121,339.108 442.4636,338.9151 442.0903,338.7471 441.6921,338.604 441.2721,338.4951 440.8334,338.4298 440.3761,338.408 439.9166,338.4257 439.4823,338.4789 439.0732,338.5674 438.6892,338.6914 438.3303,338.8509 437.9966,339.0457 437.6881,339.276 437.4132,339.5389 437.1806,339.8314 436.9903,340.1537 436.8423,340.5057 436.7366,340.8874 436.6732,341.2989 436.6521,341.74 436.6726,342.2343 436.7343,342.6931 436.8372,343.1166 436.9812,343.5046 437.1663,343.8571 437.3926,344.1743 437.6601,344.456 437.9247,344.6726 438.2148,344.8602 438.5302,345.0191 438.8711,345.149 439.2372,345.2501 439.6288,345.3222 440.0457,345.3656 440.4881,345.38 440.8871,345.3642 441.2721,345.317 441.6431,345.2382 442.0001,345.128 442.4605,344.9227 442.8712,344.68 443.2321,344.4 443.5587,344.064 443.8294,343.6907 444.0441,343.28 444.2152,342.8382 444.3178,342.3716 444.3521,341.88"/>
    <polygon points="442.532,329.252 442.5526,328.8086 442.6143,328.3903 442.7172,327.9971 442.8612,327.6291 443.0463,327.2863 443.2726,326.9686 443.54,326.676 443.8052,326.4398 444.0965,326.235 444.4142,326.0618 444.758,325.92 445.1282,325.8098 445.5245,325.731 445.9472,325.6838 446.396,325.668 446.8109,325.6829 447.2075,325.7274 447.5858,325.8017 447.9458,325.9057 448.2875,326.0394 448.6109,326.2029 448.916,326.396 449.2606,326.648 449.5849,326.9187 449.889,327.208 450.1729,327.516 450.4366,327.8427 450.68,328.188 450.9134,328.5364 451.128,328.8911 451.324,329.252 451.5014,329.6191 451.66,329.9924 451.8,330.372 451.958,330.8189 452.0957,331.2411 452.2133,331.6387 452.3108,332.0117 452.388,332.36 455.272,332.36 455.272,333.788 452.612,333.788 452.612,350.0 450.848,350.0 450.848,333.788 448.188,333.788 448.188,332.36 450.764,332.36 450.6678,331.9732 450.547,331.569 450.4018,331.1473 450.232,330.708 450.0797,330.3451 449.914,329.9957 449.7348,329.6597 449.5421,329.3371 449.336,329.028 449.0595,328.6518 448.762,328.307 448.4435,327.9938 448.104,327.712 447.7295,327.4793 447.334,327.313 446.9175,327.2133 446.48,327.18 446.0393,327.2083 445.6504,327.2934 445.3134,327.4351 445.0282,327.6335 444.7949,327.8886 444.6134,328.2004 444.4838,328.5689 444.406,328.9941 444.38,329.476 444.401,329.8803 444.464,330.281 444.569,330.6783 444.716,331.072 444.8893,331.4535 445.073,331.814 445.2673,332.1535 445.472,332.472 445.696,332.808 444.604,333.536 444.3139,333.2404 444.0409,332.9324 443.785,332.612 443.5463,332.2791 443.3246,331.9338 443.12,331.576 442.9404,331.2003 442.7934,330.82 442.679,330.435 442.5974,330.0453 442.5484,329.651 442.532,329.252"/>
    <polygon points="470.5881,340.088 470.3338,339.7789 470.0639,339.5011 469.7783,339.2547 469.477,339.0397 469.1601,338.856 468.8252,338.6947 468.4701,338.5693 468.0949,338.4797 467.6996,338.4259 467.2841,338.408 466.8578,338.4298 466.4378,338.4951 466.0241,338.604 465.6476,338.7564 465.3023,338.9524 464.9881,339.192 464.7081,339.4782 464.4654,339.8142 464.2601,340.2 464.1201,340.62 464.0361,341.096 464.0081,341.628 464.0258,342.092 464.0789,342.524 464.1675,342.924 464.2915,343.292 464.4509,343.628 464.6458,343.932 464.8761,344.204 465.1918,344.4778 465.5418,344.7018 465.9261,344.876 466.3445,345.0004 466.7972,345.0751 467.2841,345.1 467.7383,345.0767 468.1676,345.0067 468.5721,344.89 468.9516,344.7267 469.3063,344.5167 469.6361,344.26 469.8886,343.992 470.1024,343.684 470.2772,343.336 470.4132,342.948 470.5104,342.52 470.5686,342.052 470.5881,341.544"/>
    <polygon points="472.2961,350.0 470.5601,350.0 470.5601,345.044 470.3046,345.3888 469.9861,345.695 469.6046,345.9628 469.1601,346.192 468.7849,346.3432 468.3985,346.4608 468.0009,346.5448 467.5921,346.5952 467.1721,346.612 466.7834,346.5997 466.4015,346.5627 466.0263,346.5011 465.6578,346.4149 465.2961,346.304 464.8603,346.1167 464.4491,345.891 464.0623,345.6268 463.7001,345.324 463.4313,345.0541 463.1849,344.7595 462.9609,344.4403 462.7593,344.0965 462.5801,343.728 462.439,343.3349 462.3292,342.9171 462.2508,342.4747 462.2038,342.0077 462.1881,341.516 462.2026,341.0781 462.2463,340.6603 462.3191,340.2627 462.421,339.8853 462.5521,339.528 462.7638,339.1115 463.0071,338.73 463.2818,338.3835 463.5881,338.072 463.9363,337.7972 464.3091,337.561 464.7063,337.3632 465.1281,337.204 465.4898,337.0931 465.8583,337.0069 466.2335,336.9453 466.6154,336.9083 467.0041,336.896 467.4241,336.9117 467.8329,336.9587 468.2305,337.0371 468.6169,337.1469 468.9921,337.288 469.3505,337.4515 469.6865,337.6509 470.0001,337.8861 470.2913,338.1571 470.5601,338.464 470.5601,333.788 460.7881,333.788 460.7881,332.36 482.3481,332.36 482.3481,333.788 472.2961,333.788 472.2961,338.8 472.4876,338.5166 472.7262,338.249 473.0117,337.997 473.3444,337.7606 473.7241,337.54 474.0671,337.3774 474.4241,337.2444 474.7951,337.141 475.1801,337.0671 475.5791,337.0228 475.9921,337.008 476.4488,337.0273 476.8951,337.085 477.3308,337.1813 477.7561,337.316 478.1761,337.4752 478.5681,337.673 478.9321,337.9093 479.2681,338.184 479.5848,338.4815 479.8631,338.814 480.1028,339.1815 480.3041,339.584 480.4452,339.9301 480.5549,340.2963 480.6333,340.6827 480.6804,341.0893 480.6961,341.516 480.6793,342.0054 480.6289,342.4658 480.5449,342.897 480.4273,343.299 480.2761,343.672 480.0957,344.0181 479.8908,344.3395 479.6612,344.6363 479.4069,344.9085 479.1281,345.156 478.7623,345.4308 478.3651,345.667 477.9363,345.8647 477.4761,346.024 477.0919,346.1248 476.701,346.2032 476.3034,346.2592 475.8991,346.2928 475.4881,346.304 474.7601,346.276 474.1441,346.108 474.4801,344.708 474.9281,344.771 475.4321,344.792 475.8894,344.7733 476.3281,344.7173 476.7481,344.624 477.1556,344.4716 477.5196,344.2756 477.8401,344.036 478.1356,343.7342 478.3876,343.3889 478.5961,343.0 478.7186,342.6745 478.8061,342.314 478.8586,341.9185 478.8761,341.488 478.8527,341.0307 478.7827,340.6107 478.6661,340.228 478.5027,339.8827 478.2927,339.5747 478.0361,339.304 477.7397,339.0644 477.4107,338.8684 477.0491,338.716 476.6547,338.6071 476.2277,338.5418 475.7681,338.52 475.3252,338.5406 474.9086,338.6023 474.5184,338.7051 474.1544,338.8491 473.8166,339.0343 473.5052,339.2606 473.2201,339.528 472.9749,339.8309 472.7675,340.1634 472.5978,340.5257 472.4658,340.9177 472.3715,341.3394 472.3149,341.7909 472.2961,342.272"/>
    <polygon points="483.8321,340.62 484.2474,340.5772 484.6534,340.5236 485.0501,340.459 485.4374,340.3836 485.8154,340.2972 486.1841,340.2 486.6086,340.0566 487.0084,339.8954 487.3836,339.7162 487.7341,339.519 488.0601,339.304 488.4433,339.01 488.7811,338.688 489.0733,338.338 489.3201,337.96 489.4813,337.6352 489.6068,337.288 489.6964,336.9184 489.7501,336.5264 489.7681,336.112 489.7412,335.6046 489.6605,335.1578 489.5261,334.7714 489.338,334.4454 489.0961,334.18 488.7461,333.9227 488.3681,333.739 487.9621,333.6287 487.5281,333.592 487.0626,333.627 486.6461,333.732 486.2786,333.907 485.9601,334.152 485.7028,334.4425 485.5191,334.782 485.4088,335.1705 485.3721,335.608 485.4125,336.084 485.5338,336.504 485.7361,336.868 486.1491,337.295 486.6041,337.568 485.7361,338.716 485.3388,338.5305 484.9591,338.282 484.5968,337.9705 484.2521,337.596 484.0101,337.2533 483.822,336.8747 483.6876,336.4603 483.6069,336.0101 483.5801,335.524 483.6081,335.0667 483.6921,334.628 483.8321,334.208 484.0436,333.8004 484.305,333.4364 484.6161,333.116 484.977,332.8204 485.3876,332.5684 485.8481,332.36 486.2366,332.2375 486.6461,332.15 487.0766,332.0975 487.5281,332.08 487.9901,332.101 488.4241,332.164 488.8301,332.269 489.2081,332.416 489.5721,332.5858 489.9081,332.787 490.2161,333.0198 490.4961,333.284 490.7463,333.578 490.9651,333.9 491.1523,334.25 491.3081,334.628 491.4306,335.013 491.5181,335.412 491.5706,335.825 491.5881,336.252 491.5713,336.6843 491.5209,337.1077 491.4369,337.5221 491.3193,337.9275 491.1681,338.324 490.9933,338.6981 490.7828,339.0587 490.5364,339.4059 490.2541,339.7397 489.9361,340.06 489.6537,340.3058 489.3481,340.5391 489.0191,340.76 488.6667,340.9684 488.2911,341.1644 487.8921,341.348 487.5315,341.4857 487.1538,341.6109 486.7589,341.7234 486.3469,341.8234 485.9178,341.9109 485.4715,341.9857 485.0081,342.048 485.1155,342.4366 485.2618,342.8023 485.4469,343.1451 485.6709,343.4651 485.9338,343.7623 486.2355,344.0366 486.5761,344.288 486.9059,344.4783 487.2516,344.6433 487.6129,344.7828 487.9901,344.897 488.3829,344.9858 488.7916,345.0493 489.2159,345.0873 489.6561,345.1 490.0744,345.0897 490.4812,345.0589 490.8766,345.0074 491.2606,344.9354 491.6332,344.8429 491.9944,344.7297 492.3441,344.596 492.7384,344.4101 493.1001,344.2071 493.4291,343.987 493.7254,343.7498 493.9891,343.4954 494.2201,343.224 494.2201,332.36 498.6441,332.36 498.6441,333.788 495.9841,333.788 495.9841,350.0 494.2201,350.0 494.2201,345.24 493.9233,345.4584 493.5929,345.6656 493.2289,345.8616 492.8313,346.0464 492.4001,346.22 492.0704,346.3314 491.7212,346.4257 491.3526,346.5029 490.9646,346.5629 490.5572,346.6057 490.1304,346.6314 489.6841,346.64 489.2493,346.6291 488.8223,346.5964 488.4031,346.542 487.9916,346.4658 487.588,346.3678 487.1921,346.248 486.8164,346.1072 486.4547,345.9462 486.1071,345.765 485.7734,345.5636 485.4537,345.3419 485.1481,345.1 484.8673,344.8301 484.6036,344.5431 484.3571,344.239 484.1276,343.9178 483.9153,343.5794 483.7201,343.224 483.5552,342.8421 483.4152,342.4431 483.3001,342.027 483.2098,341.5938 483.1445,341.1434 483.1041,340.676"/>
    <polygon points="500.7441,333.788 498.0841,333.788 498.0841,332.36 505.1681,332.36 505.1681,333.788 502.5081,333.788 502.5081,350.0 500.7441,350.0"/>
    <polygon points="511.1321,332.08 511.1321,350.0 509.3681,350.0 509.3681,332.08"/>
    <polygon points="496.978,300.252 496.446,300.084 496.026,299.748 495.8394,299.4307 495.7274,299.076 495.69,298.684 495.788,298.138 496.082,297.676 496.3745,297.4271 496.7292,297.2778 497.146,297.228 497.706,297.34 498.266,297.676 498.49,297.977 498.658,298.376 498.784,298.859 498.826,299.468 498.8089,299.8629 498.7575,300.2474 498.6718,300.6217 498.5518,300.9857 498.3975,301.3394 498.2089,301.6829 497.986,302.016 497.7386,302.3411 497.4763,302.6446 497.1992,302.9263 496.9072,303.1863 496.6003,303.4246 496.2786,303.6411 495.942,303.836 495.242,302.884 495.6306,302.6583 495.984,302.401 496.3026,302.1123 496.586,301.792 496.8416,301.4578 497.048,301.099 497.2056,300.7158 497.314,300.308"/>
  </g>
</svg>
