<?xml version="1.0" encoding="UTF-8" standalone="no"?>
<svg
   width="800"
   height="600"
   version="1.1"
   id="svg12"
   sodipodi:docname="radha_marathi.svg"
   xmlns:inkscape="http://www.inkscape.org/namespaces/inkscape"
   xmlns:sodipodi="http://sodipodi.sourceforge.net/DTD/sodipodi-0.dtd"
   xmlns="http://www.w3.org/2000/svg"
   xmlns:svg="http://www.w3.org/2000/svg">
  <defs
     id="defs16" />
  <sodipodi:namedview
     id="namedview14"
     pagecolor="#ffffff"
     bordercolor="#666666"
     borderopacity="1.0"
     inkscape:showpageshadow="2"
     inkscape:pageopacity="0.0"
     inkscape:pagecheckerboard="0"
     inkscape:deskcolor="#d1d1d1" />
  <g
     font-family="sans-serif"
     font-size="32px"
     text-anchor="middle"
     fill="#000000"
     id="g10">
    <g
       aria-label="In Marathi lands, Radha's grace,"
       id="text2">
      <path
         d="m 151.07812,200 h -9.1875 v -2.375 h 3.04688 v -18.51563 h -3.04688 v -2.375 h 9.1875 v 2.375 h -3.04687 V 197.625 h 3.04687 z"
         id="path18" />
      <path
         d="m 170.70312,200 h -2.9375 v -9.9375 q 0,-1.20313 -0.14062,-2.25 -0.14063,-1.0625 -0.51563,-1.65625 -0.39062,-0.65625 -1.125,-0.96875 -0.73437,-0.32813 -1.90625,-0.32813 -1.20312,0 -2.51562,0.59375 -1.3125,0.59375 -2.51563,1.51563 V 200 h -2.9375 v -17.45313 h 2.9375 v 1.9375 q 1.375,-1.14062 2.84375,-1.78125 1.46875,-0.64062 3.01563,-0.64062 2.82812,0 4.3125,1.70312 1.48437,1.70313 1.48437,4.90625 z"
         id="path20" />
      <path
         d="m 208.5625,200 h -3.09375 V 179.95312 L 199,193.59375 h -1.84375 l -6.42188,-13.64063 V 200 h -2.89062 v -23.26563 h 4.21875 l 6.20312,12.95313 6,-12.95313 h 4.29688 z"
         id="path22" />
      <path
         d="m 228.14062,200 h -2.92187 v -1.85938 q -0.39063,0.26563 -1.0625,0.75 -0.65625,0.46875 -1.28125,0.75 -0.73438,0.35938 -1.6875,0.59375 -0.95313,0.25 -2.23438,0.25 -2.35937,0 -4,-1.5625 -1.64062,-1.5625 -1.64062,-3.98437 0,-1.98438 0.84375,-3.20313 0.85937,-1.23437 2.4375,-1.9375 1.59375,-0.70312 3.82812,-0.95312 2.23438,-0.25 4.79688,-0.375 v -0.45313 q 0,-1 -0.35938,-1.65625 -0.34375,-0.65625 -1,-1.03125 -0.625,-0.35937 -1.5,-0.48437 -0.875,-0.125 -1.82812,-0.125 -1.15625,0 -2.57813,0.3125 -1.42187,0.29687 -2.9375,0.875 h -0.15625 v -2.98438 q 0.85938,-0.23437 2.48438,-0.51562 1.625,-0.28125 3.20312,-0.28125 1.84375,0 3.20313,0.3125 1.375,0.29687 2.375,1.03125 0.98437,0.71875 1.5,1.85937 0.51562,1.14063 0.51562,2.82813 z m -2.92187,-4.29688 v -4.85937 q -1.34375,0.0781 -3.17188,0.23437 -1.8125,0.15625 -2.875,0.45313 -1.26562,0.35937 -2.04687,1.125 -0.78125,0.75 -0.78125,2.07812 0,1.5 0.90625,2.26563 0.90625,0.75 2.76562,0.75 1.54688,0 2.82813,-0.59375 1.28125,-0.60938 2.375,-1.45313 z"
         id="path24" />
      <path
         d="m 244.6875,185.75 h -0.15625 q -0.65625,-0.15625 -1.28125,-0.21875 -0.60938,-0.0781 -1.45313,-0.0781 -1.35937,0 -2.625,0.60938 -1.26562,0.59375 -2.4375,1.54687 V 200 h -2.9375 v -17.45313 h 2.9375 v 2.57813 q 1.75,-1.40625 3.07813,-1.98438 1.34375,-0.59375 2.73437,-0.59375 0.76563,0 1.10938,0.0469 0.34375,0.0312 1.03125,0.14062 z"
         id="path26" />
      <path
         d="m 260.45312,200 h -2.92187 v -1.85938 q -0.39063,0.26563 -1.0625,0.75 -0.65625,0.46875 -1.28125,0.75 -0.73438,0.35938 -1.6875,0.59375 -0.95313,0.25 -2.23438,0.25 -2.35937,0 -4,-1.5625 -1.64062,-1.5625 -1.64062,-3.98437 0,-1.98438 0.84375,-3.20313 0.85937,-1.23437 2.4375,-1.9375 1.59375,-0.70312 3.82812,-0.95312 2.23438,-0.25 4.79688,-0.375 v -0.45313 q 0,-1 -0.35938,-1.65625 -0.34375,-0.65625 -1,-1.03125 -0.625,-0.35937 -1.5,-0.48437 -0.875,-0.125 -1.82812,-0.125 -1.15625,0 -2.57813,0.3125 -1.42187,0.29687 -2.9375,0.875 h -0.15625 v -2.98438 q 0.85938,-0.23437 2.48438,-0.51562 1.625,-0.28125 3.20312,-0.28125 1.84375,0 3.20313,0.3125 1.375,0.29687 2.375,1.03125 0.98437,0.71875 1.5,1.85937 0.51562,1.14063 0.51562,2.82813 z m -2.92187,-4.29688 v -4.85937 q -1.34375,0.0781 -3.17188,0.23437 -1.8125,0.15625 -2.875,0.45313 -1.26562,0.35937 -2.04687,1.125 -0.78125,0.75 -0.78125,2.07812 0,1.5 0.90625,2.26563 0.90625,0.75 2.76562,0.75 1.54688,0 2.82813,-0.59375 1.28125,-0.60938 2.375,-1.45313 z"
         id="path28" />
      <path
         d="m 275.17187,199.84375 q -0.82812,0.21875 -1.8125,0.35937 -0.96875,0.14063 -1.73437,0.14063 -2.67188,0 -4.0625,-1.4375 -1.39063,-1.4375 -1.39063,-4.60938 v -9.28125 h -1.98437 v -2.46875 h 1.98437 v -5.01562 h 2.9375 v 5.01562 h 6.0625 v 2.46875 h -6.0625 v 7.95313 q 0,1.375 0.0625,2.15625 0.0625,0.76562 0.4375,1.4375 0.34375,0.625 0.9375,0.92187 0.60938,0.28125 1.84375,0.28125 0.71875,0 1.5,-0.20312 0.78125,-0.21875 1.125,-0.35938 h 0.15625 z"
         id="path30" />
      <path
         d="m 293.3125,200 h -2.9375 v -9.9375 q 0,-1.20313 -0.14063,-2.25 -0.14062,-1.0625 -0.51562,-1.65625 -0.39063,-0.65625 -1.125,-0.96875 -0.73438,-0.32813 -1.90625,-0.32813 -1.20313,0 -2.51563,0.59375 -1.3125,0.59375 -2.51562,1.51563 V 200 h -2.9375 v -24.3125 h 2.9375 v 8.79687 q 1.375,-1.14062 2.84375,-1.78125 1.46875,-0.64062 3.01562,-0.64062 2.82813,0 4.3125,1.70312 1.48438,1.70313 1.48438,4.90625 z"
         id="path32" />
      <path
         d="m 302.125,179.625 h -3.3125 v -3.04688 h 3.3125 z M 301.9375,200 H 299 v -17.45313 h 2.9375 z"
         id="path34" />
      <path
         d="m 321.96875,200 h -2.9375 v -24.3125 h 2.9375 z"
         id="path36" />
      <path
         d="m 341.34375,200 h -2.92188 v -1.85938 q -0.39062,0.26563 -1.0625,0.75 -0.65625,0.46875 -1.28125,0.75 -0.73437,0.35938 -1.6875,0.59375 -0.95312,0.25 -2.23437,0.25 -2.35938,0 -4,-1.5625 -1.64063,-1.5625 -1.64063,-3.98437 0,-1.98438 0.84375,-3.20313 0.85938,-1.23437 2.4375,-1.9375 1.59375,-0.70312 3.82813,-0.95312 2.23437,-0.25 4.79687,-0.375 v -0.45313 q 0,-1 -0.35937,-1.65625 -0.34375,-0.65625 -1,-1.03125 -0.625,-0.35937 -1.5,-0.48437 -0.875,-0.125 -1.82813,-0.125 -1.15625,0 -2.57812,0.3125 -1.42188,0.29687 -2.9375,0.875 h -0.15625 v -2.98438 q 0.85937,-0.23437 2.48437,-0.51562 1.625,-0.28125 3.20313,-0.28125 1.84375,0 3.20312,0.3125 1.375,0.29687 2.375,1.03125 0.98438,0.71875 1.5,1.85937 0.51563,1.14063 0.51563,2.82813 z m -2.92188,-4.29688 v -4.85937 q -1.34375,0.0781 -3.17187,0.23437 -1.8125,0.15625 -2.875,0.45313 -1.26563,0.35937 -2.04688,1.125 -0.78125,0.75 -0.78125,2.07812 0,1.5 0.90625,2.26563 0.90625,0.75 2.76563,0.75 1.54687,0 2.82812,-0.59375 1.28125,-0.60938 2.375,-1.45313 z"
         id="path38" />
      <path
         d="m 361.59375,200 h -2.9375 v -9.9375 q 0,-1.20313 -0.14063,-2.25 Q 358.375,186.75 358,186.15625 357.60937,185.5 356.875,185.1875 q -0.73438,-0.32813 -1.90625,-0.32813 -1.20313,0 -2.51563,0.59375 -1.3125,0.59375 -2.51562,1.51563 V 200 H 347 v -17.45313 h 2.9375 v 1.9375 q 1.375,-1.14062 2.84375,-1.78125 1.46875,-0.64062 3.01562,-0.64062 2.82813,0 4.3125,1.70312 1.48438,1.70313 1.48438,4.90625 z"
         id="path40" />
      <path
         d="m 381.40625,200 h -2.9375 v -1.82813 q -1.26563,1.09375 -2.64063,1.70313 -1.375,0.60937 -2.98437,0.60937 -3.125,0 -4.96875,-2.40625 -1.82813,-2.40625 -1.82813,-6.67187 0,-2.21875 0.625,-3.95313 0.64063,-1.73437 1.71875,-2.95312 1.0625,-1.1875 2.46875,-1.8125 1.42188,-0.625 2.9375,-0.625 1.375,0 2.4375,0.29687 1.0625,0.28125 2.23438,0.89063 v -7.5625 h 2.9375 z m -2.9375,-4.29688 V 185.6875 q -1.1875,-0.53125 -2.125,-0.73438 -0.9375,-0.20312 -2.04688,-0.20312 -2.46875,0 -3.84375,1.71875 -1.375,1.71875 -1.375,4.875 0,3.10937 1.0625,4.73437 1.0625,1.60938 3.40625,1.60938 1.25,0 2.53125,-0.54688 1.28125,-0.5625 2.39063,-1.4375 z"
         id="path42" />
      <path
         d="m 399.65625,194.96875 q 0,2.39062 -1.98438,3.92187 -1.96875,1.53125 -5.39062,1.53125 -1.9375,0 -3.5625,-0.45312 -1.60938,-0.46875 -2.70313,-1.01563 v -3.29687 h 0.15625 q 1.39063,1.04687 3.09375,1.67187 1.70313,0.60938 3.26563,0.60938 1.9375,0 3.03125,-0.625 1.09375,-0.625 1.09375,-1.96875 0,-1.03125 -0.59375,-1.5625 -0.59375,-0.53125 -2.28125,-0.90625 -0.625,-0.14063 -1.64063,-0.32813 -1,-0.1875 -1.82812,-0.40625 -2.29688,-0.60937 -3.26563,-1.78125 -0.95312,-1.1875 -0.95312,-2.90625 0,-1.07812 0.4375,-2.03125 0.45312,-0.95312 1.35937,-1.70312 0.875,-0.73438 2.21875,-1.15625 1.35938,-0.4375 3.03125,-0.4375 1.5625,0 3.15625,0.39062 1.60938,0.375 2.67188,0.92188 v 3.14062 h -0.15625 q -1.125,-0.82812 -2.73438,-1.39062 -1.60937,-0.57813 -3.15625,-0.57813 -1.60937,0 -2.71875,0.625 -1.10937,0.60938 -1.10937,1.82813 0,1.07812 0.67187,1.625 0.65625,0.54687 2.125,0.89062 0.8125,0.1875 1.8125,0.375 1.01563,0.1875 1.6875,0.34375 2.04688,0.46875 3.15625,1.60938 1.10938,1.15625 1.10938,3.0625 z"
         id="path44" />
      <path
         d="m 409.95312,195.54687 -4.40625,10.23438 h -2.28125 l 2.71875,-10.23438 z"
         id="path46" />
      <path
         d="m 446.23437,200 h -4.01562 l -7.78125,-9.25 h -4.35938 V 200 h -3.09375 V 176.73437 H 433.5 q 2.10937,0 3.51562,0.28125 1.40625,0.26563 2.53125,0.96875 1.26563,0.79688 1.96875,2.01563 0.71875,1.20312 0.71875,3.0625 0,2.51562 -1.26562,4.21875 -1.26563,1.6875 -3.48438,2.54687 z M 439,183.28125 q 0,-1 -0.35938,-1.76563 -0.34375,-0.78125 -1.15625,-1.3125 -0.67187,-0.45312 -1.59375,-0.625 -0.92187,-0.1875 -2.17187,-0.1875 h -3.64063 v 8.78125 h 3.125 q 1.46875,0 2.5625,-0.25 1.09375,-0.26562 1.85938,-0.96875 0.70312,-0.65625 1.03125,-1.5 Q 439,184.59375 439,183.28125 Z"
         id="path48" />
      <path
         d="m 461.9375,200 h -2.92188 v -1.85938 q -0.39062,0.26563 -1.0625,0.75 -0.65625,0.46875 -1.28125,0.75 -0.73437,0.35938 -1.6875,0.59375 -0.95312,0.25 -2.23437,0.25 -2.35938,0 -4,-1.5625 -1.64063,-1.5625 -1.64063,-3.98437 0,-1.98438 0.84375,-3.20313 0.85938,-1.23437 2.4375,-1.9375 1.59375,-0.70312 3.82813,-0.95312 2.23437,-0.25 4.79687,-0.375 v -0.45313 q 0,-1 -0.35937,-1.65625 -0.34375,-0.65625 -1,-1.03125 -0.625,-0.35937 -1.5,-0.48437 -0.875,-0.125 -1.82813,-0.125 -1.15625,0 -2.57812,0.3125 -1.42188,0.29687 -2.9375,0.875 h -0.15625 v -2.98438 q 0.85937,-0.23437 2.48437,-0.51562 1.625,-0.28125 3.20313,-0.28125 1.84375,0 3.20312,0.3125 1.375,0.29687 2.375,1.03125 0.98438,0.71875 1.5,1.85937 0.51563,1.14063 0.51563,2.82813 z m -2.92188,-4.29688 v -4.85937 q -1.34375,0.0781 -3.17187,0.23437 -1.8125,0.15625 -2.875,0.45313 -1.26563,0.35937 -2.04688,1.125 -0.78125,0.75 -0.78125,2.07812 0,1.5 0.90625,2.26563 0.90625,0.75 2.76563,0.75 1.54687,0 2.82812,-0.59375 1.28125,-0.60938 2.375,-1.45313 z"
         id="path50" />
      <path
         d="m 481.75,200 h -2.9375 v -1.82813 q -1.26563,1.09375 -2.64063,1.70313 -1.375,0.60937 -2.98437,0.60937 -3.125,0 -4.96875,-2.40625 -1.82813,-2.40625 -1.82813,-6.67187 0,-2.21875 0.625,-3.95313 0.64063,-1.73437 1.71875,-2.95312 1.0625,-1.1875 2.46875,-1.8125 1.42188,-0.625 2.9375,-0.625 1.375,0 2.4375,0.29687 1.0625,0.28125 2.23438,0.89063 v -7.5625 h 2.9375 z m -2.9375,-4.29688 V 185.6875 q -1.1875,-0.53125 -2.125,-0.73438 -0.9375,-0.20312 -2.04688,-0.20312 -2.46875,0 -3.84375,1.71875 -1.375,1.71875 -1.375,4.875 0,3.10937 1.0625,4.73437 1.0625,1.60938 3.40625,1.60938 1.25,0 2.53125,-0.54688 1.28125,-0.5625 2.39063,-1.4375 z"
         id="path52" />
      <path
         d="m 502.125,200 h -2.9375 v -9.9375 q 0,-1.20313 -0.14063,-2.25 -0.14062,-1.0625 -0.51562,-1.65625 -0.39063,-0.65625 -1.125,-0.96875 -0.73438,-0.32813 -1.90625,-0.32813 -1.20313,0 -2.51563,0.59375 -1.3125,0.59375 -2.51562,1.51563 V 200 h -2.9375 v -24.3125 h 2.9375 v 8.79687 q 1.375,-1.14062 2.84375,-1.78125 1.46875,-0.64062 3.01562,-0.64062 2.82813,0 4.3125,1.70312 1.48438,1.70313 1.48438,4.90625 z"
         id="path54" />
      <path
         d="m 521.34375,200 h -2.92188 v -1.85938 q -0.39062,0.26563 -1.0625,0.75 -0.65625,0.46875 -1.28125,0.75 -0.73437,0.35938 -1.6875,0.59375 -0.95312,0.25 -2.23437,0.25 -2.35938,0 -4,-1.5625 -1.64063,-1.5625 -1.64063,-3.98437 0,-1.98438 0.84375,-3.20313 0.85938,-1.23437 2.4375,-1.9375 1.59375,-0.70312 3.82813,-0.95312 2.23437,-0.25 4.79687,-0.375 v -0.45313 q 0,-1 -0.35937,-1.65625 -0.34375,-0.65625 -1,-1.03125 -0.625,-0.35937 -1.5,-0.48437 -0.875,-0.125 -1.82813,-0.125 -1.15625,0 -2.57812,0.3125 -1.42188,0.29687 -2.9375,0.875 h -0.15625 v -2.98438 q 0.85937,-0.23437 2.48437,-0.51562 1.625,-0.28125 3.20313,-0.28125 1.84375,0 3.20312,0.3125 1.375,0.29687 2.375,1.03125 0.98438,0.71875 1.5,1.85937 0.51563,1.14063 0.51563,2.82813 z m -2.92188,-4.29688 v -4.85937 q -1.34375,0.0781 -3.17187,0.23437 -1.8125,0.15625 -2.875,0.45313 -1.26563,0.35937 -2.04688,1.125 -0.78125,0.75 -0.78125,2.07812 0,1.5 0.90625,2.26563 0.90625,0.75 2.76563,0.75 1.54687,0 2.82812,-0.59375 1.28125,-0.60938 2.375,-1.45313 z"
         id="path56" />
      <path
         d="m 530.14062,175.6875 -0.67187,9.04687 h -2.125 l -0.67188,-9.04687 z"
         id="path58" />
      <path
         d="m 548.0625,194.96875 q 0,2.39062 -1.98438,3.92187 -1.96875,1.53125 -5.39062,1.53125 -1.9375,0 -3.5625,-0.45312 -1.60938,-0.46875 -2.70313,-1.01563 v -3.29687 h 0.15625 q 1.39063,1.04687 3.09375,1.67187 1.70313,0.60938 3.26563,0.60938 1.9375,0 3.03125,-0.625 1.09375,-0.625 1.09375,-1.96875 0,-1.03125 -0.59375,-1.5625 -0.59375,-0.53125 -2.28125,-0.90625 -0.625,-0.14063 -1.64063,-0.32813 -1,-0.1875 -1.82812,-0.40625 -2.29688,-0.60937 -3.26563,-1.78125 -0.95312,-1.1875 -0.95312,-2.90625 0,-1.07812 0.4375,-2.03125 0.45312,-0.95312 1.35937,-1.70312 0.875,-0.73438 2.21875,-1.15625 1.35938,-0.4375 3.03125,-0.4375 1.5625,0 3.15625,0.39062 1.60938,0.375 2.67188,0.92188 v 3.14062 h -0.15625 q -1.125,-0.82812 -2.73438,-1.39062 -1.60937,-0.57813 -3.15625,-0.57813 -1.60937,0 -2.71875,0.625 -1.10937,0.60938 -1.10937,1.82813 0,1.07812 0.67187,1.625 0.65625,0.54687 2.125,0.89062 0.8125,0.1875 1.8125,0.375 1.01563,0.1875 1.6875,0.34375 2.04688,0.46875 3.15625,1.60938 1.10938,1.15625 1.10938,3.0625 z"
         id="path60" />
      <path
         d="m 577.67187,198.01562 q 0,4.4375 -2.01562,6.51563 -2.01563,2.07812 -6.20313,2.07812 -1.39062,0 -2.71875,-0.20312 -1.3125,-0.1875 -2.59375,-0.54688 v -3 h 0.15625 q 0.71875,0.28125 2.28125,0.6875 1.5625,0.42188 3.125,0.42188 1.5,0 2.48438,-0.35938 0.98437,-0.35937 1.53125,-1 0.54687,-0.60937 0.78125,-1.46875 0.23437,-0.85937 0.23437,-1.92187 V 197.625 q -1.32812,1.0625 -2.54687,1.59375 -1.20313,0.51562 -3.07813,0.51562 -3.125,0 -4.96875,-2.25 -1.82812,-2.26562 -1.82812,-6.375 0,-2.25 0.625,-3.875 0.64062,-1.64062 1.73437,-2.82812 1.01563,-1.10938 2.46875,-1.71875 1.45313,-0.625 2.89063,-0.625 1.51562,0 2.53125,0.3125 1.03125,0.29687 2.17187,0.92187 l 0.1875,-0.75 h 2.75 z m -2.9375,-2.8125 v -9.51562 q -1.17187,-0.53125 -2.1875,-0.75 -1,-0.23438 -2,-0.23438 -2.42187,0 -3.8125,1.625 -1.39062,1.625 -1.39062,4.71875 0,2.9375 1.03125,4.45313 1.03125,1.51562 3.42187,1.51562 1.28125,0 2.5625,-0.48437 1.29688,-0.5 2.375,-1.32813 z"
         id="path62" />
      <path
         d="m 594.34375,185.75 h -0.15625 q -0.65625,-0.15625 -1.28125,-0.21875 -0.60938,-0.0781 -1.45313,-0.0781 -1.35937,0 -2.625,0.60938 -1.26562,0.59375 -2.4375,1.54687 V 200 h -2.9375 v -17.45313 h 2.9375 v 2.57813 q 1.75,-1.40625 3.07813,-1.98438 1.34375,-0.59375 2.73437,-0.59375 0.76563,0 1.10938,0.0469 0.34375,0.0312 1.03125,0.14062 z"
         id="path64" />
      <path
         d="m 610.10937,200 h -2.92187 v -1.85938 q -0.39063,0.26563 -1.0625,0.75 -0.65625,0.46875 -1.28125,0.75 -0.73438,0.35938 -1.6875,0.59375 -0.95313,0.25 -2.23438,0.25 -2.35937,0 -4,-1.5625 -1.64062,-1.5625 -1.64062,-3.98437 0,-1.98438 0.84375,-3.20313 0.85937,-1.23437 2.4375,-1.9375 1.59375,-0.70312 3.82812,-0.95312 2.23438,-0.25 4.79688,-0.375 v -0.45313 q 0,-1 -0.35938,-1.65625 -0.34375,-0.65625 -1,-1.03125 -0.625,-0.35937 -1.5,-0.48437 -0.875,-0.125 -1.82812,-0.125 -1.15625,0 -2.57813,0.3125 -1.42187,0.29687 -2.9375,0.875 h -0.15625 v -2.98438 q 0.85938,-0.23437 2.48438,-0.51562 1.625,-0.28125 3.20312,-0.28125 1.84375,0 3.20313,0.3125 1.375,0.29687 2.375,1.03125 0.98437,0.71875 1.5,1.85937 0.51562,1.14063 0.51562,2.82813 z m -2.92187,-4.29688 v -4.85937 q -1.34375,0.0781 -3.17188,0.23437 -1.8125,0.15625 -2.875,0.45313 -1.26562,0.35937 -2.04687,1.125 -0.78125,0.75 -0.78125,2.07812 0,1.5 0.90625,2.26563 0.90625,0.75 2.76562,0.75 1.54688,0 2.82813,-0.59375 1.28125,-0.60938 2.375,-1.45313 z"
         id="path66" />
      <path
         d="m 628.67187,198.90625 q -1.46875,0.70312 -2.79687,1.09375 -1.3125,0.39062 -2.79688,0.39062 -1.89062,0 -3.46875,-0.54687 -1.57812,-0.5625 -2.70312,-1.6875 -1.14063,-1.125 -1.76563,-2.84375 -0.625,-1.71875 -0.625,-4.01563 0,-4.28125 2.34375,-6.71875 2.35938,-2.4375 6.21875,-2.4375 1.5,0 2.9375,0.42188 1.45313,0.42187 2.65625,1.03125 v 3.26562 h -0.15625 q -1.34375,-1.04687 -2.78125,-1.60937 -1.42187,-0.5625 -2.78125,-0.5625 -2.5,0 -3.95312,1.6875 -1.4375,1.67187 -1.4375,4.92187 0,3.15625 1.40625,4.85938 1.42187,1.6875 3.98437,1.6875 0.89063,0 1.8125,-0.23438 0.92188,-0.23437 1.65625,-0.60937 0.64063,-0.32813 1.20313,-0.6875 0.5625,-0.375 0.89062,-0.64063 h 0.15625 z"
         id="path68" />
      <path
         d="M 647.04687,191.57812 H 634.1875 q 0,1.60938 0.48437,2.8125 0.48438,1.1875 1.32813,1.95313 0.8125,0.75 1.92187,1.125 1.125,0.375 2.46875,0.375 1.78125,0 3.57813,-0.70313 1.8125,-0.71875 2.57812,-1.40625 h 0.15625 v 3.20313 q -1.48437,0.625 -3.03125,1.04687 -1.54687,0.42188 -3.25,0.42188 -4.34375,0 -6.78125,-2.34375 -2.4375,-2.35938 -2.4375,-6.6875 0,-4.28125 2.32813,-6.79688 2.34375,-2.51562 6.15625,-2.51562 3.53125,0 5.4375,2.0625 1.92187,2.0625 1.92187,5.85937 z m -2.85937,-2.25 q -0.0156,-2.3125 -1.17188,-3.57812 -1.14062,-1.26563 -3.48437,-1.26563 -2.35938,0 -3.76563,1.39063 -1.39062,1.39062 -1.57812,3.45312 z"
         id="path70" />
      <path
         d="m 657.59375,195.54687 -4.40625,10.23438 h -2.28125 l 2.71875,-10.23438 z"
         id="path72" />
    </g>
    <g
       aria-label="A gentle smile upon her face."
       id="text4">
      <path
         d="m 185.00781,250 h -3.29687 l -2.28125,-6.48438 h -10.0625 L 167.08594,250 h -3.14063 l 8.46875,-23.26563 h 4.125 z m -6.53125,-9.14063 -4.07812,-11.42187 -4.09375,11.42187 z"
         id="path75" />
      <path
         d="m 213.71094,248.01562 q 0,4.4375 -2.01563,6.51563 -2.01562,2.07812 -6.20312,2.07812 -1.39063,0 -2.71875,-0.20312 -1.3125,-0.1875 -2.59375,-0.54688 v -3 h 0.15625 q 0.71875,0.28125 2.28125,0.6875 1.5625,0.42188 3.125,0.42188 1.5,0 2.48437,-0.35938 0.98438,-0.35937 1.53125,-1 0.54688,-0.60937 0.78125,-1.46875 0.23438,-0.85937 0.23438,-1.92187 V 247.625 q -1.32813,1.0625 -2.54688,1.59375 -1.20312,0.51562 -3.07812,0.51562 -3.125,0 -4.96875,-2.25 -1.82813,-2.26562 -1.82813,-6.375 0,-2.25 0.625,-3.875 0.64063,-1.64062 1.73438,-2.82812 1.01562,-1.10938 2.46875,-1.71875 1.45312,-0.625 2.89062,-0.625 1.51563,0 2.53125,0.3125 1.03125,0.29687 2.17188,0.92187 l 0.1875,-0.75 h 2.75 z m -2.9375,-2.8125 v -9.51562 q -1.17188,-0.53125 -2.1875,-0.75 -1,-0.23438 -2,-0.23438 -2.42188,0 -3.8125,1.625 -1.39063,1.625 -1.39063,4.71875 0,2.9375 1.03125,4.45313 1.03125,1.51562 3.42188,1.51562 1.28125,0 2.5625,-0.48437 1.29687,-0.5 2.375,-1.32813 z"
         id="path77" />
      <path
         d="m 234.10156,241.57812 h -12.85937 q 0,1.60938 0.48437,2.8125 0.48438,1.1875 1.32813,1.95313 0.8125,0.75 1.92187,1.125 1.125,0.375 2.46875,0.375 1.78125,0 3.57813,-0.70313 1.8125,-0.71875 2.57812,-1.40625 h 0.15625 v 3.20313 q -1.48437,0.625 -3.03125,1.04687 -1.54687,0.42188 -3.25,0.42188 -4.34375,0 -6.78125,-2.34375 -2.4375,-2.35938 -2.4375,-6.6875 0,-4.28125 2.32813,-6.79688 2.34375,-2.51562 6.15625,-2.51562 3.53125,0 5.4375,2.0625 1.92187,2.0625 1.92187,5.85937 z m -2.85937,-2.25 q -0.0156,-2.3125 -1.17188,-3.57812 -1.14062,-1.26563 -3.48437,-1.26563 -2.35938,0 -3.76563,1.39063 -1.39062,1.39062 -1.57812,3.45312 z"
         id="path79" />
      <path
         d="m 253.14844,250 h -2.9375 v -9.9375 q 0,-1.20313 -0.14063,-2.25 -0.14062,-1.0625 -0.51562,-1.65625 -0.39063,-0.65625 -1.125,-0.96875 -0.73438,-0.32813 -1.90625,-0.32813 -1.20313,0 -2.51563,0.59375 -1.3125,0.59375 -2.51562,1.51563 V 250 h -2.9375 v -17.45313 h 2.9375 v 1.9375 q 1.375,-1.14062 2.84375,-1.78125 1.46875,-0.64062 3.01562,-0.64062 2.82813,0 4.3125,1.70312 1.48438,1.70313 1.48438,4.90625 z"
         id="path81" />
      <path
         d="m 267.86719,249.84375 q -0.82813,0.21875 -1.8125,0.35937 -0.96875,0.14063 -1.73438,0.14063 -2.67187,0 -4.0625,-1.4375 -1.39062,-1.4375 -1.39062,-4.60938 v -9.28125 h -1.98438 v -2.46875 h 1.98438 v -5.01562 h 2.9375 v 5.01562 h 6.0625 v 2.46875 h -6.0625 v 7.95313 q 0,1.375 0.0625,2.15625 0.0625,0.76562 0.4375,1.4375 0.34375,0.625 0.9375,0.92187 0.60937,0.28125 1.84375,0.28125 0.71875,0 1.5,-0.20312 0.78125,-0.21875 1.125,-0.35938 h 0.15625 z"
         id="path83" />
      <path
         d="m 274.38281,250 h -2.9375 v -24.3125 h 2.9375 z"
         id="path85" />
      <path
         d="m 294.80469,241.57812 h -12.85938 q 0,1.60938 0.48438,2.8125 0.48437,1.1875 1.32812,1.95313 0.8125,0.75 1.92188,1.125 1.125,0.375 2.46875,0.375 1.78125,0 3.57812,-0.70313 1.8125,-0.71875 2.57813,-1.40625 h 0.15625 v 3.20313 q -1.48438,0.625 -3.03125,1.04687 -1.54688,0.42188 -3.25,0.42188 -4.34375,0 -6.78125,-2.34375 -2.4375,-2.35938 -2.4375,-6.6875 0,-4.28125 2.32812,-6.79688 2.34375,-2.51562 6.15625,-2.51562 3.53125,0 5.4375,2.0625 1.92188,2.0625 1.92188,5.85937 z m -2.85938,-2.25 q -0.0156,-2.3125 -1.17187,-3.57812 -1.14063,-1.26563 -3.48438,-1.26563 -2.35937,0 -3.76562,1.39063 -1.39063,1.39062 -1.57813,3.45312 z"
         id="path87" />
      <path
         d="m 322.97656,244.96875 q 0,2.39062 -1.98437,3.92187 -1.96875,1.53125 -5.39063,1.53125 -1.9375,0 -3.5625,-0.45312 -1.60937,-0.46875 -2.70312,-1.01563 v -3.29687 h 0.15625 q 1.39062,1.04687 3.09375,1.67187 1.70312,0.60938 3.26562,0.60938 1.9375,0 3.03125,-0.625 1.09375,-0.625 1.09375,-1.96875 0,-1.03125 -0.59375,-1.5625 -0.59375,-0.53125 -2.28125,-0.90625 -0.625,-0.14063 -1.64062,-0.32813 -1,-0.1875 -1.82813,-0.40625 -2.29687,-0.60937 -3.26562,-1.78125 -0.95313,-1.1875 -0.95313,-2.90625 0,-1.07812 0.4375,-2.03125 0.45313,-0.95312 1.35938,-1.70312 0.875,-0.73438 2.21875,-1.15625 1.35937,-0.4375 3.03125,-0.4375 1.5625,0 3.15625,0.39062 1.60937,0.375 2.67187,0.92188 v 3.14062 h -0.15625 q -1.125,-0.82812 -2.73437,-1.39062 -1.60938,-0.57813 -3.15625,-0.57813 -1.60938,0 -2.71875,0.625 -1.10938,0.60938 -1.10938,1.82813 0,1.07812 0.67188,1.625 0.65625,0.54687 2.125,0.89062 0.8125,0.1875 1.8125,0.375 1.01562,0.1875 1.6875,0.34375 2.04687,0.46875 3.15625,1.60938 1.10937,1.15625 1.10937,3.0625 z"
         id="path89" />
      <path
         d="m 352.64844,250 h -2.9375 v -9.9375 q 0,-1.125 -0.10938,-2.17188 -0.0937,-1.04687 -0.42187,-1.67187 -0.35938,-0.67188 -1.03125,-1.01563 -0.67188,-0.34375 -1.9375,-0.34375 -1.23438,0 -2.46875,0.625 -1.23438,0.60938 -2.46875,1.5625 0.0469,0.35938 0.0781,0.84375 0.0312,0.46875 0.0312,0.9375 V 250 h -2.9375 v -9.9375 q 0,-1.15625 -0.10937,-2.1875 -0.0937,-1.04688 -0.42188,-1.67188 -0.35937,-0.67187 -1.03125,-1 -0.67187,-0.34375 -1.9375,-0.34375 -1.20312,0 -2.42187,0.59375 -1.20313,0.59375 -2.40625,1.51563 V 250 h -2.9375 v -17.45313 h 2.9375 v 1.9375 q 1.375,-1.14062 2.73437,-1.78125 1.375,-0.64062 2.92188,-0.64062 1.78125,0 3.01562,0.75 1.25,0.75 1.85938,2.07812 1.78125,-1.5 3.25,-2.15625 1.46875,-0.67187 3.14062,-0.67187 2.875,0 4.23438,1.75 1.375,1.73437 1.375,4.85937 z"
         id="path91" />
      <path
         d="m 361.46094,229.625 h -3.3125 v -3.04688 h 3.3125 z M 361.27344,250 h -2.9375 v -17.45313 h 2.9375 z"
         id="path93" />
      <path
         d="m 370.05469,250 h -2.9375 v -24.3125 h 2.9375 z"
         id="path95" />
      <path
         d="m 390.47656,241.57812 h -12.85937 q 0,1.60938 0.48437,2.8125 0.48438,1.1875 1.32813,1.95313 0.8125,0.75 1.92187,1.125 1.125,0.375 2.46875,0.375 1.78125,0 3.57813,-0.70313 1.8125,-0.71875 2.57812,-1.40625 h 0.15625 v 3.20313 q -1.48437,0.625 -3.03125,1.04687 -1.54687,0.42188 -3.25,0.42188 -4.34375,0 -6.78125,-2.34375 -2.4375,-2.35938 -2.4375,-6.6875 0,-4.28125 2.32813,-6.79688 2.34375,-2.51562 6.15625,-2.51562 3.53125,0 5.4375,2.0625 1.92187,2.0625 1.92187,5.85937 z m -2.85937,-2.25 q -0.0156,-2.3125 -1.17188,-3.57812 -1.14062,-1.26563 -3.48437,-1.26563 -2.35938,0 -3.76563,1.39063 -1.39062,1.39062 -1.57812,3.45312 z"
         id="path97" />
      <path
         d="m 420.64844,250 h -2.9375 v -1.9375 q -1.48438,1.17187 -2.84375,1.79687 -1.35938,0.625 -3,0.625 -2.75,0 -4.28125,-1.67187 -1.53125,-1.6875 -1.53125,-4.9375 v -11.32813 h 2.9375 v 9.9375 q 0,1.32813 0.125,2.28125 0.125,0.9375 0.53125,1.60938 0.42187,0.6875 1.09375,1 0.67187,0.3125 1.95312,0.3125 1.14063,0 2.48438,-0.59375 1.35937,-0.59375 2.53125,-1.51563 v -13.03125 h 2.9375 z"
         id="path99" />
      <path
         d="m 441.78906,241.0625 q 0,2.125 -0.60937,3.89062 -0.60938,1.75 -1.71875,2.96875 -1.03125,1.15625 -2.4375,1.79688 -1.39063,0.625 -2.95313,0.625 -1.35937,0 -2.46875,-0.29688 -1.09375,-0.29687 -2.23437,-0.92187 v 7.3125 h -2.9375 v -23.89063 h 2.9375 v 1.82813 q 1.17187,-0.98438 2.625,-1.64063 1.46875,-0.67187 3.125,-0.67187 3.15625,0 4.90625,2.39062 1.76562,2.375 1.76562,6.60938 z m -3.03125,0.0781 q 0,-3.15625 -1.07812,-4.71875 -1.07813,-1.5625 -3.3125,-1.5625 -1.26563,0 -2.54688,0.54688 -1.28125,0.54687 -2.45312,1.4375 v 9.89062 q 1.25,0.5625 2.14062,0.76563 0.90625,0.20312 2.04688,0.20312 2.45312,0 3.82812,-1.65625 1.375,-1.65625 1.375,-4.90625 z"
         id="path101" />
      <path
         d="m 461.24219,241.28125 q 0,4.26562 -2.1875,6.73437 -2.1875,2.46875 -5.85938,2.46875 -3.70312,0 -5.89062,-2.46875 -2.17188,-2.46875 -2.17188,-6.73437 0,-4.26563 2.17188,-6.73438 2.1875,-2.48437 5.89062,-2.48437 3.67188,0 5.85938,2.48437 2.1875,2.46875 2.1875,6.73438 z m -3.03125,0 q 0,-3.39063 -1.32813,-5.03125 -1.32812,-1.65625 -3.6875,-1.65625 -2.39062,0 -3.71875,1.65625 -1.3125,1.64062 -1.3125,5.03125 0,3.28125 1.32813,4.98437 1.32812,1.6875 3.70312,1.6875 2.34375,0 3.67188,-1.67187 1.34375,-1.6875 1.34375,-5 z"
         id="path103" />
      <path
         d="m 480.38281,250 h -2.9375 v -9.9375 q 0,-1.20313 -0.14062,-2.25 -0.14063,-1.0625 -0.51563,-1.65625 -0.39062,-0.65625 -1.125,-0.96875 -0.73437,-0.32813 -1.90625,-0.32813 -1.20312,0 -2.51562,0.59375 -1.3125,0.59375 -2.51563,1.51563 V 250 h -2.9375 v -17.45313 h 2.9375 v 1.9375 q 1.375,-1.14062 2.84375,-1.78125 1.46875,-0.64062 3.01563,-0.64062 2.82812,0 4.3125,1.70312 1.48437,1.70313 1.48437,4.90625 z"
         id="path105" />
      <path
         d="m 511.88281,250 h -2.9375 v -9.9375 q 0,-1.20313 -0.14062,-2.25 -0.14063,-1.0625 -0.51563,-1.65625 -0.39062,-0.65625 -1.125,-0.96875 -0.73437,-0.32813 -1.90625,-0.32813 -1.20312,0 -2.51562,0.59375 -1.3125,0.59375 -2.51563,1.51563 V 250 h -2.9375 v -24.3125 h 2.9375 v 8.79687 q 1.375,-1.14062 2.84375,-1.78125 1.46875,-0.64062 3.01563,-0.64062 2.82812,0 4.3125,1.70312 1.48437,1.70313 1.48437,4.90625 z"
         id="path107" />
      <path
         d="m 532.14844,241.57812 h -12.85938 q 0,1.60938 0.48438,2.8125 0.48437,1.1875 1.32812,1.95313 0.8125,0.75 1.92188,1.125 1.125,0.375 2.46875,0.375 1.78125,0 3.57812,-0.70313 1.8125,-0.71875 2.57813,-1.40625 h 0.15625 v 3.20313 q -1.48438,0.625 -3.03125,1.04687 -1.54688,0.42188 -3.25,0.42188 -4.34375,0 -6.78125,-2.34375 -2.4375,-2.35938 -2.4375,-6.6875 0,-4.28125 2.32812,-6.79688 2.34375,-2.51562 6.15625,-2.51562 3.53125,0 5.4375,2.0625 1.92188,2.0625 1.92188,5.85937 z m -2.85938,-2.25 q -0.0156,-2.3125 -1.17187,-3.57812 -1.14063,-1.26563 -3.48438,-1.26563 -2.35937,0 -3.76562,1.39063 -1.39063,1.39062 -1.57813,3.45312 z"
         id="path109" />
      <path
         d="m 547.49219,235.75 h -0.15625 q -0.65625,-0.15625 -1.28125,-0.21875 -0.60938,-0.0781 -1.45313,-0.0781 -1.35937,0 -2.625,0.60938 -1.26562,0.59375 -2.4375,1.54687 V 250 h -2.9375 v -17.45313 h 2.9375 v 2.57813 q 1.75,-1.40625 3.07813,-1.98438 1.34375,-0.59375 2.73437,-0.59375 0.76563,0 1.10938,0.0469 0.34375,0.0312 1.03125,0.14062 z"
         id="path111" />
      <path
         d="m 570.89844,228.53125 h -0.15625 q -0.48438,-0.14063 -1.26563,-0.28125 -0.78125,-0.15625 -1.375,-0.15625 -1.89062,0 -2.75,0.84375 -0.84375,0.82812 -0.84375,3.01562 v 0.59375 h 5.29688 v 2.46875 h -5.20313 V 250 h -2.9375 v -14.98438 h -1.98437 v -2.46875 h 1.98437 v -0.57812 q 0,-3.10938 1.54688,-4.76563 1.54687,-1.67187 4.46875,-1.67187 0.98437,0 1.76562,0.0937 0.79688,0.0937 1.45313,0.21875 z"
         id="path113" />
      <path
         d="m 586.32031,250 h -2.92187 v -1.85938 q -0.39063,0.26563 -1.0625,0.75 -0.65625,0.46875 -1.28125,0.75 -0.73438,0.35938 -1.6875,0.59375 -0.95313,0.25 -2.23438,0.25 -2.35937,0 -4,-1.5625 -1.64062,-1.5625 -1.64062,-3.98437 0,-1.98438 0.84375,-3.20313 0.85937,-1.23437 2.4375,-1.9375 1.59375,-0.70312 3.82812,-0.95312 2.23438,-0.25 4.79688,-0.375 v -0.45313 q 0,-1 -0.35938,-1.65625 -0.34375,-0.65625 -1,-1.03125 -0.625,-0.35937 -1.5,-0.48437 -0.875,-0.125 -1.82812,-0.125 -1.15625,0 -2.57813,0.3125 -1.42187,0.29687 -2.9375,0.875 h -0.15625 v -2.98438 q 0.85938,-0.23437 2.48438,-0.51562 1.625,-0.28125 3.20312,-0.28125 1.84375,0 3.20313,0.3125 1.375,0.29687 2.375,1.03125 0.98437,0.71875 1.5,1.85937 0.51562,1.14063 0.51562,2.82813 z m -2.92187,-4.29688 v -4.85937 q -1.34375,0.0781 -3.17188,0.23437 -1.8125,0.15625 -2.875,0.45313 -1.26562,0.35937 -2.04687,1.125 -0.78125,0.75 -0.78125,2.07812 0,1.5 0.90625,2.26563 0.90625,0.75 2.76562,0.75 1.54688,0 2.82813,-0.59375 1.28125,-0.60938 2.375,-1.45313 z"
         id="path115" />
      <path
         d="m 604.88281,248.90625 q -1.46875,0.70312 -2.79687,1.09375 -1.3125,0.39062 -2.79688,0.39062 -1.89062,0 -3.46875,-0.54687 -1.57812,-0.5625 -2.70312,-1.6875 -1.14063,-1.125 -1.76563,-2.84375 -0.625,-1.71875 -0.625,-4.01563 0,-4.28125 2.34375,-6.71875 2.35938,-2.4375 6.21875,-2.4375 1.5,0 2.9375,0.42188 1.45313,0.42187 2.65625,1.03125 v 3.26562 h -0.15625 q -1.34375,-1.04687 -2.78125,-1.60937 -1.42187,-0.5625 -2.78125,-0.5625 -2.5,0 -3.95312,1.6875 -1.4375,1.67187 -1.4375,4.92187 0,3.15625 1.40625,4.85938 1.42187,1.6875 3.98437,1.6875 0.89063,0 1.8125,-0.23438 0.92188,-0.23437 1.65625,-0.60937 0.64063,-0.32813 1.20313,-0.6875 0.5625,-0.375 0.89062,-0.64063 h 0.15625 z"
         id="path117" />
      <path
         d="m 623.25781,241.57812 h -12.85937 q 0,1.60938 0.48437,2.8125 0.48438,1.1875 1.32813,1.95313 0.8125,0.75 1.92187,1.125 1.125,0.375 2.46875,0.375 1.78125,0 3.57813,-0.70313 1.8125,-0.71875 2.57812,-1.40625 h 0.15625 v 3.20313 q -1.48437,0.625 -3.03125,1.04687 -1.54687,0.42188 -3.25,0.42188 -4.34375,0 -6.78125,-2.34375 -2.4375,-2.35938 -2.4375,-6.6875 0,-4.28125 2.32813,-6.79688 2.34375,-2.51562 6.15625,-2.51562 3.53125,0 5.4375,2.0625 1.92187,2.0625 1.92187,5.85937 z m -2.85937,-2.25 q -0.0156,-2.3125 -1.17188,-3.57812 -1.14062,-1.26563 -3.48437,-1.26563 -2.35938,0 -3.76563,1.39063 -1.39062,1.39062 -1.57812,3.45312 z"
         id="path119" />
      <path
         d="m 632.50781,250 h -3.73437 v -4.45313 h 3.73437 z"
         id="path121" />
    </g>
    <g
       aria-label="Her beauty, a sunlit space,"
       id="text6">
      <path
         d="m 205.89062,300 h -3.09375 V 288.60937 H 191.1875 V 300 h -3.09375 v -23.26563 h 3.09375 v 9.125 h 11.60937 v -9.125 h 3.09375 z"
         id="path124" />
      <path
         d="m 226.51562,291.57812 h -12.85937 q 0,1.60938 0.48437,2.8125 0.48438,1.1875 1.32813,1.95313 0.8125,0.75 1.92187,1.125 1.125,0.375 2.46875,0.375 1.78125,0 3.57813,-0.70313 1.8125,-0.71875 2.57812,-1.40625 h 0.15625 v 3.20313 q -1.48437,0.625 -3.03125,1.04687 -1.54687,0.42188 -3.25,0.42188 -4.34375,0 -6.78125,-2.34375 -2.4375,-2.35938 -2.4375,-6.6875 0,-4.28125 2.32813,-6.79688 2.34375,-2.51562 6.15625,-2.51562 3.53125,0 5.4375,2.0625 1.92187,2.0625 1.92187,5.85937 z m -2.85937,-2.25 q -0.0156,-2.3125 -1.17188,-3.57812 -1.14062,-1.26563 -3.48437,-1.26563 -2.35938,0 -3.76563,1.39063 -1.39062,1.39062 -1.57812,3.45312 z"
         id="path126" />
      <path
         d="m 241.85937,285.75 h -0.15625 q -0.65625,-0.15625 -1.28125,-0.21875 -0.60937,-0.0781 -1.45312,-0.0781 -1.35938,0 -2.625,0.60938 -1.26563,0.59375 -2.4375,1.54687 V 300 h -2.9375 v -17.45313 h 2.9375 v 2.57813 q 1.75,-1.40625 3.07812,-1.98438 1.34375,-0.59375 2.73438,-0.59375 0.76562,0 1.10937,0.0469 0.34375,0.0312 1.03125,0.14062 z"
         id="path128" />
      <path
         d="m 271.23437,291.14062 q 0,2.1875 -0.625,3.9375 -0.60937,1.75 -1.65625,2.9375 -1.10937,1.23438 -2.4375,1.85938 -1.32812,0.60937 -2.92187,0.60937 -1.48438,0 -2.59375,-0.35937 -1.10938,-0.34375 -2.1875,-0.9375 L 258.625,300 h -2.75 v -24.3125 h 2.9375 v 8.6875 q 1.23437,-1.01563 2.625,-1.65625 1.39062,-0.65625 3.125,-0.65625 3.09375,0 4.875,2.375 1.79687,2.375 1.79687,6.70312 z m -3.03125,0.0781 q 0,-3.125 -1.03125,-4.73438 -1.03125,-1.625 -3.32812,-1.625 -1.28125,0 -2.59375,0.5625 -1.3125,0.54688 -2.4375,1.42188 v 10 q 1.25,0.5625 2.14062,0.78125 0.90625,0.21875 2.04688,0.21875 2.4375,0 3.8125,-1.59375 1.39062,-1.60938 1.39062,-5.03125 z"
         id="path130" />
      <path
         d="M 290.42187,291.57812 H 277.5625 q 0,1.60938 0.48437,2.8125 0.48438,1.1875 1.32813,1.95313 0.8125,0.75 1.92187,1.125 1.125,0.375 2.46875,0.375 1.78125,0 3.57813,-0.70313 1.8125,-0.71875 2.57812,-1.40625 h 0.15625 v 3.20313 q -1.48437,0.625 -3.03125,1.04687 -1.54687,0.42188 -3.25,0.42188 -4.34375,0 -6.78125,-2.34375 -2.4375,-2.35938 -2.4375,-6.6875 0,-4.28125 2.32813,-6.79688 2.34375,-2.51562 6.15625,-2.51562 3.53125,0 5.4375,2.0625 1.92187,2.0625 1.92187,5.85937 z m -2.85937,-2.25 q -0.0156,-2.3125 -1.17188,-3.57812 -1.14062,-1.26563 -3.48437,-1.26563 -2.35938,0 -3.76563,1.39063 -1.39062,1.39062 -1.57812,3.45312 z"
         id="path132" />
      <path
         d="m 308.4375,300 h -2.92188 v -1.85938 q -0.39062,0.26563 -1.0625,0.75 -0.65625,0.46875 -1.28125,0.75 -0.73437,0.35938 -1.6875,0.59375 -0.95312,0.25 -2.23437,0.25 -2.35938,0 -4,-1.5625 -1.64063,-1.5625 -1.64063,-3.98437 0,-1.98438 0.84375,-3.20313 0.85938,-1.23437 2.4375,-1.9375 1.59375,-0.70312 3.82813,-0.95312 2.23437,-0.25 4.79687,-0.375 v -0.45313 q 0,-1 -0.35937,-1.65625 -0.34375,-0.65625 -1,-1.03125 -0.625,-0.35937 -1.5,-0.48437 -0.875,-0.125 -1.82813,-0.125 -1.15625,0 -2.57812,0.3125 -1.42188,0.29687 -2.9375,0.875 h -0.15625 v -2.98438 q 0.85937,-0.23437 2.48437,-0.51562 1.625,-0.28125 3.20313,-0.28125 1.84375,0 3.20312,0.3125 1.375,0.29687 2.375,1.03125 0.98438,0.71875 1.5,1.85937 0.51563,1.14063 0.51563,2.82813 z m -2.92188,-4.29688 v -4.85937 q -1.34375,0.0781 -3.17187,0.23437 -1.8125,0.15625 -2.875,0.45313 -1.26563,0.35937 -2.04688,1.125 -0.78125,0.75 -0.78125,2.07812 0,1.5 0.90625,2.26563 0.90625,0.75 2.76563,0.75 1.54687,0 2.82812,-0.59375 1.28125,-0.60938 2.375,-1.45313 z"
         id="path134" />
      <path
         d="m 328.5625,300 h -2.9375 v -1.9375 q -1.48438,1.17187 -2.84375,1.79687 -1.35938,0.625 -3,0.625 -2.75,0 -4.28125,-1.67187 -1.53125,-1.6875 -1.53125,-4.9375 v -11.32813 h 2.9375 v 9.9375 q 0,1.32813 0.125,2.28125 0.125,0.9375 0.53125,1.60938 0.42187,0.6875 1.09375,1 0.67187,0.3125 1.95312,0.3125 1.14063,0 2.48438,-0.59375 1.35937,-0.59375 2.53125,-1.51563 v -13.03125 h 2.9375 z"
         id="path136" />
      <path
         d="m 343.40625,299.84375 q -0.82813,0.21875 -1.8125,0.35937 -0.96875,0.14063 -1.73438,0.14063 -2.67187,0 -4.0625,-1.4375 -1.39062,-1.4375 -1.39062,-4.60938 v -9.28125 h -1.98438 v -2.46875 h 1.98438 v -5.01562 h 2.9375 v 5.01562 h 6.0625 v 2.46875 h -6.0625 v 7.95313 q 0,1.375 0.0625,2.15625 0.0625,0.76562 0.4375,1.4375 0.34375,0.625 0.9375,0.92187 0.60937,0.28125 1.84375,0.28125 0.71875,0 1.5,-0.20312 0.78125,-0.21875 1.125,-0.35938 h 0.15625 z"
         id="path138" />
      <path
         d="m 361.89062,282.54687 -10.1875,23.89063 h -3.14062 l 3.25,-7.28125 -6.95313,-16.60938 h 3.1875 l 5.35938,12.9375 5.40625,-12.9375 z"
         id="path140" />
      <path
         d="m 368.85937,295.54687 -4.40625,10.23438 h -2.28125 l 2.71875,-10.23438 z"
         id="path142" />
      <path
         d="m 399.21875,300 h -2.92188 v -1.85938 q -0.39062,0.26563 -1.0625,0.75 -0.65625,0.46875 -1.28125,0.75 -0.73437,0.35938 -1.6875,0.59375 -0.95312,0.25 -2.23437,0.25 -2.35938,0 -4,-1.5625 -1.64063,-1.5625 -1.64063,-3.98437 0,-1.98438 0.84375,-3.20313 0.85938,-1.23437 2.4375,-1.9375 1.59375,-0.70312 3.82813,-0.95312 2.23437,-0.25 4.79687,-0.375 v -0.45313 q 0,-1 -0.35937,-1.65625 -0.34375,-0.65625 -1,-1.03125 -0.625,-0.35937 -1.5,-0.48437 -0.875,-0.125 -1.82813,-0.125 -1.15625,0 -2.57812,0.3125 -1.42188,0.29687 -2.9375,0.875 h -0.15625 v -2.98438 q 0.85937,-0.23437 2.48437,-0.51562 1.625,-0.28125 3.20313,-0.28125 1.84375,0 3.20312,0.3125 1.375,0.29687 2.375,1.03125 0.98438,0.71875 1.5,1.85937 0.51563,1.14063 0.51563,2.82813 z m -2.92188,-4.29688 v -4.85937 q -1.34375,0.0781 -3.17187,0.23437 -1.8125,0.15625 -2.875,0.45313 -1.26563,0.35937 -2.04688,1.125 -0.78125,0.75 -0.78125,2.07812 0,1.5 0.90625,2.26563 0.90625,0.75 2.76563,0.75 1.54687,0 2.82812,-0.59375 1.28125,-0.60938 2.375,-1.45313 z"
         id="path144" />
      <path
         d="m 428.59375,294.96875 q 0,2.39062 -1.98438,3.92187 -1.96875,1.53125 -5.39062,1.53125 -1.9375,0 -3.5625,-0.45312 -1.60938,-0.46875 -2.70313,-1.01563 v -3.29687 h 0.15625 q 1.39063,1.04687 3.09375,1.67187 1.70313,0.60938 3.26563,0.60938 1.9375,0 3.03125,-0.625 1.09375,-0.625 1.09375,-1.96875 0,-1.03125 -0.59375,-1.5625 -0.59375,-0.53125 -2.28125,-0.90625 -0.625,-0.14063 -1.64063,-0.32813 -1,-0.1875 -1.82812,-0.40625 -2.29688,-0.60937 -3.26563,-1.78125 -0.95312,-1.1875 -0.95312,-2.90625 0,-1.07812 0.4375,-2.03125 0.45312,-0.95312 1.35937,-1.70312 0.875,-0.73438 2.21875,-1.15625 1.35938,-0.4375 3.03125,-0.4375 1.5625,0 3.15625,0.39062 1.60938,0.375 2.67188,0.92188 v 3.14062 H 427.75 q -1.125,-0.82812 -2.73438,-1.39062 -1.60937,-0.57813 -3.15625,-0.57813 -1.60937,0 -2.71875,0.625 -1.10937,0.60938 -1.10937,1.82813 0,1.07812 0.67187,1.625 0.65625,0.54687 2.125,0.89062 0.8125,0.1875 1.8125,0.375 1.01563,0.1875 1.6875,0.34375 2.04688,0.46875 3.15625,1.60938 1.10938,1.15625 1.10938,3.0625 z"
         id="path146" />
      <path
         d="m 447.26562,300 h -2.9375 v -1.9375 q -1.48437,1.17187 -2.84375,1.79687 -1.35937,0.625 -3,0.625 -2.75,0 -4.28125,-1.67187 -1.53125,-1.6875 -1.53125,-4.9375 v -11.32813 h 2.9375 v 9.9375 q 0,1.32813 0.125,2.28125 0.125,0.9375 0.53125,1.60938 0.42188,0.6875 1.09375,1 0.67188,0.3125 1.95313,0.3125 1.14062,0 2.48437,-0.59375 1.35938,-0.59375 2.53125,-1.51563 v -13.03125 h 2.9375 z"
         id="path148" />
      <path
         d="m 467.64062,300 h -2.9375 v -9.9375 q 0,-1.20313 -0.14062,-2.25 -0.14063,-1.0625 -0.51563,-1.65625 -0.39062,-0.65625 -1.125,-0.96875 -0.73437,-0.32813 -1.90625,-0.32813 -1.20312,0 -2.51562,0.59375 -1.3125,0.59375 -2.51563,1.51563 V 300 h -2.9375 v -17.45313 h 2.9375 v 1.9375 q 1.375,-1.14062 2.84375,-1.78125 1.46875,-0.64062 3.01563,-0.64062 2.82812,0 4.3125,1.70312 1.48437,1.70313 1.48437,4.90625 z"
         id="path150" />
      <path
         d="m 476.26562,300 h -2.9375 v -24.3125 h 2.9375 z"
         id="path152" />
      <path
         d="m 485.23437,279.625 h -3.3125 v -3.04688 h 3.3125 z M 485.04687,300 h -2.9375 v -17.45313 h 2.9375 z"
         id="path154" />
      <path
         d="m 499.92187,299.84375 q -0.82812,0.21875 -1.8125,0.35937 -0.96875,0.14063 -1.73437,0.14063 -2.67188,0 -4.0625,-1.4375 -1.39063,-1.4375 -1.39063,-4.60938 v -9.28125 h -1.98437 v -2.46875 h 1.98437 v -5.01562 h 2.9375 v 5.01562 h 6.0625 v 2.46875 h -6.0625 v 7.95313 q 0,1.375 0.0625,2.15625 0.0625,0.76562 0.4375,1.4375 0.34375,0.625 0.9375,0.92187 0.60938,0.28125 1.84375,0.28125 0.71875,0 1.5,-0.20312 0.78125,-0.21875 1.125,-0.35938 h 0.15625 z"
         id="path156" />
      <path
         d="m 527.1875,294.96875 q 0,2.39062 -1.98438,3.92187 -1.96875,1.53125 -5.39062,1.53125 -1.9375,0 -3.5625,-0.45312 -1.60938,-0.46875 -2.70313,-1.01563 v -3.29687 h 0.15625 q 1.39063,1.04687 3.09375,1.67187 1.70313,0.60938 3.26563,0.60938 1.9375,0 3.03125,-0.625 1.09375,-0.625 1.09375,-1.96875 0,-1.03125 -0.59375,-1.5625 Q 523,293.25 521.3125,292.875 q -0.625,-0.14063 -1.64063,-0.32813 -1,-0.1875 -1.82812,-0.40625 -2.29688,-0.60937 -3.26563,-1.78125 -0.95312,-1.1875 -0.95312,-2.90625 0,-1.07812 0.4375,-2.03125 0.45312,-0.95312 1.35937,-1.70312 0.875,-0.73438 2.21875,-1.15625 1.35938,-0.4375 3.03125,-0.4375 1.5625,0 3.15625,0.39062 1.60938,0.375 2.67188,0.92188 v 3.14062 h -0.15625 q -1.125,-0.82812 -2.73438,-1.39062 -1.60937,-0.57813 -3.15625,-0.57813 -1.60937,0 -2.71875,0.625 -1.10937,0.60938 -1.10937,1.82813 0,1.07812 0.67187,1.625 0.65625,0.54687 2.125,0.89062 0.8125,0.1875 1.8125,0.375 1.01563,0.1875 1.6875,0.34375 2.04688,0.46875 3.15625,1.60938 1.10938,1.15625 1.10938,3.0625 z"
         id="path158" />
      <path
         d="m 546.75,291.0625 q 0,2.125 -0.60938,3.89062 -0.60937,1.75 -1.71875,2.96875 -1.03125,1.15625 -2.4375,1.79688 -1.39062,0.625 -2.95312,0.625 -1.35938,0 -2.46875,-0.29688 -1.09375,-0.29687 -2.23438,-0.92187 v 7.3125 h -2.9375 v -23.89063 h 2.9375 v 1.82813 q 1.17188,-0.98438 2.625,-1.64063 1.46875,-0.67187 3.125,-0.67187 3.15625,0 4.90625,2.39062 1.76563,2.375 1.76563,6.60938 z m -3.03125,0.0781 q 0,-3.15625 -1.07813,-4.71875 -1.07812,-1.5625 -3.3125,-1.5625 -1.26562,0 -2.54687,0.54688 -1.28125,0.54687 -2.45313,1.4375 v 9.89062 q 1.25,0.5625 2.14063,0.76563 0.90625,0.20312 2.04687,0.20312 2.45313,0 3.82813,-1.65625 1.375,-1.65625 1.375,-4.90625 z"
         id="path160" />
      <path
         d="m 564.89062,300 h -2.92187 v -1.85938 q -0.39063,0.26563 -1.0625,0.75 -0.65625,0.46875 -1.28125,0.75 -0.73438,0.35938 -1.6875,0.59375 -0.95313,0.25 -2.23438,0.25 -2.35937,0 -4,-1.5625 -1.64062,-1.5625 -1.64062,-3.98437 0,-1.98438 0.84375,-3.20313 0.85937,-1.23437 2.4375,-1.9375 1.59375,-0.70312 3.82812,-0.95312 2.23438,-0.25 4.79688,-0.375 v -0.45313 q 0,-1 -0.35938,-1.65625 -0.34375,-0.65625 -1,-1.03125 -0.625,-0.35937 -1.5,-0.48437 -0.875,-0.125 -1.82812,-0.125 -1.15625,0 -2.57813,0.3125 -1.42187,0.29687 -2.9375,0.875 h -0.15625 v -2.98438 q 0.85938,-0.23437 2.48438,-0.51562 1.625,-0.28125 3.20312,-0.28125 1.84375,0 3.20313,0.3125 1.375,0.29687 2.375,1.03125 0.98437,0.71875 1.5,1.85937 0.51562,1.14063 0.51562,2.82813 z m -2.92187,-4.29688 v -4.85937 q -1.34375,0.0781 -3.17188,0.23437 -1.8125,0.15625 -2.875,0.45313 -1.26562,0.35937 -2.04687,1.125 -0.78125,0.75 -0.78125,2.07812 0,1.5 0.90625,2.26563 0.90625,0.75 2.76562,0.75 1.54688,0 2.82813,-0.59375 1.28125,-0.60938 2.375,-1.45313 z"
         id="path162" />
      <path
         d="m 583.45312,298.90625 q -1.46875,0.70312 -2.79687,1.09375 -1.3125,0.39062 -2.79688,0.39062 -1.89062,0 -3.46875,-0.54687 -1.57812,-0.5625 -2.70312,-1.6875 -1.14063,-1.125 -1.76563,-2.84375 -0.625,-1.71875 -0.625,-4.01563 0,-4.28125 2.34375,-6.71875 2.35938,-2.4375 6.21875,-2.4375 1.5,0 2.9375,0.42188 1.45313,0.42187 2.65625,1.03125 v 3.26562 h -0.15625 q -1.34375,-1.04687 -2.78125,-1.60937 -1.42187,-0.5625 -2.78125,-0.5625 -2.5,0 -3.95312,1.6875 -1.4375,1.67187 -1.4375,4.92187 0,3.15625 1.40625,4.85938 1.42187,1.6875 3.98437,1.6875 0.89063,0 1.8125,-0.23438 0.92188,-0.23437 1.65625,-0.60937 0.64063,-0.32813 1.20313,-0.6875 0.5625,-0.375 0.89062,-0.64063 h 0.15625 z"
         id="path164" />
      <path
         d="m 601.82812,291.57812 h -12.85937 q 0,1.60938 0.48437,2.8125 0.48438,1.1875 1.32813,1.95313 0.8125,0.75 1.92187,1.125 1.125,0.375 2.46875,0.375 1.78125,0 3.57813,-0.70313 1.8125,-0.71875 2.57812,-1.40625 h 0.15625 v 3.20313 q -1.48437,0.625 -3.03125,1.04687 -1.54687,0.42188 -3.25,0.42188 -4.34375,0 -6.78125,-2.34375 -2.4375,-2.35938 -2.4375,-6.6875 0,-4.28125 2.32813,-6.79688 2.34375,-2.51562 6.15625,-2.51562 3.53125,0 5.4375,2.0625 1.92187,2.0625 1.92187,5.85937 z m -2.85937,-2.25 q -0.0156,-2.3125 -1.17188,-3.57812 -1.14062,-1.26563 -3.48437,-1.26563 -2.35938,0 -3.76563,1.39063 -1.39062,1.39062 -1.57812,3.45312 z"
         id="path166" />
      <path
         d="m 612.375,295.54687 -4.40625,10.23438 h -2.28125 l 2.71875,-10.23438 z"
         id="path168" />
    </g>
    <g
       aria-label="A timeless, cherished trace."
       id="text8">
      <path
         d="m 198.13281,350 h -3.29687 l -2.28125,-6.48438 h -10.0625 L 180.21094,350 h -3.14063 l 8.46875,-23.26563 h 4.125 z m -6.53125,-9.14063 -4.07812,-11.42187 -4.09375,11.42187 z"
         id="path171" />
      <path
         d="m 221.74219,349.84375 q -0.82813,0.21875 -1.8125,0.35937 -0.96875,0.14063 -1.73438,0.14063 -2.67187,0 -4.0625,-1.4375 -1.39062,-1.4375 -1.39062,-4.60938 v -9.28125 h -1.98438 v -2.46875 h 1.98438 v -5.01562 h 2.9375 v 5.01562 h 6.0625 v 2.46875 h -6.0625 v 7.95313 q 0,1.375 0.0625,2.15625 0.0625,0.76562 0.4375,1.4375 0.34375,0.625 0.9375,0.92187 0.60937,0.28125 1.84375,0.28125 0.71875,0 1.5,-0.20312 0.78125,-0.21875 1.125,-0.35938 h 0.15625 z"
         id="path173" />
      <path
         d="m 228.44531,329.625 h -3.3125 v -3.04688 h 3.3125 z M 228.25781,350 h -2.9375 v -17.45313 h 2.9375 z"
         id="path175" />
      <path
         d="m 259.53906,350 h -2.9375 v -9.9375 q 0,-1.125 -0.10937,-2.17188 -0.0937,-1.04687 -0.42188,-1.67187 -0.35937,-0.67188 -1.03125,-1.01563 -0.67187,-0.34375 -1.9375,-0.34375 -1.23437,0 -2.46875,0.625 -1.23437,0.60938 -2.46875,1.5625 0.0469,0.35938 0.0781,0.84375 0.0312,0.46875 0.0312,0.9375 V 350 h -2.9375 v -9.9375 q 0,-1.15625 -0.10938,-2.1875 -0.0937,-1.04688 -0.42187,-1.67188 -0.35938,-0.67187 -1.03125,-1 -0.67188,-0.34375 -1.9375,-0.34375 -1.20313,0 -2.42188,0.59375 -1.20312,0.59375 -2.40625,1.51563 V 350 h -2.9375 v -17.45313 h 2.9375 v 1.9375 q 1.375,-1.14062 2.73438,-1.78125 1.375,-0.64062 2.92187,-0.64062 1.78125,0 3.01563,0.75 1.25,0.75 1.85937,2.07812 1.78125,-1.5 3.25,-2.15625 1.46875,-0.67187 3.14063,-0.67187 2.875,0 4.23437,1.75 1.375,1.73437 1.375,4.85937 z"
         id="path177" />
      <path
         d="m 279.80469,341.57812 h -12.85938 q 0,1.60938 0.48438,2.8125 0.48437,1.1875 1.32812,1.95313 0.8125,0.75 1.92188,1.125 1.125,0.375 2.46875,0.375 1.78125,0 3.57812,-0.70313 1.8125,-0.71875 2.57813,-1.40625 h 0.15625 v 3.20313 q -1.48438,0.625 -3.03125,1.04687 -1.54688,0.42188 -3.25,0.42188 -4.34375,0 -6.78125,-2.34375 -2.4375,-2.35938 -2.4375,-6.6875 0,-4.28125 2.32812,-6.79688 2.34375,-2.51562 6.15625,-2.51562 3.53125,0 5.4375,2.0625 1.92188,2.0625 1.92188,5.85937 z m -2.85938,-2.25 q -0.0156,-2.3125 -1.17187,-3.57812 -1.14063,-1.26563 -3.48438,-1.26563 -2.35937,0 -3.76562,1.39063 -1.39063,1.39062 -1.57813,3.45312 z"
         id="path179" />
      <path
         d="m 287.22656,350 h -2.9375 v -24.3125 h 2.9375 z"
         id="path181" />
      <path
         d="m 307.64844,341.57812 h -12.85938 q 0,1.60938 0.48438,2.8125 0.48437,1.1875 1.32812,1.95313 0.8125,0.75 1.92188,1.125 1.125,0.375 2.46875,0.375 1.78125,0 3.57812,-0.70313 1.8125,-0.71875 2.57813,-1.40625 h 0.15625 v 3.20313 q -1.48438,0.625 -3.03125,1.04687 -1.54688,0.42188 -3.25,0.42188 -4.34375,0 -6.78125,-2.34375 -2.4375,-2.35938 -2.4375,-6.6875 0,-4.28125 2.32812,-6.79688 2.34375,-2.51562 6.15625,-2.51562 3.53125,0 5.4375,2.0625 1.92188,2.0625 1.92188,5.85937 z m -2.85938,-2.25 q -0.0156,-2.3125 -1.17187,-3.57812 -1.14063,-1.26563 -3.48438,-1.26563 -2.35937,0 -3.76562,1.39063 -1.39063,1.39062 -1.57813,3.45312 z"
         id="path183" />
      <path
         d="m 324.57031,344.96875 q 0,2.39062 -1.98437,3.92187 -1.96875,1.53125 -5.39063,1.53125 -1.9375,0 -3.5625,-0.45312 -1.60937,-0.46875 -2.70312,-1.01563 v -3.29687 h 0.15625 q 1.39062,1.04687 3.09375,1.67187 1.70312,0.60938 3.26562,0.60938 1.9375,0 3.03125,-0.625 1.09375,-0.625 1.09375,-1.96875 0,-1.03125 -0.59375,-1.5625 -0.59375,-0.53125 -2.28125,-0.90625 -0.625,-0.14063 -1.64062,-0.32813 -1,-0.1875 -1.82813,-0.40625 -2.29687,-0.60937 -3.26562,-1.78125 -0.95313,-1.1875 -0.95313,-2.90625 0,-1.07812 0.4375,-2.03125 0.45313,-0.95312 1.35938,-1.70312 0.875,-0.73438 2.21875,-1.15625 1.35937,-0.4375 3.03125,-0.4375 1.5625,0 3.15625,0.39062 1.60937,0.375 2.67187,0.92188 v 3.14062 h -0.15625 q -1.125,-0.82812 -2.73437,-1.39062 -1.60938,-0.57813 -3.15625,-0.57813 -1.60938,0 -2.71875,0.625 -1.10938,0.60938 -1.10938,1.82813 0,1.07812 0.67188,1.625 0.65625,0.54687 2.125,0.89062 0.8125,0.1875 1.8125,0.375 1.01562,0.1875 1.6875,0.34375 2.04687,0.46875 3.15625,1.60938 1.10937,1.15625 1.10937,3.0625 z"
         id="path185" />
      <path
         d="m 341.24219,344.96875 q 0,2.39062 -1.98438,3.92187 -1.96875,1.53125 -5.39062,1.53125 -1.9375,0 -3.5625,-0.45312 -1.60938,-0.46875 -2.70313,-1.01563 v -3.29687 h 0.15625 q 1.39063,1.04687 3.09375,1.67187 1.70313,0.60938 3.26563,0.60938 1.9375,0 3.03125,-0.625 1.09375,-0.625 1.09375,-1.96875 0,-1.03125 -0.59375,-1.5625 -0.59375,-0.53125 -2.28125,-0.90625 -0.625,-0.14063 -1.64063,-0.32813 -1,-0.1875 -1.82812,-0.40625 -2.29688,-0.60937 -3.26563,-1.78125 -0.95312,-1.1875 -0.95312,-2.90625 0,-1.07812 0.4375,-2.03125 0.45312,-0.95312 1.35937,-1.70312 0.875,-0.73438 2.21875,-1.15625 1.35938,-0.4375 3.03125,-0.4375 1.5625,0 3.15625,0.39062 1.60938,0.375 2.67188,0.92188 v 3.14062 h -0.15625 q -1.125,-0.82812 -2.73438,-1.39062 -1.60937,-0.57813 -3.15625,-0.57813 -1.60937,0 -2.71875,0.625 -1.10937,0.60938 -1.10937,1.82813 0,1.07812 0.67187,1.625 0.65625,0.54687 2.125,0.89062 0.8125,0.1875 1.8125,0.375 1.01563,0.1875 1.6875,0.34375 2.04688,0.46875 3.15625,1.60938 1.10938,1.15625 1.10938,3.0625 z"
         id="path187" />
      <path
         d="m 351.53906,345.54687 -4.40625,10.23438 h -2.28125 l 2.71875,-10.23438 z"
         id="path189" />
      <path
         d="m 381.24219,348.90625 q -1.46875,0.70312 -2.79688,1.09375 -1.3125,0.39062 -2.79687,0.39062 -1.89063,0 -3.46875,-0.54687 -1.57813,-0.5625 -2.70313,-1.6875 -1.14062,-1.125 -1.76562,-2.84375 -0.625,-1.71875 -0.625,-4.01563 0,-4.28125 2.34375,-6.71875 2.35937,-2.4375 6.21875,-2.4375 1.5,0 2.9375,0.42188 1.45312,0.42187 2.65625,1.03125 v 3.26562 h -0.15625 q -1.34375,-1.04687 -2.78125,-1.60937 -1.42188,-0.5625 -2.78125,-0.5625 -2.5,0 -3.95313,1.6875 -1.4375,1.67187 -1.4375,4.92187 0,3.15625 1.40625,4.85938 1.42188,1.6875 3.98438,1.6875 0.89062,0 1.8125,-0.23438 0.92187,-0.23437 1.65625,-0.60937 0.64062,-0.32813 1.20312,-0.6875 0.5625,-0.375 0.89063,-0.64063 h 0.15625 z"
         id="path191" />
      <path
         d="m 399.60156,350 h -2.9375 v -9.9375 q 0,-1.20313 -0.14062,-2.25 -0.14063,-1.0625 -0.51563,-1.65625 -0.39062,-0.65625 -1.125,-0.96875 -0.73437,-0.32813 -1.90625,-0.32813 -1.20312,0 -2.51562,0.59375 -1.3125,0.59375 -2.51563,1.51563 V 350 h -2.9375 v -24.3125 h 2.9375 v 8.79687 q 1.375,-1.14062 2.84375,-1.78125 1.46875,-0.64062 3.01563,-0.64062 2.82812,0 4.3125,1.70312 1.48437,1.70313 1.48437,4.90625 z"
         id="path193" />
      <path
         d="m 419.86719,341.57812 h -12.85938 q 0,1.60938 0.48438,2.8125 0.48437,1.1875 1.32812,1.95313 0.8125,0.75 1.92188,1.125 1.125,0.375 2.46875,0.375 1.78125,0 3.57812,-0.70313 1.8125,-0.71875 2.57813,-1.40625 h 0.15625 v 3.20313 q -1.48438,0.625 -3.03125,1.04687 -1.54688,0.42188 -3.25,0.42188 -4.34375,0 -6.78125,-2.34375 -2.4375,-2.35938 -2.4375,-6.6875 0,-4.28125 2.32812,-6.79688 2.34375,-2.51562 6.15625,-2.51562 3.53125,0 5.4375,2.0625 1.92188,2.0625 1.92188,5.85937 z m -2.85938,-2.25 q -0.0156,-2.3125 -1.17187,-3.57812 -1.14063,-1.26563 -3.48438,-1.26563 -2.35937,0 -3.76562,1.39063 -1.39063,1.39062 -1.57813,3.45312 z"
         id="path195" />
      <path
         d="m 435.21094,335.75 h -0.15625 q -0.65625,-0.15625 -1.28125,-0.21875 -0.60938,-0.0781 -1.45313,-0.0781 -1.35937,0 -2.625,0.60938 -1.26562,0.59375 -2.4375,1.54687 V 350 h -2.9375 v -17.45313 h 2.9375 v 2.57813 q 1.75,-1.40625 3.07813,-1.98438 1.34375,-0.59375 2.73437,-0.59375 0.76563,0 1.10938,0.0469 0.34375,0.0312 1.03125,0.14062 z"
         id="path197" />
      <path
         d="m 441.13281,329.625 h -3.3125 v -3.04688 h 3.3125 z M 440.94531,350 h -2.9375 v -17.45313 h 2.9375 z"
         id="path199" />
      <path
         d="m 459.22656,344.96875 q 0,2.39062 -1.98437,3.92187 -1.96875,1.53125 -5.39063,1.53125 -1.9375,0 -3.5625,-0.45312 -1.60937,-0.46875 -2.70312,-1.01563 v -3.29687 h 0.15625 q 1.39062,1.04687 3.09375,1.67187 1.70312,0.60938 3.26562,0.60938 1.9375,0 3.03125,-0.625 1.09375,-0.625 1.09375,-1.96875 0,-1.03125 -0.59375,-1.5625 -0.59375,-0.53125 -2.28125,-0.90625 -0.625,-0.14063 -1.64062,-0.32813 -1,-0.1875 -1.82813,-0.40625 -2.29687,-0.60937 -3.26562,-1.78125 -0.95313,-1.1875 -0.95313,-2.90625 0,-1.07812 0.4375,-2.03125 0.45313,-0.95312 1.35938,-1.70312 0.875,-0.73438 2.21875,-1.15625 1.35937,-0.4375 3.03125,-0.4375 1.5625,0 3.15625,0.39062 1.60937,0.375 2.67187,0.92188 v 3.14062 h -0.15625 q -1.125,-0.82812 -2.73437,-1.39062 -1.60938,-0.57813 -3.15625,-0.57813 -1.60938,0 -2.71875,0.625 -1.10938,0.60938 -1.10938,1.82813 0,1.07812 0.67188,1.625 0.65625,0.54687 2.125,0.89062 0.8125,0.1875 1.8125,0.375 1.01562,0.1875 1.6875,0.34375 2.04687,0.46875 3.15625,1.60938 1.10937,1.15625 1.10937,3.0625 z"
         id="path201" />
      <path
         d="m 478.02344,350 h -2.9375 v -9.9375 q 0,-1.20313 -0.14063,-2.25 -0.14062,-1.0625 -0.51562,-1.65625 -0.39063,-0.65625 -1.125,-0.96875 -0.73438,-0.32813 -1.90625,-0.32813 -1.20313,0 -2.51563,0.59375 -1.3125,0.59375 -2.51562,1.51563 V 350 h -2.9375 v -24.3125 h 2.9375 v 8.79687 q 1.375,-1.14062 2.84375,-1.78125 1.46875,-0.64062 3.01562,-0.64062 2.82813,0 4.3125,1.70312 1.48438,1.70313 1.48438,4.90625 z"
         id="path203" />
      <path
         d="m 498.28906,341.57812 h -12.85937 q 0,1.60938 0.48437,2.8125 0.48438,1.1875 1.32813,1.95313 0.8125,0.75 1.92187,1.125 1.125,0.375 2.46875,0.375 1.78125,0 3.57813,-0.70313 1.8125,-0.71875 2.57812,-1.40625 h 0.15625 v 3.20313 q -1.48437,0.625 -3.03125,1.04687 -1.54687,0.42188 -3.25,0.42188 -4.34375,0 -6.78125,-2.34375 -2.4375,-2.35938 -2.4375,-6.6875 0,-4.28125 2.32813,-6.79688 2.34375,-2.51562 6.15625,-2.51562 3.53125,0 5.4375,2.0625 1.92187,2.0625 1.92187,5.85937 z m -2.85937,-2.25 q -0.0156,-2.3125 -1.17188,-3.57812 -1.14062,-1.26563 -3.48437,-1.26563 -2.35938,0 -3.76563,1.39063 -1.39062,1.39062 -1.57812,3.45312 z"
         id="path205" />
      <path
         d="m 516.89844,350 h -2.9375 v -1.82813 q -1.26563,1.09375 -2.64063,1.70313 -1.375,0.60937 -2.98437,0.60937 -3.125,0 -4.96875,-2.40625 -1.82813,-2.40625 -1.82813,-6.67187 0,-2.21875 0.625,-3.95313 0.64063,-1.73437 1.71875,-2.95312 1.0625,-1.1875 2.46875,-1.8125 1.42188,-0.625 2.9375,-0.625 1.375,0 2.4375,0.29687 1.0625,0.28125 2.23438,0.89063 v -7.5625 h 2.9375 z m -2.9375,-4.29688 V 335.6875 q -1.1875,-0.53125 -2.125,-0.73438 -0.9375,-0.20312 -2.04688,-0.20312 -2.46875,0 -3.84375,1.71875 -1.375,1.71875 -1.375,4.875 0,3.10937 1.0625,4.73437 1.0625,1.60938 3.40625,1.60938 1.25,0 2.53125,-0.54688 1.28125,-0.5625 2.39063,-1.4375 z"
         id="path207" />
      <path
         d="m 542.99219,349.84375 q -0.82813,0.21875 -1.8125,0.35937 -0.96875,0.14063 -1.73438,0.14063 -2.67187,0 -4.0625,-1.4375 -1.39062,-1.4375 -1.39062,-4.60938 v -9.28125 h -1.98438 v -2.46875 h 1.98438 v -5.01562 h 2.9375 v 5.01562 h 6.0625 v 2.46875 h -6.0625 v 7.95313 q 0,1.375 0.0625,2.15625 0.0625,0.76562 0.4375,1.4375 0.34375,0.625 0.9375,0.92187 0.60937,0.28125 1.84375,0.28125 0.71875,0 1.5,-0.20312 0.78125,-0.21875 1.125,-0.35938 h 0.15625 z"
         id="path209" />
      <path
         d="m 557.42969,335.75 h -0.15625 q -0.65625,-0.15625 -1.28125,-0.21875 -0.60938,-0.0781 -1.45313,-0.0781 -1.35937,0 -2.625,0.60938 -1.26562,0.59375 -2.4375,1.54687 V 350 h -2.9375 v -17.45313 h 2.9375 v 2.57813 q 1.75,-1.40625 3.07813,-1.98438 1.34375,-0.59375 2.73437,-0.59375 0.76563,0 1.10938,0.0469 0.34375,0.0312 1.03125,0.14062 z"
         id="path211" />
      <path
         d="m 573.19531,350 h -2.92187 v -1.85938 q -0.39063,0.26563 -1.0625,0.75 -0.65625,0.46875 -1.28125,0.75 -0.73438,0.35938 -1.6875,0.59375 -0.95313,0.25 -2.23438,0.25 -2.35937,0 -4,-1.5625 -1.64062,-1.5625 -1.64062,-3.98437 0,-1.98438 0.84375,-3.20313 0.85937,-1.23437 2.4375,-1.9375 1.59375,-0.70312 3.82812,-0.95312 2.23438,-0.25 4.79688,-0.375 v -0.45313 q 0,-1 -0.35938,-1.65625 -0.34375,-0.65625 -1,-1.03125 -0.625,-0.35937 -1.5,-0.48437 -0.875,-0.125 -1.82812,-0.125 -1.15625,0 -2.57813,0.3125 -1.42187,0.29687 -2.9375,0.875 h -0.15625 v -2.98438 q 0.85938,-0.23437 2.48438,-0.51562 1.625,-0.28125 3.20312,-0.28125 1.84375,0 3.20313,0.3125 1.375,0.29687 2.375,1.03125 0.98437,0.71875 1.5,1.85937 0.51562,1.14063 0.51562,2.82813 z m -2.92187,-4.29688 v -4.85937 q -1.34375,0.0781 -3.17188,0.23437 -1.8125,0.15625 -2.875,0.45313 -1.26562,0.35937 -2.04687,1.125 -0.78125,0.75 -0.78125,2.07812 0,1.5 0.90625,2.26563 0.90625,0.75 2.76562,0.75 1.54688,0 2.82813,-0.59375 1.28125,-0.60938 2.375,-1.45313 z"
         id="path213" />
      <path
         d="m 591.75781,348.90625 q -1.46875,0.70312 -2.79687,1.09375 -1.3125,0.39062 -2.79688,0.39062 -1.89062,0 -3.46875,-0.54687 -1.57812,-0.5625 -2.70312,-1.6875 -1.14063,-1.125 -1.76563,-2.84375 -0.625,-1.71875 -0.625,-4.01563 0,-4.28125 2.34375,-6.71875 2.35938,-2.4375 6.21875,-2.4375 1.5,0 2.9375,0.42188 1.45313,0.42187 2.65625,1.03125 v 3.26562 h -0.15625 q -1.34375,-1.04687 -2.78125,-1.60937 -1.42187,-0.5625 -2.78125,-0.5625 -2.5,0 -3.95312,1.6875 -1.4375,1.67187 -1.4375,4.92187 0,3.15625 1.40625,4.85938 1.42187,1.6875 3.98437,1.6875 0.89063,0 1.8125,-0.23438 0.92188,-0.23437 1.65625,-0.60937 0.64063,-0.32813 1.20313,-0.6875 0.5625,-0.375 0.89062,-0.64063 h 0.15625 z"
         id="path215" />
      <path
         d="m 610.13281,341.57812 h -12.85937 q 0,1.60938 0.48437,2.8125 0.48438,1.1875 1.32813,1.95313 0.8125,0.75 1.92187,1.125 1.125,0.375 2.46875,0.375 1.78125,0 3.57813,-0.70313 1.8125,-0.71875 2.57812,-1.40625 h 0.15625 v 3.20313 q -1.48437,0.625 -3.03125,1.04687 -1.54687,0.42188 -3.25,0.42188 -4.34375,0 -6.78125,-2.34375 -2.4375,-2.35938 -2.4375,-6.6875 0,-4.28125 2.32813,-6.79688 2.34375,-2.51562 6.15625,-2.51562 3.53125,0 5.4375,2.0625 1.92187,2.0625 1.92187,5.85937 z m -2.85937,-2.25 q -0.0156,-2.3125 -1.17188,-3.57812 -1.14062,-1.26563 -3.48437,-1.26563 -2.35938,0 -3.76563,1.39063 -1.39062,1.39062 -1.57812,3.45312 z"
         id="path217" />
      <path
         d="m 619.38281,350 h -3.73437 v -4.45313 h 3.73437 z"
         id="path219" />
    </g>
  </g>
</svg>
