<?xml version="1.0" encoding="UTF-8" standalone="no"?>
<svg
   width="800"
   height="600"
   version="1.1"
   id="svg12"
   sodipodi:docname="radha_hiatory.svg"
   xmlns:inkscape="http://www.inkscape.org/namespaces/inkscape"
   xmlns:sodipodi="http://sodipodi.sourceforge.net/DTD/sodipodi-0.dtd"
   xmlns="http://www.w3.org/2000/svg"
   xmlns:svg="http://www.w3.org/2000/svg">
  <defs
     id="defs16" />
  <sodipodi:namedview
     id="namedview14"
     pagecolor="#ffffff"
     bordercolor="#666666"
     borderopacity="1.0"
     inkscape:showpageshadow="2"
     inkscape:pageopacity="0.0"
     inkscape:pagecheckerboard="0"
     inkscape:deskcolor="#d1d1d1" />
  <g
     font-family="sans-serif"
     font-size="32px"
     text-anchor="middle"
     fill="#000000"
     id="g10">
    <g
       aria-label="In history's pages, Radha's name,"
       id="text2">
      <path
         d="m 137.53125,200 h -9.1875 v -2.375 h 3.04687 v -18.51563 h -3.04687 v -2.375 h 9.1875 v 2.375 h -3.04688 V 197.625 h 3.04688 z"
         id="path18" />
      <path
         d="m 157.15625,200 h -2.9375 v -9.9375 q 0,-1.20313 -0.14063,-2.25 -0.14062,-1.0625 -0.51562,-1.65625 -0.39063,-0.65625 -1.125,-0.96875 -0.73438,-0.32813 -1.90625,-0.32813 -1.20313,0 -2.51563,0.59375 -1.3125,0.59375 -2.51562,1.51563 V 200 h -2.9375 V 182.54687 H 145.5 v 1.9375 q 1.375,-1.14062 2.84375,-1.78125 1.46875,-0.64062 3.01562,-0.64062 2.82813,0 4.3125,1.70312 1.48438,1.70313 1.48438,4.90625 z"
         id="path20" />
      <path
         d="m 188.65625,200 h -2.9375 v -9.9375 q 0,-1.20313 -0.14063,-2.25 -0.14062,-1.0625 -0.51562,-1.65625 -0.39063,-0.65625 -1.125,-0.96875 -0.73438,-0.32813 -1.90625,-0.32813 -1.20313,0 -2.51563,0.59375 -1.3125,0.59375 -2.51562,1.51563 V 200 h -2.9375 V 175.6875 H 177 v 8.79687 q 1.375,-1.14062 2.84375,-1.78125 1.46875,-0.64062 3.01562,-0.64062 2.82813,0 4.3125,1.70312 1.48438,1.70313 1.48438,4.90625 z"
         id="path22" />
      <path
         d="m 197.46875,179.625 h -3.3125 v -3.04688 h 3.3125 z M 197.28125,200 h -2.9375 v -17.45313 h 2.9375 z"
         id="path24" />
      <path
         d="m 215.5625,194.96875 q 0,2.39062 -1.98438,3.92187 -1.96875,1.53125 -5.39062,1.53125 -1.9375,0 -3.5625,-0.45312 -1.60938,-0.46875 -2.70313,-1.01563 v -3.29687 h 0.15625 q 1.39063,1.04687 3.09375,1.67187 1.70313,0.60938 3.26563,0.60938 1.9375,0 3.03125,-0.625 1.09375,-0.625 1.09375,-1.96875 0,-1.03125 -0.59375,-1.5625 -0.59375,-0.53125 -2.28125,-0.90625 -0.625,-0.14063 -1.64063,-0.32813 -1,-0.1875 -1.82812,-0.40625 -2.29688,-0.60937 -3.26563,-1.78125 Q 202,189.17187 202,187.45312 q 0,-1.07812 0.4375,-2.03125 0.45312,-0.95312 1.35937,-1.70312 0.875,-0.73438 2.21875,-1.15625 1.35938,-0.4375 3.03125,-0.4375 1.5625,0 3.15625,0.39062 1.60938,0.375 2.67188,0.92188 v 3.14062 h -0.15625 q -1.125,-0.82812 -2.73438,-1.39062 -1.60937,-0.57813 -3.15625,-0.57813 -1.60937,0 -2.71875,0.625 Q 205,185.84375 205,187.0625 q 0,1.07812 0.67187,1.625 0.65625,0.54687 2.125,0.89062 0.8125,0.1875 1.8125,0.375 1.01563,0.1875 1.6875,0.34375 2.04688,0.46875 3.15625,1.60938 1.10938,1.15625 1.10938,3.0625 z"
         id="path26" />
      <path
         d="m 228.82812,199.84375 q -0.82812,0.21875 -1.8125,0.35937 -0.96875,0.14063 -1.73437,0.14063 -2.67188,0 -4.0625,-1.4375 -1.39063,-1.4375 -1.39063,-4.60938 v -9.28125 h -1.98437 v -2.46875 h 1.98437 v -5.01562 h 2.9375 v 5.01562 h 6.0625 v 2.46875 h -6.0625 v 7.95313 q 0,1.375 0.0625,2.15625 0.0625,0.76562 0.4375,1.4375 0.34375,0.625 0.9375,0.92187 0.60938,0.28125 1.84375,0.28125 0.71875,0 1.5,-0.20312 0.78125,-0.21875 1.125,-0.35938 h 0.15625 z"
         id="path28" />
      <path
         d="m 247.25,191.28125 q 0,4.26562 -2.1875,6.73437 -2.1875,2.46875 -5.85938,2.46875 -3.70312,0 -5.89062,-2.46875 -2.17188,-2.46875 -2.17188,-6.73437 0,-4.26563 2.17188,-6.73438 2.1875,-2.48437 5.89062,-2.48437 3.67188,0 5.85938,2.48437 2.1875,2.46875 2.1875,6.73438 z m -3.03125,0 q 0,-3.39063 -1.32813,-5.03125 -1.32812,-1.65625 -3.6875,-1.65625 -2.39062,0 -3.71875,1.65625 -1.3125,1.64062 -1.3125,5.03125 0,3.28125 1.32813,4.98437 1.32812,1.6875 3.70312,1.6875 2.34375,0 3.67188,-1.67187 1.34375,-1.6875 1.34375,-5 z"
         id="path30" />
      <path
         d="m 262.6875,185.75 h -0.15625 q -0.65625,-0.15625 -1.28125,-0.21875 -0.60938,-0.0781 -1.45313,-0.0781 -1.35937,0 -2.625,0.60938 -1.26562,0.59375 -2.4375,1.54687 V 200 h -2.9375 v -17.45313 h 2.9375 v 2.57813 q 1.75,-1.40625 3.07813,-1.98438 1.34375,-0.59375 2.73437,-0.59375 0.76563,0 1.10938,0.0469 0.34375,0.0312 1.03125,0.14062 z"
         id="path32" />
      <path
         d="m 280.54687,182.54687 -10.1875,23.89063 h -3.14062 l 3.25,-7.28125 -6.95313,-16.60938 h 3.1875 l 5.35938,12.9375 5.40625,-12.9375 z"
         id="path34" />
      <path
         d="m 287.53125,175.6875 -0.67188,9.04687 h -2.125 l -0.67187,-9.04687 z"
         id="path36" />
      <path
         d="m 305.45312,194.96875 q 0,2.39062 -1.98437,3.92187 -1.96875,1.53125 -5.39063,1.53125 -1.9375,0 -3.5625,-0.45312 -1.60937,-0.46875 -2.70312,-1.01563 v -3.29687 h 0.15625 q 1.39062,1.04687 3.09375,1.67187 1.70312,0.60938 3.26562,0.60938 1.9375,0 3.03125,-0.625 1.09375,-0.625 1.09375,-1.96875 0,-1.03125 -0.59375,-1.5625 -0.59375,-0.53125 -2.28125,-0.90625 -0.625,-0.14063 -1.64062,-0.32813 -1,-0.1875 -1.82813,-0.40625 -2.29687,-0.60937 -3.26562,-1.78125 -0.95313,-1.1875 -0.95313,-2.90625 0,-1.07812 0.4375,-2.03125 0.45313,-0.95312 1.35938,-1.70312 0.875,-0.73438 2.21875,-1.15625 1.35937,-0.4375 3.03125,-0.4375 1.5625,0 3.15625,0.39062 1.60937,0.375 2.67187,0.92188 v 3.14062 h -0.15625 q -1.125,-0.82812 -2.73437,-1.39062 -1.60938,-0.57813 -3.15625,-0.57813 -1.60938,0 -2.71875,0.625 -1.10938,0.60938 -1.10938,1.82813 0,1.07812 0.67188,1.625 0.65625,0.54687 2.125,0.89062 0.8125,0.1875 1.8125,0.375 1.01562,0.1875 1.6875,0.34375 2.04687,0.46875 3.15625,1.60938 1.10937,1.15625 1.10937,3.0625 z"
         id="path38" />
      <path
         d="m 336.26562,191.0625 q 0,2.125 -0.60937,3.89062 -0.60938,1.75 -1.71875,2.96875 -1.03125,1.15625 -2.4375,1.79688 -1.39063,0.625 -2.95313,0.625 -1.35937,0 -2.46875,-0.29688 -1.09375,-0.29687 -2.23437,-0.92187 v 7.3125 h -2.9375 v -23.89063 h 2.9375 v 1.82813 q 1.17187,-0.98438 2.625,-1.64063 1.46875,-0.67187 3.125,-0.67187 3.15625,0 4.90625,2.39062 1.76562,2.375 1.76562,6.60938 z m -3.03125,0.0781 q 0,-3.15625 -1.07812,-4.71875 -1.07813,-1.5625 -3.3125,-1.5625 -1.26563,0 -2.54688,0.54688 -1.28125,0.54687 -2.45312,1.4375 v 9.89062 q 1.25,0.5625 2.14062,0.76563 0.90625,0.20312 2.04688,0.20312 2.45312,0 3.82812,-1.65625 1.375,-1.65625 1.375,-4.90625 z"
         id="path40" />
      <path
         d="m 354.40625,200 h -2.92188 v -1.85938 q -0.39062,0.26563 -1.0625,0.75 -0.65625,0.46875 -1.28125,0.75 -0.73437,0.35938 -1.6875,0.59375 -0.95312,0.25 -2.23437,0.25 -2.35938,0 -4,-1.5625 -1.64063,-1.5625 -1.64063,-3.98437 0,-1.98438 0.84375,-3.20313 0.85938,-1.23437 2.4375,-1.9375 1.59375,-0.70312 3.82813,-0.95312 2.23437,-0.25 4.79687,-0.375 v -0.45313 q 0,-1 -0.35937,-1.65625 -0.34375,-0.65625 -1,-1.03125 -0.625,-0.35937 -1.5,-0.48437 -0.875,-0.125 -1.82813,-0.125 -1.15625,0 -2.57812,0.3125 -1.42188,0.29687 -2.9375,0.875 H 341.125 v -2.98438 q 0.85937,-0.23437 2.48437,-0.51562 1.625,-0.28125 3.20313,-0.28125 1.84375,0 3.20312,0.3125 1.375,0.29687 2.375,1.03125 0.98438,0.71875 1.5,1.85937 0.51563,1.14063 0.51563,2.82813 z m -2.92188,-4.29688 v -4.85937 q -1.34375,0.0781 -3.17187,0.23437 -1.8125,0.15625 -2.875,0.45313 -1.26563,0.35937 -2.04688,1.125 -0.78125,0.75 -0.78125,2.07812 0,1.5 0.90625,2.26563 0.90625,0.75 2.76563,0.75 1.54687,0 2.82812,-0.59375 1.28125,-0.60938 2.375,-1.45313 z"
         id="path42" />
      <path
         d="m 374.21875,198.01562 q 0,4.4375 -2.01563,6.51563 -2.01562,2.07812 -6.20312,2.07812 -1.39063,0 -2.71875,-0.20312 -1.3125,-0.1875 -2.59375,-0.54688 v -3 h 0.15625 q 0.71875,0.28125 2.28125,0.6875 1.5625,0.42188 3.125,0.42188 1.5,0 2.48437,-0.35938 0.98438,-0.35937 1.53125,-1 0.54688,-0.60937 0.78125,-1.46875 0.23438,-0.85937 0.23438,-1.92187 V 197.625 q -1.32813,1.0625 -2.54688,1.59375 -1.20312,0.51562 -3.07812,0.51562 -3.125,0 -4.96875,-2.25 -1.82813,-2.26562 -1.82813,-6.375 0,-2.25 0.625,-3.875 0.64063,-1.64062 1.73438,-2.82812 1.01562,-1.10938 2.46875,-1.71875 1.45312,-0.625 2.89062,-0.625 1.51563,0 2.53125,0.3125 1.03125,0.29687 2.17188,0.92187 l 0.1875,-0.75 h 2.75 z m -2.9375,-2.8125 v -9.51562 q -1.17188,-0.53125 -2.1875,-0.75 -1,-0.23438 -2,-0.23438 -2.42188,0 -3.8125,1.625 -1.39063,1.625 -1.39063,4.71875 0,2.9375 1.03125,4.45313 1.03125,1.51562 3.42188,1.51562 1.28125,0 2.5625,-0.48437 1.29687,-0.5 2.375,-1.32813 z"
         id="path44" />
      <path
         d="M 394.60937,191.57812 H 381.75 q 0,1.60938 0.48437,2.8125 0.48438,1.1875 1.32813,1.95313 0.8125,0.75 1.92187,1.125 1.125,0.375 2.46875,0.375 1.78125,0 3.57813,-0.70313 1.8125,-0.71875 2.57812,-1.40625 h 0.15625 v 3.20313 q -1.48437,0.625 -3.03125,1.04687 -1.54687,0.42188 -3.25,0.42188 -4.34375,0 -6.78125,-2.34375 -2.4375,-2.35938 -2.4375,-6.6875 0,-4.28125 2.32813,-6.79688 2.34375,-2.51562 6.15625,-2.51562 3.53125,0 5.4375,2.0625 1.92187,2.0625 1.92187,5.85937 z m -2.85937,-2.25 q -0.0156,-2.3125 -1.17188,-3.57812 -1.14062,-1.26563 -3.48437,-1.26563 -2.35938,0 -3.76563,1.39063 -1.39062,1.39062 -1.57812,3.45312 z"
         id="path46" />
      <path
         d="m 411.53125,194.96875 q 0,2.39062 -1.98438,3.92187 -1.96875,1.53125 -5.39062,1.53125 -1.9375,0 -3.5625,-0.45312 -1.60938,-0.46875 -2.70313,-1.01563 v -3.29687 h 0.15625 q 1.39063,1.04687 3.09375,1.67187 1.70313,0.60938 3.26563,0.60938 1.9375,0 3.03125,-0.625 1.09375,-0.625 1.09375,-1.96875 0,-1.03125 -0.59375,-1.5625 -0.59375,-0.53125 -2.28125,-0.90625 -0.625,-0.14063 -1.64063,-0.32813 -1,-0.1875 -1.82812,-0.40625 -2.29688,-0.60937 -3.26563,-1.78125 -0.95312,-1.1875 -0.95312,-2.90625 0,-1.07812 0.4375,-2.03125 0.45312,-0.95312 1.35937,-1.70312 0.875,-0.73438 2.21875,-1.15625 1.35938,-0.4375 3.03125,-0.4375 1.5625,0 3.15625,0.39062 1.60938,0.375 2.67188,0.92188 v 3.14062 h -0.15625 q -1.125,-0.82812 -2.73438,-1.39062 -1.60937,-0.57813 -3.15625,-0.57813 -1.60937,0 -2.71875,0.625 -1.10937,0.60938 -1.10937,1.82813 0,1.07812 0.67187,1.625 0.65625,0.54687 2.125,0.89062 0.8125,0.1875 1.8125,0.375 1.01563,0.1875 1.6875,0.34375 2.04688,0.46875 3.15625,1.60938 1.10938,1.15625 1.10938,3.0625 z"
         id="path48" />
      <path
         d="m 421.82812,195.54687 -4.40625,10.23438 h -2.28125 l 2.71875,-10.23438 z"
         id="path50" />
      <path
         d="m 458.10937,200 h -4.01562 l -7.78125,-9.25 h -4.35938 V 200 h -3.09375 v -23.26563 h 6.51563 q 2.10937,0 3.51562,0.28125 1.40625,0.26563 2.53125,0.96875 1.26563,0.79688 1.96875,2.01563 0.71875,1.20312 0.71875,3.0625 0,2.51562 -1.26562,4.21875 -1.26563,1.6875 -3.48438,2.54687 z M 450.875,183.28125 q 0,-1 -0.35938,-1.76563 -0.34375,-0.78125 -1.15625,-1.3125 -0.67187,-0.45312 -1.59375,-0.625 -0.92187,-0.1875 -2.17187,-0.1875 h -3.64063 v 8.78125 h 3.125 q 1.46875,0 2.5625,-0.25 1.09375,-0.26562 1.85938,-0.96875 0.70312,-0.65625 1.03125,-1.5 0.34375,-0.85937 0.34375,-2.17187 z"
         id="path52" />
      <path
         d="m 473.8125,200 h -2.92188 v -1.85938 q -0.39062,0.26563 -1.0625,0.75 -0.65625,0.46875 -1.28125,0.75 -0.73437,0.35938 -1.6875,0.59375 -0.95312,0.25 -2.23437,0.25 -2.35938,0 -4,-1.5625 -1.64063,-1.5625 -1.64063,-3.98437 0,-1.98438 0.84375,-3.20313 0.85938,-1.23437 2.4375,-1.9375 1.59375,-0.70312 3.82813,-0.95312 2.23437,-0.25 4.79687,-0.375 v -0.45313 q 0,-1 -0.35937,-1.65625 -0.34375,-0.65625 -1,-1.03125 -0.625,-0.35937 -1.5,-0.48437 -0.875,-0.125 -1.82813,-0.125 -1.15625,0 -2.57812,0.3125 -1.42188,0.29687 -2.9375,0.875 h -0.15625 v -2.98438 q 0.85937,-0.23437 2.48437,-0.51562 1.625,-0.28125 3.20313,-0.28125 1.84375,0 3.20312,0.3125 1.375,0.29687 2.375,1.03125 0.98438,0.71875 1.5,1.85937 0.51563,1.14063 0.51563,2.82813 z m -2.92188,-4.29688 v -4.85937 q -1.34375,0.0781 -3.17187,0.23437 -1.8125,0.15625 -2.875,0.45313 -1.26563,0.35937 -2.04688,1.125 -0.78125,0.75 -0.78125,2.07812 0,1.5 0.90625,2.26563 0.90625,0.75 2.76563,0.75 1.54687,0 2.82812,-0.59375 1.28125,-0.60938 2.375,-1.45313 z"
         id="path54" />
      <path
         d="m 493.625,200 h -2.9375 v -1.82813 q -1.26563,1.09375 -2.64063,1.70313 -1.375,0.60937 -2.98437,0.60937 -3.125,0 -4.96875,-2.40625 -1.82813,-2.40625 -1.82813,-6.67187 0,-2.21875 0.625,-3.95313 0.64063,-1.73437 1.71875,-2.95312 1.0625,-1.1875 2.46875,-1.8125 1.42188,-0.625 2.9375,-0.625 1.375,0 2.4375,0.29687 1.0625,0.28125 2.23438,0.89063 v -7.5625 h 2.9375 z m -2.9375,-4.29688 V 185.6875 q -1.1875,-0.53125 -2.125,-0.73438 -0.9375,-0.20312 -2.04688,-0.20312 -2.46875,0 -3.84375,1.71875 -1.375,1.71875 -1.375,4.875 0,3.10937 1.0625,4.73437 1.0625,1.60938 3.40625,1.60938 1.25,0 2.53125,-0.54688 1.28125,-0.5625 2.39063,-1.4375 z"
         id="path56" />
      <path
         d="m 514,200 h -2.9375 v -9.9375 q 0,-1.20313 -0.14063,-2.25 -0.14062,-1.0625 -0.51562,-1.65625 -0.39063,-0.65625 -1.125,-0.96875 -0.73438,-0.32813 -1.90625,-0.32813 -1.20313,0 -2.51563,0.59375 -1.3125,0.59375 -2.51562,1.51563 V 200 h -2.9375 v -24.3125 h 2.9375 v 8.79687 q 1.375,-1.14062 2.84375,-1.78125 1.46875,-0.64062 3.01562,-0.64062 2.82813,0 4.3125,1.70312 Q 514,185.46875 514,188.67187 Z"
         id="path58" />
      <path
         d="m 533.21875,200 h -2.92188 v -1.85938 q -0.39062,0.26563 -1.0625,0.75 -0.65625,0.46875 -1.28125,0.75 -0.73437,0.35938 -1.6875,0.59375 -0.95312,0.25 -2.23437,0.25 -2.35938,0 -4,-1.5625 -1.64063,-1.5625 -1.64063,-3.98437 0,-1.98438 0.84375,-3.20313 0.85938,-1.23437 2.4375,-1.9375 1.59375,-0.70312 3.82813,-0.95312 2.23437,-0.25 4.79687,-0.375 v -0.45313 q 0,-1 -0.35937,-1.65625 -0.34375,-0.65625 -1,-1.03125 -0.625,-0.35937 -1.5,-0.48437 -0.875,-0.125 -1.82813,-0.125 -1.15625,0 -2.57812,0.3125 -1.42188,0.29687 -2.9375,0.875 h -0.15625 v -2.98438 q 0.85937,-0.23437 2.48437,-0.51562 1.625,-0.28125 3.20313,-0.28125 1.84375,0 3.20312,0.3125 1.375,0.29687 2.375,1.03125 0.98438,0.71875 1.5,1.85937 0.51563,1.14063 0.51563,2.82813 z m -2.92188,-4.29688 v -4.85937 q -1.34375,0.0781 -3.17187,0.23437 -1.8125,0.15625 -2.875,0.45313 -1.26563,0.35937 -2.04688,1.125 -0.78125,0.75 -0.78125,2.07812 0,1.5 0.90625,2.26563 0.90625,0.75 2.76563,0.75 1.54687,0 2.82812,-0.59375 1.28125,-0.60938 2.375,-1.45313 z"
         id="path60" />
      <path
         d="m 542.01562,175.6875 -0.67187,9.04687 h -2.125 l -0.67188,-9.04687 z"
         id="path62" />
      <path
         d="m 559.9375,194.96875 q 0,2.39062 -1.98438,3.92187 -1.96875,1.53125 -5.39062,1.53125 -1.9375,0 -3.5625,-0.45312 -1.60938,-0.46875 -2.70313,-1.01563 v -3.29687 h 0.15625 q 1.39063,1.04687 3.09375,1.67187 1.70313,0.60938 3.26563,0.60938 1.9375,0 3.03125,-0.625 1.09375,-0.625 1.09375,-1.96875 0,-1.03125 -0.59375,-1.5625 Q 555.75,193.25 554.0625,192.875 q -0.625,-0.14063 -1.64063,-0.32813 -1,-0.1875 -1.82812,-0.40625 -2.29688,-0.60937 -3.26563,-1.78125 -0.95312,-1.1875 -0.95312,-2.90625 0,-1.07812 0.4375,-2.03125 0.45312,-0.95312 1.35937,-1.70312 0.875,-0.73438 2.21875,-1.15625 1.35938,-0.4375 3.03125,-0.4375 1.5625,0 3.15625,0.39062 1.60938,0.375 2.67188,0.92188 v 3.14062 h -0.15625 q -1.125,-0.82812 -2.73438,-1.39062 -1.60937,-0.57813 -3.15625,-0.57813 -1.60937,0 -2.71875,0.625 -1.10937,0.60938 -1.10937,1.82813 0,1.07812 0.67187,1.625 0.65625,0.54687 2.125,0.89062 0.8125,0.1875 1.8125,0.375 1.01563,0.1875 1.6875,0.34375 2.04688,0.46875 3.15625,1.60938 1.10938,1.15625 1.10938,3.0625 z"
         id="path64" />
      <path
         d="m 589.98437,200 h -2.9375 v -9.9375 q 0,-1.20313 -0.14062,-2.25 -0.14063,-1.0625 -0.51563,-1.65625 Q 586,185.5 585.26562,185.1875 q -0.73437,-0.32813 -1.90625,-0.32813 -1.20312,0 -2.51562,0.59375 -1.3125,0.59375 -2.51563,1.51563 V 200 h -2.9375 v -17.45313 h 2.9375 v 1.9375 q 1.375,-1.14062 2.84375,-1.78125 1.46875,-0.64062 3.01563,-0.64062 2.82812,0 4.3125,1.70312 1.48437,1.70313 1.48437,4.90625 z"
         id="path66" />
      <path
         d="m 609.20312,200 h -2.92187 v -1.85938 q -0.39063,0.26563 -1.0625,0.75 -0.65625,0.46875 -1.28125,0.75 -0.73438,0.35938 -1.6875,0.59375 -0.95313,0.25 -2.23438,0.25 -2.35937,0 -4,-1.5625 -1.64062,-1.5625 -1.64062,-3.98437 0,-1.98438 0.84375,-3.20313 0.85937,-1.23437 2.4375,-1.9375 1.59375,-0.70312 3.82812,-0.95312 2.23438,-0.25 4.79688,-0.375 v -0.45313 q 0,-1 -0.35938,-1.65625 -0.34375,-0.65625 -1,-1.03125 -0.625,-0.35937 -1.5,-0.48437 -0.875,-0.125 -1.82812,-0.125 -1.15625,0 -2.57813,0.3125 -1.42187,0.29687 -2.9375,0.875 h -0.15625 v -2.98438 q 0.85938,-0.23437 2.48438,-0.51562 1.625,-0.28125 3.20312,-0.28125 1.84375,0 3.20313,0.3125 1.375,0.29687 2.375,1.03125 0.98437,0.71875 1.5,1.85937 0.51562,1.14063 0.51562,2.82813 z m -2.92187,-4.29688 v -4.85937 q -1.34375,0.0781 -3.17188,0.23437 -1.8125,0.15625 -2.875,0.45313 -1.26562,0.35937 -2.04687,1.125 -0.78125,0.75 -0.78125,2.07812 0,1.5 0.90625,2.26563 0.90625,0.75 2.76562,0.75 1.54688,0 2.82813,-0.59375 1.28125,-0.60938 2.375,-1.45313 z"
         id="path68" />
      <path
         d="m 640.32812,200 h -2.9375 v -9.9375 q 0,-1.125 -0.10937,-2.17188 -0.0937,-1.04687 -0.42188,-1.67187 -0.35937,-0.67188 -1.03125,-1.01563 -0.67187,-0.34375 -1.9375,-0.34375 -1.23437,0 -2.46875,0.625 -1.23437,0.60938 -2.46875,1.5625 0.0469,0.35938 0.0781,0.84375 0.0312,0.46875 0.0312,0.9375 V 200 h -2.9375 v -9.9375 q 0,-1.15625 -0.10938,-2.1875 -0.0937,-1.04688 -0.42187,-1.67188 -0.35938,-0.67187 -1.03125,-1 -0.67188,-0.34375 -1.9375,-0.34375 -1.20313,0 -2.42188,0.59375 -1.20312,0.59375 -2.40625,1.51563 V 200 h -2.9375 v -17.45313 h 2.9375 v 1.9375 q 1.375,-1.14062 2.73438,-1.78125 1.375,-0.64062 2.92187,-0.64062 1.78125,0 3.01563,0.75 1.25,0.75 1.85937,2.07812 1.78125,-1.5 3.25,-2.15625 1.46875,-0.67187 3.14063,-0.67187 2.875,0 4.23437,1.75 1.375,1.73437 1.375,4.85937 z"
         id="path70" />
      <path
         d="m 660.59375,191.57812 h -12.85938 q 0,1.60938 0.48438,2.8125 0.48437,1.1875 1.32812,1.95313 0.8125,0.75 1.92188,1.125 1.125,0.375 2.46875,0.375 1.78125,0 3.57812,-0.70313 1.8125,-0.71875 2.57813,-1.40625 H 660.25 v 3.20313 q -1.48438,0.625 -3.03125,1.04687 -1.54688,0.42188 -3.25,0.42188 -4.34375,0 -6.78125,-2.34375 -2.4375,-2.35938 -2.4375,-6.6875 0,-4.28125 2.32812,-6.79688 2.34375,-2.51562 6.15625,-2.51562 3.53125,0 5.4375,2.0625 1.92188,2.0625 1.92188,5.85937 z m -2.85938,-2.25 q -0.0156,-2.3125 -1.17187,-3.57812 -1.14063,-1.26563 -3.48438,-1.26563 -2.35937,0 -3.76562,1.39063 -1.39063,1.39062 -1.57813,3.45312 z"
         id="path72" />
      <path
         d="m 671.14062,195.54687 -4.40625,10.23438 h -2.28125 l 2.71875,-10.23438 z"
         id="path74" />
    </g>
    <g
       aria-label="A whispered legend, a burning flame."
       id="text4">
      <path
         d="m 119.61719,250 h -3.29688 l -2.28125,-6.48438 h -10.0625 L 101.69531,250 h -3.140623 l 8.468753,-23.26563 h 4.125 z m -6.53125,-9.14063 -4.07813,-11.42187 -4.09375,11.42187 z"
         id="path77" />
      <path
         d="M 156.11719,232.54687 151.57031,250 h -2.71875 L 144.36719,236.54687 139.91406,250 h -2.70312 l -4.59375,-17.45313 h 3.0625 l 3.20312,13.51563 4.35938,-13.51563 h 2.42187 l 4.46875,13.51563 3.03125,-13.51563 z"
         id="path79" />
      <path
         d="m 174.94531,250 h -2.9375 v -9.9375 q 0,-1.20313 -0.14062,-2.25 -0.14063,-1.0625 -0.51563,-1.65625 -0.39062,-0.65625 -1.125,-0.96875 -0.73437,-0.32813 -1.90625,-0.32813 -1.20312,0 -2.51562,0.59375 -1.3125,0.59375 -2.51563,1.51563 V 250 h -2.9375 v -24.3125 h 2.9375 v 8.79687 q 1.375,-1.14062 2.84375,-1.78125 1.46875,-0.64062 3.01563,-0.64062 2.82812,0 4.3125,1.70312 1.48437,1.70313 1.48437,4.90625 z"
         id="path81" />
      <path
         d="m 183.75781,229.625 h -3.3125 v -3.04688 h 3.3125 z M 183.57031,250 h -2.9375 v -17.45313 h 2.9375 z"
         id="path83" />
      <path
         d="m 201.85156,244.96875 q 0,2.39062 -1.98437,3.92187 -1.96875,1.53125 -5.39063,1.53125 -1.9375,0 -3.5625,-0.45312 -1.60937,-0.46875 -2.70312,-1.01563 v -3.29687 h 0.15625 q 1.39062,1.04687 3.09375,1.67187 1.70312,0.60938 3.26562,0.60938 1.9375,0 3.03125,-0.625 1.09375,-0.625 1.09375,-1.96875 0,-1.03125 -0.59375,-1.5625 -0.59375,-0.53125 -2.28125,-0.90625 -0.625,-0.14063 -1.64062,-0.32813 -1,-0.1875 -1.82813,-0.40625 -2.29687,-0.60937 -3.26562,-1.78125 -0.95313,-1.1875 -0.95313,-2.90625 0,-1.07812 0.4375,-2.03125 0.45313,-0.95312 1.35938,-1.70312 0.875,-0.73438 2.21875,-1.15625 1.35937,-0.4375 3.03125,-0.4375 1.5625,0 3.15625,0.39062 1.60937,0.375 2.67187,0.92188 v 3.14062 h -0.15625 q -1.125,-0.82812 -2.73437,-1.39062 -1.60938,-0.57813 -3.15625,-0.57813 -1.60938,0 -2.71875,0.625 -1.10938,0.60938 -1.10938,1.82813 0,1.07812 0.67188,1.625 0.65625,0.54687 2.125,0.89062 0.8125,0.1875 1.8125,0.375 1.01562,0.1875 1.6875,0.34375 2.04687,0.46875 3.15625,1.60938 1.10937,1.15625 1.10937,3.0625 z"
         id="path85" />
      <path
         d="m 221.41406,241.0625 q 0,2.125 -0.60937,3.89062 -0.60938,1.75 -1.71875,2.96875 -1.03125,1.15625 -2.4375,1.79688 -1.39063,0.625 -2.95313,0.625 -1.35937,0 -2.46875,-0.29688 -1.09375,-0.29687 -2.23437,-0.92187 v 7.3125 h -2.9375 v -23.89063 h 2.9375 v 1.82813 q 1.17187,-0.98438 2.625,-1.64063 1.46875,-0.67187 3.125,-0.67187 3.15625,0 4.90625,2.39062 1.76562,2.375 1.76562,6.60938 z m -3.03125,0.0781 q 0,-3.15625 -1.07812,-4.71875 -1.07813,-1.5625 -3.3125,-1.5625 -1.26563,0 -2.54688,0.54688 -1.28125,0.54687 -2.45312,1.4375 v 9.89062 q 1.25,0.5625 2.14062,0.76563 0.90625,0.20312 2.04688,0.20312 2.45312,0 3.82812,-1.65625 1.375,-1.65625 1.375,-4.90625 z"
         id="path87" />
      <path
         d="m 240.60156,241.57812 h -12.85937 q 0,1.60938 0.48437,2.8125 0.48438,1.1875 1.32813,1.95313 0.8125,0.75 1.92187,1.125 1.125,0.375 2.46875,0.375 1.78125,0 3.57813,-0.70313 1.8125,-0.71875 2.57812,-1.40625 h 0.15625 v 3.20313 q -1.48437,0.625 -3.03125,1.04687 -1.54687,0.42188 -3.25,0.42188 -4.34375,0 -6.78125,-2.34375 -2.4375,-2.35938 -2.4375,-6.6875 0,-4.28125 2.32813,-6.79688 2.34375,-2.51562 6.15625,-2.51562 3.53125,0 5.4375,2.0625 1.92187,2.0625 1.92187,5.85937 z m -2.85937,-2.25 q -0.0156,-2.3125 -1.17188,-3.57812 -1.14062,-1.26563 -3.48437,-1.26563 -2.35938,0 -3.76563,1.39063 -1.39062,1.39062 -1.57812,3.45312 z"
         id="path89" />
      <path
         d="m 255.94531,235.75 h -0.15625 q -0.65625,-0.15625 -1.28125,-0.21875 -0.60937,-0.0781 -1.45312,-0.0781 -1.35938,0 -2.625,0.60938 -1.26563,0.59375 -2.4375,1.54687 V 250 h -2.9375 v -17.45313 h 2.9375 v 2.57813 q 1.75,-1.40625 3.07812,-1.98438 1.34375,-0.59375 2.73438,-0.59375 0.76562,0 1.10937,0.0469 0.34375,0.0312 1.03125,0.14062 z"
         id="path91" />
      <path
         d="m 273.32031,241.57812 h -12.85937 q 0,1.60938 0.48437,2.8125 0.48438,1.1875 1.32813,1.95313 0.8125,0.75 1.92187,1.125 1.125,0.375 2.46875,0.375 1.78125,0 3.57813,-0.70313 1.8125,-0.71875 2.57812,-1.40625 h 0.15625 v 3.20313 q -1.48437,0.625 -3.03125,1.04687 -1.54687,0.42188 -3.25,0.42188 -4.34375,0 -6.78125,-2.34375 -2.4375,-2.35938 -2.4375,-6.6875 0,-4.28125 2.32813,-6.79688 2.34375,-2.51562 6.15625,-2.51562 3.53125,0 5.4375,2.0625 1.92187,2.0625 1.92187,5.85937 z m -2.85937,-2.25 q -0.0156,-2.3125 -1.17188,-3.57812 -1.14062,-1.26563 -3.48437,-1.26563 -2.35938,0 -3.76563,1.39063 -1.39062,1.39062 -1.57812,3.45312 z"
         id="path93" />
      <path
         d="m 291.92969,250 h -2.9375 v -1.82813 q -1.26563,1.09375 -2.64063,1.70313 -1.375,0.60937 -2.98437,0.60937 -3.125,0 -4.96875,-2.40625 -1.82813,-2.40625 -1.82813,-6.67187 0,-2.21875 0.625,-3.95313 0.64063,-1.73437 1.71875,-2.95312 1.0625,-1.1875 2.46875,-1.8125 1.42188,-0.625 2.9375,-0.625 1.375,0 2.4375,0.29687 1.0625,0.28125 2.23438,0.89063 v -7.5625 h 2.9375 z m -2.9375,-4.29688 V 235.6875 q -1.1875,-0.53125 -2.125,-0.73438 -0.9375,-0.20312 -2.04688,-0.20312 -2.46875,0 -3.84375,1.71875 -1.375,1.71875 -1.375,4.875 0,3.10937 1.0625,4.73437 1.0625,1.60938 3.40625,1.60938 1.25,0 2.53125,-0.54688 1.28125,-0.5625 2.39063,-1.4375 z"
         id="path95" />
      <path
         d="m 311.92969,250 h -2.9375 v -24.3125 h 2.9375 z"
         id="path97" />
      <path
         d="m 332.35156,241.57812 h -12.85937 q 0,1.60938 0.48437,2.8125 0.48438,1.1875 1.32813,1.95313 0.8125,0.75 1.92187,1.125 1.125,0.375 2.46875,0.375 1.78125,0 3.57813,-0.70313 1.8125,-0.71875 2.57812,-1.40625 h 0.15625 v 3.20313 q -1.48437,0.625 -3.03125,1.04687 -1.54687,0.42188 -3.25,0.42188 -4.34375,0 -6.78125,-2.34375 -2.4375,-2.35938 -2.4375,-6.6875 0,-4.28125 2.32813,-6.79688 2.34375,-2.51562 6.15625,-2.51562 3.53125,0 5.4375,2.0625 1.92187,2.0625 1.92187,5.85937 z m -2.85937,-2.25 q -0.0156,-2.3125 -1.17188,-3.57812 -1.14062,-1.26563 -3.48437,-1.26563 -2.35938,0 -3.76563,1.39063 -1.39062,1.39062 -1.57812,3.45312 z"
         id="path99" />
      <path
         d="m 350.96094,248.01562 q 0,4.4375 -2.01563,6.51563 -2.01562,2.07812 -6.20312,2.07812 -1.39063,0 -2.71875,-0.20312 -1.3125,-0.1875 -2.59375,-0.54688 v -3 h 0.15625 q 0.71875,0.28125 2.28125,0.6875 1.5625,0.42188 3.125,0.42188 1.5,0 2.48437,-0.35938 0.98438,-0.35937 1.53125,-1 0.54688,-0.60937 0.78125,-1.46875 0.23438,-0.85937 0.23438,-1.92187 V 247.625 q -1.32813,1.0625 -2.54688,1.59375 -1.20312,0.51562 -3.07812,0.51562 -3.125,0 -4.96875,-2.25 -1.82813,-2.26562 -1.82813,-6.375 0,-2.25 0.625,-3.875 0.64063,-1.64062 1.73438,-2.82812 1.01562,-1.10938 2.46875,-1.71875 1.45312,-0.625 2.89062,-0.625 1.51563,0 2.53125,0.3125 1.03125,0.29687 2.17188,0.92187 l 0.1875,-0.75 h 2.75 z m -2.9375,-2.8125 v -9.51562 q -1.17188,-0.53125 -2.1875,-0.75 -1,-0.23438 -2,-0.23438 -2.42188,0 -3.8125,1.625 -1.39063,1.625 -1.39063,4.71875 0,2.9375 1.03125,4.45313 1.03125,1.51562 3.42188,1.51562 1.28125,0 2.5625,-0.48437 1.29687,-0.5 2.375,-1.32813 z"
         id="path101" />
      <path
         d="m 371.35156,241.57812 h -12.85937 q 0,1.60938 0.48437,2.8125 0.48438,1.1875 1.32813,1.95313 0.8125,0.75 1.92187,1.125 1.125,0.375 2.46875,0.375 1.78125,0 3.57813,-0.70313 1.8125,-0.71875 2.57812,-1.40625 h 0.15625 v 3.20313 q -1.48437,0.625 -3.03125,1.04687 -1.54687,0.42188 -3.25,0.42188 -4.34375,0 -6.78125,-2.34375 -2.4375,-2.35938 -2.4375,-6.6875 0,-4.28125 2.32813,-6.79688 2.34375,-2.51562 6.15625,-2.51562 3.53125,0 5.4375,2.0625 1.92187,2.0625 1.92187,5.85937 z m -2.85937,-2.25 q -0.0156,-2.3125 -1.17188,-3.57812 -1.14062,-1.26563 -3.48437,-1.26563 -2.35938,0 -3.76563,1.39063 -1.39062,1.39062 -1.57812,3.45312 z"
         id="path103" />
      <path
         d="m 390.39844,250 h -2.9375 v -9.9375 q 0,-1.20313 -0.14063,-2.25 -0.14062,-1.0625 -0.51562,-1.65625 -0.39063,-0.65625 -1.125,-0.96875 -0.73438,-0.32813 -1.90625,-0.32813 -1.20313,0 -2.51563,0.59375 -1.3125,0.59375 -2.51562,1.51563 V 250 h -2.9375 v -17.45313 h 2.9375 v 1.9375 q 1.375,-1.14062 2.84375,-1.78125 1.46875,-0.64062 3.01562,-0.64062 2.82813,0 4.3125,1.70312 1.48438,1.70313 1.48438,4.90625 z"
         id="path105" />
      <path
         d="m 410.21094,250 h -2.9375 v -1.82813 q -1.26563,1.09375 -2.64063,1.70313 -1.375,0.60937 -2.98437,0.60937 -3.125,0 -4.96875,-2.40625 -1.82813,-2.40625 -1.82813,-6.67187 0,-2.21875 0.625,-3.95313 0.64063,-1.73437 1.71875,-2.95312 1.0625,-1.1875 2.46875,-1.8125 1.42188,-0.625 2.9375,-0.625 1.375,0 2.4375,0.29687 1.0625,0.28125 2.23438,0.89063 v -7.5625 h 2.9375 z m -2.9375,-4.29688 V 235.6875 q -1.1875,-0.53125 -2.125,-0.73438 -0.9375,-0.20312 -2.04688,-0.20312 -2.46875,0 -3.84375,1.71875 -1.375,1.71875 -1.375,4.875 0,3.10937 1.0625,4.73437 1.0625,1.60938 3.40625,1.60938 1.25,0 2.53125,-0.54688 1.28125,-0.5625 2.39063,-1.4375 z"
         id="path107" />
      <path
         d="m 422.08594,245.54687 -4.40625,10.23438 h -2.28125 l 2.71875,-10.23438 z"
         id="path109" />
      <path
         d="m 452.44531,250 h -2.92187 v -1.85938 q -0.39063,0.26563 -1.0625,0.75 -0.65625,0.46875 -1.28125,0.75 -0.73438,0.35938 -1.6875,0.59375 -0.95313,0.25 -2.23438,0.25 -2.35937,0 -4,-1.5625 -1.64062,-1.5625 -1.64062,-3.98437 0,-1.98438 0.84375,-3.20313 0.85937,-1.23437 2.4375,-1.9375 1.59375,-0.70312 3.82812,-0.95312 2.23438,-0.25 4.79688,-0.375 v -0.45313 q 0,-1 -0.35938,-1.65625 -0.34375,-0.65625 -1,-1.03125 -0.625,-0.35937 -1.5,-0.48437 -0.875,-0.125 -1.82812,-0.125 -1.15625,0 -2.57813,0.3125 -1.42187,0.29687 -2.9375,0.875 h -0.15625 v -2.98438 q 0.85938,-0.23437 2.48438,-0.51562 1.625,-0.28125 3.20312,-0.28125 1.84375,0 3.20313,0.3125 1.375,0.29687 2.375,1.03125 0.98437,0.71875 1.5,1.85937 0.51562,1.14063 0.51562,2.82813 z m -2.92187,-4.29688 v -4.85937 q -1.34375,0.0781 -3.17188,0.23437 -1.8125,0.15625 -2.875,0.45313 -1.26562,0.35937 -2.04687,1.125 -0.78125,0.75 -0.78125,2.07812 0,1.5 0.90625,2.26563 0.90625,0.75 2.76562,0.75 1.54688,0 2.82813,-0.59375 1.28125,-0.60938 2.375,-1.45313 z"
         id="path111" />
      <path
         d="m 484.71094,241.14062 q 0,2.1875 -0.625,3.9375 -0.60938,1.75 -1.65625,2.9375 -1.10938,1.23438 -2.4375,1.85938 -1.32813,0.60937 -2.92188,0.60937 -1.48437,0 -2.59375,-0.35937 -1.10937,-0.34375 -2.1875,-0.9375 L 472.10156,250 h -2.75 v -24.3125 h 2.9375 v 8.6875 q 1.23438,-1.01563 2.625,-1.65625 1.39063,-0.65625 3.125,-0.65625 3.09375,0 4.875,2.375 1.79688,2.375 1.79688,6.70312 z m -3.03125,0.0781 q 0,-3.125 -1.03125,-4.73438 -1.03125,-1.625 -3.32813,-1.625 -1.28125,0 -2.59375,0.5625 -1.3125,0.54688 -2.4375,1.42188 v 10 q 1.25,0.5625 2.14063,0.78125 0.90625,0.21875 2.04687,0.21875 2.4375,0 3.8125,-1.59375 1.39063,-1.60938 1.39063,-5.03125 z"
         id="path113" />
      <path
         d="m 503.75781,250 h -2.9375 v -1.9375 q -1.48437,1.17187 -2.84375,1.79687 -1.35937,0.625 -3,0.625 -2.75,0 -4.28125,-1.67187 -1.53125,-1.6875 -1.53125,-4.9375 v -11.32813 h 2.9375 v 9.9375 q 0,1.32813 0.125,2.28125 0.125,0.9375 0.53125,1.60938 0.42188,0.6875 1.09375,1 0.67188,0.3125 1.95313,0.3125 1.14062,0 2.48437,-0.59375 1.35938,-0.59375 2.53125,-1.51563 v -13.03125 h 2.9375 z"
         id="path115" />
      <path
         d="m 520.42969,235.75 h -0.15625 q -0.65625,-0.15625 -1.28125,-0.21875 -0.60938,-0.0781 -1.45313,-0.0781 -1.35937,0 -2.625,0.60938 -1.26562,0.59375 -2.4375,1.54687 V 250 h -2.9375 v -17.45313 h 2.9375 v 2.57813 q 1.75,-1.40625 3.07813,-1.98438 1.34375,-0.59375 2.73437,-0.59375 0.76563,0 1.10938,0.0469 0.34375,0.0312 1.03125,0.14062 z"
         id="path117" />
      <path
         d="m 537.78906,250 h -2.9375 v -9.9375 q 0,-1.20313 -0.14062,-2.25 -0.14063,-1.0625 -0.51563,-1.65625 -0.39062,-0.65625 -1.125,-0.96875 -0.73437,-0.32813 -1.90625,-0.32813 -1.20312,0 -2.51562,0.59375 -1.3125,0.59375 -2.51563,1.51563 V 250 h -2.9375 v -17.45313 h 2.9375 v 1.9375 q 1.375,-1.14062 2.84375,-1.78125 1.46875,-0.64062 3.01563,-0.64062 2.82812,0 4.3125,1.70312 1.48437,1.70313 1.48437,4.90625 z"
         id="path119" />
      <path
         d="m 546.60156,229.625 h -3.3125 v -3.04688 h 3.3125 z M 546.41406,250 h -2.9375 v -17.45313 h 2.9375 z"
         id="path121" />
      <path
         d="m 566.82031,250 h -2.9375 v -9.9375 q 0,-1.20313 -0.14062,-2.25 -0.14063,-1.0625 -0.51563,-1.65625 -0.39062,-0.65625 -1.125,-0.96875 -0.73437,-0.32813 -1.90625,-0.32813 -1.20312,0 -2.51562,0.59375 -1.3125,0.59375 -2.51563,1.51563 V 250 h -2.9375 v -17.45313 h 2.9375 v 1.9375 q 1.375,-1.14062 2.84375,-1.78125 1.46875,-0.64062 3.01563,-0.64062 2.82812,0 4.3125,1.70312 1.48437,1.70313 1.48437,4.90625 z"
         id="path123" />
      <path
         d="m 586.63281,248.01562 q 0,4.4375 -2.01562,6.51563 -2.01563,2.07812 -6.20313,2.07812 -1.39062,0 -2.71875,-0.20312 -1.3125,-0.1875 -2.59375,-0.54688 v -3 h 0.15625 q 0.71875,0.28125 2.28125,0.6875 1.5625,0.42188 3.125,0.42188 1.5,0 2.48438,-0.35938 0.98437,-0.35937 1.53125,-1 0.54687,-0.60937 0.78125,-1.46875 0.23437,-0.85937 0.23437,-1.92187 V 247.625 q -1.32812,1.0625 -2.54687,1.59375 -1.20313,0.51562 -3.07813,0.51562 -3.125,0 -4.96875,-2.25 -1.82812,-2.26562 -1.82812,-6.375 0,-2.25 0.625,-3.875 0.64062,-1.64062 1.73437,-2.82812 1.01563,-1.10938 2.46875,-1.71875 1.45313,-0.625 2.89063,-0.625 1.51562,0 2.53125,0.3125 1.03125,0.29687 2.17187,0.92187 l 0.1875,-0.75 h 2.75 z m -2.9375,-2.8125 v -9.51562 q -1.17187,-0.53125 -2.1875,-0.75 -1,-0.23438 -2,-0.23438 -2.42187,0 -3.8125,1.625 -1.39062,1.625 -1.39062,4.71875 0,2.9375 1.03125,4.45313 1.03125,1.51562 3.42187,1.51562 1.28125,0 2.5625,-0.48437 1.29688,-0.5 2.375,-1.32813 z"
         id="path125" />
      <path
         d="m 613.05469,228.53125 h -0.15625 q -0.48438,-0.14063 -1.26563,-0.28125 -0.78125,-0.15625 -1.375,-0.15625 -1.89062,0 -2.75,0.84375 -0.84375,0.82812 -0.84375,3.01562 v 0.59375 h 5.29688 v 2.46875 h -5.20313 V 250 h -2.9375 v -14.98438 h -1.98437 v -2.46875 h 1.98437 v -0.57812 q 0,-3.10938 1.54688,-4.76563 1.54687,-1.67187 4.46875,-1.67187 0.98437,0 1.76562,0.0937 0.79688,0.0937 1.45313,0.21875 z"
         id="path127" />
      <path
         d="m 617.88281,250 h -2.9375 v -24.3125 h 2.9375 z"
         id="path129" />
      <path
         d="m 637.25781,250 h -2.92187 v -1.85938 q -0.39063,0.26563 -1.0625,0.75 -0.65625,0.46875 -1.28125,0.75 -0.73438,0.35938 -1.6875,0.59375 -0.95313,0.25 -2.23438,0.25 -2.35937,0 -4,-1.5625 -1.64062,-1.5625 -1.64062,-3.98437 0,-1.98438 0.84375,-3.20313 0.85937,-1.23437 2.4375,-1.9375 1.59375,-0.70312 3.82812,-0.95312 2.23438,-0.25 4.79688,-0.375 v -0.45313 q 0,-1 -0.35938,-1.65625 -0.34375,-0.65625 -1,-1.03125 -0.625,-0.35937 -1.5,-0.48437 -0.875,-0.125 -1.82812,-0.125 -1.15625,0 -2.57813,0.3125 -1.42187,0.29687 -2.9375,0.875 h -0.15625 v -2.98438 q 0.85938,-0.23437 2.48438,-0.51562 1.625,-0.28125 3.20312,-0.28125 1.84375,0 3.20313,0.3125 1.375,0.29687 2.375,1.03125 0.98437,0.71875 1.5,1.85937 0.51562,1.14063 0.51562,2.82813 z m -2.92187,-4.29688 v -4.85937 q -1.34375,0.0781 -3.17188,0.23437 -1.8125,0.15625 -2.875,0.45313 -1.26562,0.35937 -2.04687,1.125 -0.78125,0.75 -0.78125,2.07812 0,1.5 0.90625,2.26563 0.90625,0.75 2.76562,0.75 1.54688,0 2.82813,-0.59375 1.28125,-0.60938 2.375,-1.45313 z"
         id="path131" />
      <path
         d="m 668.38281,250 h -2.9375 v -9.9375 q 0,-1.125 -0.10937,-2.17188 -0.0937,-1.04687 -0.42188,-1.67187 -0.35937,-0.67188 -1.03125,-1.01563 -0.67187,-0.34375 -1.9375,-0.34375 -1.23437,0 -2.46875,0.625 -1.23437,0.60938 -2.46875,1.5625 0.0469,0.35938 0.0781,0.84375 0.0312,0.46875 0.0312,0.9375 V 250 h -2.9375 v -9.9375 q 0,-1.15625 -0.10938,-2.1875 -0.0937,-1.04688 -0.42187,-1.67188 -0.35938,-0.67187 -1.03125,-1 -0.67188,-0.34375 -1.9375,-0.34375 -1.20313,0 -2.42188,0.59375 -1.20312,0.59375 -2.40625,1.51563 V 250 h -2.9375 v -17.45313 h 2.9375 v 1.9375 q 1.375,-1.14062 2.73438,-1.78125 1.375,-0.64062 2.92187,-0.64062 1.78125,0 3.01563,0.75 1.25,0.75 1.85937,2.07812 1.78125,-1.5 3.25,-2.15625 1.46875,-0.67187 3.14063,-0.67187 2.875,0 4.23437,1.75 1.375,1.73437 1.375,4.85937 z"
         id="path133" />
      <path
         d="m 688.64844,241.57812 h -12.85938 q 0,1.60938 0.48438,2.8125 0.48437,1.1875 1.32812,1.95313 0.8125,0.75 1.92188,1.125 1.125,0.375 2.46875,0.375 1.78125,0 3.57812,-0.70313 1.8125,-0.71875 2.57813,-1.40625 h 0.15625 v 3.20313 q -1.48438,0.625 -3.03125,1.04687 -1.54688,0.42188 -3.25,0.42188 -4.34375,0 -6.78125,-2.34375 -2.4375,-2.35938 -2.4375,-6.6875 0,-4.28125 2.32812,-6.79688 2.34375,-2.51562 6.15625,-2.51562 3.53125,0 5.4375,2.0625 1.92188,2.0625 1.92188,5.85937 z m -2.85938,-2.25 q -0.0156,-2.3125 -1.17187,-3.57812 -1.14063,-1.26563 -3.48438,-1.26563 -2.35937,0 -3.76562,1.39063 -1.39063,1.39062 -1.57813,3.45312 z"
         id="path135" />
      <path
         d="m 697.89844,250 h -3.73438 v -4.45313 h 3.73438 z"
         id="path137" />
    </g>
    <g
       aria-label="Her love's a story, forever told,"
       id="text6">
      <path
         d="m 170.76562,300 h -3.09375 V 288.60937 H 156.0625 V 300 h -3.09375 v -23.26563 h 3.09375 v 9.125 h 11.60937 v -9.125 h 3.09375 z"
         id="path140" />
      <path
         d="m 191.39062,291.57812 h -12.85937 q 0,1.60938 0.48437,2.8125 0.48438,1.1875 1.32813,1.95313 0.8125,0.75 1.92187,1.125 1.125,0.375 2.46875,0.375 1.78125,0 3.57813,-0.70313 1.8125,-0.71875 2.57812,-1.40625 h 0.15625 v 3.20313 q -1.48437,0.625 -3.03125,1.04687 -1.54687,0.42188 -3.25,0.42188 -4.34375,0 -6.78125,-2.34375 -2.4375,-2.35938 -2.4375,-6.6875 0,-4.28125 2.32813,-6.79688 2.34375,-2.51562 6.15625,-2.51562 3.53125,0 5.4375,2.0625 1.92187,2.0625 1.92187,5.85937 z m -2.85937,-2.25 q -0.0156,-2.3125 -1.17188,-3.57812 -1.14062,-1.26563 -3.48437,-1.26563 -2.35938,0 -3.76563,1.39063 -1.39062,1.39062 -1.57812,3.45312 z"
         id="path142" />
      <path
         d="m 206.73437,285.75 h -0.15625 q -0.65625,-0.15625 -1.28125,-0.21875 -0.60937,-0.0781 -1.45312,-0.0781 -1.35938,0 -2.625,0.60938 -1.26563,0.59375 -2.4375,1.54687 V 300 h -2.9375 v -17.45313 h 2.9375 v 2.57813 q 1.75,-1.40625 3.07812,-1.98438 1.34375,-0.59375 2.73438,-0.59375 0.76562,0 1.10937,0.0469 0.34375,0.0312 1.03125,0.14062 z"
         id="path144" />
      <path
         d="m 223.71875,300 h -2.9375 v -24.3125 h 2.9375 z"
         id="path146" />
      <path
         d="m 244.40625,291.28125 q 0,4.26562 -2.1875,6.73437 -2.1875,2.46875 -5.85938,2.46875 -3.70312,0 -5.89062,-2.46875 -2.17188,-2.46875 -2.17188,-6.73437 0,-4.26563 2.17188,-6.73438 2.1875,-2.48437 5.89062,-2.48437 3.67188,0 5.85938,2.48437 2.1875,2.46875 2.1875,6.73438 z m -3.03125,0 q 0,-3.39063 -1.32813,-5.03125 -1.32812,-1.65625 -3.6875,-1.65625 -2.39062,0 -3.71875,1.65625 -1.3125,1.64062 -1.3125,5.03125 0,3.28125 1.32813,4.98437 1.32812,1.6875 3.70312,1.6875 2.34375,0 3.67188,-1.67187 1.34375,-1.6875 1.34375,-5 z"
         id="path148" />
      <path
         d="M 263.8125,282.54687 256.75,300 h -2.95313 l -7.01562,-17.45313 h 3.1875 l 5.40625,13.89063 5.35937,-13.89063 z"
         id="path150" />
      <path
         d="M 281.98437,291.57812 H 269.125 q 0,1.60938 0.48437,2.8125 0.48438,1.1875 1.32813,1.95313 0.8125,0.75 1.92187,1.125 1.125,0.375 2.46875,0.375 1.78125,0 3.57813,-0.70313 1.8125,-0.71875 2.57812,-1.40625 h 0.15625 v 3.20313 q -1.48437,0.625 -3.03125,1.04687 -1.54687,0.42188 -3.25,0.42188 -4.34375,0 -6.78125,-2.34375 -2.4375,-2.35938 -2.4375,-6.6875 0,-4.28125 2.32813,-6.79688 2.34375,-2.51562 6.15625,-2.51562 3.53125,0 5.4375,2.0625 1.92187,2.0625 1.92187,5.85937 z m -2.85937,-2.25 q -0.0156,-2.3125 -1.17188,-3.57812 -1.14062,-1.26563 -3.48437,-1.26563 -2.35938,0 -3.76563,1.39063 -1.39062,1.39062 -1.57812,3.45312 z"
         id="path152" />
      <path
         d="m 289.57812,275.6875 -0.67187,9.04687 h -2.125 l -0.67188,-9.04687 z"
         id="path154" />
      <path
         d="m 307.5,294.96875 q 0,2.39062 -1.98438,3.92187 -1.96875,1.53125 -5.39062,1.53125 -1.9375,0 -3.5625,-0.45312 -1.60938,-0.46875 -2.70313,-1.01563 v -3.29687 h 0.15625 q 1.39063,1.04687 3.09375,1.67187 1.70313,0.60938 3.26563,0.60938 1.9375,0 3.03125,-0.625 1.09375,-0.625 1.09375,-1.96875 0,-1.03125 -0.59375,-1.5625 -0.59375,-0.53125 -2.28125,-0.90625 -0.625,-0.14063 -1.64063,-0.32813 -1,-0.1875 -1.82812,-0.40625 -2.29688,-0.60937 -3.26563,-1.78125 -0.95312,-1.1875 -0.95312,-2.90625 0,-1.07812 0.4375,-2.03125 0.45312,-0.95312 1.35937,-1.70312 0.875,-0.73438 2.21875,-1.15625 1.35938,-0.4375 3.03125,-0.4375 1.5625,0 3.15625,0.39062 1.60938,0.375 2.67188,0.92188 v 3.14062 h -0.15625 q -1.125,-0.82812 -2.73438,-1.39062 -1.60937,-0.57813 -3.15625,-0.57813 -1.60937,0 -2.71875,0.625 -1.10937,0.60938 -1.10937,1.82813 0,1.07812 0.67187,1.625 0.65625,0.54687 2.125,0.89062 0.8125,0.1875 1.8125,0.375 1.01563,0.1875 1.6875,0.34375 2.04688,0.46875 3.15625,1.60938 1.10938,1.15625 1.10938,3.0625 z"
         id="path156" />
      <path
         d="m 336.51562,300 h -2.92187 v -1.85938 q -0.39063,0.26563 -1.0625,0.75 -0.65625,0.46875 -1.28125,0.75 -0.73438,0.35938 -1.6875,0.59375 -0.95313,0.25 -2.23438,0.25 -2.35937,0 -4,-1.5625 -1.64062,-1.5625 -1.64062,-3.98437 0,-1.98438 0.84375,-3.20313 0.85937,-1.23437 2.4375,-1.9375 1.59375,-0.70312 3.82812,-0.95312 2.23438,-0.25 4.79688,-0.375 v -0.45313 q 0,-1 -0.35938,-1.65625 -0.34375,-0.65625 -1,-1.03125 -0.625,-0.35937 -1.5,-0.48437 -0.875,-0.125 -1.82812,-0.125 -1.15625,0 -2.57813,0.3125 -1.42187,0.29687 -2.9375,0.875 h -0.15625 v -2.98438 q 0.85938,-0.23437 2.48438,-0.51562 1.625,-0.28125 3.20312,-0.28125 1.84375,0 3.20313,0.3125 1.375,0.29687 2.375,1.03125 0.98437,0.71875 1.5,1.85937 0.51562,1.14063 0.51562,2.82813 z m -2.92187,-4.29688 v -4.85937 q -1.34375,0.0781 -3.17188,0.23437 -1.8125,0.15625 -2.875,0.45313 -1.26562,0.35937 -2.04687,1.125 -0.78125,0.75 -0.78125,2.07812 0,1.5 0.90625,2.26563 0.90625,0.75 2.76562,0.75 1.54688,0 2.82813,-0.59375 1.28125,-0.60938 2.375,-1.45313 z"
         id="path158" />
      <path
         d="m 365.89062,294.96875 q 0,2.39062 -1.98437,3.92187 -1.96875,1.53125 -5.39063,1.53125 -1.9375,0 -3.5625,-0.45312 Q 353.34375,299.5 352.25,298.95312 v -3.29687 h 0.15625 q 1.39062,1.04687 3.09375,1.67187 1.70312,0.60938 3.26562,0.60938 1.9375,0 3.03125,-0.625 1.09375,-0.625 1.09375,-1.96875 0,-1.03125 -0.59375,-1.5625 -0.59375,-0.53125 -2.28125,-0.90625 -0.625,-0.14063 -1.64062,-0.32813 -1,-0.1875 -1.82813,-0.40625 -2.29687,-0.60937 -3.26562,-1.78125 -0.95313,-1.1875 -0.95313,-2.90625 0,-1.07812 0.4375,-2.03125 0.45313,-0.95312 1.35938,-1.70312 0.875,-0.73438 2.21875,-1.15625 1.35937,-0.4375 3.03125,-0.4375 1.5625,0 3.15625,0.39062 1.60937,0.375 2.67187,0.92188 v 3.14062 h -0.15625 q -1.125,-0.82812 -2.73437,-1.39062 -1.60938,-0.57813 -3.15625,-0.57813 -1.60938,0 -2.71875,0.625 -1.10938,0.60938 -1.10938,1.82813 0,1.07812 0.67188,1.625 0.65625,0.54687 2.125,0.89062 0.8125,0.1875 1.8125,0.375 1.01562,0.1875 1.6875,0.34375 2.04687,0.46875 3.15625,1.60938 1.10937,1.15625 1.10937,3.0625 z"
         id="path160" />
      <path
         d="m 379.15625,299.84375 q -0.82813,0.21875 -1.8125,0.35937 -0.96875,0.14063 -1.73438,0.14063 -2.67187,0 -4.0625,-1.4375 -1.39062,-1.4375 -1.39062,-4.60938 v -9.28125 h -1.98438 v -2.46875 h 1.98438 v -5.01562 h 2.9375 v 5.01562 h 6.0625 v 2.46875 h -6.0625 v 7.95313 q 0,1.375 0.0625,2.15625 0.0625,0.76562 0.4375,1.4375 0.34375,0.625 0.9375,0.92187 0.60937,0.28125 1.84375,0.28125 0.71875,0 1.5,-0.20312 0.78125,-0.21875 1.125,-0.35938 h 0.15625 z"
         id="path162" />
      <path
         d="m 397.57812,291.28125 q 0,4.26562 -2.1875,6.73437 -2.1875,2.46875 -5.85937,2.46875 -3.70313,0 -5.89063,-2.46875 -2.17187,-2.46875 -2.17187,-6.73437 0,-4.26563 2.17187,-6.73438 2.1875,-2.48437 5.89063,-2.48437 3.67187,0 5.85937,2.48437 2.1875,2.46875 2.1875,6.73438 z m -3.03125,0 q 0,-3.39063 -1.32812,-5.03125 -1.32813,-1.65625 -3.6875,-1.65625 -2.39063,0 -3.71875,1.65625 -1.3125,1.64062 -1.3125,5.03125 0,3.28125 1.32812,4.98437 1.32813,1.6875 3.70313,1.6875 2.34375,0 3.67187,-1.67187 1.34375,-1.6875 1.34375,-5 z"
         id="path164" />
      <path
         d="m 413.01562,285.75 h -0.15625 q -0.65625,-0.15625 -1.28125,-0.21875 -0.60937,-0.0781 -1.45312,-0.0781 -1.35938,0 -2.625,0.60938 -1.26563,0.59375 -2.4375,1.54687 V 300 h -2.9375 v -17.45313 h 2.9375 v 2.57813 q 1.75,-1.40625 3.07812,-1.98438 1.34375,-0.59375 2.73438,-0.59375 0.76562,0 1.10937,0.0469 0.34375,0.0312 1.03125,0.14062 z"
         id="path166" />
      <path
         d="m 430.875,282.54687 -10.1875,23.89063 h -3.14063 l 3.25,-7.28125 -6.95312,-16.60938 h 3.1875 l 5.35937,12.9375 5.40625,-12.9375 z"
         id="path168" />
      <path
         d="m 437.84375,295.54687 -4.40625,10.23438 h -2.28125 l 2.71875,-10.23438 z"
         id="path170" />
      <path
         d="M 464.03125,278.53125 H 463.875 q -0.48438,-0.14063 -1.26563,-0.28125 -0.78125,-0.15625 -1.375,-0.15625 -1.89062,0 -2.75,0.84375 -0.84375,0.82812 -0.84375,3.01562 v 0.59375 h 5.29688 v 2.46875 h -5.20313 V 300 h -2.9375 v -14.98438 h -1.98437 v -2.46875 h 1.98437 v -0.57812 q 0,-3.10938 1.54688,-4.76563 1.54687,-1.67187 4.46875,-1.67187 0.98437,0 1.76562,0.0937 0.79688,0.0937 1.45313,0.21875 z"
         id="path172" />
      <path
         d="m 480.76562,291.28125 q 0,4.26562 -2.1875,6.73437 -2.1875,2.46875 -5.85937,2.46875 -3.70313,0 -5.89063,-2.46875 -2.17187,-2.46875 -2.17187,-6.73437 0,-4.26563 2.17187,-6.73438 2.1875,-2.48437 5.89063,-2.48437 3.67187,0 5.85937,2.48437 2.1875,2.46875 2.1875,6.73438 z m -3.03125,0 q 0,-3.39063 -1.32812,-5.03125 -1.32813,-1.65625 -3.6875,-1.65625 -2.39063,0 -3.71875,1.65625 -1.3125,1.64062 -1.3125,5.03125 0,3.28125 1.32812,4.98437 1.32813,1.6875 3.70313,1.6875 2.34375,0 3.67187,-1.67187 1.34375,-1.6875 1.34375,-5 z"
         id="path174" />
      <path
         d="m 496.20312,285.75 h -0.15625 q -0.65625,-0.15625 -1.28125,-0.21875 -0.60937,-0.0781 -1.45312,-0.0781 -1.35938,0 -2.625,0.60938 -1.26563,0.59375 -2.4375,1.54687 V 300 h -2.9375 v -17.45313 h 2.9375 v 2.57813 q 1.75,-1.40625 3.07812,-1.98438 1.34375,-0.59375 2.73438,-0.59375 0.76562,0 1.10937,0.0469 0.34375,0.0312 1.03125,0.14062 z"
         id="path176" />
      <path
         d="m 513.57812,291.57812 h -12.85937 q 0,1.60938 0.48437,2.8125 0.48438,1.1875 1.32813,1.95313 0.8125,0.75 1.92187,1.125 1.125,0.375 2.46875,0.375 1.78125,0 3.57813,-0.70313 1.8125,-0.71875 2.57812,-1.40625 h 0.15625 v 3.20313 q -1.48437,0.625 -3.03125,1.04687 -1.54687,0.42188 -3.25,0.42188 -4.34375,0 -6.78125,-2.34375 -2.4375,-2.35938 -2.4375,-6.6875 0,-4.28125 2.32813,-6.79688 2.34375,-2.51562 6.15625,-2.51562 3.53125,0 5.4375,2.0625 1.92187,2.0625 1.92187,5.85937 z m -2.85937,-2.25 q -0.0156,-2.3125 -1.17188,-3.57812 -1.14062,-1.26563 -3.48437,-1.26563 -2.35938,0 -3.76563,1.39063 -1.39062,1.39062 -1.57812,3.45312 z"
         id="path178" />
      <path
         d="M 533.125,282.54687 526.0625,300 h -2.95313 l -7.01562,-17.45313 h 3.1875 l 5.40625,13.89063 5.35937,-13.89063 z"
         id="path180" />
      <path
         d="M 551.29687,291.57812 H 538.4375 q 0,1.60938 0.48437,2.8125 0.48438,1.1875 1.32813,1.95313 0.8125,0.75 1.92187,1.125 1.125,0.375 2.46875,0.375 1.78125,0 3.57813,-0.70313 1.8125,-0.71875 2.57812,-1.40625 h 0.15625 v 3.20313 q -1.48437,0.625 -3.03125,1.04687 -1.54687,0.42188 -3.25,0.42188 -4.34375,0 -6.78125,-2.34375 -2.4375,-2.35938 -2.4375,-6.6875 0,-4.28125 2.32813,-6.79688 2.34375,-2.51562 6.15625,-2.51562 3.53125,0 5.4375,2.0625 1.92187,2.0625 1.92187,5.85937 z m -2.85937,-2.25 q -0.0156,-2.3125 -1.17188,-3.57812 -1.14062,-1.26563 -3.48437,-1.26563 -2.35938,0 -3.76563,1.39063 -1.39062,1.39062 -1.57812,3.45312 z"
         id="path182" />
      <path
         d="m 566.64062,285.75 h -0.15625 q -0.65625,-0.15625 -1.28125,-0.21875 -0.60937,-0.0781 -1.45312,-0.0781 -1.35938,0 -2.625,0.60938 -1.26563,0.59375 -2.4375,1.54687 V 300 H 555.75 v -17.45313 h 2.9375 v 2.57813 q 1.75,-1.40625 3.07812,-1.98438 1.34375,-0.59375 2.73438,-0.59375 0.76562,0 1.10937,0.0469 0.34375,0.0312 1.03125,0.14062 z"
         id="path184" />
      <path
         d="m 589.71875,299.84375 q -0.82813,0.21875 -1.8125,0.35937 -0.96875,0.14063 -1.73438,0.14063 -2.67187,0 -4.0625,-1.4375 -1.39062,-1.4375 -1.39062,-4.60938 v -9.28125 h -1.98438 v -2.46875 h 1.98438 v -5.01562 h 2.9375 v 5.01562 h 6.0625 v 2.46875 h -6.0625 v 7.95313 q 0,1.375 0.0625,2.15625 0.0625,0.76562 0.4375,1.4375 0.34375,0.625 0.9375,0.92187 0.60937,0.28125 1.84375,0.28125 0.71875,0 1.5,-0.20312 0.78125,-0.21875 1.125,-0.35938 h 0.15625 z"
         id="path186" />
      <path
         d="m 608.14062,291.28125 q 0,4.26562 -2.1875,6.73437 -2.1875,2.46875 -5.85937,2.46875 -3.70313,0 -5.89063,-2.46875 -2.17187,-2.46875 -2.17187,-6.73437 0,-4.26563 2.17187,-6.73438 2.1875,-2.48437 5.89063,-2.48437 3.67187,0 5.85937,2.48437 2.1875,2.46875 2.1875,6.73438 z m -3.03125,0 q 0,-3.39063 -1.32812,-5.03125 -1.32813,-1.65625 -3.6875,-1.65625 -2.39063,0 -3.71875,1.65625 -1.3125,1.64062 -1.3125,5.03125 0,3.28125 1.32812,4.98437 1.32813,1.6875 3.70313,1.6875 2.34375,0 3.67187,-1.67187 1.34375,-1.6875 1.34375,-5 z"
         id="path188" />
      <path
         d="m 615.65625,300 h -2.9375 v -24.3125 h 2.9375 z"
         id="path190" />
      <path
         d="m 635.625,300 h -2.9375 v -1.82813 q -1.26563,1.09375 -2.64063,1.70313 -1.375,0.60937 -2.98437,0.60937 -3.125,0 -4.96875,-2.40625 -1.82813,-2.40625 -1.82813,-6.67187 0,-2.21875 0.625,-3.95313 0.64063,-1.73437 1.71875,-2.95312 1.0625,-1.1875 2.46875,-1.8125 1.42188,-0.625 2.9375,-0.625 1.375,0 2.4375,0.29687 1.0625,0.28125 2.23438,0.89063 v -7.5625 h 2.9375 z m -2.9375,-4.29688 V 285.6875 q -1.1875,-0.53125 -2.125,-0.73438 -0.9375,-0.20312 -2.04688,-0.20312 -2.46875,0 -3.84375,1.71875 -1.375,1.71875 -1.375,4.875 0,3.10937 1.0625,4.73437 1.0625,1.60938 3.40625,1.60938 1.25,0 2.53125,-0.54688 1.28125,-0.5625 2.39063,-1.4375 z"
         id="path192" />
      <path
         d="m 647.5,295.54687 -4.40625,10.23438 h -2.28125 l 2.71875,-10.23438 z"
         id="path194" />
    </g>
    <g
       aria-label="In ancient scriptures, brave and bold."
       id="text8">
      <path
         d="m 108.69531,350 h -9.187498 v -2.375 h 3.046878 v -18.51563 h -3.046878 v -2.375 h 9.187498 v 2.375 h -3.04687 V 347.625 h 3.04687 z"
         id="path197" />
      <path
         d="m 128.32031,350 h -2.9375 v -9.9375 q 0,-1.20313 -0.14062,-2.25 -0.14063,-1.0625 -0.51563,-1.65625 -0.39062,-0.65625 -1.125,-0.96875 -0.73437,-0.32813 -1.90625,-0.32813 -1.20312,0 -2.51562,0.59375 -1.3125,0.59375 -2.51563,1.51563 V 350 h -2.9375 v -17.45313 h 2.9375 v 1.9375 q 1.375,-1.14062 2.84375,-1.78125 1.46875,-0.64062 3.01563,-0.64062 2.82812,0 4.3125,1.70312 1.48437,1.70313 1.48437,4.90625 z"
         id="path199" />
      <path
         d="m 158.78906,350 h -2.92187 v -1.85938 q -0.39063,0.26563 -1.0625,0.75 -0.65625,0.46875 -1.28125,0.75 -0.73438,0.35938 -1.6875,0.59375 -0.95313,0.25 -2.23438,0.25 -2.35937,0 -4,-1.5625 -1.64062,-1.5625 -1.64062,-3.98437 0,-1.98438 0.84375,-3.20313 0.85937,-1.23437 2.4375,-1.9375 1.59375,-0.70312 3.82812,-0.95312 2.23438,-0.25 4.79688,-0.375 v -0.45313 q 0,-1 -0.35938,-1.65625 -0.34375,-0.65625 -1,-1.03125 -0.625,-0.35937 -1.5,-0.48437 -0.875,-0.125 -1.82812,-0.125 -1.15625,0 -2.57813,0.3125 -1.42187,0.29687 -2.9375,0.875 h -0.15625 v -2.98438 q 0.85938,-0.23437 2.48438,-0.51562 1.625,-0.28125 3.20312,-0.28125 1.84375,0 3.20313,0.3125 1.375,0.29687 2.375,1.03125 0.98437,0.71875 1.5,1.85937 0.51562,1.14063 0.51562,2.82813 z m -2.92187,-4.29688 v -4.85937 q -1.34375,0.0781 -3.17188,0.23437 -1.8125,0.15625 -2.875,0.45313 -1.26562,0.35937 -2.04687,1.125 -0.78125,0.75 -0.78125,2.07812 0,1.5 0.90625,2.26563 0.90625,0.75 2.76562,0.75 1.54688,0 2.82813,-0.59375 1.28125,-0.60938 2.375,-1.45313 z"
         id="path201" />
      <path
         d="m 179.03906,350 h -2.9375 v -9.9375 q 0,-1.20313 -0.14062,-2.25 -0.14063,-1.0625 -0.51563,-1.65625 -0.39062,-0.65625 -1.125,-0.96875 -0.73437,-0.32813 -1.90625,-0.32813 -1.20312,0 -2.51562,0.59375 -1.3125,0.59375 -2.51563,1.51563 V 350 h -2.9375 v -17.45313 h 2.9375 v 1.9375 q 1.375,-1.14062 2.84375,-1.78125 1.46875,-0.64062 3.01563,-0.64062 2.82812,0 4.3125,1.70312 1.48437,1.70313 1.48437,4.90625 z"
         id="path203" />
      <path
         d="m 197.60156,348.90625 q -1.46875,0.70312 -2.79687,1.09375 -1.3125,0.39062 -2.79688,0.39062 -1.89062,0 -3.46875,-0.54687 -1.57812,-0.5625 -2.70312,-1.6875 -1.14063,-1.125 -1.76563,-2.84375 -0.625,-1.71875 -0.625,-4.01563 0,-4.28125 2.34375,-6.71875 2.35938,-2.4375 6.21875,-2.4375 1.5,0 2.9375,0.42188 1.45313,0.42187 2.65625,1.03125 v 3.26562 h -0.15625 q -1.34375,-1.04687 -2.78125,-1.60937 -1.42187,-0.5625 -2.78125,-0.5625 -2.5,0 -3.95312,1.6875 -1.4375,1.67187 -1.4375,4.92187 0,3.15625 1.40625,4.85938 1.42187,1.6875 3.98437,1.6875 0.89063,0 1.8125,-0.23438 0.92188,-0.23437 1.65625,-0.60937 0.64063,-0.32813 1.20313,-0.6875 0.5625,-0.375 0.89062,-0.64063 h 0.15625 z"
         id="path205" />
      <path
         d="m 204.52344,329.625 h -3.3125 v -3.04688 h 3.3125 z M 204.33594,350 h -2.9375 v -17.45313 h 2.9375 z"
         id="path207" />
      <path
         d="m 224.75781,341.57812 h -12.85937 q 0,1.60938 0.48437,2.8125 0.48438,1.1875 1.32813,1.95313 0.8125,0.75 1.92187,1.125 1.125,0.375 2.46875,0.375 1.78125,0 3.57813,-0.70313 1.8125,-0.71875 2.57812,-1.40625 h 0.15625 v 3.20313 q -1.48437,0.625 -3.03125,1.04687 -1.54687,0.42188 -3.25,0.42188 -4.34375,0 -6.78125,-2.34375 -2.4375,-2.35938 -2.4375,-6.6875 0,-4.28125 2.32813,-6.79688 2.34375,-2.51562 6.15625,-2.51562 3.53125,0 5.4375,2.0625 1.92187,2.0625 1.92187,5.85937 z m -2.85937,-2.25 q -0.0156,-2.3125 -1.17188,-3.57812 -1.14062,-1.26563 -3.48437,-1.26563 -2.35938,0 -3.76563,1.39063 -1.39062,1.39062 -1.57812,3.45312 z"
         id="path209" />
      <path
         d="m 243.80469,350 h -2.9375 v -9.9375 q 0,-1.20313 -0.14063,-2.25 -0.14062,-1.0625 -0.51562,-1.65625 -0.39063,-0.65625 -1.125,-0.96875 -0.73438,-0.32813 -1.90625,-0.32813 -1.20313,0 -2.51563,0.59375 -1.3125,0.59375 -2.51562,1.51563 V 350 h -2.9375 v -17.45313 h 2.9375 v 1.9375 q 1.375,-1.14062 2.84375,-1.78125 1.46875,-0.64062 3.01562,-0.64062 2.82813,0 4.3125,1.70312 1.48438,1.70313 1.48438,4.90625 z"
         id="path211" />
      <path
         d="m 258.52344,349.84375 q -0.82813,0.21875 -1.8125,0.35937 -0.96875,0.14063 -1.73438,0.14063 -2.67187,0 -4.0625,-1.4375 -1.39062,-1.4375 -1.39062,-4.60938 v -9.28125 h -1.98438 v -2.46875 h 1.98438 v -5.01562 h 2.9375 v 5.01562 h 6.0625 v 2.46875 h -6.0625 v 7.95313 q 0,1.375 0.0625,2.15625 0.0625,0.76562 0.4375,1.4375 0.34375,0.625 0.9375,0.92187 0.60937,0.28125 1.84375,0.28125 0.71875,0 1.5,-0.20312 0.78125,-0.21875 1.125,-0.35938 h 0.15625 z"
         id="path213" />
      <path
         d="m 285.78906,344.96875 q 0,2.39062 -1.98437,3.92187 -1.96875,1.53125 -5.39063,1.53125 -1.9375,0 -3.5625,-0.45312 -1.60937,-0.46875 -2.70312,-1.01563 v -3.29687 h 0.15625 q 1.39062,1.04687 3.09375,1.67187 1.70312,0.60938 3.26562,0.60938 1.9375,0 3.03125,-0.625 1.09375,-0.625 1.09375,-1.96875 0,-1.03125 -0.59375,-1.5625 -0.59375,-0.53125 -2.28125,-0.90625 -0.625,-0.14063 -1.64062,-0.32813 -1,-0.1875 -1.82813,-0.40625 -2.29687,-0.60937 -3.26562,-1.78125 -0.95313,-1.1875 -0.95313,-2.90625 0,-1.07812 0.4375,-2.03125 0.45313,-0.95312 1.35938,-1.70312 0.875,-0.73438 2.21875,-1.15625 1.35937,-0.4375 3.03125,-0.4375 1.5625,0 3.15625,0.39062 1.60937,0.375 2.67187,0.92188 v 3.14062 h -0.15625 q -1.125,-0.82812 -2.73437,-1.39062 -1.60938,-0.57813 -3.15625,-0.57813 -1.60938,0 -2.71875,0.625 -1.10938,0.60938 -1.10938,1.82813 0,1.07812 0.67188,1.625 0.65625,0.54687 2.125,0.89062 0.8125,0.1875 1.8125,0.375 1.01562,0.1875 1.6875,0.34375 2.04687,0.46875 3.15625,1.60938 1.10937,1.15625 1.10937,3.0625 z"
         id="path215" />
      <path
         d="m 302.89844,348.90625 q -1.46875,0.70312 -2.79688,1.09375 -1.3125,0.39062 -2.79687,0.39062 -1.89063,0 -3.46875,-0.54687 -1.57813,-0.5625 -2.70313,-1.6875 -1.14062,-1.125 -1.76562,-2.84375 -0.625,-1.71875 -0.625,-4.01563 0,-4.28125 2.34375,-6.71875 2.35937,-2.4375 6.21875,-2.4375 1.5,0 2.9375,0.42188 1.45312,0.42187 2.65625,1.03125 v 3.26562 h -0.15625 q -1.34375,-1.04687 -2.78125,-1.60937 -1.42188,-0.5625 -2.78125,-0.5625 -2.5,0 -3.95313,1.6875 -1.4375,1.67187 -1.4375,4.92187 0,3.15625 1.40625,4.85938 1.42188,1.6875 3.98438,1.6875 0.89062,0 1.8125,-0.23438 0.92187,-0.23437 1.65625,-0.60937 0.64062,-0.32813 1.20312,-0.6875 0.5625,-0.375 0.89063,-0.64063 h 0.15625 z"
         id="path217" />
      <path
         d="m 317.55469,335.75 h -0.15625 q -0.65625,-0.15625 -1.28125,-0.21875 -0.60938,-0.0781 -1.45313,-0.0781 -1.35937,0 -2.625,0.60938 -1.26562,0.59375 -2.4375,1.54687 V 350 h -2.9375 v -17.45313 h 2.9375 v 2.57813 q 1.75,-1.40625 3.07813,-1.98438 1.34375,-0.59375 2.73437,-0.59375 0.76563,0 1.10938,0.0469 0.34375,0.0312 1.03125,0.14062 z"
         id="path219" />
      <path
         d="m 323.47656,329.625 h -3.3125 v -3.04688 h 3.3125 z M 323.28906,350 h -2.9375 v -17.45313 h 2.9375 z"
         id="path221" />
      <path
         d="m 344.46094,341.0625 q 0,2.125 -0.60938,3.89062 -0.60937,1.75 -1.71875,2.96875 -1.03125,1.15625 -2.4375,1.79688 -1.39062,0.625 -2.95312,0.625 -1.35938,0 -2.46875,-0.29688 -1.09375,-0.29687 -2.23438,-0.92187 v 7.3125 h -2.9375 v -23.89063 h 2.9375 v 1.82813 q 1.17188,-0.98438 2.625,-1.64063 1.46875,-0.67187 3.125,-0.67187 3.15625,0 4.90625,2.39062 1.76563,2.375 1.76563,6.60938 z m -3.03125,0.0781 q 0,-3.15625 -1.07813,-4.71875 -1.07812,-1.5625 -3.3125,-1.5625 -1.26562,0 -2.54687,0.54688 -1.28125,0.54687 -2.45313,1.4375 v 9.89062 q 1.25,0.5625 2.14063,0.76563 0.90625,0.20312 2.04687,0.20312 2.45313,0 3.82813,-1.65625 1.375,-1.65625 1.375,-4.90625 z"
         id="path223" />
      <path
         d="m 358.10156,349.84375 q -0.82812,0.21875 -1.8125,0.35937 -0.96875,0.14063 -1.73437,0.14063 -2.67188,0 -4.0625,-1.4375 -1.39063,-1.4375 -1.39063,-4.60938 v -9.28125 h -1.98437 v -2.46875 h 1.98437 v -5.01562 h 2.9375 v 5.01562 h 6.0625 v 2.46875 h -6.0625 v 7.95313 q 0,1.375 0.0625,2.15625 0.0625,0.76562 0.4375,1.4375 0.34375,0.625 0.9375,0.92187 0.60938,0.28125 1.84375,0.28125 0.71875,0 1.5,-0.20312 0.78125,-0.21875 1.125,-0.35938 h 0.15625 z"
         id="path225" />
      <path
         d="m 376.11719,350 h -2.9375 v -1.9375 q -1.48438,1.17187 -2.84375,1.79687 -1.35938,0.625 -3,0.625 -2.75,0 -4.28125,-1.67187 -1.53125,-1.6875 -1.53125,-4.9375 v -11.32813 h 2.9375 v 9.9375 q 0,1.32813 0.125,2.28125 0.125,0.9375 0.53125,1.60938 0.42187,0.6875 1.09375,1 0.67187,0.3125 1.95312,0.3125 1.14063,0 2.48438,-0.59375 1.35937,-0.59375 2.53125,-1.51563 v -13.03125 h 2.9375 z"
         id="path227" />
      <path
         d="m 392.78906,335.75 h -0.15625 q -0.65625,-0.15625 -1.28125,-0.21875 -0.60937,-0.0781 -1.45312,-0.0781 -1.35938,0 -2.625,0.60938 -1.26563,0.59375 -2.4375,1.54687 V 350 h -2.9375 v -17.45313 h 2.9375 v 2.57813 q 1.75,-1.40625 3.07812,-1.98438 1.34375,-0.59375 2.73438,-0.59375 0.76562,0 1.10937,0.0469 0.34375,0.0312 1.03125,0.14062 z"
         id="path229" />
      <path
         d="m 410.16406,341.57812 h -12.85937 q 0,1.60938 0.48437,2.8125 0.48438,1.1875 1.32813,1.95313 0.8125,0.75 1.92187,1.125 1.125,0.375 2.46875,0.375 1.78125,0 3.57813,-0.70313 1.8125,-0.71875 2.57812,-1.40625 h 0.15625 v 3.20313 q -1.48437,0.625 -3.03125,1.04687 -1.54687,0.42188 -3.25,0.42188 -4.34375,0 -6.78125,-2.34375 -2.4375,-2.35938 -2.4375,-6.6875 0,-4.28125 2.32813,-6.79688 2.34375,-2.51562 6.15625,-2.51562 3.53125,0 5.4375,2.0625 1.92187,2.0625 1.92187,5.85937 z m -2.85937,-2.25 q -0.0156,-2.3125 -1.17188,-3.57812 -1.14062,-1.26563 -3.48437,-1.26563 -2.35938,0 -3.76563,1.39063 -1.39062,1.39062 -1.57812,3.45312 z"
         id="path231" />
      <path
         d="m 427.08594,344.96875 q 0,2.39062 -1.98438,3.92187 -1.96875,1.53125 -5.39062,1.53125 -1.9375,0 -3.5625,-0.45312 -1.60938,-0.46875 -2.70313,-1.01563 v -3.29687 h 0.15625 q 1.39063,1.04687 3.09375,1.67187 1.70313,0.60938 3.26563,0.60938 1.9375,0 3.03125,-0.625 1.09375,-0.625 1.09375,-1.96875 0,-1.03125 -0.59375,-1.5625 -0.59375,-0.53125 -2.28125,-0.90625 -0.625,-0.14063 -1.64063,-0.32813 -1,-0.1875 -1.82812,-0.40625 -2.29688,-0.60937 -3.26563,-1.78125 -0.95312,-1.1875 -0.95312,-2.90625 0,-1.07812 0.4375,-2.03125 0.45312,-0.95312 1.35937,-1.70312 0.875,-0.73438 2.21875,-1.15625 1.35938,-0.4375 3.03125,-0.4375 1.5625,0 3.15625,0.39062 1.60938,0.375 2.67188,0.92188 v 3.14062 h -0.15625 q -1.125,-0.82812 -2.73438,-1.39062 -1.60937,-0.57813 -3.15625,-0.57813 -1.60937,0 -2.71875,0.625 -1.10937,0.60938 -1.10937,1.82813 0,1.07812 0.67187,1.625 0.65625,0.54687 2.125,0.89062 0.8125,0.1875 1.8125,0.375 1.01563,0.1875 1.6875,0.34375 2.04688,0.46875 3.15625,1.60938 1.10938,1.15625 1.10938,3.0625 z"
         id="path233" />
      <path
         d="m 437.38281,345.54687 -4.40625,10.23438 h -2.28125 l 2.71875,-10.23438 z"
         id="path235" />
      <path
         d="m 469.53906,341.14062 q 0,2.1875 -0.625,3.9375 -0.60937,1.75 -1.65625,2.9375 -1.10937,1.23438 -2.4375,1.85938 -1.32812,0.60937 -2.92187,0.60937 -1.48438,0 -2.59375,-0.35937 -1.10938,-0.34375 -2.1875,-0.9375 L 456.92969,350 h -2.75 v -24.3125 h 2.9375 v 8.6875 q 1.23437,-1.01563 2.625,-1.65625 1.39062,-0.65625 3.125,-0.65625 3.09375,0 4.875,2.375 1.79687,2.375 1.79687,6.70312 z m -3.03125,0.0781 q 0,-3.125 -1.03125,-4.73438 -1.03125,-1.625 -3.32812,-1.625 -1.28125,0 -2.59375,0.5625 -1.3125,0.54688 -2.4375,1.42188 v 10 q 1.25,0.5625 2.14062,0.78125 0.90625,0.21875 2.04688,0.21875 2.4375,0 3.8125,-1.59375 1.39062,-1.60938 1.39062,-5.03125 z"
         id="path237" />
      <path
         d="m 485.00781,335.75 h -0.15625 q -0.65625,-0.15625 -1.28125,-0.21875 -0.60937,-0.0781 -1.45312,-0.0781 -1.35938,0 -2.625,0.60938 -1.26563,0.59375 -2.4375,1.54687 V 350 h -2.9375 v -17.45313 h 2.9375 v 2.57813 q 1.75,-1.40625 3.07812,-1.98438 1.34375,-0.59375 2.73438,-0.59375 0.76562,0 1.10937,0.0469 0.34375,0.0312 1.03125,0.14062 z"
         id="path239" />
      <path
         d="m 500.77344,350 h -2.92188 v -1.85938 q -0.39062,0.26563 -1.0625,0.75 -0.65625,0.46875 -1.28125,0.75 -0.73437,0.35938 -1.6875,0.59375 -0.95312,0.25 -2.23437,0.25 -2.35938,0 -4,-1.5625 -1.64063,-1.5625 -1.64063,-3.98437 0,-1.98438 0.84375,-3.20313 0.85938,-1.23437 2.4375,-1.9375 1.59375,-0.70312 3.82813,-0.95312 2.23437,-0.25 4.79687,-0.375 v -0.45313 q 0,-1 -0.35937,-1.65625 -0.34375,-0.65625 -1,-1.03125 -0.625,-0.35937 -1.5,-0.48437 -0.875,-0.125 -1.82813,-0.125 -1.15625,0 -2.57812,0.3125 -1.42188,0.29687 -2.9375,0.875 h -0.15625 v -2.98438 q 0.85937,-0.23437 2.48437,-0.51562 1.625,-0.28125 3.20313,-0.28125 1.84375,0 3.20312,0.3125 1.375,0.29687 2.375,1.03125 0.98438,0.71875 1.5,1.85937 0.51563,1.14063 0.51563,2.82813 z m -2.92188,-4.29688 v -4.85937 q -1.34375,0.0781 -3.17187,0.23437 -1.8125,0.15625 -2.875,0.45313 -1.26563,0.35937 -2.04688,1.125 -0.78125,0.75 -0.78125,2.07812 0,1.5 0.90625,2.26563 0.90625,0.75 2.76563,0.75 1.54687,0 2.82812,-0.59375 1.28125,-0.60938 2.375,-1.45313 z"
         id="path241" />
      <path
         d="M 521.27344,332.54687 514.21094,350 h -2.95313 l -7.01562,-17.45313 h 3.1875 l 5.40625,13.89063 5.35937,-13.89063 z"
         id="path243" />
      <path
         d="m 539.44531,341.57812 h -12.85937 q 0,1.60938 0.48437,2.8125 0.48438,1.1875 1.32813,1.95313 0.8125,0.75 1.92187,1.125 1.125,0.375 2.46875,0.375 1.78125,0 3.57813,-0.70313 1.8125,-0.71875 2.57812,-1.40625 h 0.15625 v 3.20313 q -1.48437,0.625 -3.03125,1.04687 -1.54687,0.42188 -3.25,0.42188 -4.34375,0 -6.78125,-2.34375 -2.4375,-2.35938 -2.4375,-6.6875 0,-4.28125 2.32813,-6.79688 2.34375,-2.51562 6.15625,-2.51562 3.53125,0 5.4375,2.0625 1.92187,2.0625 1.92187,5.85937 z m -2.85937,-2.25 q -0.0156,-2.3125 -1.17188,-3.57812 -1.14062,-1.26563 -3.48437,-1.26563 -2.35938,0 -3.76563,1.39063 -1.39062,1.39062 -1.57812,3.45312 z"
         id="path245" />
      <path
         d="m 568.71094,350 h -2.92188 v -1.85938 q -0.39062,0.26563 -1.0625,0.75 -0.65625,0.46875 -1.28125,0.75 -0.73437,0.35938 -1.6875,0.59375 -0.95312,0.25 -2.23437,0.25 -2.35938,0 -4,-1.5625 -1.64063,-1.5625 -1.64063,-3.98437 0,-1.98438 0.84375,-3.20313 0.85938,-1.23437 2.4375,-1.9375 1.59375,-0.70312 3.82813,-0.95312 2.23437,-0.25 4.79687,-0.375 v -0.45313 q 0,-1 -0.35937,-1.65625 -0.34375,-0.65625 -1,-1.03125 -0.625,-0.35937 -1.5,-0.48437 -0.875,-0.125 -1.82813,-0.125 -1.15625,0 -2.57812,0.3125 -1.42188,0.29687 -2.9375,0.875 h -0.15625 v -2.98438 q 0.85937,-0.23437 2.48437,-0.51562 1.625,-0.28125 3.20313,-0.28125 1.84375,0 3.20312,0.3125 1.375,0.29687 2.375,1.03125 0.98438,0.71875 1.5,1.85937 0.51563,1.14063 0.51563,2.82813 z m -2.92188,-4.29688 v -4.85937 q -1.34375,0.0781 -3.17187,0.23437 -1.8125,0.15625 -2.875,0.45313 -1.26563,0.35937 -2.04688,1.125 -0.78125,0.75 -0.78125,2.07812 0,1.5 0.90625,2.26563 0.90625,0.75 2.76563,0.75 1.54687,0 2.82812,-0.59375 1.28125,-0.60938 2.375,-1.45313 z"
         id="path247" />
      <path
         d="m 588.96094,350 h -2.9375 v -9.9375 q 0,-1.20313 -0.14063,-2.25 -0.14062,-1.0625 -0.51562,-1.65625 -0.39063,-0.65625 -1.125,-0.96875 -0.73438,-0.32813 -1.90625,-0.32813 -1.20313,0 -2.51563,0.59375 -1.3125,0.59375 -2.51562,1.51563 V 350 h -2.9375 v -17.45313 h 2.9375 v 1.9375 q 1.375,-1.14062 2.84375,-1.78125 1.46875,-0.64062 3.01562,-0.64062 2.82813,0 4.3125,1.70312 1.48438,1.70313 1.48438,4.90625 z"
         id="path249" />
      <path
         d="m 608.77344,350 h -2.9375 v -1.82813 q -1.26563,1.09375 -2.64063,1.70313 -1.375,0.60937 -2.98437,0.60937 -3.125,0 -4.96875,-2.40625 -1.82813,-2.40625 -1.82813,-6.67187 0,-2.21875 0.625,-3.95313 0.64063,-1.73437 1.71875,-2.95312 1.0625,-1.1875 2.46875,-1.8125 1.42188,-0.625 2.9375,-0.625 1.375,0 2.4375,0.29687 1.0625,0.28125 2.23438,0.89063 v -7.5625 h 2.9375 z m -2.9375,-4.29688 V 335.6875 q -1.1875,-0.53125 -2.125,-0.73438 -0.9375,-0.20312 -2.04688,-0.20312 -2.46875,0 -3.84375,1.71875 -1.375,1.71875 -1.375,4.875 0,3.10937 1.0625,4.73437 1.0625,1.60938 3.40625,1.60938 1.25,0 2.53125,-0.54688 1.28125,-0.5625 2.39063,-1.4375 z"
         id="path251" />
      <path
         d="m 641.16406,341.14062 q 0,2.1875 -0.625,3.9375 -0.60937,1.75 -1.65625,2.9375 -1.10937,1.23438 -2.4375,1.85938 -1.32812,0.60937 -2.92187,0.60937 -1.48438,0 -2.59375,-0.35937 -1.10938,-0.34375 -2.1875,-0.9375 L 628.55469,350 h -2.75 v -24.3125 h 2.9375 v 8.6875 q 1.23437,-1.01563 2.625,-1.65625 1.39062,-0.65625 3.125,-0.65625 3.09375,0 4.875,2.375 1.79687,2.375 1.79687,6.70312 z m -3.03125,0.0781 q 0,-3.125 -1.03125,-4.73438 -1.03125,-1.625 -3.32812,-1.625 -1.28125,0 -2.59375,0.5625 -1.3125,0.54688 -2.4375,1.42188 v 10 q 1.25,0.5625 2.14062,0.78125 0.90625,0.21875 2.04688,0.21875 2.4375,0 3.8125,-1.59375 1.39062,-1.60938 1.39062,-5.03125 z"
         id="path253" />
      <path
         d="m 660.61719,341.28125 q 0,4.26562 -2.1875,6.73437 -2.1875,2.46875 -5.85938,2.46875 -3.70312,0 -5.89062,-2.46875 -2.17188,-2.46875 -2.17188,-6.73437 0,-4.26563 2.17188,-6.73438 2.1875,-2.48437 5.89062,-2.48437 3.67188,0 5.85938,2.48437 2.1875,2.46875 2.1875,6.73438 z m -3.03125,0 q 0,-3.39063 -1.32813,-5.03125 -1.32812,-1.65625 -3.6875,-1.65625 -2.39062,0 -3.71875,1.65625 -1.3125,1.64062 -1.3125,5.03125 0,3.28125 1.32813,4.98437 1.32812,1.6875 3.70312,1.6875 2.34375,0 3.67188,-1.67187 1.34375,-1.6875 1.34375,-5 z"
         id="path255" />
      <path
         d="m 668.13281,350 h -2.9375 v -24.3125 h 2.9375 z"
         id="path257" />
      <path
         d="m 688.10156,350 h -2.9375 v -1.82813 q -1.26562,1.09375 -2.64062,1.70313 -1.375,0.60937 -2.98438,0.60937 -3.125,0 -4.96875,-2.40625 -1.82812,-2.40625 -1.82812,-6.67187 0,-2.21875 0.625,-3.95313 0.64062,-1.73437 1.71875,-2.95312 1.0625,-1.1875 2.46875,-1.8125 1.42187,-0.625 2.9375,-0.625 1.375,0 2.4375,0.29687 1.0625,0.28125 2.23437,0.89063 v -7.5625 h 2.9375 z m -2.9375,-4.29688 V 335.6875 q -1.1875,-0.53125 -2.125,-0.73438 -0.9375,-0.20312 -2.04687,-0.20312 -2.46875,0 -3.84375,1.71875 -1.375,1.71875 -1.375,4.875 0,3.10937 1.0625,4.73437 1.0625,1.60938 3.40625,1.60938 1.25,0 2.53125,-0.54688 1.28125,-0.5625 2.39062,-1.4375 z"
         id="path259" />
      <path
         d="m 698.67969,350 h -3.73438 v -4.45313 h 3.73438 z"
         id="path261" />
    </g>
  </g>
</svg>
