<?xml version="1.0" encoding="UTF-8" standalone="no"?>
<svg
   width="200mm"
   height="150mm"
   viewBox="0 0 200 150"
   version="1.1"
   id="svg7"
   sodipodi:docname="temp_robo_kavi_box_with_footer_vectorized.svg"
   xmlns:inkscape="http://www.inkscape.org/namespaces/inkscape"
   xmlns:sodipodi="http://sodipodi.sourceforge.net/DTD/sodipodi-0.dtd"
   xmlns="http://www.w3.org/2000/svg"
   xmlns:svg="http://www.w3.org/2000/svg">
  <sodipodi:namedview
     id="namedview9"
     pagecolor="#ffffff"
     bordercolor="#000000"
     borderopacity="0.25"
     inkscape:showpageshadow="2"
     inkscape:pageopacity="0.0"
     inkscape:pagecheckerboard="0"
     inkscape:deskcolor="#d1d1d1"
     inkscape:document-units="mm" />
  <defs
     id="defs2" />
  <g
     id="layer1">
    <rect
       style="fill:none;stroke:#000000;stroke-width:0.5;stroke-linecap:butt;stroke-linejoin:miter;stroke-miterlimit:4;stroke-dasharray:none;stroke-opacity:1"
       id="rect1"
       width="199.5"
       height="149.5"
       x="0.25"
       y="0.25" />
    <g
       aria-label="RoboKavi"
       id="text_title"
       style="font-size:7.55906px;font-family:Arial, sans-serif;text-anchor:middle">
      <path
         d="M 87.908464,15 86.557578,12.840797 H 84.937254 V 15 H 84.232283 V 9.7994585 h 2.447097 q 0.878444,0 1.354576,0.3949315 0.479823,0.39124 0.479823,1.092519 0,0.579479 -0.339567,0.97441 -0.335876,0.394931 -0.930118,0.498277 L 88.720472,15 Z m -0.103346,-3.705709 q 0,-0.453986 -0.31004,-0.690206 -0.306348,-0.239912 -0.885826,-0.239912 h -1.671998 v 1.919291 h 1.701525 q 0.557333,0 0.85999,-0.258366 0.306349,-0.262057 0.306349,-0.730807 z"
         id="path11" />
      <path
         d="m 92.957677,12.999508 q 0,1.048228 -0.461368,1.56127 -0.461368,0.513041 -1.339813,0.513041 -0.874754,0 -1.321359,-0.531496 -0.446604,-0.535187 -0.446604,-1.542815 0,-2.066929 1.790108,-2.066929 0.915355,0 1.347195,0.505659 0.431841,0.501969 0.431841,1.56127 z m -0.697589,0 q 0,-0.826772 -0.247293,-1.199557 -0.243602,-0.376477 -0.823081,-0.376477 -0.583169,0 -0.845226,0.383859 -0.258366,0.380167 -0.258366,1.192175 0,0.789862 0.254675,1.188484 0.258366,0.394931 0.808317,0.394931 0.597933,0 0.852608,-0.383858 0.258366,-0.383858 0.258366,-1.199557 z"
         id="path13" />
      <path
         d="m 97.161663,12.984744 q 0,2.089075 -1.468996,2.089075 -0.453987,0 -0.756644,-0.162402 -0.298967,-0.166092 -0.487205,-0.531496 h -0.0074 q 0,0.11442 -0.01476,0.35064 -0.01476,0.23253 -0.02214,0.269439 h -0.642225 q 0.02215,-0.199311 0.02215,-0.823081 V 9.5226376 h 0.66437 v 1.5612694 q 0,0.239912 -0.01476,0.564715 h 0.01476 q 0.184547,-0.383858 0.487205,-0.549951 0.306348,-0.166092 0.756644,-0.166092 0.756643,0 1.110974,0.50935 0.358022,0.50935 0.358022,1.542815 z m -0.697589,0.02215 q 0,-0.837845 -0.221457,-1.199557 -0.221456,-0.361713 -0.719734,-0.361713 -0.561024,0 -0.81939,0.383858 -0.254675,0.383859 -0.254675,1.218012 0,0.786171 0.250984,1.162648 0.250985,0.372785 0.815699,0.372785 0.501969,0 0.723425,-0.369094 0.225148,-0.372786 0.225148,-1.206939 z"
         id="path15" />
      <path
         d="m 101.36565,12.999508 q 0,1.048228 -0.46137,1.56127 -0.46137,0.513041 -1.339811,0.513041 -0.874754,0 -1.321359,-0.531496 -0.446604,-0.535187 -0.446604,-1.542815 0,-2.066929 1.790108,-2.066929 0.915356,0 1.347196,0.505659 0.43184,0.501969 0.43184,1.56127 z m -0.69759,0 q 0,-0.826772 -0.24729,-1.199557 -0.2436,-0.376477 -0.823083,-0.376477 -0.583169,0 -0.845226,0.383859 -0.258366,0.380167 -0.258366,1.192175 0,0.789862 0.254675,1.188484 0.258366,0.394931 0.808317,0.394931 0.597933,0 0.852613,-0.383858 0.25836,-0.383858 0.25836,-1.199557 z"
         id="path17" />
      <path
         d="m 105.76526,15 -2.07801,-2.509843 -0.67913,0.516733 V 15 h -0.70497 V 9.7994585 h 0.70497 v 2.6058075 l 2.50615,-2.6058075 h 0.83046 L 104.13017,12.058317 106.64001,15 Z"
         id="path19" />
      <path
         d="m 108.25295,15.073819 q -0.60162,0 -0.90428,-0.317421 -0.30266,-0.317422 -0.30266,-0.871063 0,-0.620079 0.40601,-0.952264 0.40969,-0.332185 1.31767,-0.354331 l 0.8969,-0.01476 v -0.217765 q 0,-0.487205 -0.2067,-0.697589 -0.20669,-0.210384 -0.6496,-0.210384 -0.44661,0 -0.64961,0.151329 -0.203,0.151329 -0.2436,0.483514 l -0.6939,-0.06275 q 0.16978,-1.077756 1.60187,-1.077756 0.75295,0 1.13312,0.346948 0.38017,0.343258 0.38017,0.996556 v 1.71998 q 0,0.295276 0.0775,0.446604 0.0775,0.147638 0.29527,0.147638 0.096,0 0.21777,-0.02584 v 0.413386 q -0.25099,0.05905 -0.51304,0.05905 -0.3691,0 -0.53888,-0.191929 -0.16609,-0.19562 -0.18824,-0.609006 h -0.0221 q -0.25468,0.457678 -0.59425,0.649607 -0.33587,0.188238 -0.81939,0.188238 z m 0.15133,-0.498278 q 0.36541,0 0.64961,-0.166092 0.2842,-0.166093 0.4466,-0.453986 0.1661,-0.291585 0.1661,-0.597934 v -0.328494 l -0.72712,0.01476 q -0.46875,0.0074 -0.71235,0.09596 -0.23991,0.08858 -0.3691,0.27313 -0.12918,0.184547 -0.12918,0.483513 0,0.324804 0.17347,0.501969 0.17717,0.177165 0.50197,0.177165 z"
         id="path21" />
      <path
         d="m 113.19144,15 h -0.78617 l -1.45055,-3.993602 h 0.70867 l 0.87844,2.598425 q 0.048,0.147638 0.25468,0.874754 l 0.12918,-0.431841 0.14395,-0.435531 0.90797,-2.605807 h 0.70497 z"
         id="path23" />
      <path
         d="M 115.21407,10.15748 V 9.5226376 h 0.66437 V 10.15748 Z m 0,4.84252 v -3.993602 h 0.66437 V 15 Z"
         id="path25" />
    </g>
    <g
       aria-label="made in jalihal"
       id="text_footer"
       style="font-size:7.55906px;font-family:Arial, sans-serif;text-anchor:middle">
      <path
         d="m 78.67372,140 v -2.53199 q 0,-0.57948 -0.158711,-0.80093 -0.15871,-0.22146 -0.572096,-0.22146 -0.424459,0 -0.671752,0.3248 -0.247294,0.32481 -0.247294,0.91536 V 140 h -0.660679 v -3.14099 q 0,-0.69759 -0.02214,-0.85261 h 0.62746 q 0.0037,0.0184 0.0074,0.0996 0.0037,0.0812 0.0074,0.18824 0.0074,0.10335 0.01476,0.39493 h 0.01107 q 0.214075,-0.42446 0.490895,-0.59055 0.276821,-0.16609 0.675443,-0.16609 0.453987,0 0.716044,0.18085 0.265748,0.18086 0.369094,0.57579 h 0.01107 q 0.206693,-0.40231 0.498278,-0.57948 0.295275,-0.17716 0.712352,-0.17716 0.605315,0 0.878445,0.32849 0.276821,0.3285 0.276821,1.07776 V 140 H 80.98056 v -2.53199 q 0,-0.57948 -0.15871,-0.80093 -0.158711,-0.22146 -0.572097,-0.22146 -0.435531,0 -0.679133,0.3248 -0.239912,0.32112 -0.239912,0.91536 V 140 Z"
         id="path28" />
      <path
         d="m 83.663877,140.07382 q -0.601624,0 -0.904281,-0.31742 -0.302658,-0.31742 -0.302658,-0.87107 0,-0.62007 0.406004,-0.95226 0.409695,-0.33218 1.317668,-0.35433 l 0.896899,-0.0148 v -0.21777 q 0,-0.4872 -0.206693,-0.69759 -0.206693,-0.21038 -0.649606,-0.21038 -0.446604,0 -0.649606,0.15133 -0.203002,0.15133 -0.243603,0.48351 l -0.693897,-0.0627 q 0.169783,-1.07775 1.60187,-1.07775 0.752953,0 1.13312,0.34695 0.380167,0.34326 0.380167,0.99655 v 1.71998 q 0,0.29528 0.07751,0.44661 0.07751,0.14764 0.295276,0.14764 0.09596,0 0.217765,-0.0258 v 0.41338 q -0.250984,0.0591 -0.513041,0.0591 -0.369094,0 -0.538878,-0.19193 -0.166092,-0.19562 -0.188238,-0.60901 h -0.02215 q -0.254675,0.45768 -0.594242,0.64961 -0.335876,0.18824 -0.81939,0.18824 z m 0.151329,-0.49828 q 0.365404,0 0.649606,-0.16609 0.284203,-0.16609 0.446605,-0.45399 0.166092,-0.29158 0.166092,-0.59793 v -0.32849 l -0.727116,0.0148 q -0.46875,0.007 -0.712352,0.096 -0.239912,0.0886 -0.369095,0.27313 -0.129183,0.18455 -0.129183,0.48352 0,0.3248 0.173475,0.50197 0.177165,0.17716 0.501968,0.17716 z"
         id="path30" />
      <path
         d="m 89.370078,139.35778 q -0.184547,0.38385 -0.490896,0.54995 -0.302657,0.16609 -0.752952,0.16609 -0.756644,0 -1.114666,-0.50935 -0.35433,-0.50935 -0.35433,-1.54282 0,-2.08907 1.468996,-2.08907 0.453986,0 0.756643,0.16609 0.302658,0.16609 0.487205,0.52781 h 0.0074 l -0.0074,-0.44661 v -1.65723 h 0.66437 v 4.65428 q 0,0.62377 0.02215,0.82308 h -0.634843 q -0.01107,-0.0591 -0.02584,-0.27313 -0.01107,-0.21407 -0.01107,-0.36909 z m -2.015256,-1.35827 q 0,0.83784 0.221457,1.19955 0.221457,0.36172 0.719734,0.36172 0.564715,0 0.81939,-0.39124 0.254675,-0.39124 0.254675,-1.21432 0,-0.79356 -0.254675,-1.16265 -0.254675,-0.3691 -0.812008,-0.3691 -0.501969,0 -0.727116,0.37279 -0.221457,0.36909 -0.221457,1.20325 z"
         id="path32" />
      <path
         d="m 91.562499,138.14345 q 0,0.68652 0.284203,1.05931 0.284203,0.37278 0.830463,0.37278 0.43184,0 0.690206,-0.17347 0.262057,-0.17348 0.354331,-0.43923 l 0.583169,0.1661 q -0.358021,0.94488 -1.627706,0.94488 -0.885827,0 -1.350886,-0.52781 -0.461368,-0.5278 -0.461368,-1.56865 0,-0.98917 0.461368,-1.51698 0.465059,-0.5278 1.325049,-0.5278 1.760581,0 1.760581,2.12229 v 0.0886 z m 2.162894,-0.50935 q -0.05536,-0.63115 -0.321112,-0.91904 -0.265748,-0.29159 -0.764026,-0.29159 -0.483514,0 -0.767716,0.32481 -0.280512,0.32111 -0.302658,0.88582 z"
         id="path34" />
      <path
         d="m 97.353591,135.15748 v -0.63484 h 0.66437 v 0.63484 z m 0,4.84252 v -3.9936 h 0.66437 V 140 Z"
         id="path36" />
      <path
         d="m 101.57234,140 v -2.53199 q 0,-0.39493 -0.0775,-0.6127 -0.0775,-0.21776 -0.24729,-0.31373 -0.16978,-0.096 -0.49828,-0.096 -0.47982,0 -0.756643,0.32849 -0.27682,0.3285 -0.27682,0.91167 V 140 h -0.664371 v -3.14099 q 0,-0.69759 -0.02215,-0.85261 h 0.62746 q 0.0037,0.0184 0.0074,0.0996 0.0037,0.0812 0.0074,0.18824 0.0074,0.10335 0.01476,0.39493 h 0.01107 q 0.228838,-0.41338 0.527808,-0.58317 0.30265,-0.17347 0.74926,-0.17347 0.65699,0 0.95964,0.32849 0.30635,0.32481 0.30635,1.07776 V 140 Z"
         id="path38" />
      <path
         d="m 105.33711,135.15748 v -0.63484 h 0.66437 v 0.63484 z m 0.66437,5.33711 q 0,0.56471 -0.22146,0.81939 -0.22146,0.25467 -0.66437,0.25467 -0.2842,0 -0.46875,-0.0332 v -0.51304 l 0.22884,0.0222 q 0.25467,0 0.35802,-0.13288 0.10335,-0.13287 0.10335,-0.51673 v -4.38853 h 0.66437 z"
         id="path40" />
      <path
         d="m 108.03888,140.07382 q -0.60163,0 -0.90428,-0.31742 -0.30266,-0.31742 -0.30266,-0.87107 0,-0.62007 0.406,-0.95226 0.4097,-0.33218 1.31767,-0.35433 l 0.8969,-0.0148 v -0.21777 q 0,-0.4872 -0.20669,-0.69759 -0.2067,-0.21038 -0.64961,-0.21038 -0.4466,0 -0.64961,0.15133 -0.203,0.15133 -0.2436,0.48351 l -0.6939,-0.0627 q 0.16979,-1.07775 1.60187,-1.07775 0.75296,0 1.13312,0.34695 0.38017,0.34326 0.38017,0.99655 v 1.71998 q 0,0.29528 0.0775,0.44661 0.0775,0.14764 0.29528,0.14764 0.096,0 0.21776,-0.0258 v 0.41338 q -0.25098,0.0591 -0.51304,0.0591 -0.36909,0 -0.53888,-0.19193 -0.16609,-0.19562 -0.18823,-0.60901 h -0.0221 q -0.25467,0.45768 -0.59424,0.64961 -0.33588,0.18824 -0.81939,0.18824 z m 0.15133,-0.49828 q 0.3654,0 0.6496,-0.16609 0.28421,-0.16609 0.44661,-0.45399 0.16609,-0.29158 0.16609,-0.59793 v -0.32849 l -0.72712,0.0148 q -0.46875,0.007 -0.71235,0.096 -0.23991,0.0886 -0.36909,0.27313 -0.12919,0.18455 -0.12919,0.48352 0,0.3248 0.17348,0.50197 0.17716,0.17716 0.50197,0.17716 z"
         id="path42" />
      <path
         d="m 111.22416,140 v -5.47736 h 0.66437 V 140 Z"
         id="path44" />
      <path
         d="m 112.89985,135.15748 v -0.63484 h 0.66437 v 0.63484 z m 0,4.84252 v -3.9936 h 0.66437 V 140 Z"
         id="path46" />
      <path
         d="m 115.2436,136.68922 q 0.21408,-0.39124 0.51304,-0.57209 0.30266,-0.18455 0.76403,-0.18455 0.6496,0 0.95595,0.3248 0.31004,0.32111 0.31004,1.08145 V 140 h -0.66806 v -2.53199 q 0,-0.42077 -0.0775,-0.62377 -0.0775,-0.20669 -0.25467,-0.30266 -0.17717,-0.096 -0.4909,-0.096 -0.46875,0 -0.75295,0.3248 -0.28051,0.32481 -0.28051,0.87476 V 140 h -0.66437 v -5.47736 h 0.66437 v 1.4247 q 0,0.22515 -0.0148,0.46506 -0.0111,0.23991 -0.0148,0.27682 z"
         id="path48" />
      <path
         d="m 119.80561,140.07382 q -0.60162,0 -0.90428,-0.31742 -0.30266,-0.31742 -0.30266,-0.87107 0,-0.62007 0.406,-0.95226 0.4097,-0.33218 1.31767,-0.35433 l 0.8969,-0.0148 v -0.21777 q 0,-0.4872 -0.20669,-0.69759 -0.20669,-0.21038 -0.64961,-0.21038 -0.4466,0 -0.6496,0.15133 -0.20301,0.15133 -0.24361,0.48351 l -0.69389,-0.0627 q 0.16978,-1.07775 1.60187,-1.07775 0.75295,0 1.13312,0.34695 0.38016,0.34326 0.38016,0.99655 v 1.71998 q 0,0.29528 0.0775,0.44661 0.0775,0.14764 0.29528,0.14764 0.096,0 0.21776,-0.0258 v 0.41338 q -0.25098,0.0591 -0.51304,0.0591 -0.36909,0 -0.53887,-0.19193 -0.1661,-0.19562 -0.18824,-0.60901 h -0.0221 q -0.25467,0.45768 -0.59424,0.64961 -0.33588,0.18824 -0.81939,0.18824 z m 0.15133,-0.49828 q 0.3654,0 0.6496,-0.16609 0.28421,-0.16609 0.44661,-0.45399 0.16609,-0.29158 0.16609,-0.59793 v -0.32849 l -0.72711,0.0148 q -0.46875,0.007 -0.71236,0.096 -0.23991,0.0886 -0.36909,0.27313 -0.12918,0.18455 -0.12918,0.48352 0,0.3248 0.17347,0.50197 0.17717,0.17716 0.50197,0.17716 z"
         id="path50" />
      <path
         d="m 122.9909,140 v -5.47736 h 0.66437 V 140 Z"
         id="path52" />
    </g>
  </g>
</svg>
