<?xml version="1.0" encoding="UTF-8" standalone="no"?>
<!-- Created with Inkscape (http://www.inkscape.org/) -->

<svg
   width="210mm"
   height="297mm"
   viewBox="0 0 210 297"
   version="1.1"
   id="svg5"
   inkscape:version="1.2.2 (732a01da63, 2022-12-09)"
   sodipodi:docname="sahil_inkscape1.svg"
   xmlns:inkscape="http://www.inkscape.org/namespaces/inkscape"
   xmlns:sodipodi="http://sodipodi.sourceforge.net/DTD/sodipodi-0.dtd"
   xmlns="http://www.w3.org/2000/svg"
   xmlns:svg="http://www.w3.org/2000/svg">
  <sodipodi:namedview
     id="namedview7"
     pagecolor="#ffffff"
     bordercolor="#666666"
     borderopacity="1.0"
     inkscape:showpageshadow="2"
     inkscape:pageopacity="0.0"
     inkscape:pagecheckerboard="0"
     inkscape:deskcolor="#d1d1d1"
     inkscape:document-units="mm"
     showgrid="false"
     inkscape:zoom="0.69130191"
     inkscape:cx="396.3536"
     inkscape:cy="525.09619"
     inkscape:window-width="1920"
     inkscape:window-height="974"
     inkscape:window-x="-11"
     inkscape:window-y="-11"
     inkscape:window-maximized="1"
     inkscape:current-layer="layer1" />
  <defs
     id="defs2">
    <rect
       x="180.81825"
       y="351.51067"
       width="478.80672"
       height="147.54769"
       id="rect113" />
  </defs>
  <g
     inkscape:label="Layer 1"
     inkscape:groupmode="layer"
     id="layer1">
    <g
       aria-label="साहिलाला गाथा सांगतात इतिहासाच्या, पुरातन काळाच्या गोष्टी, जशा सृष्टीच्या. वाऱ्याच्या कथा, लाटांच्या गूंज, साहिलीच आहेत इतिहासाच्या उलगड्याची मूंज."
       transform="matrix(0.292035 0 0 0.340178 -4.95713 -32.625)"
       id="text111"
       style="font-size:24px;line-height:1.25;font-family:Mukta;-inkscape-font-specification:'Mukta, Normal';font-variant-ligatures:none;letter-spacing:0px;word-spacing:0px;white-space:pre;shape-inside:url(#rect113)"
       inkscape:export-filename="text111.svg"
       inkscape:export-xdpi="96"
       inkscape:export-ydpi="96">
      <path
         d="m 188.06636,370.17946 -1.296,0.864 -4.512,-6.792 q -0.408,-0.576 -0.576,-0.912 -0.144,-0.336 -0.144,-0.6 0,-0.384 0.288,-0.576 0.312,-0.216 0.744,-0.216 l 0.408,0.528 q 0.336,0.456 0.672,0.624 0.336,0.168 0.84,0.168 1.128,0 1.8,-0.744 0.672,-0.744 0.672,-2.088 0,-1.176 -0.456,-2.064 -0.432,-0.888 -0.912,-1.44 h -5.016 v -1.224 h 16.248 v 1.224 h -2.28 v 13.896 h -1.512 v -6.528 q -0.48,0.264 -1.176,0.432 -0.696,0.144 -1.704,0.144 -0.84,0 -1.704,-0.264 -0.84,-0.264 -1.464,-0.72 -0.888,0.648 -2.304,0.648 -0.36,0 -0.6,-0.072 z m 1.944,-6.624 q 1.032,0 1.8,-0.24 0.768,-0.264 1.224,-0.648 v -5.736 h -5.904 q 0.216,0.24 0.456,0.624 0.264,0.384 0.456,0.864 0.216,0.456 0.336,0.984 0.144,0.528 0.144,1.104 0,1.464 -0.72,2.52 0.936,0.528 2.208,0.528 z"
         id="path221" />
      <path
         d="m 198.62635,356.93146 h -2.28 v -1.224 h 6.072 v 1.224 h -2.28 v 13.896 h -1.512 z"
         id="path223" />
      <path
         d="m 204.21834,356.93146 h -2.28 v -1.224 h 2.064 q -0.12,-0.192 -0.24,-0.6 -0.12,-0.408 -0.12,-0.96 0,-0.744 0.288,-1.392 0.312,-0.672 0.888,-1.152 0.6,-0.48 1.464,-0.744 0.888,-0.288 2.064,-0.288 1.608,0 2.928,0.576 1.32,0.552 2.328,1.368 1.032,0.816 1.752,1.728 0.744,0.912 1.176,1.608 l 0.168,0.288 -1.152,0.648 -0.264,-0.408 q -0.552,-0.84 -1.272,-1.632 -0.696,-0.816 -1.56,-1.44 -0.864,-0.648 -1.872,-1.032 -1.008,-0.408 -2.16,-0.408 -1.704,0 -2.448,0.768 -0.744,0.744 -0.744,1.8 0,0.336 0.048,0.672 0.048,0.312 0.192,0.6 h 2.544 v 1.224 h -2.28 v 13.896 h -1.512 z"
         id="path225" />
      <path
         d="m 215.54636,373.05946 q -1.68,-0.168 -2.904,-0.648 -1.2,-0.48 -1.992,-1.2 -0.792,-0.72 -1.176,-1.608 -0.384,-0.888 -0.384,-1.896 0,-0.864 0.288,-1.536 0.312,-0.696 0.792,-1.176 -0.552,-0.528 -0.936,-1.176 -0.384,-0.672 -0.384,-1.512 0,-0.672 0.24,-1.176 0.264,-0.528 0.672,-0.864 0.432,-0.36 0.984,-0.528 0.576,-0.168 1.2,-0.168 h 3.336 v -2.64 h -7.872 v -1.224 h 12.144 v 1.224 h -2.784 v 3.888 h -4.176 q -0.432,0 -0.84,0.072 -0.384,0.072 -0.696,0.264 -0.288,0.168 -0.48,0.48 -0.168,0.312 -0.168,0.816 0,0.552 0.216,1.032 0.24,0.456 0.576,0.792 1.176,-0.672 2.736,-0.672 1.008,0 1.8,0.288 0.792,0.288 1.344,0.792 0.576,0.48 0.864,1.152 0.288,0.648 0.288,1.392 0,0.768 -0.336,1.416 -0.312,0.648 -0.744,1.056 l -1.152,-0.84 q 0.288,-0.288 0.504,-0.696 0.216,-0.432 0.216,-0.984 0,-0.384 -0.168,-0.792 -0.144,-0.408 -0.48,-0.744 -0.312,-0.336 -0.84,-0.528 -0.528,-0.216 -1.248,-0.216 -1.512,0 -2.424,0.792 -0.912,0.792 -0.912,2.088 0,0.72 0.24,1.368 0.24,0.648 0.816,1.2 0.6,0.528 1.632,0.888 1.032,0.384 2.616,0.552 z"
         id="path227" />
      <path
         d="m 227.13839,362.45146 q -0.408,-0.456 -1.056,-0.72 -0.648,-0.288 -1.368,-0.288 -1.2,0 -1.992,0.72 -0.768,0.696 -0.768,2.136 0,1.008 0.312,1.848 0.336,0.816 0.912,1.512 0.576,0.696 1.344,1.272 0.768,0.552 1.632,1.008 l -0.912,1.104 q -0.984,-0.528 -1.872,-1.2 -0.888,-0.696 -1.56,-1.536 -0.648,-0.864 -1.032,-1.872 -0.384,-1.032 -0.384,-2.232 0,-1.008 0.336,-1.776 0.336,-0.768 0.912,-1.272 0.576,-0.504 1.32,-0.744 0.744,-0.264 1.56,-0.264 0.984,0 1.8,0.36 0.84,0.36 1.392,0.984 0.48,-0.624 1.176,-0.96 0.696,-0.336 1.56,-0.336 0.456,0 0.864,0.096 0.432,0.072 0.696,0.192 v -3.552 h -12.816 v -1.224 h 16.608 v 1.224 h -2.28 v 13.896 h -1.512 v -9.12 q -0.192,-0.12 -0.528,-0.192 -0.312,-0.072 -0.744,-0.072 -1.344,0 -1.968,1.08 -0.6,1.056 -0.648,3.24 h -1.488 q 0,-1.152 0.144,-1.944 0.168,-0.816 0.36,-1.368 z"
         id="path229" />
      <path
         d="m 237.60241,356.93146 h -2.28 v -1.224 h 6.072 v 1.224 h -2.28 v 13.896 h -1.512 z"
         id="path231" />
      <path
         d="m 248.8584,362.45146 q -0.408,-0.456 -1.056,-0.72 -0.648,-0.288 -1.368,-0.288 -1.2,0 -1.992,0.72 -0.768,0.696 -0.768,2.136 0,1.008 0.312,1.848 0.336,0.816 0.912,1.512 0.576,0.696 1.344,1.272 0.768,0.552 1.632,1.008 l -0.912,1.104 q -0.984,-0.528 -1.872,-1.2 -0.888,-0.696 -1.56,-1.536 -0.648,-0.864 -1.032,-1.872 -0.384,-1.032 -0.384,-2.232 0,-1.008 0.336,-1.776 0.336,-0.768 0.912,-1.272 0.576,-0.504 1.32,-0.744 0.744,-0.264 1.56,-0.264 0.984,0 1.8,0.36 0.84,0.36 1.392,0.984 0.48,-0.624 1.176,-0.96 0.696,-0.336 1.56,-0.336 0.456,0 0.864,0.096 0.432,0.072 0.696,0.192 v -3.552 h -12.816 v -1.224 h 16.608 v 1.224 h -2.28 v 13.896 h -1.512 v -9.12 q -0.192,-0.12 -0.528,-0.192 -0.312,-0.072 -0.744,-0.072 -1.344,0 -1.968,1.08 -0.6,1.056 -0.648,3.24 h -1.488 q 0,-1.152 0.144,-1.944 0.168,-0.816 0.36,-1.368 z"
         id="path233" />
      <path
         d="m 259.32242,356.93146 h -2.28 v -1.224 h 6.072 v 1.224 h -2.28 v 13.896 h -1.512 z"
         id="path235" />
      <path
         d="m 271.61044,363.79546 q 0.336,-0.216 0.648,-0.864 0.312,-0.672 0.312,-1.632 0,-1.368 -0.6,-2.472 -0.576,-1.128 -1.368,-1.896 h -2.76 v -1.224 h 13.704 v 1.224 h -2.28 v 13.896 h -1.512 v -13.896 h -5.472 q 0.288,0.288 0.624,0.744 0.336,0.432 0.6,1.008 0.264,0.576 0.432,1.296 0.192,0.696 0.192,1.512 0,1.008 -0.264,1.824 -0.264,0.816 -0.696,1.392 -0.432,0.552 -1.008,0.864 -0.552,0.312 -1.152,0.312 -0.816,0 -1.392,-0.504 -0.576,-0.504 -0.576,-1.272 0,-0.576 0.384,-0.936 0.384,-0.384 0.816,-0.384 z"
         id="path237" />
      <path
         d="m 283.34646,356.93146 h -2.28 v -1.224 h 6.072 v 1.224 h -2.28 v 13.896 h -1.512 z"
         id="path239" />
      <path
         d="m 288.41045,362.78746 q 1.08,-0.096 2.016,-0.36 0.936,-0.288 1.608,-0.768 0.696,-0.48 1.08,-1.152 0.384,-0.672 0.384,-1.584 0,-1.152 -0.576,-1.656 -0.576,-0.504 -1.344,-0.504 -0.84,0 -1.344,0.48 -0.504,0.456 -0.504,1.248 0,0.648 0.312,1.08 0.336,0.432 0.744,0.6 l -0.744,0.984 q -0.696,-0.264 -1.272,-0.96 -0.576,-0.696 -0.576,-1.776 0,-0.6 0.216,-1.128 0.24,-0.552 0.672,-0.936 0.432,-0.408 1.056,-0.648 0.648,-0.24 1.44,-0.24 0.816,0 1.44,0.288 0.648,0.264 1.104,0.744 0.456,0.48 0.696,1.152 0.24,0.648 0.24,1.392 0,0.936 -0.36,1.776 -0.336,0.816 -1.056,1.488 -0.696,0.648 -1.752,1.104 -1.056,0.432 -2.472,0.6 0.264,1.2 1.344,1.92 1.104,0.696 2.64,0.696 1.272,0 2.304,-0.432 1.056,-0.456 1.608,-1.176 v -9.312 h 3.792 v 1.224 h -2.28 v 13.896 h -1.512 v -4.08 q -0.6,0.48 -1.56,0.84 -0.96,0.36 -2.328,0.36 -1.128,0 -2.136,-0.336 -0.984,-0.336 -1.752,-0.984 -0.744,-0.672 -1.224,-1.608 -0.456,-0.96 -0.528,-2.184 z"
         id="path241" />
      <path
         d="m 302.90647,356.93146 h -2.28 v -1.224 h 6.072 v 1.224 h -2.28 v 13.896 h -1.512 z"
         id="path243" />
      <path
         d="m 318.91449,370.17946 -1.296,0.864 -4.512,-6.792 q -0.408,-0.576 -0.576,-0.912 -0.144,-0.336 -0.144,-0.6 0,-0.384 0.288,-0.576 0.312,-0.216 0.744,-0.216 l 0.408,0.528 q 0.336,0.456 0.672,0.624 0.336,0.168 0.84,0.168 1.128,0 1.8,-0.744 0.672,-0.744 0.672,-2.088 0,-1.176 -0.456,-2.064 -0.432,-0.888 -0.912,-1.44 h -5.016 v -1.224 h 16.248 v 1.224 h -2.28 v 13.896 h -1.512 v -6.528 q -0.48,0.264 -1.176,0.432 -0.696,0.144 -1.704,0.144 -0.84,0 -1.704,-0.264 -0.84,-0.264 -1.464,-0.72 -0.888,0.648 -2.304,0.648 -0.36,0 -0.6,-0.072 z m 1.944,-6.624 q 1.032,0 1.8,-0.24 0.768,-0.264 1.224,-0.648 v -5.736 h -5.904 q 0.216,0.24 0.456,0.624 0.264,0.384 0.456,0.864 0.216,0.456 0.336,0.984 0.144,0.528 0.144,1.104 0,1.464 -0.72,2.52 0.936,0.528 2.208,0.528 z"
         id="path245" />
      <path
         d="m 329.47448,356.93146 h -2.28 v -1.224 h 6.072 v 1.224 h -2.28 v 13.896 h -1.512 z m -0.336,-4.68 q 0,-0.408 0.288,-0.72 0.312,-0.336 0.792,-0.336 0.48,0 0.768,0.336 0.288,0.312 0.288,0.72 0,0.48 -0.288,0.792 -0.288,0.312 -0.768,0.312 -0.48,0 -0.792,-0.312 -0.288,-0.312 -0.288,-0.792 z"
         id="path247" />
      <path
         d="m 336.55447,363.79546 q 0.336,-0.216 0.648,-0.864 0.312,-0.672 0.312,-1.632 0,-1.368 -0.6,-2.472 -0.576,-1.128 -1.368,-1.896 h -2.76 v -1.224 h 13.704 v 1.224 h -2.28 v 13.896 h -1.512 v -13.896 h -5.472 q 0.288,0.288 0.624,0.744 0.336,0.432 0.6,1.008 0.264,0.576 0.432,1.296 0.192,0.696 0.192,1.512 0,1.008 -0.264,1.824 -0.264,0.816 -0.696,1.392 -0.432,0.552 -1.008,0.864 -0.552,0.312 -1.152,0.312 -0.816,0 -1.392,-0.504 -0.576,-0.504 -0.576,-1.272 0,-0.576 0.384,-0.936 0.384,-0.384 0.816,-0.384 z"
         id="path249" />
      <path
         d="m 352.17849,362.06746 q -0.864,0 -1.464,0.216 -0.6,0.216 -0.984,0.6 -0.36,0.36 -0.552,0.888 -0.168,0.528 -0.168,1.152 0,1.32 0.576,2.64 0.576,1.32 1.608,2.784 l -1.296,0.696 q -1.08,-1.512 -1.776,-3 -0.672,-1.488 -0.672,-3.216 0,-1.944 1.128,-3 1.152,-1.056 3.24,-1.056 h 4.008 v -3.84 h -9.816 v -1.224 h 13.608 v 1.224 h -2.28 v 13.896 h -1.512 v -8.76 z"
         id="path251" />
      <path
         d="m 361.41851,356.93146 h -2.28 v -1.224 h 6.072 v 1.224 h -2.28 v 13.896 h -1.512 z"
         id="path253" />
      <path
         d="m 370.8985,362.06746 q -0.864,0 -1.464,0.216 -0.6,0.216 -0.984,0.6 -0.36,0.36 -0.552,0.888 -0.168,0.528 -0.168,1.152 0,1.32 0.576,2.64 0.576,1.32 1.608,2.784 l -1.296,0.696 q -1.08,-1.512 -1.776,-3 -0.672,-1.488 -0.672,-3.216 0,-1.944 1.128,-3 1.152,-1.056 3.24,-1.056 h 4.008 v -3.84 h -9.816 v -1.224 h 13.608 v 1.224 h -2.28 v 13.896 h -1.512 v -8.76 z"
         id="path255" />
      <path
         d="m 386.93055,370.63546 q -0.456,-0.072 -0.888,-0.24 -0.432,-0.168 -0.792,-0.408 -0.336,-0.264 -0.552,-0.576 -0.192,-0.312 -0.192,-0.672 0,-0.432 0.36,-0.744 0.36,-0.312 0.984,-0.312 l 1.656,1.776 q 0.864,0.024 1.728,-0.096 0.864,-0.12 1.56,-0.408 0.696,-0.288 1.128,-0.744 0.456,-0.48 0.456,-1.152 0,-0.912 -0.696,-1.368 -0.672,-0.456 -1.968,-0.456 -0.744,0 -1.584,0.144 -0.84,0.12 -1.728,0.384 -0.84,-0.624 -1.488,-1.464 -0.648,-0.84 -0.648,-1.968 0,-1.224 0.912,-1.992 0.936,-0.792 2.544,-0.792 h 3.336 v -2.616 h -7.992 v -1.224 h 12.12 v 1.224 h -2.64 v 3.888 h -4.32 q -1.056,0 -1.728,0.384 -0.672,0.36 -0.672,1.296 0,0.552 0.264,1.008 0.264,0.456 0.672,0.84 0.696,-0.192 1.464,-0.312 0.768,-0.12 1.608,-0.12 1.992,0 3.048,0.912 1.08,0.888 1.08,2.232 0,0.864 -0.456,1.536 -0.432,0.648 -1.2,1.104 -0.744,0.456 -1.776,0.72 -1.032,0.24 -2.184,0.288 l 2.928,2.784 -1.2,0.936 z"
         id="path257" />
      <path
         d="m 396.98656,356.93146 h -2.28 v -1.224 h 2.064 q -0.144,-0.24 -0.264,-0.648 -0.096,-0.432 -0.096,-0.84 0,-0.816 0.36,-1.488 0.384,-0.696 1.056,-1.152 0.696,-0.48 1.68,-0.744 0.984,-0.264 2.184,-0.264 1.848,0 3.336,0.552 1.488,0.552 2.64,1.368 1.152,0.816 1.968,1.752 0.84,0.936 1.368,1.68 l 0.144,0.216 -1.104,0.696 -0.24,-0.312 q -0.672,-0.888 -1.512,-1.728 -0.816,-0.84 -1.824,-1.488 -0.984,-0.648 -2.16,-1.032 -1.176,-0.408 -2.544,-0.408 -1.848,0 -2.808,0.768 -0.96,0.744 -0.96,1.896 0,0.72 0.216,1.176 h 2.568 v 1.224 h -2.28 v 13.896 h -1.512 z"
         id="path259" />
      <path
         d="m 406.10657,362.06746 q -0.864,0 -1.464,0.216 -0.6,0.216 -0.984,0.6 -0.36,0.36 -0.552,0.888 -0.168,0.528 -0.168,1.152 0,1.32 0.576,2.64 0.576,1.32 1.608,2.784 l -1.296,0.696 q -1.08,-1.512 -1.776,-3 -0.672,-1.488 -0.672,-3.216 0,-1.944 1.128,-3 1.152,-1.056 3.24,-1.056 h 4.008 v -3.84 h -9.816 v -1.224 h 13.608 v 1.224 h -2.28 v 13.896 h -1.512 v -8.76 z"
         id="path261" />
      <path
         d="m 421.20259,373.05946 q -1.68,-0.168 -2.904,-0.648 -1.2,-0.48 -1.992,-1.2 -0.792,-0.72 -1.176,-1.608 -0.384,-0.888 -0.384,-1.896 0,-0.864 0.288,-1.536 0.312,-0.696 0.792,-1.176 -0.552,-0.528 -0.936,-1.176 -0.384,-0.672 -0.384,-1.512 0,-0.672 0.24,-1.176 0.264,-0.528 0.672,-0.864 0.432,-0.36 0.984,-0.528 0.576,-0.168 1.2,-0.168 h 3.336 v -2.64 h -7.872 v -1.224 h 12.144 v 1.224 h -2.784 v 3.888 h -4.176 q -0.432,0 -0.84,0.072 -0.384,0.072 -0.696,0.264 -0.288,0.168 -0.48,0.48 -0.168,0.312 -0.168,0.816 0,0.552 0.216,1.032 0.24,0.456 0.576,0.792 1.176,-0.672 2.736,-0.672 1.008,0 1.8,0.288 0.792,0.288 1.344,0.792 0.576,0.48 0.864,1.152 0.288,0.648 0.288,1.392 0,0.768 -0.336,1.416 -0.312,0.648 -0.744,1.056 l -1.152,-0.84 q 0.288,-0.288 0.504,-0.696 0.216,-0.432 0.216,-0.984 0,-0.384 -0.168,-0.792 -0.144,-0.408 -0.48,-0.744 -0.312,-0.336 -0.84,-0.528 -0.528,-0.216 -1.248,-0.216 -1.512,0 -2.424,0.792 -0.912,0.792 -0.912,2.088 0,0.72 0.24,1.368 0.24,0.648 0.816,1.2 0.6,0.528 1.632,0.888 1.032,0.384 2.616,0.552 z"
         id="path263" />
      <path
         d="m 426.89062,356.93146 h -2.28 v -1.224 h 6.072 v 1.224 h -2.28 v 13.896 h -1.512 z"
         id="path265" />
      <path
         d="m 437.69061,370.17946 -1.296,0.864 -4.512,-6.792 q -0.408,-0.576 -0.576,-0.912 -0.144,-0.336 -0.144,-0.6 0,-0.384 0.288,-0.576 0.312,-0.216 0.744,-0.216 l 0.408,0.528 q 0.336,0.456 0.672,0.624 0.336,0.168 0.84,0.168 1.128,0 1.8,-0.744 0.672,-0.744 0.672,-2.088 0,-1.176 -0.456,-2.064 -0.432,-0.888 -0.912,-1.44 h -5.016 v -1.224 h 16.248 v 1.224 h -2.28 v 13.896 h -1.512 v -6.528 q -0.48,0.264 -1.176,0.432 -0.696,0.144 -1.704,0.144 -0.84,0 -1.704,-0.264 -0.84,-0.264 -1.464,-0.72 -0.888,0.648 -2.304,0.648 -0.36,0 -0.6,-0.072 z m 1.944,-6.624 q 1.032,0 1.8,-0.24 0.768,-0.264 1.224,-0.648 v -5.736 h -5.904 q 0.216,0.24 0.456,0.624 0.264,0.384 0.456,0.864 0.216,0.456 0.336,0.984 0.144,0.528 0.144,1.104 0,1.464 -0.72,2.52 0.936,0.528 2.208,0.528 z"
         id="path267" />
      <path
         d="m 448.2506,356.93146 h -2.28 v -1.224 h 6.072 v 1.224 h -2.28 v 13.896 h -1.512 z"
         id="path269" />
      <path
         d="m 472.39461,356.93146 v 13.896 h -1.488 v -4.512 q -0.168,0.144 -0.48,0.336 -0.288,0.192 -0.72,0.384 -0.408,0.168 -0.96,0.288 -0.552,0.12 -1.224,0.12 -0.984,0 -1.896,-0.288 -0.888,-0.312 -1.656,-0.936 -0.72,0.624 -1.8,1.056 -1.08,0.408 -2.568,0.408 -1.008,0 -1.848,-0.264 -0.84,-0.288 -1.464,-0.768 -0.624,-0.504 -0.984,-1.2 -0.336,-0.696 -0.336,-1.56 0,-0.864 0.432,-1.56 0.456,-0.72 1.152,-0.984 h -4.152 v -1.272 h 7.992 v 1.272 h -0.72 q -1.584,0 -2.352,0.72 -0.768,0.696 -0.768,1.872 0,1.224 0.912,1.848 0.912,0.6 2.208,0.6 1.152,0 1.992,-0.336 0.84,-0.336 1.44,-0.816 -0.48,-0.648 -0.744,-1.488 -0.264,-0.864 -0.288,-1.92 l 0.672,-0.024 q 1.824,-0.048 2.544,-0.648 0.744,-0.6 0.744,-1.728 0,-0.768 -0.36,-1.368 -0.336,-0.6 -0.888,-1.128 h -13.224 v -1.224 h 23.112 v 1.224 z m -1.488,7.752 v -7.752 h -4.56 q 0.456,0.432 0.84,1.104 0.408,0.672 0.408,1.56 0,1.464 -1.008,2.4 -1.008,0.912 -3,1.032 0.264,1.44 1.296,2.28 1.056,0.84 2.712,0.84 0.576,0 1.08,-0.12 0.528,-0.144 0.96,-0.36 0.432,-0.216 0.744,-0.456 0.336,-0.264 0.528,-0.528 z"
         id="path271" />
      <path
         d="m 476.47463,356.93146 h -2.28 v -1.224 h 6.072 v 1.224 h -2.28 v 13.896 h -1.512 z"
         id="path273" />
      <path
         d="m 482.30661,371.04346 q -0.504,-0.072 -0.816,-0.432 -0.288,-0.384 -0.288,-0.912 0,-0.504 0.336,-0.864 0.336,-0.384 0.912,-0.384 0.24,0 0.48,0.096 0.264,0.072 0.48,0.288 0.216,0.216 0.336,0.6 0.144,0.36 0.144,0.936 0,1.2 -0.72,2.184 -0.72,1.008 -1.752,1.56 l -0.6,-0.816 q 0.696,-0.36 1.152,-0.936 0.48,-0.552 0.624,-1.272 z"
         id="path275" />
      <path
         d="m 193.01036,386.93146 h -2.28 v 13.896 h -1.512 v -6.072 q -0.408,0.408 -1.176,0.744 -0.768,0.336 -1.824,0.336 -0.864,0 -1.608,-0.24 -0.72,-0.264 -1.272,-0.744 -0.528,-0.504 -0.84,-1.248 -0.312,-0.768 -0.312,-1.776 v -4.896 h -1.608 v -1.224 h 12.432 z m -9.312,4.728 q 0,1.536 0.672,2.232 0.696,0.672 1.944,0.672 0.96,0 1.752,-0.456 0.816,-0.456 1.152,-1.08 v -6.096 h -5.52 z"
         id="path277" />
      <path
         d="m 187.01034,401.64346 q 0.408,-0.432 1.176,-0.744 0.744,-0.312 1.584,-0.312 1.632,0 2.544,0.912 0.912,0.912 0.912,2.304 0,1.56 -1.104,2.52 -1.104,0.96 -3.096,0.96 -1.752,0 -3.384,-0.864 -1.632,-0.84 -2.856,-2.4 l 1.008,-0.864 q 2.424,2.856 5.136,2.856 1.296,0 2.016,-0.6 0.72,-0.6 0.72,-1.68 0,-0.888 -0.504,-1.392 -0.528,-0.48 -1.44,-0.48 -0.552,0 -1.032,0.192 -0.504,0.216 -0.912,0.576 z"
         id="path279" />
      <path
         d="m 200.13834,400.17946 -1.296,0.864 -4.632,-6.792 q -0.408,-0.576 -0.576,-0.912 -0.144,-0.336 -0.144,-0.6 0,-0.384 0.312,-0.576 0.312,-0.216 0.72,-0.216 l 0.408,0.528 q 0.336,0.456 0.696,0.624 0.384,0.168 0.888,0.168 1.056,0 1.704,-0.72 0.672,-0.744 0.672,-2.088 0,-1.176 -0.408,-2.064 -0.408,-0.888 -0.84,-1.464 h -5.112 v -1.224 h 10.008 v 1.224 h -3.384 q 0.216,0.264 0.432,0.648 0.24,0.36 0.432,0.816 0.192,0.456 0.312,1.008 0.12,0.528 0.12,1.128 0,0.912 -0.288,1.656 -0.264,0.72 -0.768,1.248 -0.48,0.528 -1.176,0.816 -0.696,0.288 -1.536,0.288 -0.168,0 -0.36,0 -0.168,-0.024 -0.288,-0.072 z"
         id="path281" />
      <path
         d="m 204.33832,386.93146 h -2.28 v -1.224 h 6.072 v 1.224 h -2.28 v 13.896 h -1.512 z"
         id="path283" />
      <path
         d="m 213.81832,392.06746 q -0.864,0 -1.464,0.216 -0.6,0.216 -0.984,0.6 -0.36,0.36 -0.552,0.888 -0.168,0.528 -0.168,1.152 0,1.32 0.576,2.64 0.576,1.32 1.608,2.784 l -1.296,0.696 q -1.08,-1.512 -1.776,-3 -0.672,-1.488 -0.672,-3.216 0,-1.944 1.128,-3 1.152,-1.056 3.24,-1.056 h 4.008 v -3.84 h -9.816 v -1.224 h 13.608 v 1.224 h -2.28 v 13.896 h -1.512 v -8.76 z"
         id="path285" />
      <path
         d="m 230.09034,392.01946 v -5.088 h -9.312 v -1.224 h 13.104 v 1.224 h -2.28 v 13.896 h -1.512 v -7.512 h -5.28 l 0.12,1.92 q -0.096,0.12 -0.36,0.24 -0.24,0.12 -0.672,0.12 -0.84,0 -1.392,-0.6 -0.528,-0.624 -0.528,-1.512 0,-0.6 0.384,-1.032 0.408,-0.432 1.224,-0.432 z"
         id="path287" />
      <path
         d="m 247.01039,392.33146 q -0.528,-0.696 -1.224,-1.056 -0.696,-0.384 -1.608,-0.384 -0.552,0 -1.08,0.168 -0.504,0.168 -0.888,0.504 -0.384,0.336 -0.624,0.864 -0.216,0.504 -0.216,1.224 0,1.44 0.744,2.208 0.768,0.768 2.064,0.768 1.2,0 2.016,-0.72 0.816,-0.744 0.816,-2.328 z m 1.464,8.496 h -1.488 v -4.248 q -0.384,0.624 -1.2,0.984 -0.792,0.36 -1.704,0.36 -0.84,0 -1.608,-0.264 -0.768,-0.288 -1.368,-0.84 -0.6,-0.552 -0.96,-1.368 -0.336,-0.816 -0.336,-1.896 0,-0.96 0.312,-1.704 0.336,-0.744 0.888,-1.248 0.576,-0.504 1.32,-0.744 0.768,-0.264 1.608,-0.264 0.912,0 1.704,0.336 0.792,0.312 1.344,1.008 v -4.008 h -8.376 v -1.224 h 18.48 v 1.224 h -8.616 v 4.296 q 0.36,-0.624 1.224,-1.08 0.864,-0.456 1.944,-0.456 0.792,0 1.512,0.264 0.744,0.24 1.296,0.744 0.576,0.48 0.888,1.2 0.336,0.72 0.336,1.656 0,1.08 -0.36,1.848 -0.36,0.768 -0.984,1.272 -0.6,0.504 -1.416,0.744 -0.816,0.24 -1.704,0.24 -0.264,0 -0.624,-0.024 -0.336,-0.048 -0.528,-0.144 l 0.288,-1.2 q 0.36,0.072 0.816,0.072 0.6,0 1.128,-0.144 0.552,-0.168 0.936,-0.504 0.408,-0.36 0.648,-0.888 0.24,-0.528 0.24,-1.296 0,-1.224 -0.72,-1.872 -0.72,-0.672 -1.944,-0.672 -1.368,0 -2.184,0.864 -0.792,0.864 -0.792,2.352 z"
         id="path289" />
      <path
         d="m 258.65038,386.93146 h -2.28 v -1.224 h 6.072 v 1.224 h -2.28 v 13.896 h -1.512 z"
         id="path291" />
      <path
         d="m 267.43438,390.14746 q 1.296,0 2.088,0.528 0.816,0.528 1.368,1.176 0.48,-0.84 1.272,-1.248 0.816,-0.432 1.728,-0.432 v -3.24 h -11.928 v -1.224 h 17.832 v 1.224 h -4.392 v 3.336 q 1.272,0.336 2.112,1.488 0.84,1.152 0.84,3.096 0,1.104 -0.336,1.992 -0.312,0.888 -0.912,1.536 -0.576,0.624 -1.416,0.984 -0.816,0.336 -1.8,0.336 -1.008,0 -1.848,-0.408 -0.84,-0.408 -1.368,-1.032 -1.056,1.512 -3.048,1.512 -0.864,0 -1.68,-0.288 -0.792,-0.288 -1.416,-0.888 -0.624,-0.624 -1.008,-1.56 -0.36,-0.936 -0.36,-2.232 0,-1.128 0.312,-1.992 0.336,-0.888 0.888,-1.464 0.576,-0.6 1.344,-0.888 0.792,-0.312 1.728,-0.312 z m 3.72,7.032 q 0.384,0.528 1.056,0.912 0.696,0.36 1.536,0.36 1.296,0 2.16,-0.84 0.888,-0.864 0.888,-2.784 0,-1.608 -0.696,-2.496 -0.696,-0.888 -1.872,-0.888 -0.984,0 -1.632,0.552 -0.648,0.552 -0.864,1.8 z m -0.792,-4.2 q -0.408,-0.576 -1.128,-1.056 -0.696,-0.504 -1.656,-0.504 -0.576,0 -1.104,0.216 -0.528,0.192 -0.912,0.624 -0.384,0.408 -0.624,1.056 -0.216,0.648 -0.216,1.56 0,1.872 0.768,2.76 0.792,0.864 1.968,0.864 1.008,0 1.608,-0.6 0.6,-0.624 0.744,-1.512 z"
         id="path293" />
      <path
         d="m 281.35436,386.93146 h -2.28 v -1.224 h 6.072 v 1.224 h -2.28 v 13.896 h -1.512 z"
         id="path295" />
      <path
         d="m 305.49836,386.93146 v 13.896 h -1.488 v -4.512 q -0.168,0.144 -0.48,0.336 -0.288,0.192 -0.72,0.384 -0.408,0.168 -0.96,0.288 -0.552,0.12 -1.224,0.12 -0.984,0 -1.896,-0.288 -0.888,-0.312 -1.656,-0.936 -0.72,0.624 -1.8,1.056 -1.08,0.408 -2.568,0.408 -1.008,0 -1.848,-0.264 -0.84,-0.288 -1.464,-0.768 -0.624,-0.504 -0.984,-1.2 -0.336,-0.696 -0.336,-1.56 0,-0.864 0.432,-1.56 0.456,-0.72 1.152,-0.984 h -4.152 v -1.272 h 7.992 v 1.272 h -0.72 q -1.584,0 -2.352,0.72 -0.768,0.696 -0.768,1.872 0,1.224 0.912,1.848 0.912,0.6 2.208,0.6 1.152,0 1.992,-0.336 0.84,-0.336 1.44,-0.816 -0.48,-0.648 -0.744,-1.488 -0.264,-0.864 -0.288,-1.92 l 0.672,-0.024 q 1.824,-0.048 2.544,-0.648 0.744,-0.6 0.744,-1.728 0,-0.768 -0.36,-1.368 -0.336,-0.6 -0.888,-1.128 h -13.224 v -1.224 h 23.112 v 1.224 z m -1.488,7.752 v -7.752 h -4.56 q 0.456,0.432 0.84,1.104 0.408,0.672 0.408,1.56 0,1.464 -1.008,2.4 -1.008,0.912 -3,1.032 0.264,1.44 1.296,2.28 1.056,0.84 2.712,0.84 0.576,0 1.08,-0.12 0.528,-0.144 0.96,-0.36 0.432,-0.216 0.744,-0.456 0.336,-0.264 0.528,-0.528 z"
         id="path297" />
      <path
         d="m 309.57838,386.93146 h -2.28 v -1.224 h 6.072 v 1.224 h -2.28 v 13.896 h -1.512 z"
         id="path299" />
      <path
         d="m 321.86639,393.79546 q 0.336,-0.216 0.648,-0.864 0.312,-0.672 0.312,-1.632 0,-1.368 -0.6,-2.472 -0.576,-1.128 -1.368,-1.896 h -2.76 v -1.224 h 13.704 v 1.224 h -2.28 v 13.896 h -1.512 v -13.896 h -5.472 q 0.288,0.288 0.624,0.744 0.336,0.432 0.6,1.008 0.264,0.576 0.432,1.296 0.192,0.696 0.192,1.512 0,1.008 -0.264,1.824 -0.264,0.816 -0.696,1.392 -0.432,0.552 -1.008,0.864 -0.552,0.312 -1.152,0.312 -0.816,0 -1.392,-0.504 -0.576,-0.504 -0.576,-1.272 0,-0.576 0.384,-0.936 0.384,-0.384 0.816,-0.384 z"
         id="path301" />
      <path
         d="m 325.94641,380.18746 q 0.408,-0.216 1.08,-0.36 0.648,-0.168 1.32,-0.168 1.728,0 2.856,0.864 1.128,0.864 1.968,2.448 l 1.44,2.736 h 2.784 v 1.224 h -2.28 v 13.896 h -1.512 v -13.896 h -2.28 v -1.224 h 1.992 l -1.272,-2.064 q -0.72,-1.2 -1.512,-1.848 -0.816,-0.672 -2.184,-0.672 -0.528,0 -1.032,0.12 -0.504,0.12 -0.864,0.288 z"
         id="path303" />
      <path
         d="m 348.5064,400.51546 q -0.744,0.48 -1.872,0.744 -1.128,0.264 -2.424,0.264 -1.128,0 -2.184,-0.216 -1.056,-0.192 -1.872,-0.648 -0.816,-0.48 -1.32,-1.224 -0.48,-0.768 -0.48,-1.872 0,-2.376 2.928,-3.216 v -0.072 q -1.272,-0.312 -1.92,-1.08 -0.648,-0.792 -0.648,-2.16 v -4.104 h -1.8 v -1.224 h 12.672 v 1.224 h -2.064 v 5.664 q 0,1.248 -2.16,1.824 l -2.04,0.552 q -0.888,0.24 -1.536,0.48 -0.624,0.24 -1.032,0.552 -0.384,0.312 -0.576,0.72 -0.192,0.384 -0.192,0.912 0,0.696 0.312,1.2 0.336,0.48 0.912,0.792 0.576,0.312 1.344,0.456 0.768,0.12 1.632,0.12 0.96,0 1.992,-0.216 1.056,-0.24 1.848,-0.72 z m -8.28,-12.264 v 2.616 q 0,1.344 0.768,1.944 0.768,0.576 2.112,0.576 0.84,0 1.44,-0.144 0.6,-0.168 0.912,-0.336 z m 5.784,-1.32 h -5.784 l 5.784,5.16 z"
         id="path305" />
      <path
         d="m 344.13841,383.04346 q 0,-1.368 0.864,-2.208 0.864,-0.864 2.448,-0.864 1.272,0 2.16,0.624 0.912,0.624 1.512,1.536 0.624,0.888 0.96,1.872 0.36,0.984 0.504,1.704 h 2.472 v 1.224 h -2.28 v 13.896 h -1.512 v -13.896 h -2.28 v -1.224 h 2.208 q -0.144,-0.648 -0.456,-1.416 -0.312,-0.792 -0.768,-1.44 -0.456,-0.672 -1.056,-1.128 -0.624,-0.456 -1.392,-0.456 -1.8,0 -1.8,1.968 0,0.696 0.288,1.368 0.288,0.672 0.648,1.2 l 0.192,0.288 -0.936,0.624 q -0.768,-0.744 -1.272,-1.68 -0.504,-0.96 -0.504,-1.992 z"
         id="path307" />
      <path
         d="m 357.09841,401.04346 q -0.504,-0.072 -0.816,-0.432 -0.288,-0.384 -0.288,-0.912 0,-0.504 0.336,-0.864 0.336,-0.384 0.912,-0.384 0.24,0 0.48,0.096 0.264,0.072 0.48,0.288 0.216,0.216 0.336,0.6 0.144,0.36 0.144,0.936 0,1.2 -0.72,2.184 -0.72,1.008 -1.752,1.56 l -0.6,-0.816 q 0.696,-0.36 1.152,-0.936 0.48,-0.552 0.624,-1.272 z"
         id="path309" />
      <path
         d="m 372.29042,391.99546 q 0.312,0.144 0.624,0.432 0.312,0.288 0.552,0.696 0.264,0.408 0.432,0.936 0.168,0.528 0.168,1.152 0,0.864 -0.312,1.584 -0.312,0.696 -0.864,1.2 -0.552,0.48 -1.32,0.768 -0.744,0.264 -1.632,0.264 -0.936,0 -1.728,-0.264 -0.768,-0.288 -1.392,-0.768 -0.6,-0.48 -1.056,-1.104 -0.456,-0.648 -0.768,-1.368 l 1.128,-0.6 q 0.624,1.32 1.536,2.088 0.912,0.744 2.208,0.744 0.528,0 1.008,-0.144 0.48,-0.168 0.84,-0.48 0.36,-0.312 0.576,-0.792 0.216,-0.504 0.216,-1.2 0,-1.512 -0.984,-2.328 -0.984,-0.816 -2.808,-0.816 h -0.696 v -1.248 h 9.024 v -3.816 h -12.744 v -1.224 h 16.536 v 1.224 h -2.28 v 13.896 h -1.512 v -8.832 z"
         id="path311" />
      <path
         d="m 392.66644,386.93146 h -1.392 v -1.224 h 5.16 v 1.224 h -2.256 v 13.896 h -1.512 z m -6.888,-1.464 q 0.96,0 1.704,0.336 0.744,0.336 1.248,0.936 0.528,0.576 0.792,1.392 0.288,0.792 0.288,1.728 0,1.224 -0.408,2.28 -0.384,1.032 -1.08,1.848 -0.672,0.816 -1.632,1.416 -0.936,0.576 -2.04,0.888 l 4.2,3.744 -1.176,1.056 -4.416,-4.368 q -0.384,-0.024 -0.768,-0.144 -0.384,-0.12 -0.696,-0.336 -0.312,-0.216 -0.528,-0.552 -0.192,-0.336 -0.192,-0.768 0,-0.576 0.36,-0.888 0.36,-0.336 0.792,-0.336 l 1.416,1.368 q 0.84,-0.144 1.656,-0.552 0.816,-0.408 1.464,-1.056 0.648,-0.672 1.056,-1.584 0.408,-0.912 0.408,-2.064 0,-1.536 -0.72,-2.28 -0.72,-0.768 -1.704,-0.768 -0.96,0 -1.488,0.528 -0.504,0.528 -0.504,1.296 0,0.84 0.576,1.368 0.6,0.528 1.656,0.648 l -0.384,1.224 q -0.696,-0.072 -1.32,-0.312 -0.6,-0.264 -1.08,-0.672 -0.456,-0.432 -0.744,-1.008 -0.264,-0.6 -0.264,-1.344 0,-0.648 0.24,-1.2 0.264,-0.552 0.72,-0.96 0.456,-0.408 1.104,-0.624 0.672,-0.24 1.464,-0.24 z"
         id="path313" />
      <path
         d="m 398.23443,386.93146 h -2.28 v -1.224 h 6.072 v 1.224 h -2.28 v 13.896 h -1.512 z"
         id="path315" />
      <path
         d="m 414.24245,400.17946 -1.296,0.864 -4.512,-6.792 q -0.408,-0.576 -0.576,-0.912 -0.144,-0.336 -0.144,-0.6 0,-0.384 0.288,-0.576 0.312,-0.216 0.744,-0.216 l 0.408,0.528 q 0.336,0.456 0.672,0.624 0.336,0.168 0.84,0.168 1.128,0 1.8,-0.744 0.672,-0.744 0.672,-2.088 0,-1.176 -0.456,-2.064 -0.432,-0.888 -0.912,-1.44 h -5.016 v -1.224 h 16.248 v 1.224 h -2.28 v 13.896 h -1.512 v -6.528 q -0.48,0.264 -1.176,0.432 -0.696,0.144 -1.704,0.144 -0.84,0 -1.704,-0.264 -0.84,-0.264 -1.464,-0.72 -0.888,0.648 -2.304,0.648 -0.36,0 -0.6,-0.072 z m 1.944,-6.624 q 1.032,0 1.8,-0.24 0.768,-0.264 1.224,-0.648 v -5.736 h -5.904 q 0.216,0.24 0.456,0.624 0.264,0.384 0.456,0.864 0.216,0.456 0.336,0.984 0.144,0.528 0.144,1.104 0,1.464 -0.72,2.52 0.936,0.528 2.208,0.528 z"
         id="path317" />
      <path
         d="m 420.72244,400.58746 v 1.248 h -1.296 q -0.744,0 -1.224,0.168 -0.504,0.192 -0.792,0.48 -0.288,0.288 -0.408,0.648 -0.12,0.384 -0.12,0.768 0,0.84 0.648,1.44 0.648,0.624 1.944,0.624 0.936,0 1.824,-0.336 0.888,-0.336 1.776,-0.96 l 0.672,1.104 q -1.032,0.792 -2.088,1.128 -1.08,0.336 -2.16,0.336 -1.872,0 -3,-0.936 -1.128,-0.936 -1.128,-2.568 0,-0.672 0.24,-1.248 0.24,-0.576 0.72,-1.008 0.48,-0.408 1.176,-0.648 0.696,-0.24 1.632,-0.24 z"
         id="path319" />
      <path
         d="m 434.11444,400.51546 q -0.744,0.48 -1.872,0.744 -1.128,0.264 -2.424,0.264 -1.128,0 -2.184,-0.216 -1.056,-0.192 -1.872,-0.648 -0.816,-0.48 -1.32,-1.224 -0.48,-0.768 -0.48,-1.872 0,-2.376 2.928,-3.216 v -0.072 q -1.272,-0.312 -1.92,-1.08 -0.648,-0.792 -0.648,-2.16 v -4.104 h -1.8 v -1.224 h 12.672 v 1.224 h -2.064 v 5.664 q 0,1.248 -2.16,1.824 l -2.04,0.552 q -0.888,0.24 -1.536,0.48 -0.624,0.24 -1.032,0.552 -0.384,0.312 -0.576,0.72 -0.192,0.384 -0.192,0.912 0,0.696 0.312,1.2 0.336,0.48 0.912,0.792 0.576,0.312 1.344,0.456 0.768,0.12 1.632,0.12 0.96,0 1.992,-0.216 1.056,-0.24 1.848,-0.72 z m -8.28,-12.264 v 2.616 q 0,1.344 0.768,1.944 0.768,0.576 2.112,0.576 0.84,0 1.44,-0.144 0.6,-0.168 0.912,-0.336 z m 5.784,-1.32 h -5.784 l 5.784,5.16 z"
         id="path321" />
      <path
         d="m 429.74644,383.04346 q 0,-1.368 0.864,-2.208 0.864,-0.864 2.448,-0.864 1.272,0 2.16,0.624 0.912,0.624 1.512,1.536 0.624,0.888 0.96,1.872 0.36,0.984 0.504,1.704 h 2.472 v 1.224 h -2.28 v 13.896 h -1.512 v -13.896 h -2.28 v -1.224 h 2.208 q -0.144,-0.648 -0.456,-1.416 -0.312,-0.792 -0.768,-1.44 -0.456,-0.672 -1.056,-1.128 -0.624,-0.456 -1.392,-0.456 -1.8,0 -1.8,1.968 0,0.696 0.288,1.368 0.288,0.672 0.648,1.2 l 0.192,0.288 -0.936,0.624 q -0.768,-0.744 -1.272,-1.68 -0.504,-0.96 -0.504,-1.992 z"
         id="path323" />
      <path
         d="m 461.01845,386.93146 v 13.896 h -1.488 v -4.512 q -0.168,0.144 -0.48,0.336 -0.288,0.192 -0.72,0.384 -0.408,0.168 -0.96,0.288 -0.552,0.12 -1.224,0.12 -0.984,0 -1.896,-0.288 -0.888,-0.312 -1.656,-0.936 -0.72,0.624 -1.8,1.056 -1.08,0.408 -2.568,0.408 -1.008,0 -1.848,-0.264 -0.84,-0.288 -1.464,-0.768 -0.624,-0.504 -0.984,-1.2 -0.336,-0.696 -0.336,-1.56 0,-0.864 0.432,-1.56 0.456,-0.72 1.152,-0.984 h -4.152 v -1.272 h 7.992 v 1.272 h -0.72 q -1.584,0 -2.352,0.72 -0.768,0.696 -0.768,1.872 0,1.224 0.912,1.848 0.912,0.6 2.208,0.6 1.152,0 1.992,-0.336 0.84,-0.336 1.44,-0.816 -0.48,-0.648 -0.744,-1.488 -0.264,-0.864 -0.288,-1.92 l 0.672,-0.024 q 1.824,-0.048 2.544,-0.648 0.744,-0.6 0.744,-1.728 0,-0.768 -0.36,-1.368 -0.336,-0.6 -0.888,-1.128 h -13.224 v -1.224 h 23.112 v 1.224 z m -1.488,7.752 v -7.752 h -4.56 q 0.456,0.432 0.84,1.104 0.408,0.672 0.408,1.56 0,1.464 -1.008,2.4 -1.008,0.912 -3,1.032 0.264,1.44 1.296,2.28 1.056,0.84 2.712,0.84 0.576,0 1.08,-0.12 0.528,-0.144 0.96,-0.36 0.432,-0.216 0.744,-0.456 0.336,-0.264 0.528,-0.528 z"
         id="path325" />
      <path
         d="m 465.09847,386.93146 h -2.28 v -1.224 h 6.072 v 1.224 h -2.28 v 13.896 h -1.512 z"
         id="path327" />
      <path
         d="m 469.77845,399.74746 q 0,-0.552 0.336,-0.912 0.36,-0.36 0.864,-0.36 0.504,0 0.84,0.36 0.36,0.36 0.36,0.912 0,0.6 -0.36,0.96 -0.336,0.336 -0.84,0.336 -0.504,0 -0.864,-0.336 -0.336,-0.36 -0.336,-0.96 z"
         id="path329" />
      <path
         d="m 186.33836,419.61946 q 1.296,0 2.184,0.48 0.912,0.48 1.416,1.056 v -4.224 h -9.36 v -1.224 h 13.152 v 1.224 h -2.28 v 13.896 h -1.512 v -4.176 q -0.192,0.264 -0.504,0.528 -0.312,0.264 -0.744,0.48 -0.432,0.216 -0.984,0.36 -0.552,0.144 -1.272,0.144 -0.984,0 -1.824,-0.288 -0.84,-0.312 -1.488,-0.888 -0.624,-0.576 -0.984,-1.392 -0.36,-0.84 -0.36,-1.92 0,-0.936 0.336,-1.68 0.36,-0.768 0.96,-1.296 0.624,-0.528 1.44,-0.792 0.84,-0.288 1.824,-0.288 z m 3.624,3.144 q -0.216,-0.336 -0.552,-0.672 -0.336,-0.336 -0.768,-0.6 -0.432,-0.264 -0.96,-0.432 -0.528,-0.168 -1.128,-0.168 -1.416,0 -2.304,0.744 -0.888,0.744 -0.888,2.112 0,1.536 0.864,2.328 0.864,0.792 2.424,0.792 0.696,0 1.296,-0.216 0.624,-0.24 1.056,-0.624 0.456,-0.408 0.696,-0.96 0.264,-0.552 0.264,-1.2 z"
         id="path331" />
      <path
         d="m 195.53036,416.93146 h -2.28 v -1.224 h 6.072 v 1.224 h -2.28 v 13.896 h -1.512 z"
         id="path333" />
      <path
         d="m 199.32235,422.35546 q 0.696,0.264 1.32,0.36 0.624,0.096 1.296,0.096 1.08,0 1.872,-0.216 0.816,-0.24 1.224,-0.504 l 0.528,1.2 q -0.48,0.36 -1.392,0.6 -0.888,0.216 -1.944,0.216 -0.312,0 -0.72,-0.048 -0.408,-0.048 -0.84,-0.144 -0.432,-0.096 -0.864,-0.24 -0.408,-0.168 -0.72,-0.384 z m -0.48,-5.424 v -1.224 h 6.312 v 1.224 z"
         id="path335" />
      <path
         d="m 214.53836,416.93146 v 13.896 h -1.512 v -4.512 q -0.168,0.168 -0.456,0.36 -0.288,0.192 -0.72,0.36 -0.408,0.168 -0.96,0.288 -0.552,0.12 -1.248,0.12 -1.032,0 -2.016,-0.36 -0.96,-0.36 -1.728,-1.056 -0.744,-0.72 -1.224,-1.752 -0.456,-1.056 -0.48,-2.448 l 0.672,-0.024 q 1.824,-0.048 2.544,-0.648 0.744,-0.6 0.744,-1.728 0,-0.768 -0.36,-1.368 -0.336,-0.6 -0.888,-1.128 h -3.912 v -1.224 h 13.824 v 1.224 z m -1.512,7.752 v -7.752 h -4.56 q 0.456,0.432 0.84,1.104 0.408,0.672 0.408,1.56 0,1.464 -1.008,2.4 -1.008,0.912 -3,1.032 0.264,1.44 1.296,2.28 1.056,0.84 2.712,0.84 1.224,0 2.088,-0.456 0.864,-0.48 1.224,-1.008 z"
         id="path337" />
      <path
         d="m 218.61835,416.93146 h -2.28 v -1.224 h 6.072 v 1.224 h -2.28 v 13.896 h -1.512 z"
         id="path339" />
      <path
         d="m 242.76235,416.93146 v 13.896 h -1.488 v -4.512 q -0.168,0.144 -0.48,0.336 -0.288,0.192 -0.72,0.384 -0.408,0.168 -0.96,0.288 -0.552,0.12 -1.224,0.12 -0.984,0 -1.896,-0.288 -0.888,-0.312 -1.656,-0.936 -0.72,0.624 -1.8,1.056 -1.08,0.408 -2.568,0.408 -1.008,0 -1.848,-0.264 -0.84,-0.288 -1.464,-0.768 -0.624,-0.504 -0.984,-1.2 -0.336,-0.696 -0.336,-1.56 0,-0.864 0.432,-1.56 0.456,-0.72 1.152,-0.984 h -4.152 v -1.272 h 7.992 v 1.272 h -0.72 q -1.584,0 -2.352,0.72 -0.768,0.696 -0.768,1.872 0,1.224 0.912,1.848 0.912,0.6 2.208,0.6 1.152,0 1.992,-0.336 0.84,-0.336 1.44,-0.816 -0.48,-0.648 -0.744,-1.488 -0.264,-0.864 -0.288,-1.92 l 0.672,-0.024 q 1.824,-0.048 2.544,-0.648 0.744,-0.6 0.744,-1.728 0,-0.768 -0.36,-1.368 -0.336,-0.6 -0.888,-1.128 h -13.224 v -1.224 h 23.112 v 1.224 z m -1.488,7.752 v -7.752 h -4.56 q 0.456,0.432 0.84,1.104 0.408,0.672 0.408,1.56 0,1.464 -1.008,2.4 -1.008,0.912 -3,1.032 0.264,1.44 1.296,2.28 1.056,0.84 2.712,0.84 0.576,0 1.08,-0.12 0.528,-0.144 0.96,-0.36 0.432,-0.216 0.744,-0.456 0.336,-0.264 0.528,-0.528 z"
         id="path341" />
      <path
         d="m 246.84237,416.93146 h -2.28 v -1.224 h 6.072 v 1.224 h -2.28 v 13.896 h -1.512 z"
         id="path343" />
      <path
         d="m 263.76239,422.33146 q -0.528,-0.696 -1.224,-1.056 -0.696,-0.384 -1.608,-0.384 -0.552,0 -1.08,0.168 -0.504,0.168 -0.888,0.504 -0.384,0.336 -0.624,0.864 -0.216,0.504 -0.216,1.224 0,1.44 0.744,2.208 0.768,0.768 2.064,0.768 1.2,0 2.016,-0.72 0.816,-0.744 0.816,-2.328 z m 1.464,8.496 h -1.488 v -4.248 q -0.384,0.624 -1.2,0.984 -0.792,0.36 -1.704,0.36 -0.84,0 -1.608,-0.264 -0.768,-0.288 -1.368,-0.84 -0.6,-0.552 -0.96,-1.368 -0.336,-0.816 -0.336,-1.896 0,-0.96 0.312,-1.704 0.336,-0.744 0.888,-1.248 0.576,-0.504 1.32,-0.744 0.768,-0.264 1.608,-0.264 0.912,0 1.704,0.336 0.792,0.312 1.344,1.008 v -4.008 h -8.376 v -1.224 h 18.48 v 1.224 h -8.616 v 4.296 q 0.36,-0.624 1.224,-1.08 0.864,-0.456 1.944,-0.456 0.792,0 1.512,0.264 0.744,0.24 1.296,0.744 0.576,0.48 0.888,1.2 0.336,0.72 0.336,1.656 0,1.08 -0.36,1.848 -0.36,0.768 -0.984,1.272 -0.6,0.504 -1.416,0.744 -0.816,0.24 -1.704,0.24 -0.264,0 -0.624,-0.024 -0.336,-0.048 -0.528,-0.144 l 0.288,-1.2 q 0.36,0.072 0.816,0.072 0.6,0 1.128,-0.144 0.552,-0.168 0.936,-0.504 0.408,-0.36 0.648,-0.888 0.24,-0.528 0.24,-1.296 0,-1.224 -0.72,-1.872 -0.72,-0.672 -1.944,-0.672 -1.368,0 -2.184,0.864 -0.792,0.864 -0.792,2.352 z"
         id="path345" />
      <path
         d="m 275.11439,422.78746 q 1.08,-0.096 2.016,-0.36 0.936,-0.288 1.608,-0.768 0.696,-0.48 1.08,-1.152 0.384,-0.672 0.384,-1.584 0,-1.152 -0.576,-1.656 -0.576,-0.504 -1.344,-0.504 -0.84,0 -1.344,0.48 -0.504,0.456 -0.504,1.248 0,0.648 0.312,1.08 0.336,0.432 0.744,0.6 l -0.744,0.984 q -0.696,-0.264 -1.272,-0.96 -0.576,-0.696 -0.576,-1.776 0,-0.6 0.216,-1.128 0.24,-0.552 0.672,-0.936 0.432,-0.408 1.056,-0.648 0.648,-0.24 1.44,-0.24 0.816,0 1.44,0.288 0.648,0.264 1.104,0.744 0.456,0.48 0.696,1.152 0.24,0.648 0.24,1.392 0,0.936 -0.36,1.776 -0.336,0.816 -1.056,1.488 -0.696,0.648 -1.752,1.104 -1.056,0.432 -2.472,0.6 0.264,1.2 1.344,1.92 1.104,0.696 2.64,0.696 1.272,0 2.304,-0.432 1.056,-0.456 1.608,-1.176 v -9.312 h 3.792 v 1.224 h -2.28 v 13.896 h -1.512 v -4.08 q -0.6,0.48 -1.56,0.84 -0.96,0.36 -2.328,0.36 -1.128,0 -2.136,-0.336 -0.984,-0.336 -1.752,-0.984 -0.744,-0.672 -1.224,-1.608 -0.456,-0.96 -0.528,-2.184 z"
         id="path347" />
      <path
         d="m 289.6104,416.93146 h -2.28 v -1.224 h 6.072 v 1.224 h -2.28 v 13.896 h -1.512 z"
         id="path349" />
      <path
         d="m 295.4424,431.04346 q -0.504,-0.072 -0.816,-0.432 -0.288,-0.384 -0.288,-0.912 0,-0.504 0.336,-0.864 0.336,-0.384 0.912,-0.384 0.24,0 0.48,0.096 0.264,0.072 0.48,0.288 0.216,0.216 0.336,0.6 0.144,0.36 0.144,0.936 0,1.2 -0.72,2.184 -0.72,1.008 -1.752,1.56 l -0.6,-0.816 q 0.696,-0.36 1.152,-0.936 0.48,-0.552 0.624,-1.272 z"
         id="path351" />
      <path
         d="m 310.58642,422.45146 q -0.408,-0.456 -1.056,-0.72 -0.648,-0.288 -1.368,-0.288 -1.2,0 -1.992,0.72 -0.768,0.696 -0.768,2.136 0,1.008 0.312,1.848 0.336,0.816 0.912,1.512 0.576,0.696 1.344,1.272 0.768,0.552 1.632,1.008 l -0.912,1.104 q -0.984,-0.528 -1.872,-1.2 -0.888,-0.696 -1.56,-1.536 -0.648,-0.864 -1.032,-1.872 -0.384,-1.032 -0.384,-2.232 0,-1.008 0.336,-1.776 0.336,-0.768 0.912,-1.272 0.576,-0.504 1.32,-0.744 0.744,-0.264 1.56,-0.264 0.984,0 1.8,0.36 0.84,0.36 1.392,0.984 0.48,-0.624 1.176,-0.96 0.696,-0.336 1.56,-0.336 0.456,0 0.864,0.096 0.432,0.072 0.696,0.192 v -3.552 h -12.816 v -1.224 h 16.608 v 1.224 h -2.28 v 13.896 h -1.512 v -9.12 q -0.192,-0.12 -0.528,-0.192 -0.312,-0.072 -0.744,-0.072 -1.344,0 -1.968,1.08 -0.6,1.056 -0.648,3.24 h -1.488 q 0,-1.152 0.144,-1.944 0.168,-0.816 0.36,-1.368 z"
         id="path353" />
      <path
         d="m 321.05044,416.93146 h -2.28 v -1.224 h 6.072 v 1.224 h -2.28 v 13.896 h -1.512 z"
         id="path355" />
      <path
         d="m 335.66643,429.81946 q -0.744,0.48 -1.8,0.768 -1.032,0.264 -2.28,0.264 -1.152,0 -2.256,-0.312 -1.08,-0.312 -1.92,-0.96 -0.84,-0.648 -1.344,-1.632 -0.504,-1.008 -0.504,-2.352 0,-1.848 1.176,-3.048 1.2,-1.224 3.24,-1.632 l 2.736,-0.552 v -3.432 h -8.352 v -1.224 h 12.432 v 1.224 h -2.592 v 4.584 l -3.024,0.6 q -0.864,0.168 -1.608,0.456 -0.72,0.288 -1.272,0.72 -0.528,0.432 -0.84,1.032 -0.312,0.576 -0.312,1.344 0,0.984 0.336,1.728 0.36,0.72 0.96,1.2 0.6,0.48 1.392,0.72 0.816,0.216 1.728,0.216 0.912,0 1.872,-0.216 0.96,-0.24 1.728,-0.72 z"
         id="path357" />
      <path
         d="m 338.47443,416.93146 h -2.28 v -1.224 h 6.072 v 1.224 h -2.28 v 13.896 h -1.512 z m -0.336,-4.68 q 0,-0.408 0.288,-0.72 0.312,-0.336 0.792,-0.336 0.48,0 0.768,0.336 0.288,0.312 0.288,0.72 0,0.48 -0.288,0.792 -0.288,0.312 -0.768,0.312 -0.48,0 -0.792,-0.312 -0.288,-0.312 -0.288,-0.792 z"
         id="path359" />
      <path
         d="m 362.61843,416.93146 v 13.896 h -1.488 v -4.512 q -0.168,0.144 -0.48,0.336 -0.288,0.192 -0.72,0.384 -0.408,0.168 -0.96,0.288 -0.552,0.12 -1.224,0.12 -0.984,0 -1.896,-0.288 -0.888,-0.312 -1.656,-0.936 -0.72,0.624 -1.8,1.056 -1.08,0.408 -2.568,0.408 -1.008,0 -1.848,-0.264 -0.84,-0.288 -1.464,-0.768 -0.624,-0.504 -0.984,-1.2 -0.336,-0.696 -0.336,-1.56 0,-0.864 0.432,-1.56 0.456,-0.72 1.152,-0.984 h -4.152 v -1.272 h 7.992 v 1.272 h -0.72 q -1.584,0 -2.352,0.72 -0.768,0.696 -0.768,1.872 0,1.224 0.912,1.848 0.912,0.6 2.208,0.6 1.152,0 1.992,-0.336 0.84,-0.336 1.44,-0.816 -0.48,-0.648 -0.744,-1.488 -0.264,-0.864 -0.288,-1.92 l 0.672,-0.024 q 1.824,-0.048 2.544,-0.648 0.744,-0.6 0.744,-1.728 0,-0.768 -0.36,-1.368 -0.336,-0.6 -0.888,-1.128 h -13.224 v -1.224 h 23.112 v 1.224 z m -1.488,7.752 v -7.752 h -4.56 q 0.456,0.432 0.84,1.104 0.408,0.672 0.408,1.56 0,1.464 -1.008,2.4 -1.008,0.912 -3,1.032 0.264,1.44 1.296,2.28 1.056,0.84 2.712,0.84 0.576,0 1.08,-0.12 0.528,-0.144 0.96,-0.36 0.432,-0.216 0.744,-0.456 0.336,-0.264 0.528,-0.528 z"
         id="path361" />
      <path
         d="m 366.69845,416.93146 h -2.28 v -1.224 h 6.072 v 1.224 h -2.28 v 13.896 h -1.512 z"
         id="path363" />
      <path
         d="m 378.98647,423.79546 q 0.336,-0.216 0.648,-0.864 0.312,-0.672 0.312,-1.632 0,-1.368 -0.6,-2.472 -0.576,-1.128 -1.368,-1.896 h -2.76 v -1.224 h 13.704 v 1.224 h -2.28 v 13.896 h -1.512 v -13.896 h -5.472 q 0.288,0.288 0.624,0.744 0.336,0.432 0.6,1.008 0.264,0.576 0.432,1.296 0.192,0.696 0.192,1.512 0,1.008 -0.264,1.824 -0.264,0.816 -0.696,1.392 -0.432,0.552 -1.008,0.864 -0.552,0.312 -1.152,0.312 -0.816,0 -1.392,-0.504 -0.576,-0.504 -0.576,-1.272 0,-0.576 0.384,-0.936 0.384,-0.384 0.816,-0.384 z"
         id="path365" />
      <path
         d="m 381.77048,433.77946 q 0,-1.44 0.96,-2.328 0.96,-0.864 2.76,-0.864 1.104,0 2.04,0.408 0.912,0.408 1.728,1.152 0.816,0.768 1.512,1.8 0.72,1.056 1.368,2.304 l -1.176,0.696 q -0.576,-1.104 -1.2,-2.04 -0.6,-0.936 -1.248,-1.608 -0.672,-0.672 -1.392,-1.056 -0.744,-0.384 -1.56,-0.384 -1.2,0 -1.728,0.552 -0.552,0.576 -0.552,1.44 0,0.888 0.6,1.392 0.6,0.528 1.512,0.528 0.624,0 1.104,-0.24 l 0.528,1.104 q -0.384,0.192 -0.744,0.288 -0.384,0.096 -0.96,0.096 -0.816,0 -1.464,-0.264 -0.648,-0.24 -1.104,-0.696 -0.48,-0.432 -0.72,-1.032 -0.264,-0.576 -0.264,-1.248 z"
         id="path367" />
      <path
         d="m 384.77048,412.22746 q 0,-0.432 0.312,-0.768 0.312,-0.336 0.792,-0.336 0.48,0 0.792,0.336 0.288,0.336 0.288,0.768 0,0.504 -0.288,0.816 -0.312,0.312 -0.792,0.312 -0.48,0 -0.792,-0.312 -0.312,-0.312 -0.312,-0.816 z"
         id="path369" />
      <path
         d="m 396.43448,421.99546 q 0.312,0.144 0.624,0.432 0.312,0.288 0.552,0.696 0.264,0.408 0.432,0.936 0.168,0.528 0.168,1.152 0,0.864 -0.312,1.584 -0.312,0.696 -0.864,1.2 -0.552,0.48 -1.32,0.768 -0.744,0.264 -1.632,0.264 -0.936,0 -1.728,-0.264 -0.768,-0.288 -1.392,-0.768 -0.6,-0.48 -1.056,-1.104 -0.456,-0.648 -0.768,-1.368 l 1.128,-0.6 q 0.624,1.32 1.536,2.088 0.912,0.744 2.208,0.744 0.528,0 1.008,-0.144 0.48,-0.168 0.84,-0.48 0.36,-0.312 0.576,-0.792 0.216,-0.504 0.216,-1.2 0,-1.512 -0.984,-2.328 -0.984,-0.816 -2.808,-0.816 h -0.696 v -1.248 h 9.024 v -3.816 h -12.744 v -1.224 h 16.536 v 1.224 h -2.28 v 13.896 h -1.512 v -8.832 z"
         id="path371" />
      <path
         d="m 407.01849,431.04346 q -0.504,-0.072 -0.816,-0.432 -0.288,-0.384 -0.288,-0.912 0,-0.504 0.336,-0.864 0.336,-0.384 0.912,-0.384 0.24,0 0.48,0.096 0.264,0.072 0.48,0.288 0.216,0.216 0.336,0.6 0.144,0.36 0.144,0.936 0,1.2 -0.72,2.184 -0.72,1.008 -1.752,1.56 l -0.6,-0.816 q 0.696,-0.36 1.152,-0.936 0.48,-0.552 0.624,-1.272 z"
         id="path373" />
      <path
         d="m 188.06636,460.17946 -1.296,0.864 -4.512,-6.792 q -0.408,-0.576 -0.576,-0.912 -0.144,-0.336 -0.144,-0.6 0,-0.384 0.288,-0.576 0.312,-0.216 0.744,-0.216 l 0.408,0.528 q 0.336,0.456 0.672,0.624 0.336,0.168 0.84,0.168 1.128,0 1.8,-0.744 0.672,-0.744 0.672,-2.088 0,-1.176 -0.456,-2.064 -0.432,-0.888 -0.912,-1.44 h -5.016 v -1.224 h 16.248 v 1.224 h -2.28 v 13.896 h -1.512 v -6.528 q -0.48,0.264 -1.176,0.432 -0.696,0.144 -1.704,0.144 -0.84,0 -1.704,-0.264 -0.84,-0.264 -1.464,-0.72 -0.888,0.648 -2.304,0.648 -0.36,0 -0.6,-0.072 z m 1.944,-6.624 q 1.032,0 1.8,-0.24 0.768,-0.264 1.224,-0.648 v -5.736 h -5.904 q 0.216,0.24 0.456,0.624 0.264,0.384 0.456,0.864 0.216,0.456 0.336,0.984 0.144,0.528 0.144,1.104 0,1.464 -0.72,2.52 0.936,0.528 2.208,0.528 z"
         id="path375" />
      <path
         d="m 198.62635,446.93146 h -2.28 v -1.224 h 6.072 v 1.224 h -2.28 v 13.896 h -1.512 z"
         id="path377" />
      <path
         d="m 204.21834,446.93146 h -2.28 v -1.224 h 2.064 q -0.12,-0.192 -0.24,-0.6 -0.12,-0.408 -0.12,-0.96 0,-0.744 0.288,-1.392 0.312,-0.672 0.888,-1.152 0.6,-0.48 1.464,-0.744 0.888,-0.288 2.064,-0.288 1.608,0 2.928,0.576 1.32,0.552 2.328,1.368 1.032,0.816 1.752,1.728 0.744,0.912 1.176,1.608 l 0.168,0.288 -1.152,0.648 -0.264,-0.408 q -0.552,-0.84 -1.272,-1.632 -0.696,-0.816 -1.56,-1.44 -0.864,-0.648 -1.872,-1.032 -1.008,-0.408 -2.16,-0.408 -1.704,0 -2.448,0.768 -0.744,0.744 -0.744,1.8 0,0.336 0.048,0.672 0.048,0.312 0.192,0.6 h 2.544 v 1.224 h -2.28 v 13.896 h -1.512 z"
         id="path379" />
      <path
         d="m 215.54636,463.05946 q -1.68,-0.168 -2.904,-0.648 -1.2,-0.48 -1.992,-1.2 -0.792,-0.72 -1.176,-1.608 -0.384,-0.888 -0.384,-1.896 0,-0.864 0.288,-1.536 0.312,-0.696 0.792,-1.176 -0.552,-0.528 -0.936,-1.176 -0.384,-0.672 -0.384,-1.512 0,-0.672 0.24,-1.176 0.264,-0.528 0.672,-0.864 0.432,-0.36 0.984,-0.528 0.576,-0.168 1.2,-0.168 h 3.336 v -2.64 h -7.872 v -1.224 h 12.144 v 1.224 h -2.784 v 3.888 h -4.176 q -0.432,0 -0.84,0.072 -0.384,0.072 -0.696,0.264 -0.288,0.168 -0.48,0.48 -0.168,0.312 -0.168,0.816 0,0.552 0.216,1.032 0.24,0.456 0.576,0.792 1.176,-0.672 2.736,-0.672 1.008,0 1.8,0.288 0.792,0.288 1.344,0.792 0.576,0.48 0.864,1.152 0.288,0.648 0.288,1.392 0,0.768 -0.336,1.416 -0.312,0.648 -0.744,1.056 l -1.152,-0.84 q 0.288,-0.288 0.504,-0.696 0.216,-0.432 0.216,-0.984 0,-0.384 -0.168,-0.792 -0.144,-0.408 -0.48,-0.744 -0.312,-0.336 -0.84,-0.528 -0.528,-0.216 -1.248,-0.216 -1.512,0 -2.424,0.792 -0.912,0.792 -0.912,2.088 0,0.72 0.24,1.368 0.24,0.648 0.816,1.2 0.6,0.528 1.632,0.888 1.032,0.384 2.616,0.552 z"
         id="path381" />
      <path
         d="m 227.13839,452.45146 q -0.408,-0.456 -1.056,-0.72 -0.648,-0.288 -1.368,-0.288 -1.2,0 -1.992,0.72 -0.768,0.696 -0.768,2.136 0,1.008 0.312,1.848 0.336,0.816 0.912,1.512 0.576,0.696 1.344,1.272 0.768,0.552 1.632,1.008 l -0.912,1.104 q -0.984,-0.528 -1.872,-1.2 -0.888,-0.696 -1.56,-1.536 -0.648,-0.864 -1.032,-1.872 -0.384,-1.032 -0.384,-2.232 0,-1.008 0.336,-1.776 0.336,-0.768 0.912,-1.272 0.576,-0.504 1.32,-0.744 0.744,-0.264 1.56,-0.264 0.984,0 1.8,0.36 0.84,0.36 1.392,0.984 0.48,-0.624 1.176,-0.96 0.696,-0.336 1.56,-0.336 0.456,0 0.864,0.096 0.432,0.072 0.696,0.192 v -3.552 h -12.816 v -1.224 h 16.608 v 1.224 h -2.28 v 13.896 h -1.512 v -9.12 q -0.192,-0.12 -0.528,-0.192 -0.312,-0.072 -0.744,-0.072 -1.344,0 -1.968,1.08 -0.6,1.056 -0.648,3.24 h -1.488 q 0,-1.152 0.144,-1.944 0.168,-0.816 0.36,-1.368 z"
         id="path383" />
      <path
         d="m 230.47441,443.04346 q 0,-1.368 0.864,-2.208 0.864,-0.864 2.448,-0.864 1.272,0 2.16,0.624 0.912,0.624 1.512,1.536 0.624,0.888 0.96,1.872 0.36,0.984 0.504,1.704 h 2.472 v 1.224 h -2.28 v 13.896 h -1.512 v -13.896 h -2.28 v -1.224 h 2.208 q -0.144,-0.648 -0.456,-1.416 -0.312,-0.792 -0.768,-1.44 -0.456,-0.672 -1.056,-1.128 -0.624,-0.456 -1.392,-0.456 -1.8,0 -1.8,1.968 0,0.696 0.288,1.368 0.288,0.672 0.648,1.2 l 0.192,0.288 -0.936,0.624 q -0.768,-0.744 -1.272,-1.68 -0.504,-0.96 -0.504,-1.992 z"
         id="path385" />
      <path
         d="m 241.8744,451.34746 v -1.272 h 7.992 v 1.272 h -0.696 q -1.584,0 -2.376,0.72 -0.768,0.72 -0.768,1.872 0,0.624 0.216,1.08 0.24,0.456 0.624,0.768 0.408,0.288 0.936,0.456 0.528,0.144 1.128,0.144 1.152,0 2.064,-0.504 0.936,-0.528 1.44,-1.224 v -7.728 h -11.52 v -1.224 h 15.312 v 1.224 h -2.28 v 13.896 h -1.512 v -4.536 q -0.456,0.48 -1.392,0.936 -0.936,0.456 -2.184,0.456 -0.96,0 -1.776,-0.264 -0.792,-0.288 -1.392,-0.768 -0.576,-0.504 -0.912,-1.2 -0.336,-0.696 -0.336,-1.56 0,-0.864 0.432,-1.56 0.456,-0.72 1.152,-0.984 z"
         id="path387" />
      <path
         d="m 262.15443,446.52346 q 0.576,-0.456 1.488,-0.72 0.912,-0.288 1.896,-0.288 0.888,0 1.656,0.24 0.792,0.24 1.344,0.72 0.552,0.456 0.864,1.152 0.336,0.696 0.336,1.632 0,1.176 -0.576,1.992 -0.552,0.792 -1.248,1.176 0.696,0.24 1.488,0.336 0.816,0.096 1.56,0.096 0.816,0 1.584,-0.192 0.792,-0.216 1.152,-0.48 v -5.256 h -2.328 v -1.224 h 11.712 v 1.224 h -2.28 v 13.896 h -1.512 v -13.896 h -4.08 v 13.896 h -1.512 v -7.056 q -0.936,0.408 -2.256,0.408 -0.6,0 -1.152,-0.072 -0.528,-0.096 -1.176,-0.336 l -0.024,0.048 q 0.48,0.48 0.72,1.152 0.264,0.672 0.264,1.368 0,0.936 -0.336,1.68 -0.312,0.744 -0.912,1.272 -0.6,0.528 -1.44,0.816 -0.84,0.264 -1.872,0.264 -1.128,0 -2.184,-0.384 -1.032,-0.384 -1.656,-0.936 l 0.672,-1.056 q 0.624,0.528 1.392,0.816 0.768,0.288 1.704,0.288 0.624,0 1.176,-0.168 0.552,-0.168 0.96,-0.504 0.432,-0.36 0.672,-0.888 0.264,-0.552 0.264,-1.272 0,-1.272 -0.816,-2.136 -0.792,-0.864 -2.52,-0.864 h -1.536 v -1.272 h 1.392 q 1.44,0.024 2.28,-0.672 0.864,-0.696 0.864,-2.016 0,-1.272 -0.816,-1.896 -0.792,-0.624 -1.896,-0.624 -0.624,0 -1.344,0.192 -0.696,0.192 -1.32,0.624 z"
         id="path389" />
      <path
         d="m 290.73844,463.05946 q -1.68,-0.168 -2.904,-0.648 -1.2,-0.48 -1.992,-1.2 -0.792,-0.72 -1.176,-1.608 -0.384,-0.888 -0.384,-1.896 0,-0.864 0.288,-1.536 0.312,-0.696 0.792,-1.176 -0.552,-0.528 -0.936,-1.176 -0.384,-0.672 -0.384,-1.512 0,-0.672 0.24,-1.176 0.264,-0.528 0.672,-0.864 0.432,-0.36 0.984,-0.528 0.576,-0.168 1.2,-0.168 h 3.336 v -2.64 h -7.872 v -1.224 h 12.144 v 1.224 h -2.784 v 3.888 h -4.176 q -0.432,0 -0.84,0.072 -0.384,0.072 -0.696,0.264 -0.288,0.168 -0.48,0.48 -0.168,0.312 -0.168,0.816 0,0.552 0.216,1.032 0.24,0.456 0.576,0.792 1.176,-0.672 2.736,-0.672 1.008,0 1.8,0.288 0.792,0.288 1.344,0.792 0.576,0.48 0.864,1.152 0.288,0.648 0.288,1.392 0,0.768 -0.336,1.416 -0.312,0.648 -0.744,1.056 l -1.152,-0.84 q 0.288,-0.288 0.504,-0.696 0.216,-0.432 0.216,-0.984 0,-0.384 -0.168,-0.792 -0.144,-0.408 -0.48,-0.744 -0.312,-0.336 -0.84,-0.528 -0.528,-0.216 -1.248,-0.216 -1.512,0 -2.424,0.792 -0.912,0.792 -0.912,2.088 0,0.72 0.24,1.368 0.24,0.648 0.816,1.2 0.6,0.528 1.632,0.888 1.032,0.384 2.616,0.552 z"
         id="path391" />
      <path
         d="m 282.91442,440.18746 q 0.408,-0.216 1.08,-0.36 0.648,-0.168 1.32,-0.168 1.728,0 2.856,0.864 1.128,0.864 1.968,2.448 l 1.824,3.456 h -1.224 l -1.728,-2.784 q -0.72,-1.2 -1.512,-1.848 -0.816,-0.672 -2.184,-0.672 -0.504,0 -1.008,0.12 -0.528,0.12 -0.888,0.288 z"
         id="path393" />
      <path
         d="m 300.55446,452.06746 q -0.864,0 -1.464,0.216 -0.6,0.216 -0.984,0.6 -0.36,0.36 -0.552,0.888 -0.168,0.528 -0.168,1.152 0,1.32 0.576,2.64 0.576,1.32 1.608,2.784 l -1.296,0.696 q -1.08,-1.512 -1.776,-3 -0.672,-1.488 -0.672,-3.216 0,-1.944 1.128,-3 1.152,-1.056 3.24,-1.056 h 4.008 v -3.84 h -9.816 v -1.224 h 13.608 v 1.224 h -2.28 v 13.896 h -1.512 v -8.76 z"
         id="path395" />
      <path
         d="m 316.58651,460.63546 q -0.456,-0.072 -0.888,-0.24 -0.432,-0.168 -0.792,-0.408 -0.336,-0.264 -0.552,-0.576 -0.192,-0.312 -0.192,-0.672 0,-0.432 0.36,-0.744 0.36,-0.312 0.984,-0.312 l 1.656,1.776 q 0.864,0.024 1.728,-0.096 0.864,-0.12 1.56,-0.408 0.696,-0.288 1.128,-0.744 0.456,-0.48 0.456,-1.152 0,-0.912 -0.696,-1.368 -0.672,-0.456 -1.968,-0.456 -0.744,0 -1.584,0.144 -0.84,0.12 -1.728,0.384 -0.84,-0.624 -1.488,-1.464 -0.648,-0.84 -0.648,-1.968 0,-1.224 0.912,-1.992 0.936,-0.792 2.544,-0.792 h 3.336 v -2.616 h -7.992 v -1.224 h 12.12 v 1.224 h -2.64 v 3.888 h -4.32 q -1.056,0 -1.728,0.384 -0.672,0.36 -0.672,1.296 0,0.552 0.264,1.008 0.264,0.456 0.672,0.84 0.696,-0.192 1.464,-0.312 0.768,-0.12 1.608,-0.12 1.992,0 3.048,0.912 1.08,0.888 1.08,2.232 0,0.864 -0.456,1.536 -0.432,0.648 -1.2,1.104 -0.744,0.456 -1.776,0.72 -1.032,0.24 -2.184,0.288 l 2.928,2.784 -1.2,0.936 z"
         id="path397" />
      <path
         d="m 326.64252,446.93146 h -2.28 v -1.224 h 2.064 q -0.144,-0.24 -0.264,-0.648 -0.096,-0.432 -0.096,-0.84 0,-0.816 0.36,-1.488 0.384,-0.696 1.056,-1.152 0.696,-0.48 1.68,-0.744 0.984,-0.264 2.184,-0.264 1.848,0 3.336,0.552 1.488,0.552 2.64,1.368 1.152,0.816 1.968,1.752 0.84,0.936 1.368,1.68 l 0.144,0.216 -1.104,0.696 -0.24,-0.312 q -0.672,-0.888 -1.512,-1.728 -0.816,-0.84 -1.824,-1.488 -0.984,-0.648 -2.16,-1.032 -1.176,-0.408 -2.544,-0.408 -1.848,0 -2.808,0.768 -0.96,0.744 -0.96,1.896 0,0.72 0.216,1.176 h 2.568 v 1.224 h -2.28 v 13.896 h -1.512 z"
         id="path399" />
      <path
         d="m 335.76253,452.06746 q -0.864,0 -1.464,0.216 -0.6,0.216 -0.984,0.6 -0.36,0.36 -0.552,0.888 -0.168,0.528 -0.168,1.152 0,1.32 0.576,2.64 0.576,1.32 1.608,2.784 l -1.296,0.696 q -1.08,-1.512 -1.776,-3 -0.672,-1.488 -0.672,-3.216 0,-1.944 1.128,-3 1.152,-1.056 3.24,-1.056 h 4.008 v -3.84 h -9.816 v -1.224 h 13.608 v 1.224 h -2.28 v 13.896 h -1.512 v -8.76 z"
         id="path401" />
      <path
         d="m 350.85855,463.05946 q -1.68,-0.168 -2.904,-0.648 -1.2,-0.48 -1.992,-1.2 -0.792,-0.72 -1.176,-1.608 -0.384,-0.888 -0.384,-1.896 0,-0.864 0.288,-1.536 0.312,-0.696 0.792,-1.176 -0.552,-0.528 -0.936,-1.176 -0.384,-0.672 -0.384,-1.512 0,-0.672 0.24,-1.176 0.264,-0.528 0.672,-0.864 0.432,-0.36 0.984,-0.528 0.576,-0.168 1.2,-0.168 h 3.336 v -2.64 h -7.872 v -1.224 h 12.144 v 1.224 h -2.784 v 3.888 h -4.176 q -0.432,0 -0.84,0.072 -0.384,0.072 -0.696,0.264 -0.288,0.168 -0.48,0.48 -0.168,0.312 -0.168,0.816 0,0.552 0.216,1.032 0.24,0.456 0.576,0.792 1.176,-0.672 2.736,-0.672 1.008,0 1.8,0.288 0.792,0.288 1.344,0.792 0.576,0.48 0.864,1.152 0.288,0.648 0.288,1.392 0,0.768 -0.336,1.416 -0.312,0.648 -0.744,1.056 l -1.152,-0.84 q 0.288,-0.288 0.504,-0.696 0.216,-0.432 0.216,-0.984 0,-0.384 -0.168,-0.792 -0.144,-0.408 -0.48,-0.744 -0.312,-0.336 -0.84,-0.528 -0.528,-0.216 -1.248,-0.216 -1.512,0 -2.424,0.792 -0.912,0.792 -0.912,2.088 0,0.72 0.24,1.368 0.24,0.648 0.816,1.2 0.6,0.528 1.632,0.888 1.032,0.384 2.616,0.552 z"
         id="path403" />
      <path
         d="m 356.54658,446.93146 h -2.28 v -1.224 h 6.072 v 1.224 h -2.28 v 13.896 h -1.512 z"
         id="path405" />
      <path
         d="m 367.34657,460.17946 -1.296,0.864 -4.512,-6.792 q -0.408,-0.576 -0.576,-0.912 -0.144,-0.336 -0.144,-0.6 0,-0.384 0.288,-0.576 0.312,-0.216 0.744,-0.216 l 0.408,0.528 q 0.336,0.456 0.672,0.624 0.336,0.168 0.84,0.168 1.128,0 1.8,-0.744 0.672,-0.744 0.672,-2.088 0,-1.176 -0.456,-2.064 -0.432,-0.888 -0.912,-1.44 h -5.016 v -1.224 h 16.248 v 1.224 h -2.28 v 13.896 h -1.512 v -6.528 q -0.48,0.264 -1.176,0.432 -0.696,0.144 -1.704,0.144 -0.84,0 -1.704,-0.264 -0.84,-0.264 -1.464,-0.72 -0.888,0.648 -2.304,0.648 -0.36,0 -0.6,-0.072 z m 1.944,-6.624 q 1.032,0 1.8,-0.24 0.768,-0.264 1.224,-0.648 v -5.736 h -5.904 q 0.216,0.24 0.456,0.624 0.264,0.384 0.456,0.864 0.216,0.456 0.336,0.984 0.144,0.528 0.144,1.104 0,1.464 -0.72,2.52 0.936,0.528 2.208,0.528 z"
         id="path407" />
      <path
         d="m 377.90656,446.93146 h -2.28 v -1.224 h 6.072 v 1.224 h -2.28 v 13.896 h -1.512 z"
         id="path409" />
      <path
         d="m 402.05056,446.93146 v 13.896 h -1.488 v -4.512 q -0.168,0.144 -0.48,0.336 -0.288,0.192 -0.72,0.384 -0.408,0.168 -0.96,0.288 -0.552,0.12 -1.224,0.12 -0.984,0 -1.896,-0.288 -0.888,-0.312 -1.656,-0.936 -0.72,0.624 -1.8,1.056 -1.08,0.408 -2.568,0.408 -1.008,0 -1.848,-0.264 -0.84,-0.288 -1.464,-0.768 -0.624,-0.504 -0.984,-1.2 -0.336,-0.696 -0.336,-1.56 0,-0.864 0.432,-1.56 0.456,-0.72 1.152,-0.984 h -4.152 v -1.272 h 7.992 v 1.272 h -0.72 q -1.584,0 -2.352,0.72 -0.768,0.696 -0.768,1.872 0,1.224 0.912,1.848 0.912,0.6 2.208,0.6 1.152,0 1.992,-0.336 0.84,-0.336 1.44,-0.816 -0.48,-0.648 -0.744,-1.488 -0.264,-0.864 -0.288,-1.92 l 0.672,-0.024 q 1.824,-0.048 2.544,-0.648 0.744,-0.6 0.744,-1.728 0,-0.768 -0.36,-1.368 -0.336,-0.6 -0.888,-1.128 h -13.224 v -1.224 h 23.112 v 1.224 z m -1.488,7.752 v -7.752 h -4.56 q 0.456,0.432 0.84,1.104 0.408,0.672 0.408,1.56 0,1.464 -1.008,2.4 -1.008,0.912 -3,1.032 0.264,1.44 1.296,2.28 1.056,0.84 2.712,0.84 0.576,0 1.08,-0.12 0.528,-0.144 0.96,-0.36 0.432,-0.216 0.744,-0.456 0.336,-0.264 0.528,-0.528 z"
         id="path411" />
      <path
         d="m 406.13058,446.93146 h -2.28 v -1.224 h 6.072 v 1.224 h -2.28 v 13.896 h -1.512 z"
         id="path413" />
      <path
         d="m 422.18659,452.83546 q 1.224,0.36 2.064,1.32 0.864,0.96 0.864,2.544 0,0.888 -0.336,1.656 -0.312,0.744 -0.936,1.296 -0.6,0.552 -1.464,0.864 -0.84,0.312 -1.896,0.312 -0.936,0 -1.752,-0.264 -0.792,-0.288 -1.44,-0.744 -0.648,-0.48 -1.152,-1.104 -0.48,-0.624 -0.792,-1.296 l 1.104,-0.744 q 0.624,1.344 1.632,2.112 1.032,0.768 2.328,0.768 1.416,0 2.256,-0.744 0.84,-0.768 0.84,-2.16 0,-1.488 -1.032,-2.304 -1.008,-0.84 -2.736,-0.84 h -1.296 v -1.272 h 1.2 q 1.512,0 2.376,-0.72 0.864,-0.72 0.864,-2.064 0,-0.528 -0.192,-0.984 -0.192,-0.48 -0.552,-0.816 -0.336,-0.336 -0.816,-0.528 -0.48,-0.192 -1.056,-0.192 h -5.616 v -1.224 h 11.904 v 1.224 h -3.528 q 0.6,0.384 1.008,1.104 0.408,0.696 0.408,1.536 0,1.248 -0.648,2.064 -0.624,0.792 -1.608,1.2 z"
         id="path415" />
      <path
         d="m 434.01859,452.45146 q -0.408,-0.456 -1.056,-0.72 -0.648,-0.288 -1.368,-0.288 -1.2,0 -1.992,0.72 -0.768,0.696 -0.768,2.136 0,1.008 0.312,1.848 0.336,0.816 0.912,1.512 0.576,0.696 1.344,1.272 0.768,0.552 1.632,1.008 l -0.912,1.104 q -0.984,-0.528 -1.872,-1.2 -0.888,-0.696 -1.56,-1.536 -0.648,-0.864 -1.032,-1.872 -0.384,-1.032 -0.384,-2.232 0,-1.008 0.336,-1.776 0.336,-0.768 0.912,-1.272 0.576,-0.504 1.32,-0.744 0.744,-0.264 1.56,-0.264 0.984,0 1.8,0.36 0.84,0.36 1.392,0.984 0.48,-0.624 1.176,-0.96 0.696,-0.336 1.56,-0.336 0.456,0 0.864,0.096 0.432,0.072 0.696,0.192 v -3.552 h -12.816 v -1.224 h 16.608 v 1.224 h -2.28 v 13.896 h -1.512 v -9.12 q -0.192,-0.12 -0.528,-0.192 -0.312,-0.072 -0.744,-0.072 -1.344,0 -1.968,1.08 -0.6,1.056 -0.648,3.24 h -1.488 q 0,-1.152 0.144,-1.944 0.168,-0.816 0.36,-1.368 z"
         id="path417" />
      <path
         d="m 445.97063,453.79546 q 0.336,-0.216 0.648,-0.864 0.312,-0.672 0.312,-1.632 0,-1.368 -0.6,-2.472 -0.576,-1.128 -1.368,-1.896 h -2.76 v -1.224 h 13.704 v 1.224 h -2.28 v 13.896 h -1.512 v -13.896 h -5.472 q 0.288,0.288 0.624,0.744 0.336,0.432 0.6,1.008 0.264,0.576 0.432,1.296 0.192,0.696 0.192,1.512 0,1.008 -0.264,1.824 -0.264,0.816 -0.696,1.392 -0.432,0.552 -1.008,0.864 -0.552,0.312 -1.152,0.312 -0.816,0 -1.392,-0.504 -0.576,-0.504 -0.576,-1.272 0,-0.576 0.384,-0.936 0.384,-0.384 0.816,-0.384 z"
         id="path419" />
      <path
         d="m 459.17063,455.93146 q -0.96,-0.672 -1.632,-1.512 -0.672,-0.864 -0.672,-1.944 0,-0.576 0.192,-1.104 0.192,-0.552 0.6,-0.936 0.408,-0.408 1.032,-0.648 0.624,-0.24 1.512,-0.24 h 3.576 v -2.616 h -8.352 v -1.224 h 24.216 v 1.224 h -2.28 v 13.896 h -1.488 v -2.376 q -0.432,0.336 -1.176,0.624 -0.744,0.288 -1.824,0.288 -0.816,0 -1.68,-0.24 -0.84,-0.264 -1.536,-0.792 -0.672,-0.552 -1.128,-1.392 -0.456,-0.864 -0.48,-2.088 l 0.624,-0.12 q 0.672,-0.096 1.248,-0.24 0.576,-0.168 1.008,-0.408 0.432,-0.264 0.672,-0.624 0.24,-0.36 0.24,-0.888 0,-0.84 -0.624,-1.296 -0.624,-0.456 -1.896,-0.456 h -8.784 q -1.008,0 -1.56,0.48 -0.552,0.48 -0.552,1.296 0,0.6 0.288,1.08 0.312,0.48 0.72,0.816 0.552,-0.24 1.248,-0.36 0.72,-0.144 1.392,-0.144 2.064,0 3.192,0.96 1.128,0.936 1.128,2.424 0,1.56 -1.248,2.568 -1.224,1.008 -3.456,1.008 -1.56,0 -3,-0.552 -1.44,-0.576 -2.4,-1.416 l 0.792,-1.056 q 0.912,0.768 2.088,1.248 1.2,0.456 2.496,0.456 1.536,0 2.352,-0.576 0.816,-0.6 0.816,-1.728 0,-1.008 -0.744,-1.512 -0.72,-0.528 -2.088,-0.528 -0.6,0 -1.32,0.144 -0.72,0.144 -1.512,0.504 z m 10.416,-6.384 q 0.936,0 1.632,0.24 0.72,0.24 1.2,0.672 0.48,0.408 0.72,0.96 0.24,0.552 0.24,1.176 0,0.768 -0.312,1.344 -0.288,0.576 -0.816,0.984 -0.528,0.384 -1.224,0.648 -0.672,0.264 -1.44,0.408 0.264,0.984 1.176,1.536 0.912,0.552 2.112,0.552 0.888,0 1.704,-0.288 0.816,-0.312 1.296,-0.912 v -9.936 h -10.584 v 2.616 z"
         id="path421" />
      <path
         d="m 481.44265,446.93146 h -2.28 v -1.224 h 6.072 v 1.224 h -2.28 v 13.896 h -1.512 z"
         id="path423" />
      <path
         d="m 485.71463,451.34746 v -1.272 h 7.992 v 1.272 h -0.696 q -1.584,0 -2.376,0.72 -0.768,0.72 -0.768,1.872 0,0.624 0.216,1.08 0.24,0.456 0.624,0.768 0.408,0.288 0.936,0.456 0.528,0.144 1.128,0.144 1.152,0 2.064,-0.504 0.936,-0.528 1.44,-1.224 v -7.728 h -11.52 v -1.224 h 15.312 v 1.224 h -2.28 v 13.896 h -1.512 v -4.536 q -0.456,0.48 -1.392,0.936 -0.936,0.456 -2.184,0.456 -0.96,0 -1.776,-0.264 -0.792,-0.288 -1.392,-0.768 -0.576,-0.504 -0.912,-1.2 -0.336,-0.696 -0.336,-1.56 0,-0.864 0.432,-1.56 0.456,-0.72 1.152,-0.984 z"
         id="path425" />
      <path
         d="m 494.73863,443.04346 q 0,-1.368 0.864,-2.208 0.864,-0.864 2.448,-0.864 1.272,0 2.16,0.624 0.912,0.624 1.512,1.536 0.624,0.888 0.96,1.872 0.36,0.984 0.504,1.704 h 2.472 v 1.224 h -2.28 v 13.896 h -1.512 v -13.896 h -2.28 v -1.224 h 2.208 q -0.144,-0.648 -0.456,-1.416 -0.312,-0.792 -0.768,-1.44 -0.456,-0.672 -1.056,-1.128 -0.624,-0.456 -1.392,-0.456 -1.8,0 -1.8,1.968 0,0.696 0.288,1.368 0.288,0.672 0.648,1.2 l 0.192,0.288 -0.936,0.624 q -0.768,-0.744 -1.272,-1.68 -0.504,-0.96 -0.504,-1.992 z"
         id="path427" />
      <path
         d="m 514.63465,446.93146 v 6.384 h 5.304 v -6.384 z m 0,9.432 q -0.096,0.12 -0.384,0.216 -0.264,0.096 -0.6,0.096 -0.408,0 -0.792,-0.144 -0.36,-0.168 -0.648,-0.432 -0.288,-0.288 -0.456,-0.672 -0.168,-0.384 -0.168,-0.84 0,-0.624 0.336,-0.936 0.336,-0.336 0.96,-0.336 h 0.24 v -6.384 h -2.736 v -1.224 h 13.344 v 1.224 h -2.28 v 13.896 h -1.512 v -6.24 h -5.304 z"
         id="path429" />
      <path
         d="m 516.57863,463.77946 q 0,-1.44 0.96,-2.328 0.96,-0.864 2.76,-0.864 1.104,0 2.04,0.408 0.912,0.408 1.728,1.152 0.816,0.768 1.512,1.8 0.72,1.056 1.368,2.304 l -1.176,0.696 q -0.576,-1.104 -1.2,-2.04 -0.6,-0.936 -1.248,-1.608 -0.672,-0.672 -1.392,-1.056 -0.744,-0.384 -1.56,-0.384 -1.2,0 -1.728,0.552 -0.552,0.576 -0.552,1.44 0,0.888 0.6,1.392 0.6,0.528 1.512,0.528 0.624,0 1.104,-0.24 l 0.528,1.104 q -0.384,0.192 -0.744,0.288 -0.384,0.096 -0.96,0.096 -0.816,0 -1.464,-0.264 -0.648,-0.24 -1.104,-0.696 -0.48,-0.432 -0.72,-1.032 -0.264,-0.576 -0.264,-1.248 z"
         id="path431" />
      <path
         d="m 519.57863,442.22746 q 0,-0.432 0.312,-0.768 0.312,-0.336 0.792,-0.336 0.48,0 0.792,0.336 0.288,0.336 0.288,0.768 0,0.504 -0.288,0.816 -0.312,0.312 -0.792,0.312 -0.48,0 -0.792,-0.312 -0.312,-0.312 -0.312,-0.816 z"
         id="path433" />
      <path
         d="m 531.24263,451.99546 q 0.312,0.144 0.624,0.432 0.312,0.288 0.552,0.696 0.264,0.408 0.432,0.936 0.168,0.528 0.168,1.152 0,0.864 -0.312,1.584 -0.312,0.696 -0.864,1.2 -0.552,0.48 -1.32,0.768 -0.744,0.264 -1.632,0.264 -0.936,0 -1.728,-0.264 -0.768,-0.288 -1.392,-0.768 -0.6,-0.48 -1.056,-1.104 -0.456,-0.648 -0.768,-1.368 l 1.128,-0.6 q 0.624,1.32 1.536,2.088 0.912,0.744 2.208,0.744 0.528,0 1.008,-0.144 0.48,-0.168 0.84,-0.48 0.36,-0.312 0.576,-0.792 0.216,-0.504 0.216,-1.2 0,-1.512 -0.984,-2.328 -0.984,-0.816 -2.808,-0.816 h -0.696 v -1.248 h 9.024 v -3.816 h -12.744 v -1.224 h 16.536 v 1.224 h -2.28 v 13.896 h -1.512 v -8.832 z"
         id="path435" />
      <path
         d="m 540.67463,459.74746 q 0,-0.552 0.336,-0.912 0.36,-0.36 0.864,-0.36 0.504,0 0.84,0.36 0.36,0.36 0.36,0.912 0,0.6 -0.36,0.96 -0.336,0.336 -0.84,0.336 -0.504,0 -0.864,-0.336 -0.336,-0.36 -0.336,-0.96 z"
         id="path437" />
    </g>
  </g>
</svg>
