<?xml version="1.0" encoding="UTF-8" standalone="no"?>
<svg
   width="800"
   height="350"
   version="1.1"
   id="svg12"
   sodipodi:docname="sharvani_marathi.svg"
   xmlns:inkscape="http://www.inkscape.org/namespaces/inkscape"
   xmlns:sodipodi="http://sodipodi.sourceforge.net/DTD/sodipodi-0.dtd"
   xmlns="http://www.w3.org/2000/svg"
   xmlns:svg="http://www.w3.org/2000/svg">
  <defs
     id="defs16" />
  <sodipodi:namedview
     id="namedview14"
     pagecolor="#ffffff"
     bordercolor="#666666"
     borderopacity="1.0"
     inkscape:showpageshadow="2"
     inkscape:pageopacity="0.0"
     inkscape:pagecheckerboard="0"
     inkscape:deskcolor="#d1d1d1" />
  <g
     font-family="Lohit Devanagari"
     font-size="32"
     text-anchor="middle"
     fill="#000"
     id="g10">
    <g
       aria-label="In Sharvani's heart, a Marathi fire,"
       id="text2">
      <path
         d="m 132.83594,100 h -9.1875 v -2.375 h 3.04687 V 79.109375 h -3.04687 v -2.375 h 9.1875 v 2.375 h -3.04688 V 97.625 h 3.04688 z"
         id="path18" />
      <path
         d="m 152.46094,100 h -2.9375 v -9.9375 q 0,-1.203125 -0.14063,-2.25 -0.14062,-1.0625 -0.51562,-1.65625 -0.39063,-0.65625 -1.125,-0.96875 -0.73438,-0.328125 -1.90625,-0.328125 -1.20313,0 -2.51563,0.59375 -1.3125,0.59375 -2.51562,1.515625 V 100 h -2.9375 V 82.546875 h 2.9375 v 1.9375 q 1.375,-1.140625 2.84375,-1.78125 1.46875,-0.640625 3.01562,-0.640625 2.82813,0 4.3125,1.703125 1.48438,1.703125 1.48438,4.90625 z"
         id="path20" />
      <path
         d="m 186.50781,93.359375 q 0,1.359375 -0.64062,2.6875 -0.625,1.328125 -1.76563,2.25 -1.25,1 -2.92187,1.5625 -1.65625,0.562505 -4,0.562505 -2.51563,0 -4.53125,-0.468755 -2,-0.46875 -4.07813,-1.390625 v -3.875 h 0.21875 q 1.76563,1.46875 4.07813,2.265625 2.3125,0.796875 4.34375,0.796875 2.875,0 4.46875,-1.078125 1.60937,-1.078125 1.60937,-2.875 0,-1.546875 -0.76562,-2.28125 -0.75,-0.734375 -2.29688,-1.140625 -1.17187,-0.3125 -2.54687,-0.515625 -1.35938,-0.203125 -2.89063,-0.515625 -3.09375,-0.65625 -4.59375,-2.234375 -1.48437,-1.59375 -1.48437,-4.140625 0,-2.921875 2.46875,-4.78125 2.46875,-1.875 6.26562,-1.875 2.45313,0 4.5,0.46875 2.04688,0.46875 3.625,1.15625 v 3.65625 h -0.21875 q -1.32812,-1.125 -3.5,-1.859375 -2.15625,-0.75 -4.42187,-0.75 -2.48438,0 -4,1.03125 -1.5,1.03125 -1.5,2.65625 0,1.453125 0.75,2.28125 0.75,0.828125 2.64062,1.265625 1,0.21875 2.84375,0.53125 1.84375,0.3125 3.125,0.640625 2.59375,0.6875 3.90625,2.078125 1.3125,1.390625 1.3125,3.890625 z"
         id="path22" />
      <path
         d="m 205.83594,100 h -2.9375 v -9.9375 q 0,-1.203125 -0.14063,-2.25 -0.14062,-1.0625 -0.51562,-1.65625 -0.39063,-0.65625 -1.125,-0.96875 -0.73438,-0.328125 -1.90625,-0.328125 -1.20313,0 -2.51563,0.59375 -1.3125,0.59375 -2.51562,1.515625 V 100 h -2.9375 V 75.6875 h 2.9375 v 8.796875 q 1.375,-1.140625 2.84375,-1.78125 1.46875,-0.640625 3.01562,-0.640625 2.82813,0 4.3125,1.703125 1.48438,1.703125 1.48438,4.90625 z"
         id="path24" />
      <path
         d="m 225.05469,100 h -2.92188 v -1.859375 q -0.39062,0.265625 -1.0625,0.75 -0.65625,0.46875 -1.28125,0.75 -0.73437,0.359375 -1.6875,0.593755 -0.95312,0.25 -2.23437,0.25 -2.35938,0 -4,-1.562505 -1.64063,-1.5625 -1.64063,-3.984375 0,-1.984375 0.84375,-3.203125 0.85938,-1.234375 2.4375,-1.9375 1.59375,-0.703125 3.82813,-0.953125 2.23437,-0.25 4.79687,-0.375 v -0.453125 q 0,-1 -0.35937,-1.65625 -0.34375,-0.65625 -1,-1.03125 -0.625,-0.359375 -1.5,-0.484375 -0.875,-0.125 -1.82813,-0.125 -1.15625,0 -2.57812,0.3125 -1.42188,0.296875 -2.9375,0.875 h -0.15625 v -2.984375 q 0.85937,-0.234375 2.48437,-0.515625 1.625,-0.28125 3.20313,-0.28125 1.84375,0 3.20312,0.3125 1.375,0.296875 2.375,1.03125 0.98438,0.71875 1.5,1.859375 0.51563,1.140625 0.51563,2.828125 z m -2.92188,-4.296875 V 90.84375 q -1.34375,0.07813 -3.17187,0.234375 -1.8125,0.15625 -2.875,0.453125 -1.26563,0.359375 -2.04688,1.125 -0.78125,0.75 -0.78125,2.078125 0,1.5 0.90625,2.265625 0.90625,0.75 2.76563,0.75 1.54687,0 2.82812,-0.59375 1.28125,-0.609375 2.375,-1.453125 z"
         id="path26" />
      <path
         d="m 241.60156,85.75 h -0.15625 q -0.65625,-0.15625 -1.28125,-0.21875 -0.60937,-0.07813 -1.45312,-0.07813 -1.35938,0 -2.625,0.609375 -1.26563,0.59375 -2.4375,1.546875 V 100 h -2.9375 V 82.546875 h 2.9375 V 85.125 q 1.75,-1.40625 3.07812,-1.984375 1.34375,-0.59375 2.73438,-0.59375 0.76562,0 1.10937,0.04687 0.34375,0.03125 1.03125,0.140625 z"
         id="path28" />
      <path
         d="M 259.46094,82.546875 252.39844,100 h -2.95313 l -7.01562,-17.453125 h 3.1875 l 5.40625,13.890625 5.35937,-13.890625 z"
         id="path30" />
      <path
         d="m 276.24219,100 h -2.92188 v -1.859375 q -0.39062,0.265625 -1.0625,0.75 -0.65625,0.46875 -1.28125,0.75 -0.73437,0.359375 -1.6875,0.593755 -0.95312,0.25 -2.23437,0.25 -2.35938,0 -4,-1.562505 -1.64063,-1.5625 -1.64063,-3.984375 0,-1.984375 0.84375,-3.203125 0.85938,-1.234375 2.4375,-1.9375 1.59375,-0.703125 3.82813,-0.953125 2.23437,-0.25 4.79687,-0.375 v -0.453125 q 0,-1 -0.35937,-1.65625 -0.34375,-0.65625 -1,-1.03125 -0.625,-0.359375 -1.5,-0.484375 -0.875,-0.125 -1.82813,-0.125 -1.15625,0 -2.57812,0.3125 -1.42188,0.296875 -2.9375,0.875 h -0.15625 v -2.984375 q 0.85937,-0.234375 2.48437,-0.515625 1.625,-0.28125 3.20313,-0.28125 1.84375,0 3.20312,0.3125 1.375,0.296875 2.375,1.03125 0.98438,0.71875 1.5,1.859375 0.51563,1.140625 0.51563,2.828125 z m -2.92188,-4.296875 V 90.84375 q -1.34375,0.07813 -3.17187,0.234375 -1.8125,0.15625 -2.875,0.453125 -1.26563,0.359375 -2.04688,1.125 -0.78125,0.75 -0.78125,2.078125 0,1.5 0.90625,2.265625 0.90625,0.75 2.76563,0.75 1.54687,0 2.82812,-0.59375 1.28125,-0.609375 2.375,-1.453125 z"
         id="path32" />
      <path
         d="m 296.49219,100 h -2.9375 v -9.9375 q 0,-1.203125 -0.14063,-2.25 -0.14062,-1.0625 -0.51562,-1.65625 -0.39063,-0.65625 -1.125,-0.96875 -0.73438,-0.328125 -1.90625,-0.328125 -1.20313,0 -2.51563,0.59375 -1.3125,0.59375 -2.51562,1.515625 V 100 h -2.9375 V 82.546875 h 2.9375 v 1.9375 q 1.375,-1.140625 2.84375,-1.78125 1.46875,-0.640625 3.01562,-0.640625 2.82813,0 4.3125,1.703125 1.48438,1.703125 1.48438,4.90625 z"
         id="path34" />
      <path
         d="m 305.30469,79.625 h -3.3125 v -3.046875 h 3.3125 z M 305.11719,100 h -2.9375 V 82.546875 h 2.9375 z"
         id="path36" />
      <path
         d="m 314.07031,75.6875 -0.67187,9.046875 h -2.125 L 310.60156,75.6875 Z"
         id="path38" />
      <path
         d="m 331.99219,94.96875 q 0,2.390625 -1.98438,3.921875 -1.96875,1.531255 -5.39062,1.531255 -1.9375,0 -3.5625,-0.45313 Q 319.44531,99.5 318.35156,98.953125 V 95.65625 h 0.15625 q 1.39063,1.046875 3.09375,1.671875 1.70313,0.609375 3.26563,0.609375 1.9375,0 3.03125,-0.625 1.09375,-0.625 1.09375,-1.96875 0,-1.03125 -0.59375,-1.5625 -0.59375,-0.53125 -2.28125,-0.90625 -0.625,-0.140625 -1.64063,-0.328125 -1,-0.1875 -1.82812,-0.40625 -2.29688,-0.609375 -3.26563,-1.78125 -0.95312,-1.1875 -0.95312,-2.90625 0,-1.078125 0.4375,-2.03125 0.45312,-0.953125 1.35937,-1.703125 0.875,-0.734375 2.21875,-1.15625 1.35938,-0.4375 3.03125,-0.4375 1.5625,0 3.15625,0.390625 1.60938,0.375 2.67188,0.921875 v 3.140625 h -0.15625 q -1.125,-0.828125 -2.73438,-1.390625 -1.60937,-0.578125 -3.15625,-0.578125 -1.60937,0 -2.71875,0.625 -1.10937,0.609375 -1.10937,1.828125 0,1.078125 0.67187,1.625 0.65625,0.546875 2.125,0.890625 0.8125,0.1875 1.8125,0.375 1.01563,0.1875 1.6875,0.34375 2.04688,0.46875 3.15625,1.609375 1.10938,1.15625 1.10938,3.0625 z"
         id="path40" />
      <path
         d="m 362.03906,100 h -2.9375 v -9.9375 q 0,-1.203125 -0.14062,-2.25 -0.14063,-1.0625 -0.51563,-1.65625 -0.39062,-0.65625 -1.125,-0.96875 -0.73437,-0.328125 -1.90625,-0.328125 -1.20312,0 -2.51562,0.59375 -1.3125,0.59375 -2.51563,1.515625 V 100 h -2.9375 V 75.6875 h 2.9375 v 8.796875 q 1.375,-1.140625 2.84375,-1.78125 1.46875,-0.640625 3.01563,-0.640625 2.82812,0 4.3125,1.703125 1.48437,1.703125 1.48437,4.90625 z"
         id="path42" />
      <path
         d="m 382.30469,91.578125 h -12.85938 q 0,1.609375 0.48438,2.8125 0.48437,1.1875 1.32812,1.953125 0.8125,0.75 1.92188,1.125 1.125,0.375 2.46875,0.375 1.78125,0 3.57812,-0.703125 1.8125,-0.71875 2.57813,-1.40625 h 0.15625 V 98.9375 q -1.48438,0.625 -3.03125,1.046875 -1.54688,0.421875 -3.25,0.421875 -4.34375,0 -6.78125,-2.34375 -2.4375,-2.359375 -2.4375,-6.6875 0,-4.28125 2.32812,-6.796875 2.34375,-2.515625 6.15625,-2.515625 3.53125,0 5.4375,2.0625 1.92188,2.0625 1.92188,5.859375 z m -2.85938,-2.25 q -0.0156,-2.3125 -1.17187,-3.578125 -1.14063,-1.265625 -3.48438,-1.265625 -2.35937,0 -3.76562,1.390625 -1.39063,1.390625 -1.57813,3.453125 z"
         id="path44" />
      <path
         d="m 400.32031,100 h -2.92187 v -1.859375 q -0.39063,0.265625 -1.0625,0.75 -0.65625,0.46875 -1.28125,0.75 -0.73438,0.359375 -1.6875,0.593755 -0.95313,0.25 -2.23438,0.25 -2.35937,0 -4,-1.562505 -1.64062,-1.5625 -1.64062,-3.984375 0,-1.984375 0.84375,-3.203125 0.85937,-1.234375 2.4375,-1.9375 1.59375,-0.703125 3.82812,-0.953125 2.23438,-0.25 4.79688,-0.375 v -0.453125 q 0,-1 -0.35938,-1.65625 -0.34375,-0.65625 -1,-1.03125 -0.625,-0.359375 -1.5,-0.484375 -0.875,-0.125 -1.82812,-0.125 -1.15625,0 -2.57813,0.3125 -1.42187,0.296875 -2.9375,0.875 h -0.15625 v -2.984375 q 0.85938,-0.234375 2.48438,-0.515625 1.625,-0.28125 3.20312,-0.28125 1.84375,0 3.20313,0.3125 1.375,0.296875 2.375,1.03125 0.98437,0.71875 1.5,1.859375 0.51562,1.140625 0.51562,2.828125 z m -2.92187,-4.296875 V 90.84375 q -1.34375,0.07813 -3.17188,0.234375 -1.8125,0.15625 -2.875,0.453125 -1.26562,0.359375 -2.04687,1.125 -0.78125,0.75 -0.78125,2.078125 0,1.5 0.90625,2.265625 0.90625,0.75 2.76562,0.75 1.54688,0 2.82813,-0.59375 1.28125,-0.609375 2.375,-1.453125 z"
         id="path46" />
      <path
         d="m 416.86719,85.75 h -0.15625 q -0.65625,-0.15625 -1.28125,-0.21875 -0.60938,-0.07813 -1.45313,-0.07813 -1.35937,0 -2.625,0.609375 -1.26562,0.59375 -2.4375,1.546875 V 100 h -2.9375 V 82.546875 h 2.9375 V 85.125 q 1.75,-1.40625 3.07813,-1.984375 1.34375,-0.59375 2.73437,-0.59375 0.76563,0 1.10938,0.04687 0.34375,0.03125 1.03125,0.140625 z"
         id="path48" />
      <path
         d="m 428.69531,99.84375 q -0.82812,0.21875 -1.8125,0.35938 -0.96875,0.14062 -1.73437,0.14062 -2.67188,0 -4.0625,-1.4375 -1.39063,-1.4375 -1.39063,-4.609375 v -9.28125 h -1.98437 v -2.46875 h 1.98437 V 77.53125 h 2.9375 v 5.015625 h 6.0625 v 2.46875 h -6.0625 v 7.953125 q 0,1.375 0.0625,2.15625 0.0625,0.765625 0.4375,1.4375 0.34375,0.625 0.9375,0.921875 0.60938,0.28125 1.84375,0.28125 0.71875,0 1.5,-0.203125 0.78125,-0.21875 1.125,-0.359375 h 0.15625 z"
         id="path50" />
      <path
         d="m 438.33594,95.546875 -4.40625,10.234375 h -2.28125 l 2.71875,-10.234375 z"
         id="path52" />
      <path
         d="m 468.69531,100 h -2.92187 v -1.859375 q -0.39063,0.265625 -1.0625,0.75 -0.65625,0.46875 -1.28125,0.75 -0.73438,0.359375 -1.6875,0.593755 -0.95313,0.25 -2.23438,0.25 -2.35937,0 -4,-1.562505 -1.64062,-1.5625 -1.64062,-3.984375 0,-1.984375 0.84375,-3.203125 0.85937,-1.234375 2.4375,-1.9375 1.59375,-0.703125 3.82812,-0.953125 2.23438,-0.25 4.79688,-0.375 v -0.453125 q 0,-1 -0.35938,-1.65625 -0.34375,-0.65625 -1,-1.03125 -0.625,-0.359375 -1.5,-0.484375 -0.875,-0.125 -1.82812,-0.125 -1.15625,0 -2.57813,0.3125 -1.42187,0.296875 -2.9375,0.875 h -0.15625 v -2.984375 q 0.85938,-0.234375 2.48438,-0.515625 1.625,-0.28125 3.20312,-0.28125 1.84375,0 3.20313,0.3125 1.375,0.296875 2.375,1.03125 0.98437,0.71875 1.5,1.859375 0.51562,1.140625 0.51562,2.828125 z m -2.92187,-4.296875 V 90.84375 q -1.34375,0.07813 -3.17188,0.234375 -1.8125,0.15625 -2.875,0.453125 -1.26562,0.359375 -2.04687,1.125 -0.78125,0.75 -0.78125,2.078125 0,1.5 0.90625,2.265625 0.90625,0.75 2.76562,0.75 1.54688,0 2.82813,-0.59375 1.28125,-0.609375 2.375,-1.453125 z"
         id="path54" />
      <path
         d="m 506.55469,100 h -3.09375 V 79.953125 l -6.46875,13.640625 h -1.84375 L 488.72656,79.953125 V 100 h -2.89062 V 76.734375 h 4.21875 l 6.20312,12.953125 6,-12.953125 h 4.29688 z"
         id="path56" />
      <path
         d="m 526.13281,100 h -2.92187 v -1.859375 q -0.39063,0.265625 -1.0625,0.75 -0.65625,0.46875 -1.28125,0.75 -0.73438,0.359375 -1.6875,0.593755 -0.95313,0.25 -2.23438,0.25 -2.35937,0 -4,-1.562505 -1.64062,-1.5625 -1.64062,-3.984375 0,-1.984375 0.84375,-3.203125 0.85937,-1.234375 2.4375,-1.9375 1.59375,-0.703125 3.82812,-0.953125 2.23438,-0.25 4.79688,-0.375 v -0.453125 q 0,-1 -0.35938,-1.65625 -0.34375,-0.65625 -1,-1.03125 -0.625,-0.359375 -1.5,-0.484375 -0.875,-0.125 -1.82812,-0.125 -1.15625,0 -2.57813,0.3125 -1.42187,0.296875 -2.9375,0.875 h -0.15625 v -2.984375 q 0.85938,-0.234375 2.48438,-0.515625 1.625,-0.28125 3.20312,-0.28125 1.84375,0 3.20313,0.3125 1.375,0.296875 2.375,1.03125 0.98437,0.71875 1.5,1.859375 0.51562,1.140625 0.51562,2.828125 z m -2.92187,-4.296875 V 90.84375 q -1.34375,0.07813 -3.17188,0.234375 -1.8125,0.15625 -2.875,0.453125 -1.26562,0.359375 -2.04687,1.125 -0.78125,0.75 -0.78125,2.078125 0,1.5 0.90625,2.265625 0.90625,0.75 2.76562,0.75 1.54688,0 2.82813,-0.59375 1.28125,-0.609375 2.375,-1.453125 z"
         id="path58" />
      <path
         d="m 542.67969,85.75 h -0.15625 q -0.65625,-0.15625 -1.28125,-0.21875 -0.60938,-0.07813 -1.45313,-0.07813 -1.35937,0 -2.625,0.609375 -1.26562,0.59375 -2.4375,1.546875 V 100 h -2.9375 V 82.546875 h 2.9375 V 85.125 q 1.75,-1.40625 3.07813,-1.984375 1.34375,-0.59375 2.73437,-0.59375 0.76563,0 1.10938,0.04687 0.34375,0.03125 1.03125,0.140625 z"
         id="path60" />
      <path
         d="m 558.44531,100 h -2.92187 v -1.859375 q -0.39063,0.265625 -1.0625,0.75 -0.65625,0.46875 -1.28125,0.75 -0.73438,0.359375 -1.6875,0.593755 -0.95313,0.25 -2.23438,0.25 -2.35937,0 -4,-1.562505 -1.64062,-1.5625 -1.64062,-3.984375 0,-1.984375 0.84375,-3.203125 0.85937,-1.234375 2.4375,-1.9375 1.59375,-0.703125 3.82812,-0.953125 2.23438,-0.25 4.79688,-0.375 v -0.453125 q 0,-1 -0.35938,-1.65625 -0.34375,-0.65625 -1,-1.03125 -0.625,-0.359375 -1.5,-0.484375 -0.875,-0.125 -1.82812,-0.125 -1.15625,0 -2.57813,0.3125 -1.42187,0.296875 -2.9375,0.875 h -0.15625 v -2.984375 q 0.85938,-0.234375 2.48438,-0.515625 1.625,-0.28125 3.20312,-0.28125 1.84375,0 3.20313,0.3125 1.375,0.296875 2.375,1.03125 0.98437,0.71875 1.5,1.859375 0.51562,1.140625 0.51562,2.828125 z m -2.92187,-4.296875 V 90.84375 q -1.34375,0.07813 -3.17188,0.234375 -1.8125,0.15625 -2.875,0.453125 -1.26562,0.359375 -2.04687,1.125 -0.78125,0.75 -0.78125,2.078125 0,1.5 0.90625,2.265625 0.90625,0.75 2.76562,0.75 1.54688,0 2.82813,-0.59375 1.28125,-0.609375 2.375,-1.453125 z"
         id="path62" />
      <path
         d="m 573.16406,99.84375 q -0.82812,0.21875 -1.8125,0.35938 -0.96875,0.14062 -1.73437,0.14062 -2.67188,0 -4.0625,-1.4375 -1.39063,-1.4375 -1.39063,-4.609375 v -9.28125 h -1.98437 v -2.46875 h 1.98437 V 77.53125 h 2.9375 v 5.015625 h 6.0625 v 2.46875 h -6.0625 v 7.953125 q 0,1.375 0.0625,2.15625 0.0625,0.765625 0.4375,1.4375 0.34375,0.625 0.9375,0.921875 0.60938,0.28125 1.84375,0.28125 0.71875,0 1.5,-0.203125 0.78125,-0.21875 1.125,-0.359375 h 0.15625 z"
         id="path64" />
      <path
         d="m 591.30469,100 h -2.9375 v -9.9375 q 0,-1.203125 -0.14063,-2.25 -0.14062,-1.0625 -0.51562,-1.65625 -0.39063,-0.65625 -1.125,-0.96875 -0.73438,-0.328125 -1.90625,-0.328125 -1.20313,0 -2.51563,0.59375 -1.3125,0.59375 -2.51562,1.515625 V 100 h -2.9375 V 75.6875 h 2.9375 v 8.796875 q 1.375,-1.140625 2.84375,-1.78125 1.46875,-0.640625 3.01562,-0.640625 2.82813,0 4.3125,1.703125 1.48438,1.703125 1.48438,4.90625 z"
         id="path66" />
      <path
         d="m 600.11719,79.625 h -3.3125 v -3.046875 h 3.3125 z M 599.92969,100 h -2.9375 V 82.546875 h 2.9375 z"
         id="path68" />
      <path
         d="m 626.38281,78.53125 h -0.15625 q -0.48437,-0.140625 -1.26562,-0.28125 -0.78125,-0.15625 -1.375,-0.15625 -1.89063,0 -2.75,0.84375 -0.84375,0.828125 -0.84375,3.015625 v 0.59375 h 5.29687 v 2.46875 h -5.20312 V 100 h -2.9375 V 85.015625 h -1.98438 v -2.46875 h 1.98438 V 81.96875 q 0,-3.109375 1.54687,-4.765625 1.54688,-1.671875 4.46875,-1.671875 0.98438,0 1.76563,0.09375 0.79687,0.09375 1.45312,0.21875 z"
         id="path70" />
      <path
         d="m 631.39844,79.625 h -3.3125 v -3.046875 h 3.3125 z M 631.21094,100 h -2.9375 V 82.546875 h 2.9375 z"
         id="path72" />
      <path
         d="m 647.91406,85.75 h -0.15625 q -0.65625,-0.15625 -1.28125,-0.21875 -0.60937,-0.07813 -1.45312,-0.07813 -1.35938,0 -2.625,0.609375 -1.26563,0.59375 -2.4375,1.546875 V 100 h -2.9375 V 82.546875 h 2.9375 V 85.125 q 1.75,-1.40625 3.07812,-1.984375 1.34375,-0.59375 2.73438,-0.59375 0.76562,0 1.10937,0.04687 0.34375,0.03125 1.03125,0.140625 z"
         id="path74" />
      <path
         d="m 665.28906,91.578125 h -12.85937 q 0,1.609375 0.48437,2.8125 0.48438,1.1875 1.32813,1.953125 0.8125,0.75 1.92187,1.125 1.125,0.375 2.46875,0.375 1.78125,0 3.57813,-0.703125 1.8125,-0.71875 2.57812,-1.40625 h 0.15625 V 98.9375 q -1.48437,0.625 -3.03125,1.046875 -1.54687,0.421875 -3.25,0.421875 -4.34375,0 -6.78125,-2.34375 -2.4375,-2.359375 -2.4375,-6.6875 0,-4.28125 2.32813,-6.796875 2.34375,-2.515625 6.15625,-2.515625 3.53125,0 5.4375,2.0625 1.92187,2.0625 1.92187,5.859375 z m -2.85937,-2.25 q -0.0156,-2.3125 -1.17188,-3.578125 -1.14062,-1.265625 -3.48437,-1.265625 -2.35938,0 -3.76563,1.390625 -1.39062,1.390625 -1.57812,3.453125 z"
         id="path76" />
      <path
         d="m 675.83594,95.546875 -4.40625,10.234375 h -2.28125 l 2.71875,-10.234375 z"
         id="path78" />
    </g>
    <g
       aria-label="With words of song, a soul's desire."
       id="text4">
      <path
         d="M 143.36719,126.73438 137.32031,150 h -3.48437 L 128.94531,130.6875 124.16406,150 h -3.40625 l -6.15625,-23.26562 h 3.17188 l 4.89062,19.34374 4.8125,-19.34374 h 3.14063 l 4.85937,19.53124 4.85938,-19.53124 z"
         id="path81" />
      <path
         d="m 150.85156,129.625 h -3.3125 v -3.04687 h 3.3125 z M 150.66406,150 h -2.9375 v -17.45313 h 2.9375 z"
         id="path83" />
      <path
         d="m 165.53906,149.84375 q -0.82812,0.21875 -1.8125,0.35937 -0.96875,0.14063 -1.73437,0.14063 -2.67188,0 -4.0625,-1.4375 -1.39063,-1.4375 -1.39063,-4.60938 v -9.28125 h -1.98437 v -2.46875 h 1.98437 v -5.01562 h 2.9375 v 5.01562 h 6.0625 v 2.46875 h -6.0625 v 7.95313 q 0,1.375 0.0625,2.15625 0.0625,0.76562 0.4375,1.4375 0.34375,0.625 0.9375,0.92187 0.60938,0.28125 1.84375,0.28125 0.71875,0 1.5,-0.20312 0.78125,-0.21875 1.125,-0.35938 h 0.15625 z"
         id="path85" />
      <path
         d="m 183.67969,150 h -2.9375 v -9.9375 q 0,-1.20313 -0.14063,-2.25 -0.14062,-1.0625 -0.51562,-1.65625 -0.39063,-0.65625 -1.125,-0.96875 -0.73438,-0.32813 -1.90625,-0.32813 -1.20313,0 -2.51563,0.59375 -1.3125,0.59375 -2.51562,1.51563 V 150 h -2.9375 v -24.3125 h 2.9375 v 8.79687 q 1.375,-1.14062 2.84375,-1.78125 1.46875,-0.64062 3.01562,-0.64062 2.82813,0 4.3125,1.70312 1.48438,1.70313 1.48438,4.90625 z"
         id="path87" />
      <path
         d="M 222.53906,132.54687 217.99219,150 h -2.71875 L 210.78906,136.54687 206.33594,150 h -2.70313 l -4.59375,-17.45313 h 3.0625 l 3.20313,13.51563 4.35937,-13.51563 h 2.42188 l 4.46875,13.51563 3.03125,-13.51563 z"
         id="path89" />
      <path
         d="m 241.64844,141.28125 q 0,4.26562 -2.1875,6.73437 -2.1875,2.46875 -5.85938,2.46875 -3.70312,0 -5.89062,-2.46875 -2.17188,-2.46875 -2.17188,-6.73437 0,-4.26563 2.17188,-6.73438 2.1875,-2.48437 5.89062,-2.48437 3.67188,0 5.85938,2.48437 2.1875,2.46875 2.1875,6.73438 z m -3.03125,0 q 0,-3.39063 -1.32813,-5.03125 -1.32812,-1.65625 -3.6875,-1.65625 -2.39062,0 -3.71875,1.65625 -1.3125,1.64062 -1.3125,5.03125 0,3.28125 1.32813,4.98437 1.32812,1.6875 3.70312,1.6875 2.34375,0 3.67188,-1.67187 1.34375,-1.6875 1.34375,-5 z"
         id="path91" />
      <path
         d="m 257.08594,135.75 h -0.15625 q -0.65625,-0.15625 -1.28125,-0.21875 -0.60938,-0.0781 -1.45313,-0.0781 -1.35937,0 -2.625,0.60938 -1.26562,0.59375 -2.4375,1.54687 V 150 h -2.9375 v -17.45313 h 2.9375 v 2.57813 q 1.75,-1.40625 3.07813,-1.98438 1.34375,-0.59375 2.73437,-0.59375 0.76563,0 1.10938,0.0469 0.34375,0.0312 1.03125,0.14062 z"
         id="path93" />
      <path
         d="m 274.00781,150 h -2.9375 v -1.82813 q -1.26562,1.09375 -2.64062,1.70313 -1.375,0.60937 -2.98438,0.60937 -3.125,0 -4.96875,-2.40625 -1.82812,-2.40625 -1.82812,-6.67187 0,-2.21875 0.625,-3.95313 0.64062,-1.73437 1.71875,-2.95312 1.0625,-1.1875 2.46875,-1.8125 1.42187,-0.625 2.9375,-0.625 1.375,0 2.4375,0.29687 1.0625,0.28125 2.23437,0.89063 v -7.5625 h 2.9375 z m -2.9375,-4.29688 V 135.6875 q -1.1875,-0.53125 -2.125,-0.73438 -0.9375,-0.20312 -2.04687,-0.20312 -2.46875,0 -3.84375,1.71875 -1.375,1.71875 -1.375,4.875 0,3.10937 1.0625,4.73437 1.0625,1.60938 3.40625,1.60938 1.25,0 2.53125,-0.54688 1.28125,-0.5625 2.39062,-1.4375 z"
         id="path95" />
      <path
         d="m 292.25781,144.96875 q 0,2.39062 -1.98437,3.92187 -1.96875,1.53125 -5.39063,1.53125 -1.9375,0 -3.5625,-0.45312 -1.60937,-0.46875 -2.70312,-1.01563 v -3.29687 h 0.15625 q 1.39062,1.04687 3.09375,1.67187 1.70312,0.60938 3.26562,0.60938 1.9375,0 3.03125,-0.625 1.09375,-0.625 1.09375,-1.96875 0,-1.03125 -0.59375,-1.5625 -0.59375,-0.53125 -2.28125,-0.90625 -0.625,-0.14063 -1.64062,-0.32813 -1,-0.1875 -1.82813,-0.40625 -2.29687,-0.60937 -3.26562,-1.78125 -0.95313,-1.1875 -0.95313,-2.90625 0,-1.07812 0.4375,-2.03125 0.45313,-0.95312 1.35938,-1.70312 0.875,-0.73438 2.21875,-1.15625 1.35937,-0.4375 3.03125,-0.4375 1.5625,0 3.15625,0.39062 1.60937,0.375 2.67187,0.92188 v 3.14062 h -0.15625 q -1.125,-0.82812 -2.73437,-1.39062 -1.60938,-0.57813 -3.15625,-0.57813 -1.60938,0 -2.71875,0.625 -1.10938,0.60938 -1.10938,1.82813 0,1.07812 0.67188,1.625 0.65625,0.54687 2.125,0.89062 0.8125,0.1875 1.8125,0.375 1.01562,0.1875 1.6875,0.34375 2.04687,0.46875 3.15625,1.60938 1.10937,1.15625 1.10937,3.0625 z"
         id="path97" />
      <path
         d="m 322.58594,141.28125 q 0,4.26562 -2.1875,6.73437 -2.1875,2.46875 -5.85938,2.46875 -3.70312,0 -5.89062,-2.46875 -2.17188,-2.46875 -2.17188,-6.73437 0,-4.26563 2.17188,-6.73438 2.1875,-2.48437 5.89062,-2.48437 3.67188,0 5.85938,2.48437 2.1875,2.46875 2.1875,6.73438 z m -3.03125,0 q 0,-3.39063 -1.32813,-5.03125 -1.32812,-1.65625 -3.6875,-1.65625 -2.39062,0 -3.71875,1.65625 -1.3125,1.64062 -1.3125,5.03125 0,3.28125 1.32813,4.98437 1.32812,1.6875 3.70312,1.6875 2.34375,0 3.67188,-1.67187 1.34375,-1.6875 1.34375,-5 z"
         id="path99" />
      <path
         d="m 336.52344,128.53125 h -0.15625 q -0.48438,-0.14063 -1.26563,-0.28125 -0.78125,-0.15625 -1.375,-0.15625 -1.89062,0 -2.75,0.84375 -0.84375,0.82812 -0.84375,3.01562 v 0.59375 h 5.29688 v 2.46875 h -5.20313 V 150 h -2.9375 v -14.98438 h -1.98437 v -2.46875 h 1.98437 v -0.57812 q 0,-3.10938 1.54688,-4.76562 1.54687,-1.67188 4.46875,-1.67188 0.98437,0 1.76562,0.0937 0.79688,0.0937 1.45313,0.21875 z"
         id="path101" />
      <path
         d="m 362.10156,144.96875 q 0,2.39062 -1.98437,3.92187 -1.96875,1.53125 -5.39063,1.53125 -1.9375,0 -3.5625,-0.45312 -1.60937,-0.46875 -2.70312,-1.01563 v -3.29687 h 0.15625 q 1.39062,1.04687 3.09375,1.67187 1.70312,0.60938 3.26562,0.60938 1.9375,0 3.03125,-0.625 1.09375,-0.625 1.09375,-1.96875 0,-1.03125 -0.59375,-1.5625 -0.59375,-0.53125 -2.28125,-0.90625 -0.625,-0.14063 -1.64062,-0.32813 -1,-0.1875 -1.82813,-0.40625 -2.29687,-0.60937 -3.26562,-1.78125 -0.95313,-1.1875 -0.95313,-2.90625 0,-1.07812 0.4375,-2.03125 0.45313,-0.95312 1.35938,-1.70312 0.875,-0.73438 2.21875,-1.15625 1.35937,-0.4375 3.03125,-0.4375 1.5625,0 3.15625,0.39062 1.60937,0.375 2.67187,0.92188 v 3.14062 h -0.15625 q -1.125,-0.82812 -2.73437,-1.39062 -1.60938,-0.57813 -3.15625,-0.57813 -1.60938,0 -2.71875,0.625 -1.10938,0.60938 -1.10938,1.82813 0,1.07812 0.67188,1.625 0.65625,0.54687 2.125,0.89062 0.8125,0.1875 1.8125,0.375 1.01562,0.1875 1.6875,0.34375 2.04687,0.46875 3.15625,1.60938 1.10937,1.15625 1.10937,3.0625 z"
         id="path103" />
      <path
         d="m 381.17969,141.28125 q 0,4.26562 -2.1875,6.73437 -2.1875,2.46875 -5.85938,2.46875 -3.70312,0 -5.89062,-2.46875 -2.17188,-2.46875 -2.17188,-6.73437 0,-4.26563 2.17188,-6.73438 2.1875,-2.48437 5.89062,-2.48437 3.67188,0 5.85938,2.48437 2.1875,2.46875 2.1875,6.73438 z m -3.03125,0 q 0,-3.39063 -1.32813,-5.03125 -1.32812,-1.65625 -3.6875,-1.65625 -2.39062,0 -3.71875,1.65625 -1.3125,1.64062 -1.3125,5.03125 0,3.28125 1.32813,4.98437 1.32812,1.6875 3.70312,1.6875 2.34375,0 3.67188,-1.67187 1.34375,-1.6875 1.34375,-5 z"
         id="path105" />
      <path
         d="m 400.32031,150 h -2.9375 v -9.9375 q 0,-1.20313 -0.14062,-2.25 -0.14063,-1.0625 -0.51563,-1.65625 -0.39062,-0.65625 -1.125,-0.96875 -0.73437,-0.32813 -1.90625,-0.32813 -1.20312,0 -2.51562,0.59375 -1.3125,0.59375 -2.51563,1.51563 V 150 h -2.9375 v -17.45313 h 2.9375 v 1.9375 q 1.375,-1.14062 2.84375,-1.78125 1.46875,-0.64062 3.01563,-0.64062 2.82812,0 4.3125,1.70312 1.48437,1.70313 1.48437,4.90625 z"
         id="path107" />
      <path
         d="m 420.13281,148.01562 q 0,4.4375 -2.01562,6.51563 -2.01563,2.07812 -6.20313,2.07812 -1.39062,0 -2.71875,-0.20312 -1.3125,-0.1875 -2.59375,-0.54688 v -3 h 0.15625 q 0.71875,0.28125 2.28125,0.6875 1.5625,0.42188 3.125,0.42188 1.5,0 2.48438,-0.35938 0.98437,-0.35937 1.53125,-1 0.54687,-0.60937 0.78125,-1.46875 0.23437,-0.85937 0.23437,-1.92187 V 147.625 q -1.32812,1.0625 -2.54687,1.59375 -1.20313,0.51562 -3.07813,0.51562 -3.125,0 -4.96875,-2.25 -1.82812,-2.26562 -1.82812,-6.375 0,-2.25 0.625,-3.875 0.64062,-1.64062 1.73437,-2.82812 1.01563,-1.10938 2.46875,-1.71875 1.45313,-0.625 2.89063,-0.625 1.51562,0 2.53125,0.3125 1.03125,0.29687 2.17187,0.92187 l 0.1875,-0.75 h 2.75 z m -2.9375,-2.8125 v -9.51562 q -1.17187,-0.53125 -2.1875,-0.75 -1,-0.23438 -2,-0.23438 -2.42187,0 -3.8125,1.625 -1.39062,1.625 -1.39062,4.71875 0,2.9375 1.03125,4.45313 1.03125,1.51562 3.42187,1.51562 1.28125,0 2.5625,-0.48437 1.29688,-0.5 2.375,-1.32813 z"
         id="path109" />
      <path
         d="m 432.00781,145.54687 -4.40625,10.23438 h -2.28125 l 2.71875,-10.23438 z"
         id="path111" />
      <path
         d="m 462.36719,150 h -2.92188 v -1.85938 q -0.39062,0.26563 -1.0625,0.75 -0.65625,0.46875 -1.28125,0.75 -0.73437,0.35938 -1.6875,0.59375 -0.95312,0.25 -2.23437,0.25 -2.35938,0 -4,-1.5625 -1.64063,-1.5625 -1.64063,-3.98437 0,-1.98438 0.84375,-3.20313 0.85938,-1.23437 2.4375,-1.9375 1.59375,-0.70312 3.82813,-0.95312 2.23437,-0.25 4.79687,-0.375 v -0.45313 q 0,-1 -0.35937,-1.65625 -0.34375,-0.65625 -1,-1.03125 -0.625,-0.35937 -1.5,-0.48437 -0.875,-0.125 -1.82813,-0.125 -1.15625,0 -2.57812,0.3125 -1.42188,0.29687 -2.9375,0.875 h -0.15625 v -2.98438 q 0.85937,-0.23437 2.48437,-0.51562 1.625,-0.28125 3.20313,-0.28125 1.84375,0 3.20312,0.3125 1.375,0.29687 2.375,1.03125 0.98438,0.71875 1.5,1.85937 0.51563,1.14063 0.51563,2.82813 z m -2.92188,-4.29688 v -4.85937 q -1.34375,0.0781 -3.17187,0.23437 -1.8125,0.15625 -2.875,0.45313 -1.26563,0.35937 -2.04688,1.125 -0.78125,0.75 -0.78125,2.07812 0,1.5 0.90625,2.26563 0.90625,0.75 2.76563,0.75 1.54687,0 2.82812,-0.59375 1.28125,-0.60938 2.375,-1.45313 z"
         id="path113" />
      <path
         d="m 491.74219,144.96875 q 0,2.39062 -1.98438,3.92187 -1.96875,1.53125 -5.39062,1.53125 -1.9375,0 -3.5625,-0.45312 -1.60938,-0.46875 -2.70313,-1.01563 v -3.29687 h 0.15625 q 1.39063,1.04687 3.09375,1.67187 1.70313,0.60938 3.26563,0.60938 1.9375,0 3.03125,-0.625 1.09375,-0.625 1.09375,-1.96875 0,-1.03125 -0.59375,-1.5625 -0.59375,-0.53125 -2.28125,-0.90625 -0.625,-0.14063 -1.64063,-0.32813 -1,-0.1875 -1.82812,-0.40625 -2.29688,-0.60937 -3.26563,-1.78125 -0.95312,-1.1875 -0.95312,-2.90625 0,-1.07812 0.4375,-2.03125 0.45312,-0.95312 1.35937,-1.70312 0.875,-0.73438 2.21875,-1.15625 1.35938,-0.4375 3.03125,-0.4375 1.5625,0 3.15625,0.39062 1.60938,0.375 2.67188,0.92188 v 3.14062 h -0.15625 q -1.125,-0.82812 -2.73438,-1.39062 -1.60937,-0.57813 -3.15625,-0.57813 -1.60937,0 -2.71875,0.625 -1.10937,0.60938 -1.10937,1.82813 0,1.07812 0.67187,1.625 0.65625,0.54687 2.125,0.89062 0.8125,0.1875 1.8125,0.375 1.01563,0.1875 1.6875,0.34375 2.04688,0.46875 3.15625,1.60938 1.10938,1.15625 1.10938,3.0625 z"
         id="path115" />
      <path
         d="m 510.82031,141.28125 q 0,4.26562 -2.1875,6.73437 -2.1875,2.46875 -5.85937,2.46875 -3.70313,0 -5.89063,-2.46875 -2.17187,-2.46875 -2.17187,-6.73437 0,-4.26563 2.17187,-6.73438 2.1875,-2.48437 5.89063,-2.48437 3.67187,0 5.85937,2.48437 2.1875,2.46875 2.1875,6.73438 z m -3.03125,0 q 0,-3.39063 -1.32812,-5.03125 -1.32813,-1.65625 -3.6875,-1.65625 -2.39063,0 -3.71875,1.65625 -1.3125,1.64062 -1.3125,5.03125 0,3.28125 1.32812,4.98437 1.32813,1.6875 3.70313,1.6875 2.34375,0 3.67187,-1.67187 1.34375,-1.6875 1.34375,-5 z"
         id="path117" />
      <path
         d="m 529.83594,150 h -2.9375 v -1.9375 q -1.48438,1.17187 -2.84375,1.79687 -1.35938,0.625 -3,0.625 -2.75,0 -4.28125,-1.67187 -1.53125,-1.6875 -1.53125,-4.9375 v -11.32813 h 2.9375 v 9.9375 q 0,1.32813 0.125,2.28125 0.125,0.9375 0.53125,1.60938 0.42187,0.6875 1.09375,1 0.67187,0.3125 1.95312,0.3125 1.14063,0 2.48438,-0.59375 1.35937,-0.59375 2.53125,-1.51563 v -13.03125 h 2.9375 z"
         id="path119" />
      <path
         d="m 538.58594,150 h -2.9375 v -24.3125 h 2.9375 z"
         id="path121" />
      <path
         d="m 547.53906,125.6875 -0.67187,9.04687 h -2.125 l -0.67188,-9.04687 z"
         id="path123" />
      <path
         d="m 565.46094,144.96875 q 0,2.39062 -1.98438,3.92187 -1.96875,1.53125 -5.39062,1.53125 -1.9375,0 -3.5625,-0.45312 -1.60938,-0.46875 -2.70313,-1.01563 v -3.29687 h 0.15625 q 1.39063,1.04687 3.09375,1.67187 1.70313,0.60938 3.26563,0.60938 1.9375,0 3.03125,-0.625 1.09375,-0.625 1.09375,-1.96875 0,-1.03125 -0.59375,-1.5625 -0.59375,-0.53125 -2.28125,-0.90625 -0.625,-0.14063 -1.64063,-0.32813 -1,-0.1875 -1.82812,-0.40625 -2.29688,-0.60937 -3.26563,-1.78125 -0.95312,-1.1875 -0.95312,-2.90625 0,-1.07812 0.4375,-2.03125 0.45312,-0.95312 1.35937,-1.70312 0.875,-0.73438 2.21875,-1.15625 1.35938,-0.4375 3.03125,-0.4375 1.5625,0 3.15625,0.39062 1.60938,0.375 2.67188,0.92188 v 3.14062 h -0.15625 q -1.125,-0.82812 -2.73438,-1.39062 -1.60937,-0.57813 -3.15625,-0.57813 -1.60937,0 -2.71875,0.625 -1.10937,0.60938 -1.10937,1.82813 0,1.07812 0.67187,1.625 0.65625,0.54687 2.125,0.89062 0.8125,0.1875 1.8125,0.375 1.01563,0.1875 1.6875,0.34375 2.04688,0.46875 3.15625,1.60938 1.10938,1.15625 1.10938,3.0625 z"
         id="path125" />
      <path
         d="m 595.07031,150 h -2.9375 v -1.82813 q -1.26562,1.09375 -2.64062,1.70313 -1.375,0.60937 -2.98438,0.60937 -3.125,0 -4.96875,-2.40625 -1.82812,-2.40625 -1.82812,-6.67187 0,-2.21875 0.625,-3.95313 0.64062,-1.73437 1.71875,-2.95312 1.0625,-1.1875 2.46875,-1.8125 1.42187,-0.625 2.9375,-0.625 1.375,0 2.4375,0.29687 1.0625,0.28125 2.23437,0.89063 v -7.5625 h 2.9375 z m -2.9375,-4.29688 V 135.6875 q -1.1875,-0.53125 -2.125,-0.73438 -0.9375,-0.20312 -2.04687,-0.20312 -2.46875,0 -3.84375,1.71875 -1.375,1.71875 -1.375,4.875 0,3.10937 1.0625,4.73437 1.0625,1.60938 3.40625,1.60938 1.25,0 2.53125,-0.54688 1.28125,-0.5625 2.39062,-1.4375 z"
         id="path127" />
      <path
         d="m 615.46094,141.57812 h -12.85938 q 0,1.60938 0.48438,2.8125 0.48437,1.1875 1.32812,1.95313 0.8125,0.75 1.92188,1.125 1.125,0.375 2.46875,0.375 1.78125,0 3.57812,-0.70313 1.8125,-0.71875 2.57813,-1.40625 h 0.15625 v 3.20313 q -1.48438,0.625 -3.03125,1.04687 -1.54688,0.42188 -3.25,0.42188 -4.34375,0 -6.78125,-2.34375 -2.4375,-2.35938 -2.4375,-6.6875 0,-4.28125 2.32812,-6.79688 2.34375,-2.51562 6.15625,-2.51562 3.53125,0 5.4375,2.0625 1.92188,2.0625 1.92188,5.85937 z m -2.85938,-2.25 q -0.0156,-2.3125 -1.17187,-3.57812 -1.14063,-1.26563 -3.48438,-1.26563 -2.35937,0 -3.76562,1.39063 -1.39063,1.39062 -1.57813,3.45312 z"
         id="path129" />
      <path
         d="m 632.38281,144.96875 q 0,2.39062 -1.98437,3.92187 -1.96875,1.53125 -5.39063,1.53125 -1.9375,0 -3.5625,-0.45312 -1.60937,-0.46875 -2.70312,-1.01563 v -3.29687 h 0.15625 q 1.39062,1.04687 3.09375,1.67187 1.70312,0.60938 3.26562,0.60938 1.9375,0 3.03125,-0.625 1.09375,-0.625 1.09375,-1.96875 0,-1.03125 -0.59375,-1.5625 -0.59375,-0.53125 -2.28125,-0.90625 -0.625,-0.14063 -1.64062,-0.32813 -1,-0.1875 -1.82813,-0.40625 -2.29687,-0.60937 -3.26562,-1.78125 -0.95313,-1.1875 -0.95313,-2.90625 0,-1.07812 0.4375,-2.03125 0.45313,-0.95312 1.35938,-1.70312 0.875,-0.73438 2.21875,-1.15625 1.35937,-0.4375 3.03125,-0.4375 1.5625,0 3.15625,0.39062 1.60937,0.375 2.67187,0.92188 v 3.14062 h -0.15625 q -1.125,-0.82812 -2.73437,-1.39062 -1.60938,-0.57813 -3.15625,-0.57813 -1.60938,0 -2.71875,0.625 -1.10938,0.60938 -1.10938,1.82813 0,1.07812 0.67188,1.625 0.65625,0.54687 2.125,0.89062 0.8125,0.1875 1.8125,0.375 1.01562,0.1875 1.6875,0.34375 2.04687,0.46875 3.15625,1.60938 1.10937,1.15625 1.10937,3.0625 z"
         id="path131" />
      <path
         d="m 639.74219,129.625 h -3.3125 v -3.04687 h 3.3125 z M 639.55469,150 h -2.9375 v -17.45313 h 2.9375 z"
         id="path133" />
      <path
         d="m 656.25781,135.75 h -0.15625 q -0.65625,-0.15625 -1.28125,-0.21875 -0.60937,-0.0781 -1.45312,-0.0781 -1.35938,0 -2.625,0.60938 -1.26563,0.59375 -2.4375,1.54687 V 150 h -2.9375 v -17.45313 h 2.9375 v 2.57813 q 1.75,-1.40625 3.07812,-1.98438 1.34375,-0.59375 2.73438,-0.59375 0.76562,0 1.10937,0.0469 0.34375,0.0312 1.03125,0.14062 z"
         id="path135" />
      <path
         d="m 673.63281,141.57812 h -12.85937 q 0,1.60938 0.48437,2.8125 0.48438,1.1875 1.32813,1.95313 0.8125,0.75 1.92187,1.125 1.125,0.375 2.46875,0.375 1.78125,0 3.57813,-0.70313 1.8125,-0.71875 2.57812,-1.40625 h 0.15625 v 3.20313 q -1.48437,0.625 -3.03125,1.04687 -1.54687,0.42188 -3.25,0.42188 -4.34375,0 -6.78125,-2.34375 -2.4375,-2.35938 -2.4375,-6.6875 0,-4.28125 2.32813,-6.79688 2.34375,-2.51562 6.15625,-2.51562 3.53125,0 5.4375,2.0625 1.92187,2.0625 1.92187,5.85937 z m -2.85937,-2.25 q -0.0156,-2.3125 -1.17188,-3.57812 -1.14062,-1.26563 -3.48437,-1.26563 -2.35938,0 -3.76563,1.39063 -1.39062,1.39062 -1.57812,3.45312 z"
         id="path137" />
      <path
         d="m 682.88281,150 h -3.73437 v -4.45313 h 3.73437 z"
         id="path139" />
    </g>
    <g
       aria-label="Her spirit bright, a cultural pyre,"
       id="text6">
      <path
         d="m 159.77344,200 h -3.09375 V 188.60937 H 145.07031 V 200 h -3.09375 v -23.26563 h 3.09375 v 9.125 h 11.60938 v -9.125 h 3.09375 z"
         id="path142" />
      <path
         d="m 180.39844,191.57812 h -12.85938 q 0,1.60938 0.48438,2.8125 0.48437,1.1875 1.32812,1.95313 0.8125,0.75 1.92188,1.125 1.125,0.375 2.46875,0.375 1.78125,0 3.57812,-0.70313 1.8125,-0.71875 2.57813,-1.40625 h 0.15625 v 3.20313 q -1.48438,0.625 -3.03125,1.04687 -1.54688,0.42188 -3.25,0.42188 -4.34375,0 -6.78125,-2.34375 -2.4375,-2.35938 -2.4375,-6.6875 0,-4.28125 2.32812,-6.79688 2.34375,-2.51562 6.15625,-2.51562 3.53125,0 5.4375,2.0625 1.92188,2.0625 1.92188,5.85937 z m -2.85938,-2.25 q -0.0156,-2.3125 -1.17187,-3.57812 -1.14063,-1.26563 -3.48438,-1.26563 -2.35937,0 -3.76562,1.39063 -1.39063,1.39062 -1.57813,3.45312 z"
         id="path144" />
      <path
         d="m 195.74219,185.75 h -0.15625 q -0.65625,-0.15625 -1.28125,-0.21875 -0.60938,-0.0781 -1.45313,-0.0781 -1.35937,0 -2.625,0.60938 -1.26562,0.59375 -2.4375,1.54687 V 200 h -2.9375 v -17.45313 h 2.9375 v 2.57813 q 1.75,-1.40625 3.07813,-1.98438 1.34375,-0.59375 2.73437,-0.59375 0.76563,0 1.10938,0.0469 0.34375,0.0312 1.03125,0.14062 z"
         id="path146" />
      <path
         d="m 222.22656,194.96875 q 0,2.39062 -1.98437,3.92187 -1.96875,1.53125 -5.39063,1.53125 -1.9375,0 -3.5625,-0.45312 -1.60937,-0.46875 -2.70312,-1.01563 v -3.29687 h 0.15625 q 1.39062,1.04687 3.09375,1.67187 1.70312,0.60938 3.26562,0.60938 1.9375,0 3.03125,-0.625 1.09375,-0.625 1.09375,-1.96875 0,-1.03125 -0.59375,-1.5625 -0.59375,-0.53125 -2.28125,-0.90625 -0.625,-0.14063 -1.64062,-0.32813 -1,-0.1875 -1.82813,-0.40625 -2.29687,-0.60937 -3.26562,-1.78125 -0.95313,-1.1875 -0.95313,-2.90625 0,-1.07812 0.4375,-2.03125 0.45313,-0.95312 1.35938,-1.70312 0.875,-0.73438 2.21875,-1.15625 1.35937,-0.4375 3.03125,-0.4375 1.5625,0 3.15625,0.39062 1.60937,0.375 2.67187,0.92188 v 3.14062 h -0.15625 q -1.125,-0.82812 -2.73437,-1.39062 -1.60938,-0.57813 -3.15625,-0.57813 -1.60938,0 -2.71875,0.625 -1.10938,0.60938 -1.10938,1.82813 0,1.07812 0.67188,1.625 0.65625,0.54687 2.125,0.89062 0.8125,0.1875 1.8125,0.375 1.01562,0.1875 1.6875,0.34375 2.04687,0.46875 3.15625,1.60938 1.10937,1.15625 1.10937,3.0625 z"
         id="path148" />
      <path
         d="m 241.78906,191.0625 q 0,2.125 -0.60937,3.89062 -0.60938,1.75 -1.71875,2.96875 -1.03125,1.15625 -2.4375,1.79688 -1.39063,0.625 -2.95313,0.625 -1.35937,0 -2.46875,-0.29688 -1.09375,-0.29687 -2.23437,-0.92187 v 7.3125 h -2.9375 v -23.89063 h 2.9375 v 1.82813 q 1.17187,-0.98438 2.625,-1.64063 1.46875,-0.67187 3.125,-0.67187 3.15625,0 4.90625,2.39062 1.76562,2.375 1.76562,6.60938 z m -3.03125,0.0781 q 0,-3.15625 -1.07812,-4.71875 -1.07813,-1.5625 -3.3125,-1.5625 -1.26563,0 -2.54688,0.54688 -1.28125,0.54687 -2.45312,1.4375 v 9.89062 q 1.25,0.5625 2.14062,0.76563 0.90625,0.20312 2.04688,0.20312 2.45312,0 3.82812,-1.65625 1.375,-1.65625 1.375,-4.90625 z"
         id="path150" />
      <path
         d="m 249.52344,179.625 h -3.3125 v -3.04688 h 3.3125 z M 249.33594,200 h -2.9375 v -17.45313 h 2.9375 z"
         id="path152" />
      <path
         d="m 266.03906,185.75 h -0.15625 q -0.65625,-0.15625 -1.28125,-0.21875 -0.60937,-0.0781 -1.45312,-0.0781 -1.35938,0 -2.625,0.60938 -1.26563,0.59375 -2.4375,1.54687 V 200 h -2.9375 v -17.45313 h 2.9375 v 2.57813 q 1.75,-1.40625 3.07812,-1.98438 1.34375,-0.59375 2.73438,-0.59375 0.76562,0 1.10937,0.0469 0.34375,0.0312 1.03125,0.14062 z"
         id="path154" />
      <path
         d="m 271.96094,179.625 h -3.3125 v -3.04688 h 3.3125 z M 271.77344,200 h -2.9375 v -17.45313 h 2.9375 z"
         id="path156" />
      <path
         d="m 286.64844,199.84375 q -0.82813,0.21875 -1.8125,0.35937 -0.96875,0.14063 -1.73438,0.14063 -2.67187,0 -4.0625,-1.4375 -1.39062,-1.4375 -1.39062,-4.60938 v -9.28125 h -1.98438 v -2.46875 h 1.98438 v -5.01562 h 2.9375 v 5.01562 h 6.0625 v 2.46875 h -6.0625 v 7.95313 q 0,1.375 0.0625,2.15625 0.0625,0.76562 0.4375,1.4375 0.34375,0.625 0.9375,0.92187 0.60937,0.28125 1.84375,0.28125 0.71875,0 1.5,-0.20312 0.78125,-0.21875 1.125,-0.35938 h 0.15625 z"
         id="path158" />
      <path
         d="m 316.80469,191.14062 q 0,2.1875 -0.625,3.9375 -0.60938,1.75 -1.65625,2.9375 -1.10938,1.23438 -2.4375,1.85938 -1.32813,0.60937 -2.92188,0.60937 -1.48437,0 -2.59375,-0.35937 -1.10937,-0.34375 -2.1875,-0.9375 L 304.19531,200 h -2.75 v -24.3125 h 2.9375 v 8.6875 q 1.23438,-1.01563 2.625,-1.65625 1.39063,-0.65625 3.125,-0.65625 3.09375,0 4.875,2.375 1.79688,2.375 1.79688,6.70312 z m -3.03125,0.0781 q 0,-3.125 -1.03125,-4.73438 -1.03125,-1.625 -3.32813,-1.625 -1.28125,0 -2.59375,0.5625 -1.3125,0.54688 -2.4375,1.42188 v 10 q 1.25,0.5625 2.14063,0.78125 0.90625,0.21875 2.04687,0.21875 2.4375,0 3.8125,-1.59375 1.39063,-1.60938 1.39063,-5.03125 z"
         id="path160" />
      <path
         d="m 332.27344,185.75 h -0.15625 q -0.65625,-0.15625 -1.28125,-0.21875 -0.60938,-0.0781 -1.45313,-0.0781 -1.35937,0 -2.625,0.60938 -1.26562,0.59375 -2.4375,1.54687 V 200 h -2.9375 v -17.45313 h 2.9375 v 2.57813 q 1.75,-1.40625 3.07813,-1.98438 1.34375,-0.59375 2.73437,-0.59375 0.76563,0 1.10938,0.0469 0.34375,0.0312 1.03125,0.14062 z"
         id="path162" />
      <path
         d="m 338.19531,179.625 h -3.3125 v -3.04688 h 3.3125 z M 338.00781,200 h -2.9375 v -17.45313 h 2.9375 z"
         id="path164" />
      <path
         d="m 357.97656,198.01562 q 0,4.4375 -2.01562,6.51563 -2.01563,2.07812 -6.20313,2.07812 -1.39062,0 -2.71875,-0.20312 -1.3125,-0.1875 -2.59375,-0.54688 v -3 h 0.15625 q 0.71875,0.28125 2.28125,0.6875 1.5625,0.42188 3.125,0.42188 1.5,0 2.48438,-0.35938 0.98437,-0.35937 1.53125,-1 0.54687,-0.60937 0.78125,-1.46875 0.23437,-0.85937 0.23437,-1.92187 V 197.625 q -1.32812,1.0625 -2.54687,1.59375 -1.20313,0.51562 -3.07813,0.51562 -3.125,0 -4.96875,-2.25 -1.82812,-2.26562 -1.82812,-6.375 0,-2.25 0.625,-3.875 0.64062,-1.64062 1.73437,-2.82812 1.01563,-1.10938 2.46875,-1.71875 1.45313,-0.625 2.89063,-0.625 1.51562,0 2.53125,0.3125 1.03125,0.29687 2.17187,0.92187 l 0.1875,-0.75 h 2.75 z m -2.9375,-2.8125 v -9.51562 q -1.17187,-0.53125 -2.1875,-0.75 -1,-0.23438 -2,-0.23438 -2.42187,0 -3.8125,1.625 -1.39062,1.625 -1.39062,4.71875 0,2.9375 1.03125,4.45313 1.03125,1.51562 3.42187,1.51562 1.28125,0 2.5625,-0.48437 1.29688,-0.5 2.375,-1.32813 z"
         id="path166" />
      <path
         d="m 378.35156,200 h -2.9375 v -9.9375 q 0,-1.20313 -0.14062,-2.25 -0.14063,-1.0625 -0.51563,-1.65625 -0.39062,-0.65625 -1.125,-0.96875 -0.73437,-0.32813 -1.90625,-0.32813 -1.20312,0 -2.51562,0.59375 -1.3125,0.59375 -2.51563,1.51563 V 200 h -2.9375 v -24.3125 h 2.9375 v 8.79687 q 1.375,-1.14062 2.84375,-1.78125 1.46875,-0.64062 3.01563,-0.64062 2.82812,0 4.3125,1.70312 1.48437,1.70313 1.48437,4.90625 z"
         id="path168" />
      <path
         d="m 393.07031,199.84375 q -0.82812,0.21875 -1.8125,0.35937 -0.96875,0.14063 -1.73437,0.14063 -2.67188,0 -4.0625,-1.4375 -1.39063,-1.4375 -1.39063,-4.60938 v -9.28125 h -1.98437 v -2.46875 h 1.98437 v -5.01562 h 2.9375 v 5.01562 h 6.0625 v 2.46875 h -6.0625 v 7.95313 q 0,1.375 0.0625,2.15625 0.0625,0.76562 0.4375,1.4375 0.34375,0.625 0.9375,0.92187 0.60938,0.28125 1.84375,0.28125 0.71875,0 1.5,-0.20312 0.78125,-0.21875 1.125,-0.35938 h 0.15625 z"
         id="path170" />
      <path
         d="m 402.71094,195.54687 -4.40625,10.23438 h -2.28125 l 2.71875,-10.23438 z"
         id="path172" />
      <path
         d="m 433.07031,200 h -2.92187 v -1.85938 q -0.39063,0.26563 -1.0625,0.75 -0.65625,0.46875 -1.28125,0.75 -0.73438,0.35938 -1.6875,0.59375 -0.95313,0.25 -2.23438,0.25 -2.35937,0 -4,-1.5625 -1.64062,-1.5625 -1.64062,-3.98437 0,-1.98438 0.84375,-3.20313 0.85937,-1.23437 2.4375,-1.9375 1.59375,-0.70312 3.82812,-0.95312 2.23438,-0.25 4.79688,-0.375 v -0.45313 q 0,-1 -0.35938,-1.65625 -0.34375,-0.65625 -1,-1.03125 -0.625,-0.35937 -1.5,-0.48437 -0.875,-0.125 -1.82812,-0.125 -1.15625,0 -2.57813,0.3125 -1.42187,0.29687 -2.9375,0.875 h -0.15625 v -2.98438 q 0.85938,-0.23437 2.48438,-0.51562 1.625,-0.28125 3.20312,-0.28125 1.84375,0 3.20313,0.3125 1.375,0.29687 2.375,1.03125 0.98437,0.71875 1.5,1.85937 0.51562,1.14063 0.51562,2.82813 z m -2.92187,-4.29688 v -4.85937 q -1.34375,0.0781 -3.17188,0.23437 -1.8125,0.15625 -2.875,0.45313 -1.26562,0.35937 -2.04687,1.125 -0.78125,0.75 -0.78125,2.07812 0,1.5 0.90625,2.26563 0.90625,0.75 2.76562,0.75 1.54688,0 2.82813,-0.59375 1.28125,-0.60938 2.375,-1.45313 z"
         id="path174" />
      <path
         d="m 462.88281,198.90625 q -1.46875,0.70312 -2.79687,1.09375 -1.3125,0.39062 -2.79688,0.39062 -1.89062,0 -3.46875,-0.54687 -1.57812,-0.5625 -2.70312,-1.6875 -1.14063,-1.125 -1.76563,-2.84375 -0.625,-1.71875 -0.625,-4.01563 0,-4.28125 2.34375,-6.71875 2.35938,-2.4375 6.21875,-2.4375 1.5,0 2.9375,0.42188 1.45313,0.42187 2.65625,1.03125 v 3.26562 h -0.15625 q -1.34375,-1.04687 -2.78125,-1.60937 -1.42187,-0.5625 -2.78125,-0.5625 -2.5,0 -3.95312,1.6875 -1.4375,1.67187 -1.4375,4.92187 0,3.15625 1.40625,4.85938 1.42187,1.6875 3.98437,1.6875 0.89063,0 1.8125,-0.23438 0.92188,-0.23437 1.65625,-0.60937 0.64063,-0.32813 1.20313,-0.6875 0.5625,-0.375 0.89062,-0.64063 h 0.15625 z"
         id="path176" />
      <path
         d="m 481.11719,200 h -2.9375 v -1.9375 q -1.48438,1.17187 -2.84375,1.79687 -1.35938,0.625 -3,0.625 -2.75,0 -4.28125,-1.67187 -1.53125,-1.6875 -1.53125,-4.9375 v -11.32813 h 2.9375 v 9.9375 q 0,1.32813 0.125,2.28125 0.125,0.9375 0.53125,1.60938 0.42187,0.6875 1.09375,1 0.67187,0.3125 1.95312,0.3125 1.14063,0 2.48438,-0.59375 1.35937,-0.59375 2.53125,-1.51563 v -13.03125 h 2.9375 z"
         id="path178" />
      <path
         d="m 489.86719,200 h -2.9375 v -24.3125 h 2.9375 z"
         id="path180" />
      <path
         d="m 504.74219,199.84375 q -0.82813,0.21875 -1.8125,0.35937 -0.96875,0.14063 -1.73438,0.14063 -2.67187,0 -4.0625,-1.4375 -1.39062,-1.4375 -1.39062,-4.60938 v -9.28125 h -1.98438 v -2.46875 h 1.98438 v -5.01562 h 2.9375 v 5.01562 h 6.0625 v 2.46875 h -6.0625 v 7.95313 q 0,1.375 0.0625,2.15625 0.0625,0.76562 0.4375,1.4375 0.34375,0.625 0.9375,0.92187 0.60937,0.28125 1.84375,0.28125 0.71875,0 1.5,-0.20312 0.78125,-0.21875 1.125,-0.35938 h 0.15625 z"
         id="path182" />
      <path
         d="m 522.75781,200 h -2.9375 v -1.9375 q -1.48437,1.17187 -2.84375,1.79687 -1.35937,0.625 -3,0.625 -2.75,0 -4.28125,-1.67187 -1.53125,-1.6875 -1.53125,-4.9375 v -11.32813 h 2.9375 v 9.9375 q 0,1.32813 0.125,2.28125 0.125,0.9375 0.53125,1.60938 0.42188,0.6875 1.09375,1 0.67188,0.3125 1.95313,0.3125 1.14062,0 2.48437,-0.59375 1.35938,-0.59375 2.53125,-1.51563 v -13.03125 h 2.9375 z"
         id="path184" />
      <path
         d="m 539.42969,185.75 h -0.15625 q -0.65625,-0.15625 -1.28125,-0.21875 -0.60938,-0.0781 -1.45313,-0.0781 -1.35937,0 -2.625,0.60938 -1.26562,0.59375 -2.4375,1.54687 V 200 h -2.9375 v -17.45313 h 2.9375 v 2.57813 q 1.75,-1.40625 3.07813,-1.98438 1.34375,-0.59375 2.73437,-0.59375 0.76563,0 1.10938,0.0469 0.34375,0.0312 1.03125,0.14062 z"
         id="path186" />
      <path
         d="m 555.19531,200 h -2.92187 v -1.85938 q -0.39063,0.26563 -1.0625,0.75 -0.65625,0.46875 -1.28125,0.75 -0.73438,0.35938 -1.6875,0.59375 -0.95313,0.25 -2.23438,0.25 -2.35937,0 -4,-1.5625 -1.64062,-1.5625 -1.64062,-3.98437 0,-1.98438 0.84375,-3.20313 0.85937,-1.23437 2.4375,-1.9375 1.59375,-0.70312 3.82812,-0.95312 2.23438,-0.25 4.79688,-0.375 v -0.45313 q 0,-1 -0.35938,-1.65625 -0.34375,-0.65625 -1,-1.03125 -0.625,-0.35937 -1.5,-0.48437 -0.875,-0.125 -1.82812,-0.125 -1.15625,0 -2.57813,0.3125 -1.42187,0.29687 -2.9375,0.875 h -0.15625 v -2.98438 q 0.85938,-0.23437 2.48438,-0.51562 1.625,-0.28125 3.20312,-0.28125 1.84375,0 3.20313,0.3125 1.375,0.29687 2.375,1.03125 0.98437,0.71875 1.5,1.85937 0.51562,1.14063 0.51562,2.82813 z m -2.92187,-4.29688 v -4.85937 q -1.34375,0.0781 -3.17188,0.23437 -1.8125,0.15625 -2.875,0.45313 -1.26562,0.35937 -2.04687,1.125 -0.78125,0.75 -0.78125,2.07812 0,1.5 0.90625,2.26563 0.90625,0.75 2.76562,0.75 1.54688,0 2.82813,-0.59375 1.28125,-0.60938 2.375,-1.45313 z"
         id="path188" />
      <path
         d="m 563.82031,200 h -2.9375 v -24.3125 h 2.9375 z"
         id="path190" />
      <path
         d="m 596.24219,191.0625 q 0,2.125 -0.60938,3.89062 -0.60937,1.75 -1.71875,2.96875 -1.03125,1.15625 -2.4375,1.79688 -1.39062,0.625 -2.95312,0.625 -1.35938,0 -2.46875,-0.29688 -1.09375,-0.29687 -2.23438,-0.92187 v 7.3125 h -2.9375 v -23.89063 h 2.9375 v 1.82813 q 1.17188,-0.98438 2.625,-1.64063 1.46875,-0.67187 3.125,-0.67187 3.15625,0 4.90625,2.39062 1.76563,2.375 1.76563,6.60938 z m -3.03125,0.0781 q 0,-3.15625 -1.07813,-4.71875 -1.07812,-1.5625 -3.3125,-1.5625 -1.26562,0 -2.54687,0.54688 -1.28125,0.54687 -2.45313,1.4375 v 9.89062 q 1.25,0.5625 2.14063,0.76563 0.90625,0.20312 2.04687,0.20312 2.45313,0 3.82813,-1.65625 1.375,-1.65625 1.375,-4.90625 z"
         id="path192" />
      <path
         d="m 615.83594,182.54687 -10.1875,23.89063 h -3.14063 l 3.25,-7.28125 -6.95312,-16.60938 h 3.1875 l 5.35937,12.9375 5.40625,-12.9375 z"
         id="path194" />
      <path
         d="m 630.57031,185.75 h -0.15625 q -0.65625,-0.15625 -1.28125,-0.21875 -0.60937,-0.0781 -1.45312,-0.0781 -1.35938,0 -2.625,0.60938 -1.26563,0.59375 -2.4375,1.54687 V 200 h -2.9375 v -17.45313 h 2.9375 v 2.57813 q 1.75,-1.40625 3.07812,-1.98438 1.34375,-0.59375 2.73438,-0.59375 0.76562,0 1.10937,0.0469 0.34375,0.0312 1.03125,0.14062 z"
         id="path196" />
      <path
         d="m 647.94531,191.57812 h -12.85937 q 0,1.60938 0.48437,2.8125 0.48438,1.1875 1.32813,1.95313 0.8125,0.75 1.92187,1.125 1.125,0.375 2.46875,0.375 1.78125,0 3.57813,-0.70313 1.8125,-0.71875 2.57812,-1.40625 h 0.15625 v 3.20313 q -1.48437,0.625 -3.03125,1.04687 -1.54687,0.42188 -3.25,0.42188 -4.34375,0 -6.78125,-2.34375 -2.4375,-2.35938 -2.4375,-6.6875 0,-4.28125 2.32813,-6.79688 2.34375,-2.51562 6.15625,-2.51562 3.53125,0 5.4375,2.0625 1.92187,2.0625 1.92187,5.85937 z m -2.85937,-2.25 q -0.0156,-2.3125 -1.17188,-3.57812 -1.14062,-1.26563 -3.48437,-1.26563 -2.35938,0 -3.76563,1.39063 -1.39062,1.39062 -1.57812,3.45312 z"
         id="path198" />
      <path
         d="m 658.49219,195.54687 -4.40625,10.23438 h -2.28125 l 2.71875,-10.23438 z"
         id="path200" />
    </g>
    <g
       aria-label="A language's grace, burning higher."
       id="text8">
      <path
         d="m 136.20312,250 h -3.29687 L 130.625,243.51562 H 120.5625 L 118.28125,250 h -3.14062 l 8.46875,-23.26563 h 4.125 z m -6.53125,-9.14063 -4.07812,-11.42187 -4.09375,11.42187 z"
         id="path203" />
      <path
         d="m 153.71875,250 h -2.9375 v -24.3125 h 2.9375 z"
         id="path205" />
      <path
         d="m 173.09375,250 h -2.92188 v -1.85938 q -0.39062,0.26563 -1.0625,0.75 -0.65625,0.46875 -1.28125,0.75 -0.73437,0.35938 -1.6875,0.59375 -0.95312,0.25 -2.23437,0.25 -2.35938,0 -4,-1.5625 -1.64063,-1.5625 -1.64063,-3.98437 0,-1.98438 0.84375,-3.20313 0.85938,-1.23437 2.4375,-1.9375 1.59375,-0.70312 3.82813,-0.95312 2.23437,-0.25 4.79687,-0.375 v -0.45313 q 0,-1 -0.35937,-1.65625 -0.34375,-0.65625 -1,-1.03125 -0.625,-0.35937 -1.5,-0.48437 -0.875,-0.125 -1.82813,-0.125 -1.15625,0 -2.57812,0.3125 -1.42188,0.29687 -2.9375,0.875 h -0.15625 v -2.98438 q 0.85937,-0.23437 2.48437,-0.51562 1.625,-0.28125 3.20313,-0.28125 1.84375,0 3.20312,0.3125 1.375,0.29687 2.375,1.03125 0.98438,0.71875 1.5,1.85937 0.51563,1.14063 0.51563,2.82813 z m -2.92188,-4.29688 v -4.85937 q -1.34375,0.0781 -3.17187,0.23437 -1.8125,0.15625 -2.875,0.45313 -1.26563,0.35937 -2.04688,1.125 -0.78125,0.75 -0.78125,2.07812 0,1.5 0.90625,2.26563 0.90625,0.75 2.76563,0.75 1.54687,0 2.82812,-0.59375 1.28125,-0.60938 2.375,-1.45313 z"
         id="path207" />
      <path
         d="m 193.34375,250 h -2.9375 v -9.9375 q 0,-1.20313 -0.14063,-2.25 -0.14062,-1.0625 -0.51562,-1.65625 -0.39063,-0.65625 -1.125,-0.96875 -0.73438,-0.32813 -1.90625,-0.32813 -1.20313,0 -2.51563,0.59375 -1.3125,0.59375 -2.51562,1.51563 V 250 H 178.75 v -17.45313 h 2.9375 v 1.9375 q 1.375,-1.14062 2.84375,-1.78125 1.46875,-0.64062 3.01562,-0.64062 2.82813,0 4.3125,1.70312 1.48438,1.70313 1.48438,4.90625 z"
         id="path209" />
      <path
         d="m 213.15625,248.01562 q 0,4.4375 -2.01563,6.51563 -2.01562,2.07812 -6.20312,2.07812 -1.39063,0 -2.71875,-0.20312 -1.3125,-0.1875 -2.59375,-0.54688 v -3 h 0.15625 q 0.71875,0.28125 2.28125,0.6875 1.5625,0.42188 3.125,0.42188 1.5,0 2.48437,-0.35938 0.98438,-0.35937 1.53125,-1 0.54688,-0.60937 0.78125,-1.46875 0.23438,-0.85937 0.23438,-1.92187 V 247.625 q -1.32813,1.0625 -2.54688,1.59375 -1.20312,0.51562 -3.07812,0.51562 -3.125,0 -4.96875,-2.25 -1.82813,-2.26562 -1.82813,-6.375 0,-2.25 0.625,-3.875 0.64063,-1.64062 1.73438,-2.82812 1.01562,-1.10938 2.46875,-1.71875 1.45312,-0.625 2.89062,-0.625 1.51563,0 2.53125,0.3125 1.03125,0.29687 2.17188,0.92187 l 0.1875,-0.75 h 2.75 z m -2.9375,-2.8125 v -9.51562 q -1.17188,-0.53125 -2.1875,-0.75 -1,-0.23438 -2,-0.23438 -2.42188,0 -3.8125,1.625 -1.39063,1.625 -1.39063,4.71875 0,2.9375 1.03125,4.45313 1.03125,1.51562 3.42188,1.51562 1.28125,0 2.5625,-0.48437 1.29687,-0.5 2.375,-1.32813 z"
         id="path211" />
      <path
         d="m 233.40625,250 h -2.9375 v -1.9375 q -1.48438,1.17187 -2.84375,1.79687 -1.35938,0.625 -3,0.625 -2.75,0 -4.28125,-1.67187 -1.53125,-1.6875 -1.53125,-4.9375 v -11.32813 h 2.9375 v 9.9375 q 0,1.32813 0.125,2.28125 0.125,0.9375 0.53125,1.60938 0.42187,0.6875 1.09375,1 0.67187,0.3125 1.95312,0.3125 1.14063,0 2.48438,-0.59375 1.35937,-0.59375 2.53125,-1.51563 v -13.03125 h 2.9375 z"
         id="path213" />
      <path
         d="m 252.75,250 h -2.92188 v -1.85938 q -0.39062,0.26563 -1.0625,0.75 -0.65625,0.46875 -1.28125,0.75 -0.73437,0.35938 -1.6875,0.59375 -0.95312,0.25 -2.23437,0.25 -2.35938,0 -4,-1.5625 -1.64063,-1.5625 -1.64063,-3.98437 0,-1.98438 0.84375,-3.20313 0.85938,-1.23437 2.4375,-1.9375 1.59375,-0.70312 3.82813,-0.95312 2.23437,-0.25 4.79687,-0.375 v -0.45313 q 0,-1 -0.35937,-1.65625 -0.34375,-0.65625 -1,-1.03125 -0.625,-0.35937 -1.5,-0.48437 -0.875,-0.125 -1.82813,-0.125 -1.15625,0 -2.57812,0.3125 -1.42188,0.29687 -2.9375,0.875 h -0.15625 v -2.98438 q 0.85937,-0.23437 2.48437,-0.51562 1.625,-0.28125 3.20313,-0.28125 1.84375,0 3.20312,0.3125 1.375,0.29687 2.375,1.03125 0.98438,0.71875 1.5,1.85937 0.51563,1.14063 0.51563,2.82813 z m -2.92188,-4.29688 v -4.85937 q -1.34375,0.0781 -3.17187,0.23437 -1.8125,0.15625 -2.875,0.45313 -1.26563,0.35937 -2.04688,1.125 -0.78125,0.75 -0.78125,2.07812 0,1.5 0.90625,2.26563 0.90625,0.75 2.76563,0.75 1.54687,0 2.82812,-0.59375 1.28125,-0.60938 2.375,-1.45313 z"
         id="path215" />
      <path
         d="m 272.5625,248.01562 q 0,4.4375 -2.01563,6.51563 -2.01562,2.07812 -6.20312,2.07812 -1.39063,0 -2.71875,-0.20312 -1.3125,-0.1875 -2.59375,-0.54688 v -3 h 0.15625 q 0.71875,0.28125 2.28125,0.6875 1.5625,0.42188 3.125,0.42188 1.5,0 2.48437,-0.35938 0.98438,-0.35937 1.53125,-1 0.54688,-0.60937 0.78125,-1.46875 0.23438,-0.85937 0.23438,-1.92187 V 247.625 q -1.32813,1.0625 -2.54688,1.59375 -1.20312,0.51562 -3.07812,0.51562 -3.125,0 -4.96875,-2.25 -1.82813,-2.26562 -1.82813,-6.375 0,-2.25 0.625,-3.875 0.64063,-1.64062 1.73438,-2.82812 1.01562,-1.10938 2.46875,-1.71875 1.45312,-0.625 2.89062,-0.625 1.51563,0 2.53125,0.3125 1.03125,0.29687 2.17188,0.92187 l 0.1875,-0.75 h 2.75 z m -2.9375,-2.8125 v -9.51562 q -1.17188,-0.53125 -2.1875,-0.75 -1,-0.23438 -2,-0.23438 -2.42188,0 -3.8125,1.625 -1.39063,1.625 -1.39063,4.71875 0,2.9375 1.03125,4.45313 1.03125,1.51562 3.42188,1.51562 1.28125,0 2.5625,-0.48437 1.29687,-0.5 2.375,-1.32813 z"
         id="path217" />
      <path
         d="m 292.95312,241.57812 h -12.85937 q 0,1.60938 0.48437,2.8125 0.48438,1.1875 1.32813,1.95313 0.8125,0.75 1.92187,1.125 1.125,0.375 2.46875,0.375 1.78125,0 3.57813,-0.70313 1.8125,-0.71875 2.57812,-1.40625 h 0.15625 v 3.20313 q -1.48437,0.625 -3.03125,1.04687 -1.54687,0.42188 -3.25,0.42188 -4.34375,0 -6.78125,-2.34375 -2.4375,-2.35938 -2.4375,-6.6875 0,-4.28125 2.32813,-6.79688 2.34375,-2.51562 6.15625,-2.51562 3.53125,0 5.4375,2.0625 1.92187,2.0625 1.92187,5.85937 z m -2.85937,-2.25 q -0.0156,-2.3125 -1.17188,-3.57812 -1.14062,-1.26563 -3.48437,-1.26563 -2.35938,0 -3.76563,1.39063 -1.39062,1.39062 -1.57812,3.45312 z"
         id="path219" />
      <path
         d="m 300.54687,225.6875 -0.67187,9.04687 h -2.125 l -0.67188,-9.04687 z"
         id="path221" />
      <path
         d="m 318.46875,244.96875 q 0,2.39062 -1.98438,3.92187 -1.96875,1.53125 -5.39062,1.53125 -1.9375,0 -3.5625,-0.45312 -1.60938,-0.46875 -2.70313,-1.01563 v -3.29687 h 0.15625 q 1.39063,1.04687 3.09375,1.67187 1.70313,0.60938 3.26563,0.60938 1.9375,0 3.03125,-0.625 1.09375,-0.625 1.09375,-1.96875 0,-1.03125 -0.59375,-1.5625 -0.59375,-0.53125 -2.28125,-0.90625 -0.625,-0.14063 -1.64063,-0.32813 -1,-0.1875 -1.82812,-0.40625 -2.29688,-0.60937 -3.26563,-1.78125 -0.95312,-1.1875 -0.95312,-2.90625 0,-1.07812 0.4375,-2.03125 0.45312,-0.95312 1.35937,-1.70312 0.875,-0.73438 2.21875,-1.15625 1.35938,-0.4375 3.03125,-0.4375 1.5625,0 3.15625,0.39062 1.60938,0.375 2.67188,0.92188 v 3.14062 H 317.625 q -1.125,-0.82812 -2.73438,-1.39062 -1.60937,-0.57813 -3.15625,-0.57813 -1.60937,0 -2.71875,0.625 -1.10937,0.60938 -1.10937,1.82813 0,1.07812 0.67187,1.625 0.65625,0.54687 2.125,0.89062 0.8125,0.1875 1.8125,0.375 1.01563,0.1875 1.6875,0.34375 2.04688,0.46875 3.15625,1.60938 1.10938,1.15625 1.10938,3.0625 z"
         id="path223" />
      <path
         d="m 348.07812,248.01562 q 0,4.4375 -2.01562,6.51563 -2.01563,2.07812 -6.20313,2.07812 -1.39062,0 -2.71875,-0.20312 -1.3125,-0.1875 -2.59375,-0.54688 v -3 h 0.15625 q 0.71875,0.28125 2.28125,0.6875 1.5625,0.42188 3.125,0.42188 1.5,0 2.48438,-0.35938 0.98437,-0.35937 1.53125,-1 0.54687,-0.60937 0.78125,-1.46875 0.23437,-0.85937 0.23437,-1.92187 V 247.625 q -1.32812,1.0625 -2.54687,1.59375 -1.20313,0.51562 -3.07813,0.51562 -3.125,0 -4.96875,-2.25 -1.82812,-2.26562 -1.82812,-6.375 0,-2.25 0.625,-3.875 0.64062,-1.64062 1.73437,-2.82812 1.01563,-1.10938 2.46875,-1.71875 1.45313,-0.625 2.89063,-0.625 1.51562,0 2.53125,0.3125 1.03125,0.29687 2.17187,0.92187 l 0.1875,-0.75 h 2.75 z m -2.9375,-2.8125 v -9.51562 q -1.17187,-0.53125 -2.1875,-0.75 -1,-0.23438 -2,-0.23438 -2.42187,0 -3.8125,1.625 -1.39062,1.625 -1.39062,4.71875 0,2.9375 1.03125,4.45313 1.03125,1.51562 3.42187,1.51562 1.28125,0 2.5625,-0.48437 1.29688,-0.5 2.375,-1.32813 z"
         id="path225" />
      <path
         d="m 364.75,235.75 h -0.15625 q -0.65625,-0.15625 -1.28125,-0.21875 -0.60938,-0.0781 -1.45313,-0.0781 -1.35937,0 -2.625,0.60938 -1.26562,0.59375 -2.4375,1.54687 V 250 h -2.9375 v -17.45313 h 2.9375 v 2.57813 q 1.75,-1.40625 3.07813,-1.98438 1.34375,-0.59375 2.73437,-0.59375 0.76563,0 1.10938,0.0469 0.34375,0.0312 1.03125,0.14062 z"
         id="path227" />
      <path
         d="m 380.51562,250 h -2.92187 v -1.85938 q -0.39063,0.26563 -1.0625,0.75 -0.65625,0.46875 -1.28125,0.75 -0.73438,0.35938 -1.6875,0.59375 -0.95313,0.25 -2.23438,0.25 -2.35937,0 -4,-1.5625 -1.64062,-1.5625 -1.64062,-3.98437 0,-1.98438 0.84375,-3.20313 0.85937,-1.23437 2.4375,-1.9375 1.59375,-0.70312 3.82812,-0.95312 2.23438,-0.25 4.79688,-0.375 v -0.45313 q 0,-1 -0.35938,-1.65625 -0.34375,-0.65625 -1,-1.03125 -0.625,-0.35937 -1.5,-0.48437 -0.875,-0.125 -1.82812,-0.125 -1.15625,0 -2.57813,0.3125 -1.42187,0.29687 -2.9375,0.875 h -0.15625 v -2.98438 q 0.85938,-0.23437 2.48438,-0.51562 1.625,-0.28125 3.20312,-0.28125 1.84375,0 3.20313,0.3125 1.375,0.29687 2.375,1.03125 0.98437,0.71875 1.5,1.85937 0.51562,1.14063 0.51562,2.82813 z m -2.92187,-4.29688 v -4.85937 q -1.34375,0.0781 -3.17188,0.23437 -1.8125,0.15625 -2.875,0.45313 -1.26562,0.35937 -2.04687,1.125 -0.78125,0.75 -0.78125,2.07812 0,1.5 0.90625,2.26563 0.90625,0.75 2.76562,0.75 1.54688,0 2.82813,-0.59375 1.28125,-0.60938 2.375,-1.45313 z"
         id="path229" />
      <path
         d="m 399.07812,248.90625 q -1.46875,0.70312 -2.79687,1.09375 -1.3125,0.39062 -2.79688,0.39062 -1.89062,0 -3.46875,-0.54687 -1.57812,-0.5625 -2.70312,-1.6875 -1.14063,-1.125 -1.76563,-2.84375 -0.625,-1.71875 -0.625,-4.01563 0,-4.28125 2.34375,-6.71875 2.35938,-2.4375 6.21875,-2.4375 1.5,0 2.9375,0.42188 1.45313,0.42187 2.65625,1.03125 v 3.26562 h -0.15625 q -1.34375,-1.04687 -2.78125,-1.60937 -1.42187,-0.5625 -2.78125,-0.5625 -2.5,0 -3.95312,1.6875 -1.4375,1.67187 -1.4375,4.92187 0,3.15625 1.40625,4.85938 1.42187,1.6875 3.98437,1.6875 0.89063,0 1.8125,-0.23438 0.92188,-0.23437 1.65625,-0.60937 0.64063,-0.32813 1.20313,-0.6875 0.5625,-0.375 0.89062,-0.64063 h 0.15625 z"
         id="path231" />
      <path
         d="m 417.45312,241.57812 h -12.85937 q 0,1.60938 0.48437,2.8125 0.48438,1.1875 1.32813,1.95313 0.8125,0.75 1.92187,1.125 1.125,0.375 2.46875,0.375 1.78125,0 3.57813,-0.70313 1.8125,-0.71875 2.57812,-1.40625 h 0.15625 v 3.20313 q -1.48437,0.625 -3.03125,1.04687 -1.54687,0.42188 -3.25,0.42188 -4.34375,0 -6.78125,-2.34375 -2.4375,-2.35938 -2.4375,-6.6875 0,-4.28125 2.32813,-6.79688 2.34375,-2.51562 6.15625,-2.51562 3.53125,0 5.4375,2.0625 1.92187,2.0625 1.92187,5.85937 z m -2.85937,-2.25 q -0.0156,-2.3125 -1.17188,-3.57812 -1.14062,-1.26563 -3.48437,-1.26563 -2.35938,0 -3.76563,1.39063 -1.39062,1.39062 -1.57812,3.45312 z"
         id="path233" />
      <path
         d="m 428,245.54687 -4.40625,10.23438 h -2.28125 l 2.71875,-10.23438 z"
         id="path235" />
      <path
         d="m 460.15625,241.14062 q 0,2.1875 -0.625,3.9375 -0.60938,1.75 -1.65625,2.9375 -1.10938,1.23438 -2.4375,1.85938 -1.32813,0.60937 -2.92188,0.60937 -1.48437,0 -2.59375,-0.35937 -1.10937,-0.34375 -2.1875,-0.9375 L 447.54687,250 h -2.75 v -24.3125 h 2.9375 v 8.6875 q 1.23438,-1.01563 2.625,-1.65625 1.39063,-0.65625 3.125,-0.65625 3.09375,0 4.875,2.375 1.79688,2.375 1.79688,6.70312 z m -3.03125,0.0781 q 0,-3.125 -1.03125,-4.73438 -1.03125,-1.625 -3.32813,-1.625 -1.28125,0 -2.59375,0.5625 -1.3125,0.54688 -2.4375,1.42188 v 10 q 1.25,0.5625 2.14063,0.78125 0.90625,0.21875 2.04687,0.21875 2.4375,0 3.8125,-1.59375 1.39063,-1.60938 1.39063,-5.03125 z"
         id="path237" />
      <path
         d="m 479.20312,250 h -2.9375 v -1.9375 q -1.48437,1.17187 -2.84375,1.79687 -1.35937,0.625 -3,0.625 -2.75,0 -4.28125,-1.67187 -1.53125,-1.6875 -1.53125,-4.9375 v -11.32813 h 2.9375 v 9.9375 q 0,1.32813 0.125,2.28125 0.125,0.9375 0.53125,1.60938 0.42188,0.6875 1.09375,1 0.67188,0.3125 1.95313,0.3125 1.14062,0 2.48437,-0.59375 1.35938,-0.59375 2.53125,-1.51563 v -13.03125 h 2.9375 z"
         id="path239" />
      <path
         d="m 495.875,235.75 h -0.15625 q -0.65625,-0.15625 -1.28125,-0.21875 -0.60938,-0.0781 -1.45313,-0.0781 -1.35937,0 -2.625,0.60938 -1.26562,0.59375 -2.4375,1.54687 V 250 h -2.9375 v -17.45313 h 2.9375 v 2.57813 q 1.75,-1.40625 3.07813,-1.98438 1.34375,-0.59375 2.73437,-0.59375 0.76563,0 1.10938,0.0469 0.34375,0.0312 1.03125,0.14062 z"
         id="path241" />
      <path
         d="m 513.23437,250 h -2.9375 v -9.9375 q 0,-1.20313 -0.14062,-2.25 -0.14063,-1.0625 -0.51563,-1.65625 -0.39062,-0.65625 -1.125,-0.96875 -0.73437,-0.32813 -1.90625,-0.32813 -1.20312,0 -2.51562,0.59375 -1.3125,0.59375 -2.51563,1.51563 V 250 h -2.9375 v -17.45313 h 2.9375 v 1.9375 q 1.375,-1.14062 2.84375,-1.78125 1.46875,-0.64062 3.01563,-0.64062 2.82812,0 4.3125,1.70312 1.48437,1.70313 1.48437,4.90625 z"
         id="path243" />
      <path
         d="m 522.04687,229.625 h -3.3125 v -3.04688 h 3.3125 z M 521.85937,250 h -2.9375 v -17.45313 h 2.9375 z"
         id="path245" />
      <path
         d="m 542.26562,250 h -2.9375 v -9.9375 q 0,-1.20313 -0.14062,-2.25 -0.14063,-1.0625 -0.51563,-1.65625 -0.39062,-0.65625 -1.125,-0.96875 -0.73437,-0.32813 -1.90625,-0.32813 -1.20312,0 -2.51562,0.59375 -1.3125,0.59375 -2.51563,1.51563 V 250 h -2.9375 v -17.45313 h 2.9375 v 1.9375 q 1.375,-1.14062 2.84375,-1.78125 1.46875,-0.64062 3.01563,-0.64062 2.82812,0 4.3125,1.70312 1.48437,1.70313 1.48437,4.90625 z"
         id="path247" />
      <path
         d="m 562.07812,248.01562 q 0,4.4375 -2.01562,6.51563 -2.01563,2.07812 -6.20313,2.07812 -1.39062,0 -2.71875,-0.20312 -1.3125,-0.1875 -2.59375,-0.54688 v -3 h 0.15625 q 0.71875,0.28125 2.28125,0.6875 1.5625,0.42188 3.125,0.42188 1.5,0 2.48438,-0.35938 0.98437,-0.35937 1.53125,-1 0.54687,-0.60937 0.78125,-1.46875 0.23437,-0.85937 0.23437,-1.92187 V 247.625 q -1.32812,1.0625 -2.54687,1.59375 -1.20313,0.51562 -3.07813,0.51562 -3.125,0 -4.96875,-2.25 -1.82812,-2.26562 -1.82812,-6.375 0,-2.25 0.625,-3.875 0.64062,-1.64062 1.73437,-2.82812 1.01563,-1.10938 2.46875,-1.71875 1.45313,-0.625 2.89063,-0.625 1.51562,0 2.53125,0.3125 1.03125,0.29687 2.17187,0.92187 l 0.1875,-0.75 h 2.75 z m -2.9375,-2.8125 v -9.51562 q -1.17187,-0.53125 -2.1875,-0.75 -1,-0.23438 -2,-0.23438 -2.42187,0 -3.8125,1.625 -1.39062,1.625 -1.39062,4.71875 0,2.9375 1.03125,4.45313 1.03125,1.51562 3.42187,1.51562 1.28125,0 2.5625,-0.48437 1.29688,-0.5 2.375,-1.32813 z"
         id="path249" />
      <path
         d="m 593.70312,250 h -2.9375 v -9.9375 q 0,-1.20313 -0.14062,-2.25 -0.14063,-1.0625 -0.51563,-1.65625 -0.39062,-0.65625 -1.125,-0.96875 -0.73437,-0.32813 -1.90625,-0.32813 -1.20312,0 -2.51562,0.59375 -1.3125,0.59375 -2.51563,1.51563 V 250 h -2.9375 v -24.3125 h 2.9375 v 8.79687 q 1.375,-1.14062 2.84375,-1.78125 1.46875,-0.64062 3.01563,-0.64062 2.82812,0 4.3125,1.70312 1.48437,1.70313 1.48437,4.90625 z"
         id="path251" />
      <path
         d="m 602.51562,229.625 h -3.3125 v -3.04688 h 3.3125 z M 602.32812,250 h -2.9375 v -17.45313 h 2.9375 z"
         id="path253" />
      <path
         d="m 622.29687,248.01562 q 0,4.4375 -2.01562,6.51563 -2.01563,2.07812 -6.20313,2.07812 -1.39062,0 -2.71875,-0.20312 -1.3125,-0.1875 -2.59375,-0.54688 v -3 h 0.15625 q 0.71875,0.28125 2.28125,0.6875 1.5625,0.42188 3.125,0.42188 1.5,0 2.48438,-0.35938 0.98437,-0.35937 1.53125,-1 0.54687,-0.60937 0.78125,-1.46875 0.23437,-0.85937 0.23437,-1.92187 V 247.625 q -1.32812,1.0625 -2.54687,1.59375 -1.20313,0.51562 -3.07813,0.51562 -3.125,0 -4.96875,-2.25 -1.82812,-2.26562 -1.82812,-6.375 0,-2.25 0.625,-3.875 0.64062,-1.64062 1.73437,-2.82812 1.01563,-1.10938 2.46875,-1.71875 1.45313,-0.625 2.89063,-0.625 1.51562,0 2.53125,0.3125 1.03125,0.29687 2.17187,0.92187 l 0.1875,-0.75 h 2.75 z m -2.9375,-2.8125 v -9.51562 q -1.17187,-0.53125 -2.1875,-0.75 -1,-0.23438 -2,-0.23438 -2.42187,0 -3.8125,1.625 -1.39062,1.625 -1.39062,4.71875 0,2.9375 1.03125,4.45313 1.03125,1.51562 3.42187,1.51562 1.28125,0 2.5625,-0.48437 1.29688,-0.5 2.375,-1.32813 z"
         id="path255" />
      <path
         d="m 642.67187,250 h -2.9375 v -9.9375 q 0,-1.20313 -0.14062,-2.25 -0.14063,-1.0625 -0.51563,-1.65625 -0.39062,-0.65625 -1.125,-0.96875 -0.73437,-0.32813 -1.90625,-0.32813 -1.20312,0 -2.51562,0.59375 -1.3125,0.59375 -2.51563,1.51563 V 250 h -2.9375 v -24.3125 h 2.9375 v 8.79687 q 1.375,-1.14062 2.84375,-1.78125 1.46875,-0.64062 3.01563,-0.64062 2.82812,0 4.3125,1.70312 1.48437,1.70313 1.48437,4.90625 z"
         id="path257" />
      <path
         d="m 662.9375,241.57812 h -12.85938 q 0,1.60938 0.48438,2.8125 0.48437,1.1875 1.32812,1.95313 0.8125,0.75 1.92188,1.125 1.125,0.375 2.46875,0.375 1.78125,0 3.57812,-0.70313 1.8125,-0.71875 2.57813,-1.40625 h 0.15625 v 3.20313 q -1.48438,0.625 -3.03125,1.04687 -1.54688,0.42188 -3.25,0.42188 -4.34375,0 -6.78125,-2.34375 -2.4375,-2.35938 -2.4375,-6.6875 0,-4.28125 2.32812,-6.79688 2.34375,-2.51562 6.15625,-2.51562 3.53125,0 5.4375,2.0625 1.92188,2.0625 1.92188,5.85937 z m -2.85938,-2.25 q -0.0156,-2.3125 -1.17187,-3.57812 -1.14063,-1.26563 -3.48438,-1.26563 -2.35937,0 -3.76562,1.39063 -1.39063,1.39062 -1.57813,3.45312 z"
         id="path259" />
      <path
         d="M 678.28125,235.75 H 678.125 q -0.65625,-0.15625 -1.28125,-0.21875 -0.60938,-0.0781 -1.45313,-0.0781 -1.35937,0 -2.625,0.60938 -1.26562,0.59375 -2.4375,1.54687 V 250 h -2.9375 v -17.45313 h 2.9375 v 2.57813 q 1.75,-1.40625 3.07813,-1.98438 1.34375,-0.59375 2.73437,-0.59375 0.76563,0 1.10938,0.0469 0.34375,0.0312 1.03125,0.14062 z"
         id="path261" />
      <path
         d="m 681.3125,250 h -3.73438 v -4.45313 h 3.73438 z"
         id="path263" />
    </g>
  </g>
</svg>
