<?xml version="1.0" encoding="UTF-8" standalone="no"?>
<!-- Created with Inkscape (http://www.inkscape.org/) -->

<svg
   version="1.1"
   id="svg59"
   width="1423"
   height="1274"
   viewBox="0 0 1423 1274"
   xmlns="http://www.w3.org/2000/svg"
   xmlns:svg="http://www.w3.org/2000/svg">
  <defs
     id="defs63" />
  <g
     id="g65">
    <path
       style="fill:#000000;stroke-width:0.72479"
       d="m 305.8697,1117.5769 c -14.31744,-1.403 -24.10294,-6.3789 -31.22676,-15.8786 -3.47885,-4.6392 -5.68114,-9.7433 -7.56417,-17.5312 l -1.5622,-6.4609 V 646.34504 c 0,-407.84947 0.0658,-431.67193 1.20733,-437.06201 2.55142,-12.04739 8.80288,-22.4952 16.79588,-28.07027 4.55806,-3.17922 12.66401,-5.9635 20.00797,-6.87247 8.62415,-1.06741 875.99965,-1.06741 884.62375,0 6.9963,0.86595 14.9661,3.52558 19.8817,6.63483 8.1646,5.16438 14.8992,15.862 17.5818,27.92786 1.1079,4.98347 1.197,32.23128 1.4052,429.84098 0.1445,275.99768 -0.017,427.57844 -0.4622,433.26144 -1.2571,16.0532 -4.3056,24.496 -11.8352,32.7772 -7.3524,8.0865 -15.249,11.5882 -28.9484,12.837 -9.6101,0.8761 -870.9552,0.8342 -879.9047,-0.043 z m 881.5907,-6.0687 c 20.7976,-2.5759 31.2099,-13.8441 33.5074,-36.2618 0.5469,-5.3362 0.704,-127.34454 0.5589,-434.22212 l -0.2018,-426.80055 -1.5399,-5.94748 c -3.7403,-14.44606 -11.0977,-22.68296 -24.0313,-26.90403 -3.9539,-1.29044 -24.6709,-1.36442 -445.7674,-1.59169 -341.26656,-0.18419 -442.95377,-0.0306 -447.48683,0.67571 -6.40656,0.99828 -13.76503,3.95319 -18.13077,7.28069 -3.97769,3.03173 -8.48955,9.43667 -10.22837,14.51998 -3.68256,10.76569 -3.46969,-18.22224 -3.27515,445.9884 0.17147,409.17999 0.24017,430.44409 1.40468,434.78169 4.65773,17.3493 14.4076,26.3053 30.92705,28.4088 7.58533,0.9659 876.47549,1.0371 884.26349,0.072 z M 650.562,1079.9834 c -0.57174,-0.6288 -1.57473,-3.7891 -2.22887,-7.0228 -1.18562,-5.8612 -1.35352,-5.9587 -2.62537,-1.5253 -0.78026,2.7199 -3.17187,1.5228 -4.83226,-2.4187 l -1.57924,-3.7489 -1.19261,4.3788 c -1.44795,5.3164 -3.61985,9.4213 -4.76323,9.0026 -1.53126,-0.5607 -1.30764,-2.7316 0.77965,-7.5686 1.1335,-2.6268 2.27603,-6.3852 2.53894,-8.3521 0.26292,-1.9669 0.86009,-4.1509 1.32706,-4.8533 0.78007,-1.1733 0.97057,-1.1336 2.3451,0.4891 0.82283,0.9714 1.49779,2.1292 1.49991,2.573 0.002,0.4437 0.34452,2.1563 0.76087,3.8056 0.68267,2.7044 0.83197,2.8537 1.52027,1.5202 0.41979,-0.8132 1.11856,-3.0005 1.55282,-4.8605 0.43426,-1.8601 1.11181,-3.5 1.50567,-3.6445 1.57311,-0.5767 2.94986,2.2145 2.94986,5.9805 0,4.3354 1.86723,14.1179 2.81812,14.7643 1.00293,0.6818 0.74398,2.6239 -0.34986,2.6239 -0.54302,0 -1.45509,-0.5145 -2.02683,-1.1433 z m 44.32547,0.01 c -3.58232,-2.226 -4.30077,-6.4026 -1.85121,-10.7617 2.74613,-4.887 7.75099,-5.9669 10.01795,-2.1616 2.21319,3.7149 -2.06487,7.9006 -6.60977,6.467 -2.60082,-0.8204 -2.85976,0.6582 -0.53767,3.0701 1.55924,1.6196 4.00056,1.6947 8.6389,0.2659 1.14067,-0.3514 1.555,-0.1587 1.555,0.7231 0,2.7651 -7.90238,4.4545 -11.2132,2.3972 z m 5.03862,-9.5296 c 0.73524,-0.4327 1.3368,-1.0802 1.3368,-1.4389 0,-1.3252 -2.31876,-1.5727 -3.92053,-0.4185 -2.76126,1.9899 -0.45634,3.6469 2.58373,1.8574 z m -24.23436,8.5911 c -1.58704,-0.6644 -2.05121,-1.8273 -2.06276,-5.1677 -0.0187,-5.4178 3.98143,-8.9632 8.26148,-7.3222 2.09344,0.8027 2.09463,0.8015 2.09463,-2.094 0,-3.9619 1.24319,-10.8598 2.13013,-11.8192 0.50351,-0.5447 1.04724,-0.319 1.7667,0.7334 0.80351,1.1753 0.93392,2.6328 0.57472,6.4235 -0.25554,2.6969 -0.75411,5.7407 -1.10792,6.7643 -0.47217,1.3658 -0.25083,3.1581 0.83201,6.7368 0.81144,2.6818 1.30128,5.0674 1.08855,5.3014 -0.77457,0.8519 -2.55772,-0.5334 -3.24473,-2.5208 l -0.70423,-2.0371 -1.87706,1.9693 c -1.70295,1.7867 -5.04951,3.6774 -6.24151,3.5263 -0.26033,-0.033 -0.93984,-0.2553 -1.51001,-0.494 z m 5.83928,-5.7886 c 2.19286,-3.162 2.18896,-3.269 -0.1376,-3.7746 -2.72504,-0.5922 -5.01057,1.2569 -5.01057,4.0539 0,3.291 2.77663,3.1403 5.14817,-0.2793 z m 110.25878,4.4169 c -0.45455,-1.3149 -0.51647,-6.3837 -0.17479,-14.3074 0.43735,-10.1421 0.709,-12.2709 1.56582,-12.2709 0.88029,0 1.03874,1.9492 1.05038,12.9218 0.008,7.107 0.16304,13.4146 0.34555,14.0168 0.18934,0.6248 -0.18667,1.2198 -0.87558,1.3856 -0.8061,0.1939 -1.44141,-0.3864 -1.91138,-1.7459 z m 26.3542,0.8957 c -0.42749,-0.5665 -1.19626,-2.3623 -1.70839,-3.9906 -1.32446,-4.2111 -2.71195,-4.1104 -5.66527,0.4108 -2.21067,3.3843 -4.45837,5.0184 -4.45837,3.2412 0,-0.3346 -0.15231,-6.4915 -0.33846,-13.6819 -0.18616,-7.1904 -0.0929,-13.0735 0.20733,-13.0735 1.6281,0 2.20996,2.3117 2.28623,9.0833 0.045,3.9925 0.29112,8.2852 0.547,9.5394 0.43624,2.1381 0.51348,2.1855 1.23928,0.7601 0.42572,-0.8362 1.68341,-2.1049 2.79488,-2.8196 1.79138,-1.1517 2.18468,-1.1731 3.46385,-0.1877 1.48546,1.1444 2.5205,3.9194 3.31888,8.8981 0.47189,2.9428 -0.25123,3.7231 -1.68696,1.8204 z m 23.43754,-0.08 c -0.78294,-1.0376 -1.02165,-15.9125 -0.40233,-25.072 0.16225,-2.3997 1.30176,-3.3756 2.1594,-1.8493 0.74338,1.3229 0.50311,27.5743 -0.25493,27.8522 -0.34454,0.1263 -1.02049,-0.2926 -1.50214,-0.9309 z m -184.8562,-1.3395 c -1.75651,-2.7582 -1.30649,-5.0769 1.60728,-8.2815 2.11712,-2.3285 3.20491,-2.951 5.15643,-2.951 3.12793,0 4.69068,1.7865 6.59971,7.5449 1.7874,5.3916 1.78736,5.3769 0.014,5.3769 -0.96056,0 -1.69782,-0.7447 -2.20744,-2.2296 l -0.76518,-2.2296 -2.30884,2.2296 c -2.91058,2.8107 -6.49766,3.0501 -8.09601,0.5403 z m 6.15343,-2.5415 c 0.90846,-0.6546 1.96985,-2.1939 2.35862,-3.4205 0.67933,-2.1432 0.62628,-2.2301 -1.36192,-2.2301 -3.15154,0 -6.68764,4.479 -5.00079,6.3342 0.7584,0.8341 2.25184,0.5792 4.00409,-0.6836 z m 58.86198,2.5206 c -0.83042,-3.4081 -0.49412,-8.9313 0.54381,-8.9313 1.15563,0 2.61139,6.488 2.01683,8.9886 -0.51259,2.1559 -2.02963,2.1219 -2.56064,-0.057 z m 16.82511,-0.2396 c -0.37071,-1.0723 -0.67401,-2.5462 -0.67401,-3.2752 0,-0.7289 -0.40716,-1.9378 -0.90481,-2.6864 -0.841,-1.2649 -1.04813,-1.1717 -2.93723,1.321 -1.11783,1.475 -2.54976,3.4758 -3.18206,4.4461 -1.97157,3.0256 -2.88587,0.8947 -2.31213,-5.3888 0.51806,-5.6736 1.24061,-6.6512 2.56076,-3.4646 l 0.79713,1.9242 1.91354,-2.3043 c 2.06069,-2.4813 3.46073,-2.8804 4.63698,-1.3216 0.85904,1.1385 2.88435,11.2819 2.42183,12.1293 -0.62335,1.1422 -1.66171,0.5246 -2.32,-1.3797 z m 21.09603,0.4999 c -3.26563,-1.0445 -4.19369,-1.678 -4.36793,-2.982 -0.34428,-2.5765 1.52687,-2.7481 5.66825,-0.5196 3.06307,1.6482 4.0424,1.8707 5.20981,1.1836 1.29105,-0.7599 1.43766,-1.5371 1.43766,-7.6207 v -6.7746 l -3.62834,-0.2297 c -3.2329,-0.2047 -3.65389,-0.4286 -3.86276,-2.0539 -0.2287,-1.7797 -0.14442,-1.8123 3.45556,-1.3368 2.02949,0.2681 4.38973,0.4903 5.24498,0.494 1.52103,0.01 1.55501,0.1953 1.55501,8.6453 0,7.5887 -0.17412,8.8822 -1.43239,10.6415 -1.68497,2.3559 -3.33467,2.4542 -9.27985,0.5529 z m 14.85891,-0.07 c -2.16393,-2.38 -1.74512,-5.1005 1.30092,-8.4506 3.03814,-3.3415 6.4892,-3.9708 8.88863,-1.6208 1.19785,1.1731 4.32381,9.0528 4.32381,10.8991 0,1.5405 -2.17125,0.5522 -3.30946,-1.5063 l -1.2158,-2.1988 -1.99923,2.1988 c -2.43094,2.6736 -5.90651,2.9689 -7.98887,0.6786 z m 5.56718,-2.3028 c 1.15092,-0.6775 3.41728,-4.4183 3.41728,-5.6406 0,-0.8007 -3.80876,-0.3626 -4.83779,0.5565 -2.35446,2.1031 -2.97887,3.5264 -2.07333,4.7265 1.01478,1.3448 1.69779,1.4147 3.49384,0.3576 z m 19.69476,3.1276 c -0.21494,-0.3825 -0.59194,-2.812 -0.83778,-5.399 -0.41266,-4.3421 -0.34635,-4.6821 0.86319,-4.426 2.1673,0.4592 3.15943,10.5204 1.0374,10.5204 -0.36961,0 -0.84788,-0.3129 -1.06281,-0.6954 z m 24.24723,-0.4493 c -2.65607,-2.9212 -1.51069,-7.5776 2.53059,-10.2877 2.93695,-1.9695 5.72086,-1.8886 7.60009,0.2208 1.61699,1.8151 4.46324,10.1321 3.73973,10.9278 -0.78694,0.8656 -2.57474,-0.415 -3.2314,-2.3146 l -0.64897,-1.8773 -2.17819,2.2378 c -2.4457,2.5127 -6.06118,3.0187 -7.81185,1.0932 z m 6.52409,-4.1176 c 1.1111,-1.222 2.02018,-2.7613 2.02018,-3.4205 0,-1.8806 -3.07682,-1.451 -5.46997,0.7638 -1.74396,1.6139 -1.99448,2.2212 -1.41094,3.4204 0.99916,2.0534 2.51609,1.815 4.86073,-0.7637 z m -109.42169,-10.7609 c -1.47888,-0.9474 -1.58827,-3.4171 -0.17772,-4.0124 1.12632,-0.4754 3.80606,2.2259 3.80606,3.8366 0,1.1777 -1.91908,1.2708 -3.62834,0.1758 z m 77.40458,0 c -1.48854,-0.9535 -1.58485,-3.4185 -0.1571,-4.0211 1.20998,-0.5107 3.78544,2.008 3.78544,3.702 0,1.3016 -1.84183,1.4636 -3.62834,0.3191 z M 460.23747,895.84381 c -0.6652,-0.73526 -1.90924,-2.35999 -2.76453,-3.61052 -1.51141,-2.20984 -1.58419,-2.23226 -2.59167,-0.79822 -0.57013,0.8115 -1.03659,2.09418 -1.03659,2.8504 0,0.8682 -0.50943,1.37494 -1.38223,1.37494 -1.64966,0 -1.75306,-1.79681 -0.66006,-11.47079 1.05915,-9.37452 1.18518,-9.81223 2.82504,-9.81223 1.3326,0 1.40993,0.28664 0.9739,3.61051 -0.26049,1.98578 -0.64052,4.38012 -0.8445,5.32075 -0.47662,2.19783 0.76605,2.20762 2.16113,0.017 2.03384,-3.19359 8.16141,-9.7084 9.13135,-9.7084 2.34643,0 1.34652,2.38733 -3.19303,7.62347 -2.67571,3.0863 -4.86493,5.82186 -4.86493,6.07902 0,0.25718 1.41748,2.09464 3.14995,4.08327 2.54085,2.9165 2.99223,3.82469 2.33428,4.69663 -1.07081,1.41904 -1.77298,1.36356 -3.23811,-0.25586 z m -84.04413,-1.85684 c -0.7021,-2.88289 -0.50261,-17.19994 0.24676,-17.70931 0.38011,-0.25838 0.69111,-1.31545 0.69111,-2.34904 0,-2.10443 1.75009,-3.25122 2.94913,-1.93248 0.43058,0.47357 1.49484,0.86103 2.36502,0.86103 4.32892,0 11.96366,4.85071 11.96366,7.60108 0,1.6846 -2.66524,4.32655 -5.01056,4.96676 -1.04531,0.28533 -1.90056,0.64569 -1.90056,0.80079 0,0.1551 1.3995,1.70081 3.11,3.43489 1.7105,1.7341 3.11001,3.60222 3.11001,4.15139 0,2.14614 -1.62,1.90572 -4.03629,-0.59901 -1.3911,-1.44204 -4.00653,-3.91685 -5.81206,-5.49959 -2.34072,-2.05189 -3.28279,-3.42219 -3.28279,-4.77503 0,-1.69959 0.19806,-1.83862 1.90056,-1.33412 5.13143,1.5206 9.67828,0.236 7.83076,-2.21237 -1.15004,-1.52405 -7.16795,-3.65846 -9.46552,-3.3572 l -1.85249,0.2429 -0.0706,9.48861 c -0.0603,8.10398 -0.23399,9.52358 -1.19063,9.72818 -0.68947,0.14747 -1.28366,-0.43208 -1.54556,-1.50748 z m 22.6765,-0.19229 c -1.30125,-1.43114 -1.69637,-2.66687 -1.69637,-5.3053 0,-3.24183 0.15736,-3.52788 2.73691,-4.97525 3.31564,-1.86038 5.61477,-1.93724 8.76522,-0.29301 3.26346,1.70322 4.75465,4.93585 3.55687,7.71065 -1.99175,4.61416 -10.17605,6.36763 -13.36263,2.86291 z m 9.20765,-2.35796 c 2.29234,-1.76592 1.94434,-3.94793 -0.86459,-5.42114 -1.94004,-1.0175 -2.73944,-1.08924 -4.16686,-0.37393 -2.09426,1.04946 -3.2067,3.76825 -2.31103,5.64814 0.81117,1.70255 5.20888,1.79055 7.34248,0.14693 z m 9.36681,2.26386 c -1.77932,-1.95696 -1.78124,-1.9734 -1.30976,-11.21159 0.5528,-10.83142 0.80363,-12.08535 2.34968,-11.74633 1.20742,0.26476 1.25557,1.47972 0.40609,10.24626 l -0.38287,3.95116 4.24825,-0.0223 c 4.72204,-0.0249 6.90006,1.34427 6.90006,4.3374 0,2.7461 -0.72141,4.10315 -2.81388,5.29323 -3.1846,1.81122 -7.31905,1.43825 -9.39757,-0.84778 z m 8.36096,-2.27506 c 0.59732,-0.65695 1.08604,-1.31661 1.08604,-1.46592 0,-0.14931 -0.48872,-0.80898 -1.08604,-1.46592 -1.38371,-1.52186 -3.70535,-1.52568 -5.67374,-0.009 -1.24189,0.95669 -1.40006,1.46949 -0.82057,2.66038 0.89366,1.83653 4.92145,2.01067 6.49431,0.28078 z m 8.31131,2.36916 c -2.4671,-2.71338 -2.41975,-8.07965 0.0872,-9.88628 2.9673,-2.13835 6.07131,-2.29897 9.46894,-0.49001 3.73714,1.98973 5.05689,4.62445 3.78192,7.55016 -1.97274,4.52689 -10.20564,6.27132 -13.33809,2.82613 z m 9.20764,-2.35796 c 2.18583,-1.68386 1.9342,-3.87199 -0.61176,-5.32 -2.63841,-1.50058 -5.06739,-0.93396 -6.53151,1.52365 -0.85065,1.42787 -0.92418,2.18732 -0.32999,3.40842 0.94393,1.93981 5.17373,2.15937 7.47326,0.38793 z m 25.41857,2.53434 c -1.85665,-2.91538 -1.34887,-5.46356 1.69058,-8.48366 3.28794,-3.267 6.72323,-3.7206 8.88147,-1.17273 1.12857,1.3323 4.24768,9.30228 4.24768,10.8537 0,0.27062 -0.64902,0.49204 -1.44226,0.49204 -0.96056,0 -1.69782,-0.74465 -2.20744,-2.22957 l -0.76518,-2.22957 -2.30884,2.22957 c -2.91058,2.81065 -6.49765,3.05 -8.09601,0.54022 z m 5.79466,-2.46815 c 1.08025,-0.61438 2.29262,-2.1536 2.69417,-3.42049 0.70693,-2.23032 0.66445,-2.30341 -1.3387,-2.30341 -3.36145,0 -7.14044,5.20909 -4.59765,6.33756 0.47514,0.21086 0.95709,0.41039 1.07099,0.4434 0.11391,0.033 1.09094,-0.44268 2.17119,-1.05706 z m 13.70735,2.02634 c -0.62954,-1.17213 -1.81951,-4.115 -2.64436,-6.5397 -1.33955,-3.93769 -1.38792,-4.53152 -0.45292,-5.55987 1.53582,-1.68914 2.37468,-0.68279 3.23642,3.88257 0.42225,2.23705 1.22202,4.71094 1.77724,5.49752 0.96973,1.37381 1.07721,1.34031 2.72789,-0.85017 0.94511,-1.25418 2.4205,-3.73403 3.27863,-5.51078 1.60606,-3.32532 3.02696,-4.10986 3.74034,-2.0652 0.39936,1.14459 -3.32739,8.11235 -6.18643,11.56654 -1.93848,2.34201 -4.08131,2.17733 -5.47681,-0.42091 z m 15.0733,1.47584 c -0.22733,-0.40457 -0.61114,-2.81696 -0.8529,-5.36088 -0.37628,-3.95944 -0.27803,-4.62531 0.6824,-4.62531 1.26303,0 2.05785,2.66034 2.13437,7.14402 0.048,2.81099 -1.07121,4.43072 -1.96387,2.84217 z m -1.26833,-15.36783 c -1.48854,-0.95355 -1.58485,-3.41857 -0.1571,-4.02115 1.20998,-0.51066 3.78544,2.00801 3.78544,3.70198 0,1.30157 -1.84183,1.46359 -3.62834,0.31917 z m 35.66261,-18.58129 c -0.22253,-0.63784 0.0269,-3.62744 0.55424,-6.64355 0.74729,-4.27386 1.24523,-5.5445 2.25675,-5.75875 1.20089,-0.25436 1.2629,0.10077 0.82965,4.75176 -0.52696,5.65684 -1.42395,8.81023 -2.5061,8.81023 -0.40145,0 -0.91199,-0.52186 -1.13454,-1.15969 z m -12.63687,-5.97983 c -2.86528,-1.13878 -4.18602,-3.05352 -3.00343,-4.35417 0.62308,-0.68529 1.1842,-0.63061 2.40335,0.23421 2.16695,1.53713 4.68993,2.17008 6.57545,1.64959 2.2315,-0.61598 1.32111,-1.67183 -3.52552,-4.08879 -5.28826,-2.63718 -7.22551,-4.75605 -5.9246,-6.48004 1.52167,-2.01654 4.59019,-3.38462 7.59152,-3.38462 2.33223,0 2.80754,0.23935 2.61856,1.31863 -0.14759,0.84284 -1.10946,1.47569 -2.66582,1.75392 -4.58178,0.8191 -4.62856,1.56183 -0.25005,3.97018 7.53036,4.14198 9.16714,7.32938 4.79539,9.33838 -2.85319,1.31114 -5.39173,1.32374 -8.61485,0.0427 z m -62.55539,-0.39655 c -0.23963,-0.42644 -0.22631,-2.5113 0.0296,-4.63302 0.40528,-3.36012 0.26428,-4.093 -1.09326,-5.6823 -1.58151,-1.85149 -3.84748,-10.49737 -3.0999,-11.82774 0.95534,-1.7001 2.38891,-0.54074 3.09786,2.50528 1.14346,4.91293 1.24783,5.13073 2.45883,5.13073 1.18194,0 4.78563,-3.69667 6.53184,-6.70036 0.70533,-1.21326 1.39853,-1.60105 2.23242,-1.24887 2.14837,0.90733 1.29596,3.18218 -2.63702,7.03754 -3.4934,3.42446 -3.87521,4.1103 -4.15963,7.47185 -0.57415,6.78577 -2.05091,10.27778 -3.36072,7.94689 z m -66.30012,-1.39519 c -0.19554,-0.73161 -0.57036,-4.18625 -0.83295,-7.67699 -0.4481,-5.95692 -0.39728,-6.32999 0.82728,-6.0731 0.71758,0.15053 1.39994,1.00504 1.51634,1.89889 0.21083,1.61897 0.21797,1.61822 1.86914,-0.19779 1.82506,-2.00725 4.57878,-2.39002 5.7764,-0.80291 0.95876,1.27057 0.33124,2.02036 -1.69091,2.02036 -2.40794,0 -5.25764,4.22436 -5.08159,7.53288 0.0799,1.50072 0.10172,3.15614 0.0486,3.67871 -0.14574,1.43344 -2.02615,1.13962 -2.43231,-0.38005 z m 113.65157,-0.0939 c -0.40584,-0.83404 -0.7379,-4.27531 -0.7379,-7.64727 0,-4.94289 0.20087,-6.13083 1.03667,-6.13083 0.65453,0 1.03667,0.72538 1.03667,1.96783 v 1.96785 l 2.12637,-1.96785 c 2.18149,-2.01886 3.16664,-2.31136 5.07378,-1.50645 1.7063,0.72013 1.30408,2.57905 -0.55802,2.57905 -3.09153,0 -4.84975,2.43716 -5.24579,7.27147 -0.37772,4.61085 -1.48878,6.02061 -2.73178,3.4662 z m -134.12257,-8.0324 c 0,-4.78301 -0.29742,-8.89855 -0.66093,-9.14564 -1.25987,-0.85638 0.11948,-2.65495 2.63024,-3.42964 7.17736,-2.21456 13.15182,-3.15433 14.6072,-2.29768 0.81169,0.47777 1.37928,1.37863 1.26132,2.0019 -0.1607,0.84914 -1.42725,1.18434 -5.05226,1.33714 -2.66078,0.11214 -6.00403,0.75883 -7.42945,1.43707 -2.3838,1.13426 -2.59167,1.48015 -2.59167,4.31239 0,3.5332 0.007,3.53562 6.6745,2.18451 3.44496,-0.69812 4.60003,-0.69117 5.25725,0.0316 1.18753,1.30609 0.13402,1.88141 -6.49385,3.54629 -5.47797,1.37604 -5.52175,1.40617 -5.41026,3.72264 0.20693,4.29958 0.0104,4.99575 -1.40987,4.99575 -1.30168,0 -1.38222,-0.50675 -1.38222,-8.69638 z m 33.48753,6.83065 c -1.30124,-1.43114 -1.69637,-2.66687 -1.69637,-5.3053 0,-3.24183 0.15736,-3.52788 2.73692,-4.97525 3.41927,-1.91853 5.58709,-1.93714 8.90334,-0.0764 3.33771,1.87277 4.62003,4.7179 3.39421,7.53084 -1.97275,4.52689 -10.20564,6.27131 -13.3381,2.82613 z m 9.20765,-2.35796 c 2.29234,-1.76592 1.94435,-3.94793 -0.86458,-5.42114 -1.94005,-1.0175 -2.73945,-1.08924 -4.16687,-0.37393 -2.09426,1.04946 -3.20669,3.76825 -2.31102,5.64814 0.81117,1.70255 5.20888,1.79054 7.34247,0.14693 z m 8.21676,3.71695 c -0.25341,-0.27871 -0.46074,-2.67305 -0.46074,-5.32076 0,-3.67325 0.23477,-4.81401 0.99076,-4.81401 0.56087,0 1.09675,0.90697 1.23503,2.09029 l 0.24427,2.0903 1.35664,-2.46555 c 0.88244,-1.60373 1.90017,-2.46722 2.91164,-2.47035 1.28979,-0.004 1.55896,0.41653 1.57818,2.46555 l 0.0231,2.47035 2.1172,-2.8504 c 2.15762,-2.90483 3.58794,-3.539 4.46436,-1.97937 0.95078,1.69198 2.16059,10.57406 1.50131,11.0222 -0.9714,0.66029 -2.00155,-0.80952 -2.51949,-3.59483 -0.64729,-3.48082 -1.55893,-3.47001 -3.91409,0.0464 -2.34872,3.50685 -3.94784,3.64556 -4.46276,0.38709 l -0.35888,-2.27105 -1.60338,2.85041 c -1.59504,2.83562 -2.22402,3.31064 -3.10322,2.34366 z m 49.99045,-0.0208 c -1.90066,-0.7471 -2.76444,-2.76869 -2.76444,-6.46993 0,-3.31165 0.21734,-3.81648 2.24611,-5.21713 4.20857,-2.90557 11.02839,-0.65086 12.58626,4.16115 0.80744,2.49406 0.0916,3.96946 -3.07774,6.34316 -2.20032,1.64797 -6.40075,2.20058 -8.99019,1.18275 z m 8.13957,-3.69619 c 2.01949,-1.55572 1.93931,-2.91815 -0.28498,-4.84244 -2.30459,-1.99377 -4.41289,-2.00227 -6.34204,-0.0255 -1.67749,1.71883 -1.94735,3.74878 -0.68321,5.13912 1.17431,1.29155 5.48947,1.1315 7.31023,-0.27113 z m 8.80419,2.40517 c -2.6676,-2.93391 -2.30477,-11.10332 0.49313,-11.10332 1.23581,0 1.33321,0.3438 0.93171,3.28852 -0.24661,1.80869 -0.24865,3.86098 -0.005,4.56065 1.15449,3.3089 5.19671,-0.34257 6.60966,-5.97071 0.36432,-1.45122 1.10836,-2.63856 1.65342,-2.63856 1.14376,0 1.48049,1.45142 1.98383,8.55121 0.27195,3.83594 0.14357,5.13073 -0.50871,5.13073 -1.29904,0 -2.5308,-1.6228 -2.5308,-3.33467 0,-1.39884 -0.14037,-1.36585 -1.90056,0.44668 -2.94249,3.03001 -4.69144,3.30807 -6.72684,1.06947 z M 780.59943,294.18481 c -0.87252,-0.96279 -2.81657,-3.52815 -4.3201,-5.70081 -1.50352,-2.17266 -2.94269,-3.95029 -3.19815,-3.95029 -0.94323,0 -1.96178,2.04926 -2.62,5.27124 -0.94665,4.63382 -3.43598,6.14966 -4.95902,3.01973 -0.58317,-1.19844 -0.514,-3.58704 0.28062,-9.69137 0.57999,-4.45552 1.26212,-11.00836 1.51583,-14.56187 0.52134,-7.30164 1.59907,-9.8814 4.12811,-9.8814 1.4706,0 1.71183,0.34815 1.71173,2.47035 -7e-5,1.3587 -0.47216,5.18348 -1.0491,8.49954 -0.59265,3.40631 -0.78813,6.31608 -0.44935,6.68868 0.33878,0.3726 2.74951,-2.12558 5.54154,-5.74255 8.73568,-11.31677 12.27259,-14.1905 14.47884,-11.764 1.53313,1.6862 0.85259,3.00834 -4.24175,8.24087 -2.7891,2.86474 -6.36968,7.05986 -7.95683,9.3225 l -2.88574,4.11387 2.77348,3.33705 c 1.52542,1.83538 2.77349,3.58497 2.77349,3.88796 0,0.303 0.933,1.08154 2.07333,1.7301 2.65577,1.51046 2.98034,5.25617 0.51834,5.98183 -2.27808,0.67145 -2.38424,0.63865 -4.11527,-1.27143 z m -65.85985,-0.88158 c -1.52045,-0.60763 -3.6197,-2.15064 -4.66501,-3.42892 -1.78035,-2.17715 -1.89663,-2.74406 -1.8384,-8.96311 0.0342,-3.65142 0.42294,-11.21973 0.86389,-16.81847 0.83996,-10.66496 1.49016,-12.37653 4.25789,-11.20842 1.04094,0.43933 1.15858,1.11464 0.78245,4.49159 -0.24348,2.18599 -0.64653,7.52085 -0.89566,11.85525 l -0.45297,7.88073 1.66502,-0.59612 c 2.34444,-0.83939 9.59892,-0.65149 11.82277,0.30621 2.27463,0.97957 3.94518,3.64274 4.45578,7.10331 0.96929,6.56933 -8.75616,12.27114 -15.99576,9.37795 z m 8.58538,-5.31859 c 4.36654,-2.48346 2.44874,-7.65107 -2.82265,-7.60575 -3.59391,0.0309 -7.03574,1.73894 -7.37184,3.65833 -0.13407,0.76572 0.46059,2.21683 1.32147,3.22468 1.83913,2.1531 5.79196,2.47507 8.87302,0.72274 z m -79.44668,4.50066 c -1.33677,-1.7715 -1.55474,-28.87066 -0.24187,-30.06903 0.52539,-0.47956 0.95527,-2.20672 0.95527,-3.83812 0,-2.50121 0.28401,-3.08492 1.81184,-3.7238 1.07222,-0.44835 2.13018,-0.48066 2.59168,-0.0791 0.4289,0.37318 2.49032,1.10216 4.58094,1.61995 7.44348,1.84354 14.03406,4.78961 16.74854,7.48681 2.28339,2.26885 2.64241,3.04818 2.46486,5.35051 -0.1647,2.13572 -0.80094,3.19108 -3.06649,5.08653 -1.57227,1.31542 -4.13803,2.61667 -5.70168,2.89167 -1.56365,0.27501 -2.81955,0.7525 -2.79089,1.0611 0.0287,0.30861 2.36117,2.7218 5.18334,5.36266 4.53669,4.2452 5.13124,5.1039 5.13124,7.41105 0,3.64009 -1.39608,3.38486 -5.74305,-1.04998 -1.97284,-2.01271 -6.07497,-5.84842 -9.11587,-8.52379 -6.6179,-5.82243 -6.62776,-5.83586 -6.40006,-8.7197 0.21821,-2.76369 2.16307,-3.34039 5.2823,-1.56634 2.65362,1.50924 7.1626,1.52148 9.79099,0.0266 3.80133,-2.16199 2.02675,-4.77125 -5.20974,-7.66018 -4.39462,-1.75441 -11.71406,-2.5005 -12.27843,-1.25157 -0.14167,0.31355 -0.0471,6.89798 0.2103,14.63208 0.39911,11.99486 0.31364,14.25753 -0.58141,15.39218 -1.29382,1.64017 -2.46607,1.69211 -3.62181,0.16049 z m 38.25096,0.0572 c -3.04767,-1.45785 -4.36417,-4.65389 -4.36417,-10.59487 v -4.94193 l 3.2467,-2.4568 c 5.93976,-4.49464 13.41402,-3.7343 19.01308,1.93414 1.40971,1.42717 2.77341,3.51646 3.03046,4.64288 0.94668,4.1484 -3.11115,9.63036 -8.6339,11.66404 -3.17902,1.17064 -9.59774,1.04142 -12.29217,-0.24746 z m 11.84541,-4.52477 c 2.9074,-1.33608 4.8104,-4.33377 4.16685,-6.56383 -0.63773,-2.20991 -7.19849,-5.514 -9.62102,-4.84528 -4.93711,1.36284 -7.54142,7.65945 -4.5354,10.96556 1.67306,1.84008 6.48558,2.05376 9.98957,0.44355 z m 45.44632,4.49213 c -3.01972,-1.44299 -4.33266,-5.00409 -4.11612,-11.16417 l 0.1681,-4.78176 3.77054,-2.47601 c 2.94117,-1.93138 4.5481,-2.476 7.30553,-2.476 6.90642,0 14.14952,5.94519 14.14952,11.61403 0,3.04016 -4.85515,8.42125 -8.64118,9.57724 -3.78962,1.15708 -9.89785,1.01529 -12.63639,-0.29333 z m 11.82021,-4.27055 c 2.50811,-1.42071 4.61958,-3.88562 4.61958,-5.39283 0,-3.55156 -6.99704,-7.53212 -10.47211,-5.9575 -4.84313,2.19452 -6.91458,7.52501 -4.11905,10.59964 1.65693,1.82234 7.32623,2.24914 9.97158,0.75069 z m 44.5313,4.59473 c -1.60332,-1.02708 -3.28277,-4.69641 -3.28277,-7.17235 0,-2.54544 1.00772,-4.67524 3.71127,-7.84374 3.09482,-3.62705 5.34229,-4.68582 9.94669,-4.68582 3.76538,0 4.16936,0.17419 5.72928,2.47035 1.77209,2.60846 6.14602,14.46324 6.16987,16.72237 0.0189,1.79434 -2.87229,1.76162 -4.36244,-0.0493 -0.62433,-0.75875 -1.4745,-2.45023 -1.88928,-3.75885 l -0.75414,-2.37931 -2.12154,2.65752 c -1.16685,1.46164 -2.99292,3.15312 -4.05796,3.75885 -2.22335,1.26452 -7.3078,1.42134 -9.08898,0.28034 z m 9.9409,-7.25764 c 1.90213,-2.00427 4.008,-7.42763 3.22046,-8.29378 -0.946,-1.04046 -6.45155,0.81787 -8.61635,2.90834 -3.04848,2.94381 -3.65725,4.31613 -2.89747,6.53157 0.55148,1.60807 0.93432,1.7624 3.451,1.39114 1.78692,-0.2636 3.57249,-1.19919 4.84236,-2.53727 z m 21.53326,6.3684 c -1.80134,-2.16669 -3.14502,-5.16017 -4.69136,-10.45148 -0.67196,-2.29933 -1.51282,-4.58581 -1.86857,-5.08108 -0.99918,-1.39102 -0.34819,-5.68992 1.0025,-6.62005 2.21583,-1.52592 3.41608,0.32539 4.68695,7.22934 1.74398,9.47414 3.52052,11.96731 6.28224,8.81647 1.92602,-2.19739 6.82254,-10.42242 6.84232,-11.49353 0.008,-0.45776 0.58155,-1.64201 1.27356,-2.63168 1.71931,-2.45885 4.23997,-1.65627 4.23997,1.35001 0,2.2762 -6.34976,13.35986 -10.27769,17.93995 -2.70382,3.15274 -5.37291,3.48845 -7.48992,0.94205 z m 23.31728,0.59761 c -0.46703,-0.61892 -1.00918,-4.49772 -1.22179,-8.74124 -0.3731,-7.447 -0.34655,-7.62861 1.11534,-7.62861 1.69623,0 2.38731,1.51593 3.32043,7.28362 0.90773,5.61079 0.39067,10.19886 -1.14939,10.19886 -0.67375,0 -1.60282,-0.50068 -2.06459,-1.11263 z m -1.93636,-24.906 c -3.21591,-1.7046 -2.52494,-6.666 0.92837,-6.666 1.75129,0 5.13389,4.17902 5.13389,6.34263 0,1.48024 -3.52496,1.66826 -6.06226,0.32337 z"
       id="path177" />
  </g>
</svg>
